#N struct 1004-point float x0 float y0 float xs float ys float fg float in float gridx float gridy;
#N struct 1017-point float x0 float y0 float xs float ys float fg float in float gridx float gridy;
#N canvas -127 99 1920 956 12;
#X declare ./abs;
#X obj 17 42 cnv 15 320 240 empty empty MediaPipe\ Connection 20 20 0 18 #e3c6ff #404040 0;
#X listbox 176 230 16 0 0 0 - - - 0;
#X obj 176 94 r \$0-armRightXY-r;
#X obj 176 253 s \$0-armRightXY-s;
#X obj 176 118 else/slider2d 101 101 0 127 0 127 1 255 255 255 0 0 0 0 0 0 62.6745 79.0569 empty empty;
#X listbox 36 230 16 0 0 0 - - - 0;
#X obj 36 118 else/slider2d 101 101 0 127 0 127 1 255 255 255 0 0 0 0 0 0 62.2103 78.0123 empty empty;
#X obj 36 253 s \$0-armLeftXY-s;
#X obj 36 94 r \$0-armLeftXY-r;
#X obj 18 290 cnv 19 900 100 empty empty Emotion\ Detection\ Switch 20 20 0 18 #c6feff #404040 0;
#X obj 53 348 bng 19 250 50 0 \$0-love-s \$0-love-r Love 0 -10 0 14 #000000 #ff0400 #000000;
#X obj 103 348 bng 19 250 50 0 \$0-hate-s \$0-hate-r Hate 0 -10 0 14 #000000 #ff0400 #000000;
#X obj 153 348 bng 19 250 50 0 \$0-sadness-s \$0-sadness-r Sadness 0 -10 0 14 #000000 #ff0400 #000000;
#X obj 223 348 bng 19 250 50 0 \$0-joy-s \$0-joy-r Joy 0 -10 0 14 #000000 #ff0400 #000000;
#X obj 263 348 bng 19 250 50 0 \$0-desire-s \$0-desire-r Desire 0 -10 0 14 #000000 #ff0400 #000000;
#X obj 323 348 bng 19 250 50 0 \$0-admiration-s \$0-admiration-r Admiration 0 -10 0 14 #000000 #ff0400 #000000;
#X obj 346 41 cnv 15 340 240 empty empty Empatica\ E4\ &\ EEG\ Connection 12 20 0 18 #c7c6ff #404040 0;
#X obj 396 119 hsl 101 19 0 127 0 1 \$0-pressure-s \$0-pressure-r BVP -2 -10 0 12 #d8fcfc #000000 #000000 3297 1;
#X obj 396 159 hsl 101 19 0 127 0 1 \$0-temperature-s \$0-temperature-r temperature -2 -10 0 12 #d8fcfc #000000 #000000 3811 1;
#X obj 396 199 hsl 101 19 0 127 0 1 \$0-electricity-s \$0-electricity-r electricity -2 -10 0 12 #d8fcfc #000000 #000000 2037 1;
#X obj 396 239 hsl 101 19 0 127 0 1 \$0-heartRate-s \$0-heartRate-r heartRate -2 -10 0 12 #d8fcfc #000000 #000000 2695 1;
#X obj 536 119 hsl 101 19 0 127 0 1 \$0-engagement-s \$0-engagement-r EEG:\ engagement -2 -10 0 12 #d8fcfc #000000 #000000 10000 1;
#X obj 698 40 cnv 15 220 240 empty empty Main 12 20 0 18 #feffc6 #404040 0;
#N canvas 0 22 450 278 (subpatch) 0;
#X array \$0-scope 4410 float 0;
#X coords 0 1 4409 -1 188 100 1 0 0;
#X restore 712 110 graph;
#X obj 719 247 hsl 101 19 0 1 0 1 \$0-volumen-s \$0-volumen-r Volumen -2 -10 0 12 #000000 #ffffff #000000 9800 1;
#X text 783 229 1;
#X text 814 229 2;
#X obj 17 397 cnv 19 900 435 empty empty OSC\ Communication\ Structure 20 20 0 18 #c6ffc7 #404040 0;
#X obj 34 614 oscparse;
#X listbox 124 633 34 0 0 0 - - - 0;
#X obj 34 555 netreceive -u -b;
#X msg 34 500 listen 5000;
#X msg 46 528 listen 0;
#X text 113 527 stop listening;
#X text 31 476 packets from network;
#X text 119 500 listen on port 5000;
#X text 156 549 UDP packets \, binary output, f 13;
#N canvas 320 83 1280 756 guts 0;
#X obj 186 382 catch~ \$0-left;
#X obj 176 520 dac~ 1;
#X obj 306 520 dac~ 2;
#X obj 316 382 catch~ \$0-right;
#X obj 176 299 catch~ \$0-mono;
#X obj 31 433 loadbang;
#X msg 30 457 1;
#X obj 30 481 metro 100;
#X obj 30 505 tabwrite~ \$0-scope;
#N canvas 68 96 839 701 pressure-y-electricity 0;
#X obj 308 264 *~ 0.2;
#X obj 308 182 else/resonant~ 61.73 500;
#X obj 333 211 else/resonant~ 184.9 37;
#X obj 333 235 *~ 0.3;
#X obj 253 413 else/drive~;
#X obj 386 274 r \$0-pressure-s;
#X obj 386 298 / 127;
#X obj 386 322 * 24;
#X obj 386 346 + 100;
#X obj 386 370 dbtorms;
#X obj 386 394 else/f2s~ 20;
#X obj 308 124 else/pink~;
#X obj 35 218 noise~;
#X obj 102 50 r \$0-electricity-s;
#X obj 102 74 / 127;
#X msg 102 98 1 \$1;
#X obj 102 122 -;
#X msg 102 194 10 \$1;
#X obj 102 218 pow;
#X obj 102 170 + 2;
#X obj 102 146 * 2;
#X obj 65 305 *~ 0.02;
#X obj 35 276 else/highpass~ 3000 0.7;
#X obj 253 384 +~;
#X text 440 333 <- de 0 a +24 dB de distorsion;
#X text 145 202 <- de 10k a 100;
#X text 102 30 GUI: electricity;
#X obj 35 513 throw~ \$0-reverb;
#X obj 35 489 *~ 0.15;
#X obj 308 153 else/power~ 3;
#X obj 35 247 else/power~ 100;
#X text 386 255 GUI: blood pressure;
#X obj 672 301 / 127;
#X text 672 257 GUI:engagement;
#X obj 672 277 r \$0-engagement-s;
#X msg 672 325 1 \$1;
#X obj 672 349 -;
#X obj 672 373 * 0.7;
#X msg 667 424 \$1 20;
#X obj 667 448 line~;
#X obj 277 485 *~;
#X obj 672 397 + 0.3;
#X obj 277 509 *~ 0.7;
#X obj 277 533 throw~ \$0-mono;
#X connect 0 0 23 1;
#X connect 1 0 0 0;
#X connect 2 0 3 0;
#X connect 3 0 0 0;
#X connect 4 0 40 0;
#X connect 5 0 6 0;
#X connect 6 0 7 0;
#X connect 7 0 8 0;
#X connect 8 0 9 0;
#X connect 9 0 10 0;
#X connect 10 0 4 1;
#X connect 11 0 29 0;
#X connect 12 0 30 0;
#X connect 13 0 14 0;
#X connect 14 0 15 0;
#X connect 15 0 16 0;
#X connect 16 0 20 0;
#X connect 17 0 18 0;
#X connect 18 0 30 1;
#X connect 19 0 17 0;
#X connect 20 0 19 0;
#X connect 21 0 23 0;
#X connect 22 0 21 0;
#X connect 23 0 4 0;
#X connect 28 0 27 0;
#X connect 29 0 1 0;
#X connect 29 0 2 0;
#X connect 30 0 22 0;
#X connect 32 0 35 0;
#X connect 34 0 32 0;
#X connect 35 0 36 0;
#X connect 36 0 37 0;
#X connect 37 0 41 0;
#X connect 38 0 39 0;
#X connect 39 0 40 1;
#X connect 40 0 42 0;
#X connect 41 0 38 0;
#X connect 42 0 43 0;
#X restore 930 305 pd pressure-y-electricity;
#X obj 551 174 catch~ \$0-reverb;
#X obj 551 390 throw~ \$0-left;
#X obj 653 365 throw~ \$0-right;
#X obj 394 173 / 127;
#X obj 394 197 - 0.5;
#X obj 394 149 r \$0-temperature-s;
#X obj 394 221 * 2;
#X obj 394 245 t f f;
#X obj 295 219 clip -0.5 1;
#X obj 426 284 clip -1 0.5;
#X obj 176 328 else/lowshelf~ 1000 0.5;
#X obj 176 353 else/highshelf~ 3000 0.5;
#X obj 294 243 * 12;
#X obj 426 310 * -12;
#X text 394 129 GUI:temperature;
#X obj 306 486 else/drive~;
#X obj 176 486 else/drive~;
#X obj 294 267 else/f2s~ 100;
#X obj 426 334 else/f2s~ 100;
#N canvas 131 22 633 626 heartRate 0;
#X obj 396 2 r \$0-heartRate-s;
#X obj 396 26 / 127;
#X obj 396 50 * 40;
#X obj 396 74 + 60;
#X msg 396 98 60000 \$1;
#X obj 396 122 /;
#X obj 285 93 loadbang;
#X msg 285 117 1;
#X obj 285 141 metro;
#X obj 95 422 else/lowpass~;
#X obj 95 263 else/pink~;
#X obj 183 398 sig~ 0.4;
#X obj 436 151 v \$0-latidoMs;
#X obj 313 315 vline~;
#X obj 139 383 mtof~;
#X obj 156 461 else/drive~;
#X obj 295 490 *~;
#X obj 295 593 throw~ \$0-mono;
#X msg 252 252 1 1 \, 0 160 1;
#X obj 139 354 *~ 100;
#X obj 95 292 else/resonant~ 110 250;
#X obj 370 218 delay;
#X obj 402 186 / 4;
#X msg 32 227 clear;
#X msg 370 241 0.7 1 \, 0 160 1;
#X obj 313 426 sqrt~;
#X obj 422 593 throw~ \$0-reverb;
#X obj 422 569 *~ 0.1;
#X obj 295 569 *~ 0.2;
#X obj 448 358 / 127;
#X text 448 314 GUI:engagement;
#X obj 448 334 r \$0-engagement-s;
#X msg 448 382 1 \$1;
#X obj 448 406 -;
#X obj 448 430 * 0.7;
#X msg 443 481 \$1 20;
#X obj 443 505 line~;
#X obj 295 514 *~;
#X obj 448 454 + 0.3;
#X connect 0 0 1 0;
#X connect 1 0 2 0;
#X connect 2 0 3 0;
#X connect 3 0 4 0;
#X connect 4 0 5 0;
#X connect 5 0 8 1;
#X connect 5 0 12 0;
#X connect 5 0 22 0;
#X connect 6 0 7 0;
#X connect 7 0 8 0;
#X connect 8 0 18 0;
#X connect 8 0 23 0;
#X connect 8 0 21 0;
#X connect 9 0 15 0;
#X connect 10 0 20 0;
#X connect 11 0 9 2;
#X connect 13 0 19 0;
#X connect 13 0 25 0;
#X connect 14 0 9 1;
#X connect 15 0 16 0;
#X connect 16 0 37 0;
#X connect 18 0 13 0;
#X connect 19 0 14 0;
#X connect 20 0 9 0;
#X connect 21 0 24 0;
#X connect 22 0 21 1;
#X connect 23 0 9 0;
#X connect 23 0 20 0;
#X connect 24 0 13 0;
#X connect 25 0 16 1;
#X connect 27 0 26 0;
#X connect 28 0 17 0;
#X connect 29 0 32 0;
#X connect 31 0 29 0;
#X connect 32 0 33 0;
#X connect 33 0 34 0;
#X connect 34 0 38 0;
#X connect 35 0 36 0;
#X connect 36 0 37 1;
#X connect 37 0 28 0;
#X connect 37 0 27 0;
#X connect 38 0 35 0;
#X restore 930 281 pd heartRate;
#N canvas 10 136 805 364 bioRand 0;
#X obj 418 263 line;
#X msg 418 239 \$1 20000;
#X obj 578 263 line;
#X msg 578 239 \$1 20000;
#X obj 278 263 line;
#X msg 278 239 \$1 20000;
#X obj 278 287 s \$0-temperature-r;
#X obj 418 287 s \$0-electricity-r;
#X obj 578 287 s \$0-heartRate-r;
#X obj 128 263 line;
#X msg 128 239 \$1 20000;
#X obj 128 287 s \$0-pressure-r;
#X obj 128 215 else/rand.i 0 127;
#X obj 278 215 else/rand.i 0 127;
#X obj 418 215 else/rand.i 0 127;
#X obj 578 215 else/rand.i 0 127;
#X obj 96 87 t f f;
#X msg 36 244 stop;
#X obj 128 116 metro 10000;
#X obj 96 63 r \$0-bioRand-s;
#X obj 37 134 sel 0;
#X connect 0 0 7 0;
#X connect 1 0 0 0;
#X connect 2 0 8 0;
#X connect 3 0 2 0;
#X connect 4 0 6 0;
#X connect 5 0 4 0;
#X connect 9 0 11 0;
#X connect 10 0 9 0;
#X connect 12 0 10 0;
#X connect 13 0 5 0;
#X connect 14 0 1 0;
#X connect 15 0 3 0;
#X connect 16 0 20 0;
#X connect 16 1 18 0;
#X connect 17 0 9 0;
#X connect 17 0 4 0;
#X connect 17 0 2 0;
#X connect 17 0 0 0;
#X connect 18 0 12 0;
#X connect 18 0 15 0;
#X connect 18 0 14 0;
#X connect 18 0 13 0;
#X connect 19 0 16 0;
#X connect 20 0 17 0;
#X restore 920 467 pd bioRand;
#N canvas 367 141 450 300 comentarios 0;
#X text 31 29 Brazo izquierdo (mano \, codo \, hombro);
#X text 29 49 Brazo derecho (mano \, codo \, hombro);
#X text 33 136 Brazos (izq y der);
#X text 34 156 Codos (izq y der);
#X text 34 176 Hombros (izq y der);
#X text 34 116 Cabeza;
#X text 34 216 Rodillas (izq y der);
#X text 34 236 Pies (izq y der);
#X text 34 196 Caderas (izq y der);
#X text 23 86 Open pose: controla la base;
#X text 243 86 Biomeotricos: agregan matiz;
#X restore 930 516 pd comentarios;
#N canvas 272 313 755 363 poseRand 0;
#X obj 254 209 line;
#X obj 107 209 line;
#X obj 127 238 pack f f;
#X obj 107 161 else/rand.i 0 127;
#X obj 254 161 else/rand.i 0 127;
#X obj 120 26 r \$0-poseRand-s;
#X obj 120 50 t f f;
#X obj 152 79 metro 2000;
#X msg 37 190 stop;
#X obj 564 209 line;
#X obj 417 209 line;
#X obj 437 238 pack f f;
#X obj 417 161 else/rand.i 0 127;
#X obj 564 161 else/rand.i 0 127;
#X obj 127 267 s \$0-armLeftXY-r;
#X obj 437 267 s \$0-armRightXY-r;
#X obj 37 94 sel 0;
#X msg 107 185 \$1 1000;
#X msg 254 185 \$1 1000;
#X msg 417 185 \$1 1000;
#X msg 564 185 \$1 1000;
#X obj 317 62 metro 1;
#X connect 0 0 2 1;
#X connect 1 0 2 0;
#X connect 2 0 14 0;
#X connect 3 0 17 0;
#X connect 4 0 18 0;
#X connect 5 0 6 0;
#X connect 6 0 16 0;
#X connect 6 1 7 0;
#X connect 6 1 21 0;
#X connect 7 0 3 0;
#X connect 7 0 13 0;
#X connect 7 0 12 0;
#X connect 7 0 4 0;
#X connect 8 0 1 0;
#X connect 8 0 0 0;
#X connect 8 0 10 0;
#X connect 8 0 9 0;
#X connect 9 0 11 1;
#X connect 10 0 11 0;
#X connect 11 0 15 0;
#X connect 12 0 19 0;
#X connect 13 0 20 0;
#X connect 16 0 8 0;
#X connect 17 0 1 0;
#X connect 18 0 0 0;
#X connect 19 0 10 0;
#X connect 20 0 9 0;
#X connect 21 0 2 0;
#X connect 21 0 11 0;
#X restore 920 491 pd poseRand;
#X text 920 447 Rand;
#X text 780 231 Sub patches –––––––––––––;
#X obj 176 454 *~;
#X obj 430 363 r \$0-volumen-s;
#X obj 430 387 pow 2;
#X obj 430 411 * 2;
#X obj 430 435 else/f2s~ 100;
#X obj 306 454 *~;
#X text 930 261 Biometrics;
#X text 780 261 Mediapipe;
#N canvas 333 22 903 756 armLeft-Love 0;
#X obj 601 624 throw~ \$0-reverb;
#X obj 27 50 / 127;
#X obj 253 86 / 127;
#X obj 27 26 r \$0-armLeftX;
#X obj 253 62 r \$0-armLeftY;
#X obj 741 657 == 0;
#X obj 741 681 switch~;
#X obj 27 122 * 7;
#X obj 27 146 + 0.5;
#X obj 27 170 i;
#X obj 27 194 t f f;
#X obj 27 218 % 7;
#X obj 27 266 +;
#X obj 153 213 div 7;
#X obj 153 247 * 12;
#X obj 27 338 line~;
#X obj 27 362 mtof~;
#X obj 27 386 phasor~;
#X obj 27 410 *~;
#X obj 144 341 /~;
#X obj 144 317 sig~ 1;
#X obj 382 155 pow 2;
#X obj 27 458 -~ 0.25;
#X obj 27 481 cos~;
#X obj 333 512 *~;
#X obj 27 434 clip~ 0 1;
#X msg 235 182 1 \$1;
#X obj 235 206 -;
#X obj 234 257 * 0.9;
#X obj 234 281 + 0.1;
#X obj 235 230 pow 2;
#X msg 234 305 \$1 20;
#X obj 234 329 line~;
#X obj 465 93 loadbang;
#X obj 465 117 t b b;
#X obj 498 146 f \$0;
#X msg 498 170 seed \$1;
#X obj 471 205 random 101;
#X obj 471 229 / 100;
#X obj 471 277 + 2;
#X obj 471 301 osc~;
#X obj 471 325 *~ 0.1;
#X obj 471 253 * 5;
#X obj 27 242 tabread \$0-scale;
#X obj 251 120 t f f;
#X obj 741 633 r \$0-passion;
#X obj 704 235 r \$0-armLeftAccXY;
#X obj 704 413 line~;
#X obj 382 179 * 0.5;
#X obj 382 203 + 0.5;
#X msg 382 227 \$1 20;
#X obj 382 251 line~;
#X obj 521 595 *~;
#X obj 333 536 *~ 0.1;
#X obj 27 98 + 2;
#X msg 27 314 \$1 20;
#X obj 704 259 clip 1 3;
#X obj 704 283 - 1;
#X obj 782 360 / 2;
#X obj 491 639 *~ 0.1;
#X obj 491 663 throw~ \$0-mono;
#X obj 27 73 * 2;
#X obj 704 307 change -1;
#X obj 704 331 select 0;
#X obj 704 360 delay 250;
#X msg 704 384 0 500;
#X msg 782 384 \$1 100;
#X obj 27 290 + 12;
#X obj 333 560 else/lowpass~ 500 0.4;
#X connect 1 0 61 0;
#X connect 2 0 44 0;
#X connect 3 0 1 0;
#X connect 4 0 2 0;
#X connect 5 0 6 0;
#X connect 7 0 8 0;
#X connect 8 0 9 0;
#X connect 9 0 10 0;
#X connect 10 0 11 0;
#X connect 10 1 13 0;
#X connect 11 0 43 0;
#X connect 12 0 67 0;
#X connect 13 0 14 0;
#X connect 14 0 12 1;
#X connect 15 0 16 0;
#X connect 16 0 17 0;
#X connect 17 0 18 0;
#X connect 18 0 25 0;
#X connect 19 0 18 1;
#X connect 20 0 19 0;
#X connect 21 0 48 0;
#X connect 22 0 23 0;
#X connect 23 0 24 0;
#X connect 24 0 53 0;
#X connect 25 0 22 0;
#X connect 26 0 27 0;
#X connect 27 0 30 0;
#X connect 28 0 29 0;
#X connect 29 0 31 0;
#X connect 30 0 28 0;
#X connect 31 0 32 0;
#X connect 32 0 19 1;
#X connect 33 0 34 0;
#X connect 34 0 37 0;
#X connect 34 1 35 0;
#X connect 35 0 36 0;
#X connect 36 0 37 0;
#X connect 37 0 38 0;
#X connect 38 0 42 0;
#X connect 39 0 40 0;
#X connect 40 0 41 0;
#X connect 41 0 16 0;
#X connect 42 0 39 0;
#X connect 43 0 12 0;
#X connect 44 0 26 0;
#X connect 44 1 21 0;
#X connect 45 0 5 0;
#X connect 46 0 56 0;
#X connect 47 0 52 1;
#X connect 48 0 49 0;
#X connect 49 0 50 0;
#X connect 50 0 51 0;
#X connect 51 0 24 1;
#X connect 52 0 0 0;
#X connect 52 0 59 0;
#X connect 53 0 68 0;
#X connect 54 0 7 0;
#X connect 55 0 15 0;
#X connect 56 0 57 0;
#X connect 57 0 62 0;
#X connect 58 0 66 0;
#X connect 59 0 60 0;
#X connect 61 0 54 0;
#X connect 62 0 63 0;
#X connect 63 0 64 0;
#X connect 63 1 58 0;
#X connect 64 0 65 0;
#X connect 65 0 47 0;
#X connect 66 0 47 0;
#X connect 67 0 55 0;
#X connect 68 0 52 0;
#X restore 780 289 pd armLeft-Love;
#N canvas 0 22 1280 756 armRight-Love 0;
#X obj 616 463 abs~;
#X obj 721 348 / 127;
#X obj 616 318 / 127;
#X obj 351 540 *~;
#X obj 351 611 throw~ \$0-reverb;
#X obj 27 41 / 127;
#X obj 515 606 *~ 0.5;
#X obj 515 635 throw~ \$0-mono;
#X obj 616 439 hip~ 0.2;
#X obj 616 391 *~ 2;
#X obj 616 415 clip~ 0 1;
#X obj 253 56 / 127;
#X obj 616 342 else/f2s~ 100;
#X obj 721 372 else/f2s~ 100;
#X obj 616 511 clip~ 0 1;
#X obj 801 488 == 0;
#X obj 801 512 switch~;
#X obj 27 92 * 7;
#X obj 27 116 + 0.5;
#X obj 27 140 i;
#X obj 27 164 t f f;
#X obj 27 188 % 7;
#X obj 27 236 +;
#X obj 153 183 div 7;
#X obj 153 217 * 12;
#X obj 27 308 line~;
#X obj 27 332 mtof~;
#X obj 27 356 phasor~;
#X obj 27 380 *~;
#X obj 144 311 /~;
#X obj 144 287 sig~ 1;
#X obj 382 125 pow 2;
#X msg 382 149 \$1 20;
#X obj 382 173 line~;
#X obj 27 428 -~ 0.25;
#X obj 27 451 cos~;
#X obj 339 449 *~;
#X obj 27 404 clip~ 0 1;
#X msg 235 152 1 \$1;
#X obj 235 176 -;
#X obj 234 227 * 0.9;
#X obj 234 251 + 0.1;
#X obj 235 200 pow 2;
#X msg 234 275 \$1 20;
#X obj 234 299 line~;
#X obj 535 103 loadbang;
#X obj 535 127 t b b;
#X obj 568 156 f \$0;
#X msg 568 180 seed \$1;
#X obj 541 215 random 101;
#X obj 541 239 / 100;
#X obj 541 287 + 2;
#X obj 541 311 osc~;
#X obj 541 335 *~ 0.1;
#X obj 541 263 * 5;
#X obj 27 212 tabread \$0-scale;
#X obj 251 90 t f f;
#X obj 27 68 * 5;
#X obj 801 464 r \$0-passion;
#X obj 616 294 r \$0-armRightAccX;
#X obj 721 324 r \$0-armRightAccY;
#X obj 253 32 r \$0-armRightY;
#X obj 27 17 r \$0-armRightX;
#X msg 27 284 \$1 1;
#X obj 27 260 + 12;
#X obj 332 506 else/lowpass~ 500 0.4;
#X obj 617 487 *~ 2;
#X connect 0 0 66 0;
#X connect 1 0 13 0;
#X connect 2 0 12 0;
#X connect 3 0 4 0;
#X connect 3 0 6 0;
#X connect 5 0 57 0;
#X connect 6 0 7 0;
#X connect 8 0 0 0;
#X connect 9 0 10 0;
#X connect 10 0 8 0;
#X connect 11 0 56 0;
#X connect 12 0 9 0;
#X connect 13 0 9 0;
#X connect 14 0 3 1;
#X connect 15 0 16 0;
#X connect 17 0 18 0;
#X connect 18 0 19 0;
#X connect 19 0 20 0;
#X connect 20 0 21 0;
#X connect 20 1 23 0;
#X connect 21 0 55 0;
#X connect 22 0 64 0;
#X connect 23 0 24 0;
#X connect 24 0 22 1;
#X connect 25 0 26 0;
#X connect 26 0 27 0;
#X connect 27 0 28 0;
#X connect 28 0 37 0;
#X connect 29 0 28 1;
#X connect 30 0 29 0;
#X connect 31 0 32 0;
#X connect 32 0 33 0;
#X connect 33 0 36 1;
#X connect 34 0 35 0;
#X connect 35 0 36 0;
#X connect 36 0 65 0;
#X connect 37 0 34 0;
#X connect 38 0 39 0;
#X connect 39 0 42 0;
#X connect 40 0 41 0;
#X connect 41 0 43 0;
#X connect 42 0 40 0;
#X connect 43 0 44 0;
#X connect 44 0 29 1;
#X connect 45 0 46 0;
#X connect 46 0 49 0;
#X connect 46 1 47 0;
#X connect 47 0 48 0;
#X connect 48 0 49 0;
#X connect 49 0 50 0;
#X connect 50 0 54 0;
#X connect 51 0 52 0;
#X connect 52 0 53 0;
#X connect 53 0 26 0;
#X connect 54 0 51 0;
#X connect 55 0 22 0;
#X connect 56 0 38 0;
#X connect 56 1 31 0;
#X connect 57 0 17 0;
#X connect 58 0 15 0;
#X connect 59 0 2 0;
#X connect 60 0 1 0;
#X connect 61 0 11 0;
#X connect 62 0 5 0;
#X connect 63 0 25 0;
#X connect 64 0 63 0;
#X connect 65 0 3 0;
#X connect 66 0 14 0;
#X restore 780 313 pd armRight-Love;
#N canvas 442 268 838 420 armLeft-Hate 0;
#X obj 278 206 abs~;
#X obj 383 91 / 127;
#X obj 278 61 / 127;
#X obj 13 283 *~;
#X obj 13 354 throw~ \$0-reverb;
#X obj 12 186 clone -s 1 randomPitches 30;
#X obj 12 36 / 127;
#X obj 12 60 * 2;
#X obj 12 84 - 1;
#X obj 12 108 * 3;
#X obj 177 349 *~ 0.5;
#X obj 177 378 throw~ \$0-mono;
#X obj 12 210 /~ 20;
#X obj 278 182 hip~ 0.2;
#X obj 278 134 *~ 2;
#X obj 278 158 clip~ 0 1;
#X obj 12 137 else/f2s~ 100;
#X obj 142 36 / 127;
#X obj 142 137 else/f2s~ 100;
#X obj 278 85 else/f2s~ 100;
#X obj 383 115 else/f2s~ 100;
#X obj 142 84 + 20;
#X obj 142 108 mtof;
#X obj 13 234 else/highpass~ 1000 1.8;
#X obj 142 60 * 80;
#X obj 12 12 r \$0-armLeftX;
#X obj 142 12 r \$0-armLeftY;
#X obj 278 37 r \$0-armLeftAccX;
#X obj 383 67 r \$0-armLeftAccY;
#X obj 278 230 *~ 4;
#X obj 278 254 clip~ 0 1;
#X obj 463 363 switch~;
#X obj 463 339 == 1;
#X obj 463 315 r \$0-passion;
#X connect 0 0 29 0;
#X connect 1 0 20 0;
#X connect 2 0 19 0;
#X connect 3 0 4 0;
#X connect 3 0 10 0;
#X connect 5 0 12 0;
#X connect 6 0 7 0;
#X connect 7 0 8 0;
#X connect 8 0 9 0;
#X connect 9 0 16 0;
#X connect 10 0 11 0;
#X connect 12 0 23 0;
#X connect 13 0 0 0;
#X connect 14 0 15 0;
#X connect 15 0 13 0;
#X connect 16 0 5 0;
#X connect 17 0 24 0;
#X connect 18 0 23 1;
#X connect 19 0 14 0;
#X connect 20 0 14 0;
#X connect 21 0 22 0;
#X connect 22 0 18 0;
#X connect 23 0 3 0;
#X connect 24 0 21 0;
#X connect 25 0 6 0;
#X connect 26 0 17 0;
#X connect 27 0 2 0;
#X connect 28 0 1 0;
#X connect 29 0 30 0;
#X connect 30 0 3 1;
#X connect 32 0 31 0;
#X connect 33 0 32 0;
#X restore 780 339 pd armLeft-Hate;
#N canvas 158 214 896 420 armRight-Hate 0;
#X obj 278 206 abs~;
#X obj 383 91 / 127;
#X obj 278 61 / 127;
#X obj 13 283 *~;
#X obj 13 354 throw~ \$0-reverb;
#X obj 12 186 clone -s 1 randomPitches 30;
#X obj 12 36 / 127;
#X obj 12 60 * 2;
#X obj 12 84 - 1;
#X obj 12 108 * 3;
#X obj 177 349 *~ 0.5;
#X obj 177 378 throw~ \$0-mono;
#X obj 12 210 /~ 20;
#X obj 278 182 hip~ 0.2;
#X obj 278 134 *~ 2;
#X obj 278 158 clip~ 0 1;
#X obj 12 137 else/f2s~ 100;
#X obj 142 36 / 127;
#X obj 142 137 else/f2s~ 100;
#X obj 278 85 else/f2s~ 100;
#X obj 383 115 else/f2s~ 100;
#X obj 142 84 + 20;
#X obj 142 108 mtof;
#X obj 13 234 else/highpass~ 1000 1.8;
#X obj 142 60 * 80;
#X obj 278 230 *~ 4;
#X obj 278 254 clip~ 0 1;
#X obj 383 67 r \$0-armRightAccY;
#X obj 278 37 r \$0-armRightAccX;
#X obj 142 12 r \$0-armRightY;
#X obj 12 12 r \$0-armRightX;
#X obj 463 363 switch~;
#X obj 463 339 == 1;
#X obj 463 315 r \$0-passion;
#X connect 0 0 25 0;
#X connect 1 0 20 0;
#X connect 2 0 19 0;
#X connect 3 0 4 0;
#X connect 3 0 10 0;
#X connect 5 0 12 0;
#X connect 6 0 7 0;
#X connect 7 0 8 0;
#X connect 8 0 9 0;
#X connect 9 0 16 0;
#X connect 10 0 11 0;
#X connect 12 0 23 0;
#X connect 13 0 0 0;
#X connect 14 0 15 0;
#X connect 15 0 13 0;
#X connect 16 0 5 0;
#X connect 17 0 24 0;
#X connect 18 0 23 1;
#X connect 19 0 14 0;
#X connect 20 0 14 0;
#X connect 21 0 22 0;
#X connect 22 0 18 0;
#X connect 23 0 3 0;
#X connect 24 0 21 0;
#X connect 25 0 26 0;
#X connect 26 0 3 1;
#X connect 27 0 1 0;
#X connect 28 0 2 0;
#X connect 29 0 17 0;
#X connect 30 0 6 0;
#X connect 32 0 31 0;
#X connect 33 0 32 0;
#X restore 780 363 pd armRight-Hate;
#N canvas 456 319 824 300 passionsButtons 0;
#X obj 16 127 r \$0-love-s;
#X msg 16 151 0;
#X obj 16 175 s \$0-passion;
#X obj 116 175 s \$0-passion;
#X obj 116 127 r \$0-hate-s;
#X obj 216 175 s \$0-passion;
#X obj 216 127 r \$0-sadness-s;
#X obj 326 175 s \$0-passion;
#X obj 436 175 s \$0-passion;
#X obj 546 175 s \$0-passion;
#X obj 326 127 r \$0-joy-s;
#X obj 436 127 r \$0-desire-s;
#X obj 546 127 r \$0-admiration-s;
#X msg 116 151 1;
#X msg 216 151 2;
#X msg 326 151 3;
#X msg 436 151 4;
#X msg 546 151 5;
#X connect 0 0 1 0;
#X connect 1 0 2 0;
#X connect 4 0 13 0;
#X connect 6 0 14 0;
#X connect 10 0 15 0;
#X connect 11 0 16 0;
#X connect 12 0 17 0;
#X connect 13 0 3 0;
#X connect 14 0 5 0;
#X connect 15 0 7 0;
#X connect 16 0 8 0;
#X connect 17 0 9 0;
#X restore 563 467 pd passionsButtons;
#N canvas 464 182 790 536 armAcceleration 0;
#X obj 16 54 unpack f f;
#X obj 48 221 -;
#X obj 48 177 t f f;
#X obj 16 148 t f f;
#X obj 145 166 -;
#X obj 145 122 t f f;
#X obj 113 93 t f f;
#X obj 177 351 send \$0-armLeftAccY;
#X obj 113 380 send \$0-armLeftY;
#X obj 48 406 send \$0-armLeftAccX;
#X obj 16 435 send \$0-armLeftX;
#X obj 16 25 r \$0-armLeftXY-s;
#X obj 48 245 abs;
#X obj 145 190 abs;
#X obj 48 269 t f f;
#X obj 80 298 +;
#X obj 145 214 t f f;
#X obj 80 322 send \$0-armLeftAccXY;
#X obj 356 54 unpack f f;
#X obj 388 221 -;
#X obj 388 177 t f f;
#X obj 356 148 t f f;
#X obj 485 166 -;
#X obj 485 122 t f f;
#X obj 453 93 t f f;
#X obj 388 245 abs;
#X obj 485 190 abs;
#X obj 388 269 t f f;
#X obj 420 298 +;
#X obj 485 214 t f f;
#X obj 356 25 r \$0-armRightXY-s;
#X obj 420 322 send \$0-armRightAccXY;
#X obj 517 351 send \$0-armRightAccY;
#X obj 453 380 send \$0-armRightY;
#X obj 388 406 send \$0-armRightAccX;
#X obj 356 435 send \$0-armRightX;
#X connect 0 0 3 0;
#X connect 0 1 6 0;
#X connect 1 0 12 0;
#X connect 2 0 1 1;
#X connect 2 1 1 0;
#X connect 3 0 10 0;
#X connect 3 1 2 0;
#X connect 4 0 13 0;
#X connect 5 0 4 1;
#X connect 5 1 4 0;
#X connect 6 0 8 0;
#X connect 6 1 5 0;
#X connect 11 0 0 0;
#X connect 12 0 14 0;
#X connect 13 0 16 0;
#X connect 14 0 9 0;
#X connect 14 1 15 0;
#X connect 15 0 17 0;
#X connect 16 0 15 1;
#X connect 16 1 7 0;
#X connect 18 0 21 0;
#X connect 18 1 24 0;
#X connect 19 0 25 0;
#X connect 20 0 19 1;
#X connect 20 1 19 0;
#X connect 21 0 35 0;
#X connect 21 1 20 0;
#X connect 22 0 26 0;
#X connect 23 0 22 1;
#X connect 23 1 22 0;
#X connect 24 0 33 0;
#X connect 24 1 23 0;
#X connect 25 0 27 0;
#X connect 26 0 29 0;
#X connect 27 0 34 0;
#X connect 27 1 28 0;
#X connect 28 0 31 0;
#X connect 29 0 28 1;
#X connect 29 1 32 0;
#X connect 30 0 18 0;
#X restore 563 497 pd armAcceleration;
#X msg 812 642 0 2 4 5 7 9 11;
#X obj 812 666 array set \$0-scale;
#X obj 812 690 array define -k \$0-scale 7;
#A 0 0 2 4 5 7 9 11;
#X obj 812 618 loadbang;
#X obj 782 185 declare ./abs;
#X obj 552 295 abs/re.plate~;
#X obj 584 216 loadbang;
#X obj 584 264 unpack f f f;
#X obj 687 113 / 127;
#X text 687 69 GUI:engagement;
#X obj 687 89 r \$0-engagement-s;
#X msg 687 214 \$1 20;
#X obj 687 238 line~;
#X obj 552 329 *~ 2;
#X obj 652 329 *~ 2;
#X obj 687 185 * 0.7;
#X msg 584 240 1 0.5 0.9;
#X msg 687 137 1 \$1;
#X obj 687 161 -;
#X connect 0 0 35 0;
#X connect 3 0 40 0;
#X connect 4 0 20 0;
#X connect 5 0 6 0;
#X connect 6 0 7 0;
#X connect 7 0 8 0;
#X connect 10 0 54 0;
#X connect 13 0 14 0;
#X connect 14 0 16 0;
#X connect 15 0 13 0;
#X connect 16 0 17 0;
#X connect 17 0 18 0;
#X connect 17 1 19 0;
#X connect 18 0 22 0;
#X connect 19 0 23 0;
#X connect 20 0 21 0;
#X connect 21 0 35 0;
#X connect 21 0 40 0;
#X connect 22 0 27 0;
#X connect 23 0 28 0;
#X connect 25 0 2 0;
#X connect 25 0 8 0;
#X connect 26 0 1 0;
#X connect 26 0 8 0;
#X connect 27 0 20 3;
#X connect 28 0 21 3;
#X connect 35 0 26 0;
#X connect 36 0 37 0;
#X connect 37 0 38 0;
#X connect 38 0 39 0;
#X connect 39 0 40 1;
#X connect 39 0 35 1;
#X connect 40 0 25 0;
#X connect 49 0 50 0;
#X connect 52 0 49 0;
#X connect 54 0 62 0;
#X connect 54 1 63 0;
#X connect 55 0 65 0;
#X connect 56 0 54 1;
#X connect 56 1 54 2;
#X connect 56 2 54 3;
#X connect 57 0 66 0;
#X connect 59 0 57 0;
#X connect 60 0 61 0;
#X connect 61 0 54 4;
#X connect 62 0 11 0;
#X connect 63 0 12 0;
#X connect 64 0 60 0;
#X connect 65 0 56 0;
#X connect 66 0 67 0;
#X connect 67 0 64 0;
#X restore 37 441 pd guts;
#X obj 34 758 list trim;
#X obj 34 782 send \$0-osc;
#X obj 472 484 r \$0-osc;
#X obj 472 556 s \$0-temperature-r;
#X text 472 460 OSC temperature;
#X obj 830 483 r \$0-osc;
#X obj 830 531 else/rescale -1 1 0 127;
#X obj 382 634 r \$0-osc;
#X obj 382 743 pack f f;
#X obj 382 767 s \$0-armLeftXY-r;
#X obj 582 634 r \$0-osc;
#X obj 582 751 pack f f;
#X obj 582 775 s \$0-armRightXY-r;
#X obj 292 484 r \$0-osc;
#X obj 292 556 s \$0-pressure-r;
#X obj 642 484 r \$0-osc;
#X obj 642 556 s \$0-electricity-r;
#X text 642 460 OSC electricity;
#X obj 830 555 s \$0-heartRate-r;
#X obj 53 712 print OSC:;
#X obj 53 683 spigot;
#X obj 92 653 tgl 19 0 empty empty Print 22 11 0 12 #00ff04 #000000 #000000 0 1;
#X obj 382 658 route armLeftX armLeftY;
#X obj 582 658 route armRightX armRightY;
#X obj 292 508 route pressure;
#X obj 472 508 route temperature;
#X obj 642 508 route electricity;
#X obj 831 508 route heartRate;
#X text 292 460 OSC pressure(BVP);
#X text 382 610 OSC Arm Left;
#X text 582 610 OSC Arm Right;
#X text 830 459 OSC heartRate rescaled;
#X obj 393 78 tgl 19 0 \$0-bioRand-s \$0-bioRand-r bioRand 22 10 0 12 #c6ffc7 #000000 #000000 0 1;
#X obj 260 68 tgl 19 0 \$0-poseRand-s \$0-poseRand-r poseRand 22 10 0 12 #c6ffc7 #000000 #000000 0 1;
#X obj 842 634 r \$0-osc;
#X text 842 610 OSC Arm Right;
#X obj 842 658 route engagement;
#X obj 842 706 s \$0-engagement-r;
#X obj 842 682 else/rescale -1 1 0 127;
#X obj 642 532 else/rescale -1 1 0 127;
#X obj 292 532 else/rescale -1 1 0 127;
#X obj 472 532 else/rescale -1 1 0 127;
#X obj 582 682 else/rescale -1 1 0 127;
#X obj 668 712 else/rescale -1 1 0 127;
#X obj 382 682 else/rescale -1 1 0 127;
#X obj 475 712 else/rescale -1 1 0 127;
#X obj 1032 272 tgl 19 0 empty empty empty 0 -10 0 12 #fcfcfc #000000 #000000 0 1;
#X obj 1032 296 metro 40;
#X obj 1034 382 else/count;
#X obj 1034 406 text get \$0-armData;
#X obj 1150 236 text define \$0-armData;
#X msg 1150 212 read ./arm-data-1.txt;
#X obj 1032 320 t b b;
#X connect 1 0 3 0;
#X connect 2 0 4 0;
#X connect 4 0 1 0;
#X connect 5 0 7 0;
#X connect 6 0 5 0;
#X connect 8 0 6 0;
#X connect 28 0 38 0;
#X connect 28 0 58 0;
#X connect 28 0 29 0;
#X connect 30 0 28 0;
#X connect 31 0 30 0;
#X connect 32 0 30 0;
#X connect 38 0 39 0;
#X connect 40 0 63 0;
#X connect 43 0 65 0;
#X connect 44 0 56 0;
#X connect 45 0 60 0;
#X connect 46 0 47 0;
#X connect 48 0 61 0;
#X connect 49 0 50 0;
#X connect 51 0 62 0;
#X connect 53 0 64 0;
#X connect 58 0 57 0;
#X connect 59 0 58 1;
#X connect 60 0 82 0;
#X connect 60 1 83 0;
#X connect 61 0 80 0;
#X connect 61 1 81 0;
#X connect 62 0 78 0;
#X connect 63 0 79 0;
#X connect 64 0 77 0;
#X connect 65 0 44 0;
#X connect 72 0 74 0;
#X connect 74 0 76 0;
#X connect 76 0 75 0;
#X connect 77 0 54 0;
#X connect 78 0 52 0;
#X connect 79 0 41 0;
#X connect 80 0 49 0;
#X connect 81 0 49 1;
#X connect 82 0 46 0;
#X connect 83 0 46 1;
#X connect 84 0 85 0;
#X connect 85 0 90 0;
#X connect 86 0 87 0;
#X connect 89 0 88 0;
#X connect 90 0 86 0;
#X connect 90 1 86 0;
