#N struct 1065-point float x0 float y0 float xs float ys float fg float
in float gridx float gridy;
#N struct 1078-point float x0 float y0 float xs float ys float fg float
in float gridx float gridy;
#N canvas 0 22 1280 756 12;
#X obj 15 39 cnv 15 841 256 empty empty empty 20 12 0 14 #7c7c7c #404040
0;
#X listbox 181 231 16 0 0 0 - - - 0;
#X obj 324 109 hsl 101 19 0 127 0 1 \$0-presion-s \$0-presion-r Presion\\\ Sanguinea
-2 -10 0 12 #d8fcfc #000000 #000000 3600 1;
#X obj 324 149 hsl 101 19 0 127 0 1 \$0-temperatura-s \$0-temperatura-r
Temperatura -2 -10 0 12 #d8fcfc #000000 #000000 3800 1;
#X obj 324 189 hsl 101 19 0 127 0 1 \$0-electricidad-s \$0-electricidad-r
Electricidad -2 -10 0 12 #d8fcfc #000000 #000000 3700 1;
#X obj 324 229 hsl 101 19 0 127 0 1 \$0-latidos-s \$0-latidos-r Latidos
-2 -10 0 12 #d8fcfc #000000 #000000 5550 1;
#X obj 464 109 hsl 101 19 0 127 0 1 \$0-concentracion-s \$0-concentracion-r
EEG:\\\ Concentracion -2 -10 0 12 #d8fcfc #000000 #000000 0 1;
#N canvas 0 22 450 278 (subpatch) 0;
#X array \$0-scope 4410 float 0;
#X coords 0 1 4409 -1 201 101 1 0 0;
#X restore 601 69 graph;
#X obj 321 69 tgl 19 0 \$0-bioRand-s \$0-bioRand-r bioRand 22 10 0
12 #c6ffc7 #000000 #000000 0 1;
#X obj 181 95 r \$0-brazoDerXY-r;
#X obj 181 254 s \$0-brazoDerXY-s;
#X obj 41 69 tgl 19 0 \$0-poseRand-s \$0-poseRand-r poseRand 22 10
0 12 #c6ffc7 #000000 #000000 0 1;
#X obj 181 119 else/slider2d 101 101 0 127 0 127 1 255 255 255 0 0
0 0 0 0 57.4042 57.0497 empty empty;
#X listbox 41 231 16 0 0 0 - - - 0;
#X obj 41 119 else/slider2d 101 101 0 127 0 127 1 255 255 255 0 0 0
0 0 0 65 34 empty empty;
#X text 321 49 Biometricos –––––––––––––––––––––
;
#X text 41 49 Open Pose –––––––––––––––––––––
;
#X obj 41 254 s \$0-brazoIzqXY-s;
#X obj 41 95 r \$0-brazoIzqXY-r;
#X obj 604 199 hsl 101 19 0 1 0 1 \$0-volumen-s \$0-volumen-r Volumen
-2 -10 0 12 #000000 #ffffff #000000 6900 1;
#X text 668 181 1;
#X text 699 181 2;
#X obj 25 481 oscparse;
#X listbox 115 500 34 0 0 0 - - - 0;
#X obj 25 422 netreceive -u -b;
#X msg 25 367 listen 5000;
#X msg 37 395 listen 0;
#X text 104 394 stop listening;
#X text 22 343 packets from network;
#X text 110 367 listen on port 5000;
#X text 147 416 UDP packets \, binary output, f 13;
#N canvas 0 22 1039 464 guts 0;
#X obj 186 272 catch~ \$0-left;
#X obj 176 410 dac~ 1;
#X obj 306 410 dac~ 2;
#X obj 316 272 catch~ \$0-right;
#X obj 176 189 catch~ \$0-mono;
#X obj 31 323 loadbang;
#X msg 30 347 1;
#X obj 30 371 metro 100;
#X obj 30 395 tabwrite~ \$0-scope;
#N canvas 68 96 720 547 presion-y-electricidad 0;
#X obj 253 471 throw~ \$0-mono;
#X obj 308 264 *~ 0.2;
#X obj 308 182 else/resonant~ 61.73 500;
#X obj 333 211 else/resonant~ 184.9 37;
#X obj 333 235 *~ 0.3;
#X obj 253 413 else/drive~;
#X obj 386 274 r \$0-presion-s;
#X obj 386 298 / 127;
#X obj 386 322 * 24;
#X obj 386 346 + 100;
#X obj 386 370 dbtorms;
#X obj 386 394 else/f2s~ 20;
#X obj 253 442 *~ 0.7;
#X obj 308 124 else/pink~;
#X obj 308 153 power~ 3;
#X obj 35 218 noise~;
#X obj 35 247 power~ 100;
#X obj 102 50 r \$0-electricidad-s;
#X obj 102 74 / 127;
#X msg 102 98 1 \$1;
#X obj 102 122 -;
#X msg 102 194 10 \$1;
#X obj 102 218 pow;
#X obj 102 170 + 2;
#X obj 102 146 * 2;
#X obj 65 305 *~ 0.02;
#X obj 35 276 else/highpass~ 3000 0.7;
#X obj 253 384 +~;
#X text 386 255 GUI: Presion sanguinea;
#X text 440 333 <- de 0 a +24 dB de distorsion;
#X text 145 202 <- de 10k a 100;
#X text 102 30 GUI: Electricidad;
#X obj 35 513 throw~ \$0-reverb;
#X obj 35 489 *~ 0.15;
#X connect 1 0 27 1;
#X connect 2 0 1 0;
#X connect 3 0 4 0;
#X connect 4 0 1 0;
#X connect 5 0 12 0;
#X connect 6 0 7 0;
#X connect 7 0 8 0;
#X connect 8 0 9 0;
#X connect 9 0 10 0;
#X connect 10 0 11 0;
#X connect 11 0 5 1;
#X connect 12 0 0 0;
#X connect 13 0 14 0;
#X connect 14 0 2 0;
#X connect 14 0 3 0;
#X connect 15 0 16 0;
#X connect 16 0 26 0;
#X connect 17 0 18 0;
#X connect 18 0 19 0;
#X connect 19 0 20 0;
#X connect 20 0 24 0;
#X connect 21 0 22 0;
#X connect 22 0 16 1;
#X connect 23 0 21 0;
#X connect 24 0 23 0;
#X connect 25 0 27 0;
#X connect 26 0 25 0;
#X connect 27 0 5 0;
#X connect 33 0 32 0;
#X restore 780 195 pd presion-y-electricidad;
#X obj 551 94 catch~ \$0-reverb;
#X obj 551 186 else/plate.rev~;
#X obj 571 123 loadbang;
#X msg 571 147 wet 1 \, size 0.7 \, damp 0.5;
#X obj 551 240 throw~ \$0-left;
#X obj 653 215 throw~ \$0-right;
#X obj 394 63 / 127;
#X obj 394 87 - 0.5;
#X obj 394 39 r \$0-temperatura-s;
#X obj 394 111 * 2;
#X obj 394 135 t f f;
#X obj 295 109 clip -0.5 1;
#X obj 426 174 clip -1 0.5;
#X obj 176 218 else/lowshelf~ 1000 0.5;
#X obj 176 243 else/highshelf~ 3000 0.5;
#X obj 294 133 * 12;
#X obj 426 200 * -12;
#X text 394 19 GUI:temperatura;
#N canvas 157 191 838 420 brazoIzq 0;
#X obj 278 206 abs~;
#X obj 383 91 / 127;
#X obj 278 61 / 127;
#X obj 13 283 *~;
#X obj 13 354 throw~ \$0-reverb;
#X obj 12 186 clone -s 1 randomPitches 30;
#X obj 12 36 / 127;
#X obj 12 60 * 2;
#X obj 12 84 - 1;
#X obj 12 108 * 3;
#X obj 177 349 *~ 0.5;
#X obj 177 378 throw~ \$0-mono;
#X obj 12 210 /~ 20;
#X obj 278 182 hip~ 0.2;
#X obj 278 134 *~ 2;
#X obj 278 158 clip~ 0 1;
#X obj 12 137 else/f2s~ 100;
#X obj 142 36 / 127;
#X obj 142 137 else/f2s~ 100;
#X obj 278 85 else/f2s~ 100;
#X obj 383 115 else/f2s~ 100;
#X obj 142 84 + 20;
#X obj 142 108 mtof;
#X obj 13 234 else/highpass~ 1000 1.8;
#X obj 142 60 * 80;
#X obj 12 12 r \$0-brazoIzqX;
#X obj 142 12 r \$0-brazoIzqY;
#X obj 278 37 r \$0-brazoIzqAccX;
#X obj 383 67 r \$0-brazoIzqAccY;
#X obj 278 230 *~ 4;
#X obj 278 254 clip~ 0 1;
#X obj 535 95 unpack f f;
#X obj 567 262 -;
#X obj 567 218 t f f;
#X obj 535 189 t f f;
#X obj 654 207 -;
#X obj 654 163 t f f;
#X obj 622 134 t f f;
#X obj 654 236 send \$0-brazoIzqAccY;
#X obj 622 265 send \$0-brazoIzqY;
#X obj 567 291 send \$0-brazoIzqAccX;
#X obj 535 320 send \$0-brazoIzqX;
#X obj 535 66 r \$0-brazoIzqXY-s;
#X connect 0 0 29 0;
#X connect 1 0 20 0;
#X connect 2 0 19 0;
#X connect 3 0 4 0;
#X connect 3 0 10 0;
#X connect 5 0 12 0;
#X connect 6 0 7 0;
#X connect 7 0 8 0;
#X connect 8 0 9 0;
#X connect 9 0 16 0;
#X connect 10 0 11 0;
#X connect 12 0 23 0;
#X connect 13 0 0 0;
#X connect 14 0 15 0;
#X connect 15 0 13 0;
#X connect 16 0 5 0;
#X connect 17 0 24 0;
#X connect 18 0 23 1;
#X connect 19 0 14 0;
#X connect 20 0 14 0;
#X connect 21 0 22 0;
#X connect 22 0 18 0;
#X connect 23 0 3 0;
#X connect 24 0 21 0;
#X connect 25 0 6 0;
#X connect 26 0 17 0;
#X connect 27 0 2 0;
#X connect 28 0 1 0;
#X connect 29 0 30 0;
#X connect 30 0 3 1;
#X connect 31 0 34 0;
#X connect 31 1 37 0;
#X connect 32 0 40 0;
#X connect 33 0 32 1;
#X connect 33 1 32 0;
#X connect 34 0 41 0;
#X connect 34 1 33 0;
#X connect 35 0 38 0;
#X connect 36 0 35 1;
#X connect 36 1 35 0;
#X connect 37 0 39 0;
#X connect 37 1 36 0;
#X connect 42 0 31 0;
#X restore 780 219 pd brazoIzq;
#N canvas 158 214 896 420 brazoDer 0;
#X obj 278 206 abs~;
#X obj 383 91 / 127;
#X obj 278 61 / 127;
#X obj 13 283 *~;
#X obj 13 354 throw~ \$0-reverb;
#X obj 12 186 clone -s 1 randomPitches 30;
#X obj 12 36 / 127;
#X obj 12 60 * 2;
#X obj 12 84 - 1;
#X obj 12 108 * 3;
#X obj 177 349 *~ 0.5;
#X obj 177 378 throw~ \$0-mono;
#X obj 12 210 /~ 20;
#X obj 278 182 hip~ 0.2;
#X obj 278 134 *~ 2;
#X obj 278 158 clip~ 0 1;
#X obj 12 137 else/f2s~ 100;
#X obj 142 36 / 127;
#X obj 142 137 else/f2s~ 100;
#X obj 278 85 else/f2s~ 100;
#X obj 383 115 else/f2s~ 100;
#X obj 142 84 + 20;
#X obj 142 108 mtof;
#X obj 13 234 else/highpass~ 1000 1.8;
#X obj 142 60 * 80;
#X obj 278 230 *~ 4;
#X obj 278 254 clip~ 0 1;
#X obj 383 67 r \$0-brazoDerAccY;
#X obj 278 37 r \$0-brazoDerAccX;
#X obj 142 12 r \$0-brazoDerY;
#X obj 12 12 r \$0-brazoDerX;
#X obj 535 95 unpack f f;
#X obj 567 262 -;
#X obj 567 218 t f f;
#X obj 535 320 send \$0-brazoDerX;
#X obj 567 291 send \$0-brazoDerAccX;
#X obj 535 189 t f f;
#X obj 654 207 -;
#X obj 654 163 t f f;
#X obj 622 134 t f f;
#X obj 654 236 send \$0-brazoDerAccY;
#X obj 622 265 send \$0-brazoDerY;
#X obj 535 66 r \$0-brazoDerXY-s;
#X connect 0 0 25 0;
#X connect 1 0 20 0;
#X connect 2 0 19 0;
#X connect 3 0 4 0;
#X connect 3 0 10 0;
#X connect 5 0 12 0;
#X connect 6 0 7 0;
#X connect 7 0 8 0;
#X connect 8 0 9 0;
#X connect 9 0 16 0;
#X connect 10 0 11 0;
#X connect 12 0 23 0;
#X connect 13 0 0 0;
#X connect 14 0 15 0;
#X connect 15 0 13 0;
#X connect 16 0 5 0;
#X connect 17 0 24 0;
#X connect 18 0 23 1;
#X connect 19 0 14 0;
#X connect 20 0 14 0;
#X connect 21 0 22 0;
#X connect 22 0 18 0;
#X connect 23 0 3 0;
#X connect 24 0 21 0;
#X connect 25 0 26 0;
#X connect 26 0 3 1;
#X connect 27 0 1 0;
#X connect 28 0 2 0;
#X connect 29 0 17 0;
#X connect 30 0 6 0;
#X connect 31 0 36 0;
#X connect 31 1 39 0;
#X connect 32 0 35 0;
#X connect 33 0 32 1;
#X connect 33 1 32 0;
#X connect 36 0 34 0;
#X connect 36 1 33 0;
#X connect 37 0 40 0;
#X connect 38 0 37 1;
#X connect 38 1 37 0;
#X connect 39 0 41 0;
#X connect 39 1 38 0;
#X connect 42 0 31 0;
#X restore 780 243 pd brazoDer;
#X obj 306 376 else/drive~;
#X obj 176 376 else/drive~;
#X obj 294 157 else/f2s~ 100;
#X obj 426 224 else/f2s~ 100;
#N canvas 131 22 633 626 latidos 0;
#X obj 396 2 r \$0-latidos-s;
#X obj 396 26 / 127;
#X obj 396 50 * 40;
#X obj 396 74 + 60;
#X msg 396 98 60000 \$1;
#X obj 396 122 /;
#X obj 285 93 loadbang;
#X msg 285 117 1;
#X obj 285 141 metro;
#X obj 95 422 else/lowpass~;
#X obj 95 263 else/pink~;
#X obj 183 398 sig~ 0.4;
#X obj 436 151 v \$0-latidoMs;
#X obj 313 315 vline~;
#X obj 139 383 mtof~;
#X obj 156 461 else/drive~;
#X obj 295 490 *~;
#X obj 295 553 throw~ \$0-mono;
#X msg 252 252 1 1 \, 0 160 1;
#X obj 139 354 *~ 100;
#X obj 95 292 else/resonant~ 110 250;
#X obj 370 218 delay;
#X obj 402 186 / 4;
#X msg 32 227 clear;
#X msg 370 241 0.7 1 \, 0 160 1;
#X obj 313 426 sqrt~;
#X obj 422 553 throw~ \$0-reverb;
#X obj 422 529 *~ 0.1;
#X obj 295 529 *~ 0.2;
#X connect 0 0 1 0;
#X connect 1 0 2 0;
#X connect 2 0 3 0;
#X connect 3 0 4 0;
#X connect 4 0 5 0;
#X connect 5 0 8 1;
#X connect 5 0 12 0;
#X connect 5 0 22 0;
#X connect 6 0 7 0;
#X connect 7 0 8 0;
#X connect 8 0 18 0;
#X connect 8 0 23 0;
#X connect 8 0 21 0;
#X connect 9 0 15 0;
#X connect 10 0 20 0;
#X connect 11 0 9 2;
#X connect 13 0 19 0;
#X connect 13 0 25 0;
#X connect 14 0 9 1;
#X connect 15 0 16 0;
#X connect 16 0 27 0;
#X connect 16 0 28 0;
#X connect 18 0 13 0;
#X connect 19 0 14 0;
#X connect 20 0 9 0;
#X connect 21 0 24 0;
#X connect 22 0 21 1;
#X connect 23 0 9 0;
#X connect 23 0 20 0;
#X connect 24 0 13 0;
#X connect 25 0 16 1;
#X connect 27 0 26 0;
#X connect 28 0 17 0;
#X restore 780 171 pd latidos;
#N canvas 10 136 805 364 bioRand 0;
#X obj 418 263 line;
#X msg 418 239 \$1 20000;
#X obj 578 263 line;
#X msg 578 239 \$1 20000;
#X obj 278 263 line;
#X msg 278 239 \$1 20000;
#X obj 278 287 s \$0-temperatura-r;
#X obj 418 287 s \$0-electricidad-r;
#X obj 578 287 s \$0-latidos-r;
#X obj 128 263 line;
#X msg 128 239 \$1 20000;
#X obj 128 287 s \$0-presion-r;
#X obj 128 215 else/rand.i 0 127;
#X obj 278 215 else/rand.i 0 127;
#X obj 418 215 else/rand.i 0 127;
#X obj 578 215 else/rand.i 0 127;
#X obj 96 87 t f f;
#X msg 36 244 stop;
#X obj 128 116 metro 10000;
#X obj 96 63 r \$0-bioRand-s;
#X obj 37 134 sel 0;
#X connect 0 0 7 0;
#X connect 1 0 0 0;
#X connect 2 0 8 0;
#X connect 3 0 2 0;
#X connect 4 0 6 0;
#X connect 5 0 4 0;
#X connect 9 0 11 0;
#X connect 10 0 9 0;
#X connect 12 0 10 0;
#X connect 13 0 5 0;
#X connect 14 0 1 0;
#X connect 15 0 3 0;
#X connect 16 0 20 0;
#X connect 16 1 18 0;
#X connect 17 0 9 0;
#X connect 17 0 4 0;
#X connect 17 0 2 0;
#X connect 17 0 0 0;
#X connect 18 0 12 0;
#X connect 18 0 15 0;
#X connect 18 0 14 0;
#X connect 18 0 13 0;
#X connect 19 0 16 0;
#X connect 20 0 17 0;
#X restore 780 287 pd bioRand;
#N canvas 367 141 450 300 comentarios 0;
#X text 31 29 Brazo izquierdo (mano \, codo \, hombro);
#X text 29 49 Brazo derecho (mano \, codo \, hombro);
#X text 33 136 Brazos (izq y der);
#X text 34 156 Codos (izq y der);
#X text 34 176 Hombros (izq y der);
#X text 34 116 Cabeza;
#X text 34 216 Rodillas (izq y der);
#X text 34 236 Pies (izq y der);
#X text 34 196 Caderas (izq y der);
#X text 23 86 Open pose: controla la base;
#X text 243 86 Biomeotricos: agregan matiz;
#X restore 790 336 pd comentarios;
#N canvas 272 313 755 363 poseRand 0;
#X obj 254 209 line;
#X obj 107 209 line;
#X obj 127 238 pack f f;
#X msg 254 185 \$1 2000;
#X msg 107 185 \$1 2000;
#X obj 107 161 else/rand.i 0 127;
#X obj 254 161 else/rand.i 0 127;
#X obj 120 26 r \$0-poseRand-s;
#X obj 120 50 t f f;
#X obj 152 79 metro 2000;
#X msg 37 190 stop;
#X obj 564 209 line;
#X obj 417 209 line;
#X obj 437 238 pack f f;
#X msg 564 185 \$1 2000;
#X msg 417 185 \$1 2000;
#X obj 417 161 else/rand.i 0 127;
#X obj 564 161 else/rand.i 0 127;
#X obj 127 267 s \$0-brazoIzqXY-r;
#X obj 437 267 s \$0-brazoDerXY-r;
#X obj 37 94 sel 0;
#X connect 0 0 2 1;
#X connect 1 0 2 0;
#X connect 2 0 18 0;
#X connect 3 0 0 0;
#X connect 4 0 1 0;
#X connect 5 0 4 0;
#X connect 6 0 3 0;
#X connect 7 0 8 0;
#X connect 8 0 20 0;
#X connect 8 1 9 0;
#X connect 9 0 5 0;
#X connect 9 0 17 0;
#X connect 9 0 16 0;
#X connect 9 0 6 0;
#X connect 10 0 1 0;
#X connect 10 0 0 0;
#X connect 10 0 12 0;
#X connect 10 0 11 0;
#X connect 11 0 13 1;
#X connect 12 0 13 0;
#X connect 13 0 19 0;
#X connect 14 0 11 0;
#X connect 15 0 12 0;
#X connect 16 0 15 0;
#X connect 17 0 14 0;
#X connect 20 0 10 0;
#X restore 780 311 pd poseRand;
#X text 780 151 Sonidos;
#X text 780 267 Rand;
#X text 780 121 Sub patches –––––––––––––
;
#X obj 176 344 *~;
#X obj 430 253 r \$0-volumen-s;
#X obj 430 277 pow 2;
#X obj 430 301 * 2;
#X obj 430 325 else/f2s~ 100;
#X obj 306 344 *~;
#X connect 0 0 41 0;
#X connect 3 0 46 0;
#X connect 4 0 23 0;
#X connect 5 0 6 0;
#X connect 6 0 7 0;
#X connect 7 0 8 0;
#X connect 10 0 11 0;
#X connect 11 0 14 0;
#X connect 11 1 15 0;
#X connect 12 0 13 0;
#X connect 13 0 11 0;
#X connect 16 0 17 0;
#X connect 17 0 19 0;
#X connect 18 0 16 0;
#X connect 19 0 20 0;
#X connect 20 0 21 0;
#X connect 20 1 22 0;
#X connect 21 0 25 0;
#X connect 22 0 26 0;
#X connect 23 0 24 0;
#X connect 24 0 41 0;
#X connect 24 0 46 0;
#X connect 25 0 32 0;
#X connect 26 0 33 0;
#X connect 30 0 2 0;
#X connect 30 0 8 0;
#X connect 31 0 1 0;
#X connect 31 0 8 0;
#X connect 32 0 23 3;
#X connect 33 0 24 3;
#X connect 41 0 31 0;
#X connect 42 0 43 0;
#X connect 43 0 44 0;
#X connect 44 0 45 0;
#X connect 45 0 46 1;
#X connect 45 0 41 1;
#X connect 46 0 30 0;
#X restore 22 308 pd guts;
#X obj 25 625 list trim;
#X obj 25 649 send \$0-osc;
#X obj 522 351 r \$0-osc;
#X obj 522 375 route /temperatura;
#X obj 522 399 * 127;
#X obj 522 423 s \$0-temperatura-r;
#X text 522 327 OSC temperatura;
#X obj 832 351 r \$0-osc;
#X obj 832 375 route /latidos;
#X obj 832 399 else/rescale -1 1 0 127;
#X text 832 327 ejemplo OSC latidos rescaled;
#X obj 382 501 r \$0-osc;
#X obj 382 525 route /brazoIzqX /brazoIzqY;
#X obj 382 578 pack f f;
#X obj 382 549 * 127;
#X obj 475 549 * 127;
#X obj 382 602 s \$0-brazoIzqXY-r;
#X obj 642 501 r \$0-osc;
#X obj 642 578 pack f f;
#X obj 642 549 * 127;
#X obj 735 549 * 127;
#X obj 642 602 s \$0-brazoDerXY-r;
#X obj 642 525 route /brazoDerX /brazoDerY;
#X text 642 477 OSC Brazo Der;
#X text 382 477 OSC Brazo Izq;
#X obj 382 351 r \$0-osc;
#X obj 382 399 * 127;
#X obj 382 423 s \$0-presion-r;
#X obj 382 375 route /presion;
#X text 382 327 OSC presion;
#X obj 672 351 r \$0-osc;
#X obj 672 399 * 127;
#X obj 672 423 s \$0-electricidad-r;
#X obj 672 375 route /electricidad;
#X text 672 327 OSC electricidad;
#X obj 832 423 s \$0-latidos-r;
#X obj 44 579 print OSC:;
#X obj 44 550 spigot;
#X obj 83 520 tgl 19 0 empty empty Print 22 11 0 12 #00ff04 #000000
#000000 0 1;
#X connect 1 0 10 0;
#X connect 9 0 12 0;
#X connect 12 0 1 0;
#X connect 13 0 17 0;
#X connect 14 0 13 0;
#X connect 18 0 14 0;
#X connect 22 0 23 0;
#X connect 22 0 32 0;
#X connect 22 0 69 0;
#X connect 24 0 22 0;
#X connect 25 0 24 0;
#X connect 26 0 24 0;
#X connect 32 0 33 0;
#X connect 34 0 35 0;
#X connect 35 0 36 0;
#X connect 36 0 37 0;
#X connect 39 0 40 0;
#X connect 40 0 41 0;
#X connect 41 0 67 0;
#X connect 43 0 44 0;
#X connect 44 0 46 0;
#X connect 44 1 47 0;
#X connect 45 0 48 0;
#X connect 46 0 45 0;
#X connect 47 0 45 1;
#X connect 49 0 54 0;
#X connect 50 0 53 0;
#X connect 51 0 50 0;
#X connect 52 0 50 1;
#X connect 54 0 51 0;
#X connect 54 1 52 0;
#X connect 57 0 60 0;
#X connect 58 0 59 0;
#X connect 60 0 58 0;
#X connect 62 0 65 0;
#X connect 63 0 64 0;
#X connect 65 0 63 0;
#X connect 69 0 68 0;
#X connect 70 0 69 1;
