#N struct 1097-point float x0 float y0 float xs float ys float fg float in float gridx float gridy;
#N struct 1110-point float x0 float y0 float xs float ys float fg float in float gridx float gridy;
#N canvas 572 13 1332 968 12;
#X declare -path ./abs;
#X obj 17 42 cnv 15 320 240 empty empty MediaPipe\ Connection 20 20 0 18 #e3c6ff #404040 0;
#X listbox 176 230 16 0 0 0 - - - 0;
#X obj 176 94 r \$0-armRightXY-r;
#X obj 176 253 s \$0-armRightXY-s;
#X obj 176 118 else/slider2d 101 101 0 127 0 127 1 255 255 255 0 0 0 0 0 0 49 40.748 empty empty;
#X listbox 36 230 16 0 0 0 - - - 0;
#X obj 36 118 else/slider2d 101 101 0 127 0 127 1 255 255 255 0 0 0 0 0 0 75 40.2126 empty empty;
#X obj 36 253 s \$0-armLeftXY-s;
#X obj 36 94 r \$0-armLeftXY-r;
#X obj 18 290 cnv 19 900 100 empty empty Emotion\ Detection\ Switch 20 20 0 18 #c6feff #404040 0;
#X obj 346 41 cnv 15 340 240 empty empty Empatica\ E4\ &\ EEG\ Connection 12 20 0 18 #c7c6ff #404040 0;
#X obj 396 119 hsl 101 19 0 127 0 1 \$0-pressure-s \$0-pressure-r BVP -2 -10 0 12 #d8fcfc #000000 #000000 6621 1;
#X obj 396 159 hsl 101 19 0 127 0 1 \$0-temperature-s \$0-temperature-r temperature -2 -10 0 12 #d8fcfc #000000 #000000 6937 1;
#X obj 396 199 hsl 101 19 0 127 0 1 \$0-electricity-s \$0-electricity-r electricity -2 -10 0 12 #d8fcfc #000000 #000000 4116 1;
#X obj 396 239 hsl 101 19 0 127 0 1 \$0-heartRate-s \$0-heartRate-r heartRate -2 -10 0 12 #d8fcfc #000000 #000000 5855 1;
#X obj 516 119 hsl 101 19 0 127 0 1 \$0-engagement-s \$0-engagement-r EEG:\ engagement -2 -10 0 12 #d8fcfc #000000 #000000 10000 1;
#X obj 698 40 cnv 15 220 240 empty empty Main 12 20 0 18 #feffc6 #404040 0;
#N canvas 0 22 450 278 (subpatch) 0;
#X array \$0-scope 4410 float 0;
#X coords 0 1 4409 -1 188 100 1 0 0;
#X restore 712 110 graph;
#X obj 719 247 hsl 101 19 0 1 0 1 \$0-volumen-s \$0-volumen-r Volumen -2 -10 0 12 #000000 #ffffff #000000 9800 1;
#X text 783 229 1;
#X text 814 229 2;
#X obj 17 397 cnv 19 900 435 empty empty OSC\ Communication\ Structure 20 20 0 18 #c6ffc7 #404040 0;
#X obj 34 614 oscparse;
#N canvas 436 227 1280 756 guts 0;
#X obj 186 382 catch~ \$0-left;
#X obj 176 520 dac~ 1;
#X obj 306 520 dac~ 2;
#X obj 316 382 catch~ \$0-right;
#X obj 176 299 catch~ \$0-mono;
#X obj 31 433 loadbang;
#X msg 30 457 1;
#X obj 30 481 metro 100;
#X obj 30 505 tabwrite~ \$0-scope;
#N canvas 68 96 839 701 pressure-y-electricity 0;
#X obj 308 264 *~ 0.2;
#X obj 308 182 else/resonant~ 61.73 500;
#X obj 333 211 else/resonant~ 184.9 37;
#X obj 333 235 *~ 0.3;
#X obj 253 413 else/drive~;
#X obj 386 274 r \$0-pressure-s;
#X obj 386 298 / 127;
#X obj 386 322 * 24;
#X obj 386 346 + 100;
#X obj 386 370 dbtorms;
#X obj 386 394 else/f2s~ 20;
#X obj 308 124 else/pink~;
#X obj 35 218 noise~;
#X obj 102 50 r \$0-electricity-s;
#X obj 102 74 / 127;
#X msg 102 98 1 \$1;
#X obj 102 122 -;
#X msg 102 194 10 \$1;
#X obj 102 218 pow;
#X obj 102 170 + 2;
#X obj 102 146 * 2;
#X obj 65 305 *~ 0.02;
#X obj 35 276 else/highpass~ 3000 0.7;
#X obj 253 384 +~;
#X text 440 333 <- de 0 a +24 dB de distorsion;
#X text 145 202 <- de 10k a 100;
#X text 102 30 GUI: electricity;
#X obj 35 513 throw~ \$0-reverb;
#X obj 35 489 *~ 0.15;
#X obj 308 153 else/power~ 3;
#X obj 35 247 else/power~ 100;
#X text 386 255 GUI: blood pressure;
#X obj 672 301 / 127;
#X text 672 257 GUI:engagement;
#X obj 672 277 r \$0-engagement-s;
#X msg 672 325 1 \$1;
#X obj 672 349 -;
#X msg 667 424 \$1 20;
#X obj 667 448 line~;
#X obj 277 485 *~;
#X obj 277 509 *~ 0.7;
#X obj 277 533 throw~ \$0-mono;
#X connect 0 0 23 1;
#X connect 1 0 0 0;
#X connect 2 0 3 0;
#X connect 3 0 0 0;
#X connect 4 0 39 0;
#X connect 5 0 6 0;
#X connect 6 0 7 0;
#X connect 7 0 8 0;
#X connect 8 0 9 0;
#X connect 9 0 10 0;
#X connect 10 0 4 1;
#X connect 11 0 29 0;
#X connect 12 0 30 0;
#X connect 13 0 14 0;
#X connect 14 0 15 0;
#X connect 15 0 16 0;
#X connect 16 0 20 0;
#X connect 17 0 18 0;
#X connect 18 0 30 1;
#X connect 19 0 17 0;
#X connect 20 0 19 0;
#X connect 21 0 23 0;
#X connect 22 0 21 0;
#X connect 23 0 4 0;
#X connect 28 0 27 0;
#X connect 29 0 1 0;
#X connect 29 0 2 0;
#X connect 30 0 22 0;
#X connect 32 0 35 0;
#X connect 34 0 32 0;
#X connect 35 0 36 0;
#X connect 36 0 37 0;
#X connect 37 0 38 0;
#X connect 38 0 39 1;
#X connect 39 0 40 0;
#X connect 40 0 41 0;
#X restore 930 305 pd pressure-y-electricity;
#X obj 551 174 catch~ \$0-reverb;
#X obj 551 390 throw~ \$0-left;
#X obj 653 365 throw~ \$0-right;
#X obj 394 173 / 127;
#X obj 394 197 - 0.5;
#X obj 394 149 r \$0-temperature-s;
#X obj 394 221 * 2;
#X obj 394 245 t f f;
#X obj 295 219 clip -0.5 1;
#X obj 426 284 clip -1 0.5;
#X obj 176 328 else/lowshelf~ 1000 0.5;
#X obj 176 353 else/highshelf~ 3000 0.5;
#X obj 294 243 * 12;
#X obj 426 310 * -12;
#X text 394 129 GUI:temperature;
#X obj 306 486 else/drive~;
#X obj 176 486 else/drive~;
#X obj 294 267 else/f2s~ 100;
#X obj 426 334 else/f2s~ 100;
#N canvas 131 22 633 626 heartRate 0;
#X obj 396 2 r \$0-heartRate-s;
#X obj 396 26 / 127;
#X obj 396 50 * 40;
#X obj 396 74 + 60;
#X msg 396 98 60000 \$1;
#X obj 396 122 /;
#X obj 285 93 loadbang;
#X msg 285 117 1;
#X obj 285 141 metro;
#X obj 95 422 else/lowpass~;
#X obj 95 263 else/pink~;
#X obj 183 398 sig~ 0.4;
#X obj 436 151 v \$0-latidoMs;
#X obj 313 315 vline~;
#X obj 139 383 mtof~;
#X obj 156 461 else/drive~;
#X obj 295 490 *~;
#X obj 295 593 throw~ \$0-mono;
#X msg 252 252 1 1 \, 0 160 1;
#X obj 139 354 *~ 100;
#X obj 95 292 else/resonant~ 110 250;
#X obj 370 218 delay;
#X obj 402 186 / 4;
#X msg 32 227 clear;
#X msg 370 241 0.7 1 \, 0 160 1;
#X obj 313 426 sqrt~;
#X obj 422 593 throw~ \$0-reverb;
#X obj 422 569 *~ 0.1;
#X obj 295 569 *~ 0.2;
#X obj 448 358 / 127;
#X text 448 314 GUI:engagement;
#X obj 448 334 r \$0-engagement-s;
#X msg 448 382 1 \$1;
#X obj 448 406 -;
#X msg 443 481 \$1 20;
#X obj 443 505 line~;
#X obj 295 514 *~;
#X connect 0 0 1 0;
#X connect 1 0 2 0;
#X connect 2 0 3 0;
#X connect 3 0 4 0;
#X connect 4 0 5 0;
#X connect 5 0 8 1;
#X connect 5 0 12 0;
#X connect 5 0 22 0;
#X connect 6 0 7 0;
#X connect 7 0 8 0;
#X connect 8 0 18 0;
#X connect 8 0 23 0;
#X connect 8 0 21 0;
#X connect 9 0 15 0;
#X connect 10 0 20 0;
#X connect 11 0 9 2;
#X connect 13 0 19 0;
#X connect 13 0 25 0;
#X connect 14 0 9 1;
#X connect 15 0 16 0;
#X connect 16 0 36 0;
#X connect 18 0 13 0;
#X connect 19 0 14 0;
#X connect 20 0 9 0;
#X connect 21 0 24 0;
#X connect 22 0 21 1;
#X connect 23 0 9 0;
#X connect 23 0 20 0;
#X connect 24 0 13 0;
#X connect 25 0 16 1;
#X connect 27 0 26 0;
#X connect 28 0 17 0;
#X connect 29 0 32 0;
#X connect 31 0 29 0;
#X connect 32 0 33 0;
#X connect 33 0 34 0;
#X connect 34 0 35 0;
#X connect 35 0 36 1;
#X connect 36 0 28 0;
#X connect 36 0 27 0;
#X restore 930 281 pd heartRate;
#N canvas 10 136 805 364 bioRand 0;
#X obj 418 263 line;
#X msg 418 239 \$1 20000;
#X obj 578 263 line;
#X msg 578 239 \$1 20000;
#X obj 278 263 line;
#X msg 278 239 \$1 20000;
#X obj 278 287 s \$0-temperature-r;
#X obj 418 287 s \$0-electricity-r;
#X obj 578 287 s \$0-heartRate-r;
#X obj 128 263 line;
#X msg 128 239 \$1 20000;
#X obj 128 287 s \$0-pressure-r;
#X obj 128 215 else/rand.i 0 127;
#X obj 278 215 else/rand.i 0 127;
#X obj 418 215 else/rand.i 0 127;
#X obj 578 215 else/rand.i 0 127;
#X obj 96 87 t f f;
#X msg 36 244 stop;
#X obj 128 116 metro 10000;
#X obj 96 63 r \$0-bioRand-s;
#X obj 37 134 sel 0;
#X connect 0 0 7 0;
#X connect 1 0 0 0;
#X connect 2 0 8 0;
#X connect 3 0 2 0;
#X connect 4 0 6 0;
#X connect 5 0 4 0;
#X connect 9 0 11 0;
#X connect 10 0 9 0;
#X connect 12 0 10 0;
#X connect 13 0 5 0;
#X connect 14 0 1 0;
#X connect 15 0 3 0;
#X connect 16 0 20 0;
#X connect 16 1 18 0;
#X connect 17 0 9 0;
#X connect 17 0 4 0;
#X connect 17 0 2 0;
#X connect 17 0 0 0;
#X connect 18 0 12 0;
#X connect 18 0 15 0;
#X connect 18 0 14 0;
#X connect 18 0 13 0;
#X connect 19 0 16 0;
#X connect 20 0 17 0;
#X restore 920 467 pd bioRand;
#N canvas 367 141 450 300 comentarios 0;
#X text 31 29 Brazo izquierdo (mano \, codo \, hombro);
#X text 29 49 Brazo derecho (mano \, codo \, hombro);
#X text 33 136 Brazos (izq y der);
#X text 34 156 Codos (izq y der);
#X text 34 176 Hombros (izq y der);
#X text 34 116 Cabeza;
#X text 34 216 Rodillas (izq y der);
#X text 34 236 Pies (izq y der);
#X text 34 196 Caderas (izq y der);
#X text 23 86 Open pose: controla la base;
#X text 243 86 Biomeotricos: agregan matiz;
#X restore 930 516 pd comentarios;
#N canvas 272 313 755 363 poseRand 0;
#X obj 254 209 line;
#X obj 107 209 line;
#X obj 127 238 pack f f;
#X obj 107 161 else/rand.i 0 127;
#X obj 254 161 else/rand.i 0 127;
#X obj 120 26 r \$0-poseRand-s;
#X obj 120 50 t f f;
#X obj 152 79 metro 2000;
#X msg 37 190 stop;
#X obj 564 209 line;
#X obj 417 209 line;
#X obj 437 238 pack f f;
#X obj 417 161 else/rand.i 0 127;
#X obj 564 161 else/rand.i 0 127;
#X obj 127 267 s \$0-armLeftXY-r;
#X obj 437 267 s \$0-armRightXY-r;
#X obj 37 94 sel 0;
#X msg 107 185 \$1 1000;
#X msg 254 185 \$1 1000;
#X msg 417 185 \$1 1000;
#X msg 564 185 \$1 1000;
#X obj 317 62 metro 1;
#X connect 0 0 2 1;
#X connect 1 0 2 0;
#X connect 2 0 14 0;
#X connect 3 0 17 0;
#X connect 4 0 18 0;
#X connect 5 0 6 0;
#X connect 6 0 16 0;
#X connect 6 1 7 0;
#X connect 6 1 21 0;
#X connect 7 0 3 0;
#X connect 7 0 13 0;
#X connect 7 0 12 0;
#X connect 7 0 4 0;
#X connect 8 0 1 0;
#X connect 8 0 0 0;
#X connect 8 0 10 0;
#X connect 8 0 9 0;
#X connect 9 0 11 1;
#X connect 10 0 11 0;
#X connect 11 0 15 0;
#X connect 12 0 19 0;
#X connect 13 0 20 0;
#X connect 16 0 8 0;
#X connect 17 0 1 0;
#X connect 18 0 0 0;
#X connect 19 0 10 0;
#X connect 20 0 9 0;
#X connect 21 0 2 0;
#X connect 21 0 11 0;
#X restore 920 491 pd poseRand;
#X text 920 447 Rand;
#X text 780 231 Sub patches –––––––––––––;
#X obj 176 454 *~;
#X obj 430 363 r \$0-volumen-s;
#X obj 430 387 pow 2;
#X obj 430 411 * 2;
#X obj 430 435 else/f2s~ 100;
#X obj 306 454 *~;
#X text 930 261 Biometrics;
#X text 780 261 Mediapipe;
#N canvas 333 22 1193 756 armLeft-Love 0;
#X obj 723 674 throw~ \$0-reverb;
#X obj 27 50 / 127;
#X obj 253 86 / 127;
#X obj 27 26 r \$0-armLeftX;
#X obj 253 62 r \$0-armLeftY;
#X obj 861 677 == 0;
#X obj 861 701 switch~;
#X obj 27 122 * 7;
#X obj 27 146 + 0.5;
#X obj 27 170 i;
#X obj 27 194 t f f;
#X obj 27 218 % 7;
#X obj 27 266 +;
#X obj 153 213 div 7;
#X obj 153 247 * 12;
#X obj 27 362 mtof~;
#X obj 27 386 phasor~;
#X obj 27 410 *~;
#X obj 144 341 /~;
#X obj 144 317 sig~ 1;
#X obj 382 155 pow 2;
#X obj 27 458 -~ 0.25;
#X obj 27 481 cos~;
#X obj 333 512 *~;
#X obj 27 434 clip~ 0 1;
#X msg 235 182 1 \$1;
#X obj 235 206 -;
#X obj 234 257 * 0.9;
#X obj 234 281 + 0.1;
#X obj 235 230 pow 2;
#X msg 234 305 \$1 20;
#X obj 234 329 line~;
#X obj 465 93 loadbang;
#X obj 465 117 t b b;
#X obj 498 146 f \$0;
#X msg 498 170 seed \$1;
#X obj 471 205 random 101;
#X obj 471 229 / 100;
#X obj 471 277 + 2;
#X obj 471 301 osc~;
#X obj 471 325 *~ 0.1;
#X obj 471 253 * 5;
#X obj 27 242 tabread \$0-scale;
#X obj 251 120 t f f;
#X obj 382 179 * 0.5;
#X obj 382 203 + 0.5;
#X msg 382 227 \$1 20;
#X obj 382 251 line~;
#X obj 641 615 *~;
#X obj 27 98 + 2;
#X obj 611 683 throw~ \$0-mono;
#X obj 27 73 * 2;
#X obj 27 290 + 12;
#X obj 333 560 else/lowpass~ 500 0.4;
#X obj 540 530 / 127;
#X text 540 486 GUI:engagement;
#X obj 540 506 r \$0-engagement-s;
#X obj 540 564 else/f2s~ 8;
#X obj 522 593 *~;
#X obj 674 237 r \$0-armLeftAccXY;
#X obj 674 261 / 20;
#X obj 674 333 select 0;
#X obj 736 373 t b f;
#X obj 736 397 delay 500;
#X msg 736 481 0 100;
#X obj 797 456 clip 0 1;
#X obj 797 480 sqrt;
#X msg 797 504 \$1 50;
#X obj 735 540 line~;
#X obj 674 309 - 0.1;
#X obj 674 285 clip 0.1 1;
#X obj 797 432 * 4;
#X obj 861 652 r \$0-emotion-s;
#X obj 27 324 sig~;
#X obj 437 373 loadbang;
#X msg 437 397 1;
#X obj 437 421 metro 100;
#X obj 437 445 else/rand.f 0 1;
#X msg 437 469 \$1 100;
#X obj 437 493 line~;
#X obj 611 659 *~ 1;
#X obj 719 643 *~ 0.7;
#X obj 332 536 *~ 0.5;
#X connect 1 0 51 0;
#X connect 2 0 43 0;
#X connect 3 0 1 0;
#X connect 4 0 2 0;
#X connect 5 0 6 0;
#X connect 7 0 8 0;
#X connect 8 0 9 0;
#X connect 9 0 10 0;
#X connect 10 0 11 0;
#X connect 10 1 13 0;
#X connect 11 0 42 0;
#X connect 12 0 52 0;
#X connect 13 0 14 0;
#X connect 14 0 12 1;
#X connect 15 0 16 0;
#X connect 16 0 17 0;
#X connect 17 0 24 0;
#X connect 18 0 17 1;
#X connect 19 0 18 0;
#X connect 20 0 44 0;
#X connect 21 0 22 0;
#X connect 22 0 23 0;
#X connect 23 0 82 0;
#X connect 24 0 21 0;
#X connect 25 0 26 0;
#X connect 26 0 29 0;
#X connect 27 0 28 0;
#X connect 28 0 30 0;
#X connect 29 0 27 0;
#X connect 30 0 31 0;
#X connect 31 0 18 1;
#X connect 32 0 33 0;
#X connect 33 0 36 0;
#X connect 33 1 34 0;
#X connect 34 0 35 0;
#X connect 35 0 36 0;
#X connect 36 0 37 0;
#X connect 37 0 41 0;
#X connect 38 0 39 0;
#X connect 39 0 40 0;
#X connect 40 0 15 0;
#X connect 41 0 38 0;
#X connect 42 0 12 0;
#X connect 43 0 25 0;
#X connect 43 1 20 0;
#X connect 44 0 45 0;
#X connect 45 0 46 0;
#X connect 46 0 47 0;
#X connect 47 0 23 1;
#X connect 48 0 80 0;
#X connect 48 0 81 0;
#X connect 49 0 7 0;
#X connect 51 0 49 0;
#X connect 52 0 73 0;
#X connect 53 0 58 0;
#X connect 54 0 57 0;
#X connect 56 0 54 0;
#X connect 57 0 58 1;
#X connect 58 0 48 0;
#X connect 59 0 60 0;
#X connect 60 0 70 0;
#X connect 61 0 64 0;
#X connect 61 1 62 0;
#X connect 62 0 63 0;
#X connect 62 1 71 0;
#X connect 63 0 64 0;
#X connect 64 0 68 0;
#X connect 65 0 66 0;
#X connect 66 0 67 0;
#X connect 67 0 68 0;
#X connect 68 0 48 1;
#X connect 69 0 61 0;
#X connect 70 0 69 0;
#X connect 71 0 65 0;
#X connect 72 0 5 0;
#X connect 73 0 15 0;
#X connect 74 0 75 0;
#X connect 75 0 76 0;
#X connect 76 0 77 0;
#X connect 77 0 78 0;
#X connect 78 0 79 0;
#X connect 79 0 23 1;
#X connect 80 0 50 0;
#X connect 81 0 0 0;
#X connect 82 0 53 0;
#X restore 780 289 pd armLeft-Love;
#N canvas 442 268 1079 529 armLeft-Hate 0;
#X obj 345 389 *~;
#X obj 345 460 throw~ \$0-reverb;
#X obj 40 123 / 127;
#X obj 40 147 * 2;
#X obj 40 171 - 1;
#X obj 40 195 * 3;
#X obj 509 484 throw~ \$0-mono;
#X obj 40 224 else/f2s~ 100;
#X obj 170 123 / 127;
#X obj 170 224 else/f2s~ 100;
#X obj 170 171 + 20;
#X obj 170 195 mtof;
#X obj 170 147 * 80;
#X obj 40 99 r \$0-armLeftX;
#X obj 170 99 r \$0-armLeftY;
#X obj 795 469 switch~;
#X obj 795 445 == 1;
#X obj 644 51 r \$0-armLeftAccXY;
#X obj 644 75 / 20;
#X obj 644 147 select 0;
#X obj 706 187 t b f;
#X obj 767 270 clip 0 1;
#X obj 767 294 sqrt;
#X msg 767 318 \$1 50;
#X obj 705 354 line~;
#X obj 644 123 - 0.1;
#X obj 644 99 clip 0.1 1;
#X obj 767 246 * 4;
#X obj 289 280 / 127;
#X text 289 236 GUI:engagement;
#X obj 289 256 r \$0-engagement-s;
#X obj 289 334 else/f2s~ 8;
#X obj 271 363 *~;
#X obj 40 273 clone -s 1 randomPitches 30;
#X obj 795 421 r \$0-emotion-s;
#X obj 509 455 *~ 1;
#X obj 345 433 *~ 0.5;
#X obj 33 412 *~ 0.1;
#X obj 34 360 else/drive~ 10;
#X obj 40 298 else/highpass~ 50 0.4;
#X obj 31 392 else/lowpass~ 4000 0.4;
#X obj 316 117 noise~;
#X obj 316 165 *~ 1;
#X obj 316 141 else/power~ 10;
#X msg 706 295 0 100;
#X obj 707 211 delay 250;
#X connect 0 0 35 0;
#X connect 0 0 36 0;
#X connect 2 0 3 0;
#X connect 3 0 4 0;
#X connect 4 0 5 0;
#X connect 5 0 7 0;
#X connect 7 0 33 0;
#X connect 8 0 12 0;
#X connect 10 0 11 0;
#X connect 11 0 9 0;
#X connect 12 0 10 0;
#X connect 13 0 2 0;
#X connect 14 0 8 0;
#X connect 16 0 15 0;
#X connect 17 0 18 0;
#X connect 18 0 26 0;
#X connect 19 0 44 0;
#X connect 19 1 20 0;
#X connect 20 0 45 0;
#X connect 20 1 27 0;
#X connect 21 0 22 0;
#X connect 22 0 23 0;
#X connect 23 0 24 0;
#X connect 24 0 0 1;
#X connect 25 0 19 0;
#X connect 26 0 25 0;
#X connect 27 0 21 0;
#X connect 28 0 31 0;
#X connect 30 0 28 0;
#X connect 31 0 32 1;
#X connect 32 0 0 0;
#X connect 33 0 39 0;
#X connect 34 0 16 0;
#X connect 35 0 6 0;
#X connect 36 0 1 0;
#X connect 37 0 32 0;
#X connect 38 0 40 0;
#X connect 39 0 38 0;
#X connect 40 0 37 0;
#X connect 41 0 43 0;
#X connect 42 0 39 0;
#X connect 43 0 42 0;
#X connect 44 0 24 0;
#X connect 45 0 44 0;
#X restore 780 349 pd armLeft-Hate;
#N canvas 456 319 824 403 passionsButtons 0;
#X obj 16 127 r \$0-love-s;
#X msg 16 151 0;
#X obj 16 175 s \$0-passion;
#X obj 116 175 s \$0-passion;
#X obj 116 127 r \$0-hate-s;
#X obj 216 175 s \$0-passion;
#X obj 216 127 r \$0-sadness-s;
#X obj 326 175 s \$0-passion;
#X obj 436 175 s \$0-passion;
#X obj 546 175 s \$0-passion;
#X obj 326 127 r \$0-joy-s;
#X obj 436 127 r \$0-desire-s;
#X obj 546 127 r \$0-admiration-s;
#X msg 116 151 1;
#X msg 216 151 2;
#X msg 326 151 3;
#X msg 436 151 4;
#X msg 546 151 5;
#X obj 60 48 text define -k \$0-passionName;
#A set Love \; Hate \; Sadness \; Joy \; Desire \; Admiration \;;
#X obj 219 260 r \$0-emotion-s;
#X obj 219 284 text get \$0-passionName;
#X msg 219 308 label Emotion:\$1;
#X obj 219 332 s \$0-emotion-r;
#X connect 0 0 1 0;
#X connect 1 0 2 0;
#X connect 4 0 13 0;
#X connect 6 0 14 0;
#X connect 10 0 15 0;
#X connect 11 0 16 0;
#X connect 12 0 17 0;
#X connect 13 0 3 0;
#X connect 14 0 5 0;
#X connect 15 0 7 0;
#X connect 16 0 8 0;
#X connect 17 0 9 0;
#X connect 19 0 20 0;
#X connect 20 0 21 0;
#X connect 21 0 22 0;
#X restore 563 467 pd passionsButtons;
#N canvas 352 383 790 536 armAcceleration 0;
#X obj 17 54 unpack f f;
#X obj 49 221 -;
#X obj 49 177 t f f;
#X obj 17 148 t f f;
#X obj 146 166 -;
#X obj 146 122 t f f;
#X obj 114 93 t f f;
#X obj 178 351 send \$0-armLeftAccY;
#X obj 114 380 send \$0-armLeftY;
#X obj 49 406 send \$0-armLeftAccX;
#X obj 17 435 send \$0-armLeftX;
#X obj 17 25 r \$0-armLeftXY-s;
#X obj 49 245 abs;
#X obj 146 190 abs;
#X obj 49 269 t f f;
#X obj 81 298 +;
#X obj 146 214 t f f;
#X obj 81 322 send \$0-armLeftAccXY;
#X obj 347 54 unpack f f;
#X obj 379 221 -;
#X obj 379 177 t f f;
#X obj 347 148 t f f;
#X obj 476 166 -;
#X obj 476 122 t f f;
#X obj 444 93 t f f;
#X obj 379 245 abs;
#X obj 476 190 abs;
#X obj 379 269 t f f;
#X obj 411 298 +;
#X obj 476 214 t f f;
#X obj 347 25 r \$0-armRightXY-s;
#X obj 347 437 send \$0-armRightX;
#X obj 379 406 send \$0-armRightAccX;
#X obj 444 380 send \$0-armRightY;
#X obj 508 351 send \$0-armRightAccY;
#X obj 411 322 send \$0-armRightAccXY;
#X connect 0 0 3 0;
#X connect 0 1 6 0;
#X connect 1 0 12 0;
#X connect 2 0 1 1;
#X connect 2 1 1 0;
#X connect 3 0 10 0;
#X connect 3 1 2 0;
#X connect 4 0 13 0;
#X connect 5 0 4 1;
#X connect 5 1 4 0;
#X connect 6 0 8 0;
#X connect 6 1 5 0;
#X connect 11 0 0 0;
#X connect 12 0 14 0;
#X connect 13 0 16 0;
#X connect 14 0 9 0;
#X connect 14 1 15 0;
#X connect 15 0 17 0;
#X connect 16 0 15 1;
#X connect 16 1 7 0;
#X connect 18 0 21 0;
#X connect 18 1 24 0;
#X connect 19 0 25 0;
#X connect 20 0 19 1;
#X connect 20 1 19 0;
#X connect 21 0 31 0;
#X connect 21 1 20 0;
#X connect 22 0 26 0;
#X connect 23 0 22 1;
#X connect 23 1 22 0;
#X connect 24 0 33 0;
#X connect 24 1 23 0;
#X connect 25 0 27 0;
#X connect 26 0 29 0;
#X connect 27 0 32 0;
#X connect 27 1 28 0;
#X connect 28 0 35 0;
#X connect 29 0 28 1;
#X connect 29 1 34 0;
#X connect 30 0 18 0;
#X restore 563 497 pd armAcceleration;
#X msg 721 626 0 2 4 5 7 9 11;
#X obj 810 674 array set \$0-scale;
#X obj 842 700 array define -k \$0-scale 7;
#A 0 0 2 3 5 7 8 10;
#X obj 552 295 abs/re.plate~;
#X obj 584 216 loadbang;
#X obj 584 264 unpack f f f;
#X obj 687 113 / 127;
#X text 687 69 GUI:engagement;
#X obj 687 89 r \$0-engagement-s;
#X msg 687 174 \$1 20;
#X obj 687 198 line~;
#X obj 552 329 *~ 2;
#X obj 652 329 *~ 2;
#X obj 687 137 * 0.8;
#X msg 584 240 1 0.5 0.8;
#N canvas 333 22 1193 756 armLeft-Love 0;
#X obj 27 50 / 127;
#X obj 253 86 / 127;
#X obj 861 677 == 0;
#X obj 861 701 switch~;
#X obj 27 122 * 7;
#X obj 27 146 + 0.5;
#X obj 27 170 i;
#X obj 27 194 t f f;
#X obj 27 218 % 7;
#X obj 27 266 +;
#X obj 153 213 div 7;
#X obj 153 247 * 12;
#X obj 27 338 line~;
#X obj 27 362 mtof~;
#X obj 27 386 phasor~;
#X obj 27 410 *~;
#X obj 144 341 /~;
#X obj 144 317 sig~ 1;
#X obj 382 155 pow 2;
#X obj 27 458 -~ 0.25;
#X obj 27 481 cos~;
#X obj 333 512 *~;
#X obj 27 434 clip~ 0 1;
#X msg 235 182 1 \$1;
#X obj 235 206 -;
#X obj 234 257 * 0.9;
#X obj 234 281 + 0.1;
#X obj 235 230 pow 2;
#X msg 234 305 \$1 20;
#X obj 234 329 line~;
#X obj 465 93 loadbang;
#X obj 465 117 t b b;
#X obj 498 146 f \$0;
#X msg 498 170 seed \$1;
#X obj 471 205 random 101;
#X obj 471 229 / 100;
#X obj 471 277 + 2;
#X obj 471 301 osc~;
#X obj 471 325 *~ 0.1;
#X obj 471 253 * 5;
#X obj 27 242 tabread \$0-scale;
#X obj 251 120 t f f;
#X obj 382 179 * 0.5;
#X obj 382 203 + 0.5;
#X msg 382 227 \$1 20;
#X obj 382 251 line~;
#X obj 641 615 *~;
#X obj 611 683 throw~ \$0-mono;
#X obj 27 73 * 2;
#X obj 27 290 + 12;
#X obj 333 560 else/lowpass~ 500 0.4;
#X obj 540 510 / 127;
#X text 540 466 GUI:engagement;
#X obj 540 486 r \$0-engagement-s;
#X obj 540 564 else/f2s~ 8;
#X obj 522 593 *~;
#X obj 674 261 / 20;
#X obj 674 333 select 0;
#X obj 736 373 t b f;
#X obj 736 397 delay 500;
#X msg 736 481 0 100;
#X obj 797 456 clip 0 1;
#X obj 797 480 sqrt;
#X msg 797 504 \$1 50;
#X obj 735 540 line~;
#X obj 672 237 r \$0-armRightAccXY;
#X obj 27 26 r \$0-armRightX;
#X obj 253 62 r \$0-armRightY;
#X obj 674 285 clip 0.1 1;
#X obj 674 309 - 0.1;
#X obj 797 432 * 4;
#X obj 861 653 r \$0-emotion-s;
#X obj 723 674 throw~ \$0-reverb;
#X obj 437 373 loadbang;
#X msg 437 397 1;
#X obj 437 421 metro 100;
#X obj 437 445 else/rand.f 0 1;
#X msg 437 469 \$1 100;
#X obj 437 493 line~;
#X obj 719 643 *~ 0.7;
#X obj 611 659 *~ 1;
#X obj 27 98 + 2;
#X msg 27 314 \$1 1;
#X obj 333 536 *~ 0.5;
#X connect 0 0 48 0;
#X connect 1 0 41 0;
#X connect 2 0 3 0;
#X connect 4 0 5 0;
#X connect 5 0 6 0;
#X connect 6 0 7 0;
#X connect 7 0 8 0;
#X connect 7 1 10 0;
#X connect 8 0 40 0;
#X connect 9 0 49 0;
#X connect 10 0 11 0;
#X connect 11 0 9 1;
#X connect 12 0 13 0;
#X connect 13 0 14 0;
#X connect 14 0 15 0;
#X connect 15 0 22 0;
#X connect 16 0 15 1;
#X connect 17 0 16 0;
#X connect 18 0 42 0;
#X connect 19 0 20 0;
#X connect 20 0 21 0;
#X connect 21 0 83 0;
#X connect 22 0 19 0;
#X connect 23 0 24 0;
#X connect 24 0 27 0;
#X connect 25 0 26 0;
#X connect 26 0 28 0;
#X connect 27 0 25 0;
#X connect 28 0 29 0;
#X connect 29 0 16 1;
#X connect 30 0 31 0;
#X connect 31 0 34 0;
#X connect 31 1 32 0;
#X connect 32 0 33 0;
#X connect 33 0 34 0;
#X connect 34 0 35 0;
#X connect 35 0 39 0;
#X connect 36 0 37 0;
#X connect 37 0 38 0;
#X connect 38 0 13 0;
#X connect 39 0 36 0;
#X connect 40 0 9 0;
#X connect 41 0 23 0;
#X connect 41 1 18 0;
#X connect 42 0 43 0;
#X connect 43 0 44 0;
#X connect 44 0 45 0;
#X connect 45 0 21 1;
#X connect 46 0 79 0;
#X connect 46 0 80 0;
#X connect 48 0 81 0;
#X connect 49 0 82 0;
#X connect 50 0 55 0;
#X connect 51 0 54 0;
#X connect 53 0 51 0;
#X connect 54 0 55 1;
#X connect 55 0 46 0;
#X connect 56 0 68 0;
#X connect 57 0 60 0;
#X connect 57 1 58 0;
#X connect 58 0 59 0;
#X connect 58 1 70 0;
#X connect 59 0 60 0;
#X connect 60 0 64 0;
#X connect 61 0 62 0;
#X connect 62 0 63 0;
#X connect 63 0 64 0;
#X connect 64 0 46 1;
#X connect 65 0 56 0;
#X connect 66 0 0 0;
#X connect 67 0 1 0;
#X connect 68 0 69 0;
#X connect 69 0 57 0;
#X connect 70 0 61 0;
#X connect 71 0 2 0;
#X connect 73 0 74 0;
#X connect 74 0 75 0;
#X connect 75 0 76 0;
#X connect 76 0 77 0;
#X connect 77 0 78 0;
#X connect 78 0 21 1;
#X connect 79 0 72 0;
#X connect 80 0 47 0;
#X connect 81 0 4 0;
#X connect 82 0 12 0;
#X connect 83 0 50 0;
#X restore 780 314 pd armLeft-Love;
#X obj 782 185 declare -path ./abs;
#X obj 800 536 r \$0-emotion-s;
#X msg 884 631 0 2 3 5 7 8 10;
#X obj 800 560 select 0 1 2 3 4 5;
#X text 994 630 <- menor;
#X text 658 628 mayor ->;
#X obj 871 34 r \$0-emotion-s;
#X obj 871 58 select 0 1 2 3 4 5;
#X msg 871 92 1200;
#X msg 911 92 600;
#X msg 951 92 0;
#N canvas 442 268 1079 529 armLeft-Hate 0;
#X obj 345 389 *~;
#X obj 345 460 throw~ \$0-reverb;
#X obj 40 123 / 127;
#X obj 40 147 * 2;
#X obj 40 171 - 1;
#X obj 40 195 * 3;
#X obj 509 484 throw~ \$0-mono;
#X obj 40 224 else/f2s~ 100;
#X obj 170 123 / 127;
#X obj 170 224 else/f2s~ 100;
#X obj 170 171 + 20;
#X obj 170 195 mtof;
#X obj 170 147 * 80;
#X obj 795 469 switch~;
#X obj 795 445 == 1;
#X obj 644 75 / 20;
#X obj 644 147 select 0;
#X obj 706 187 t b f;
#X obj 767 270 clip 0 1;
#X obj 767 294 sqrt;
#X msg 767 318 \$1 50;
#X obj 705 354 line~;
#X obj 644 123 - 0.1;
#X obj 644 99 clip 0.1 1;
#X obj 767 246 * 4;
#X obj 289 280 / 127;
#X text 289 236 GUI:engagement;
#X obj 289 256 r \$0-engagement-s;
#X obj 289 334 else/f2s~ 8;
#X obj 271 363 *~;
#X obj 40 273 clone -s 1 randomPitches 30;
#X obj 795 421 r \$0-emotion-s;
#X obj 509 455 *~ 1;
#X obj 345 433 *~ 0.5;
#X obj 33 412 *~ 0.1;
#X obj 34 360 else/drive~ 10;
#X obj 40 298 else/highpass~ 50 0.4;
#X obj 31 392 else/lowpass~ 4000 0.4;
#X obj 316 117 noise~;
#X obj 316 165 *~ 1;
#X obj 316 141 else/power~ 10;
#X msg 706 295 0 100;
#X obj 707 211 delay 250;
#X obj 40 99 r \$0-armRightX;
#X obj 168 99 r \$0-armRightY;
#X obj 644 51 r \$0-armRightAccXY;
#X connect 0 0 32 0;
#X connect 0 0 33 0;
#X connect 2 0 3 0;
#X connect 3 0 4 0;
#X connect 4 0 5 0;
#X connect 5 0 7 0;
#X connect 7 0 30 0;
#X connect 8 0 12 0;
#X connect 10 0 11 0;
#X connect 11 0 9 0;
#X connect 12 0 10 0;
#X connect 14 0 13 0;
#X connect 15 0 23 0;
#X connect 16 0 41 0;
#X connect 16 1 17 0;
#X connect 17 0 42 0;
#X connect 17 1 24 0;
#X connect 18 0 19 0;
#X connect 19 0 20 0;
#X connect 20 0 21 0;
#X connect 21 0 0 1;
#X connect 22 0 16 0;
#X connect 23 0 22 0;
#X connect 24 0 18 0;
#X connect 25 0 28 0;
#X connect 27 0 25 0;
#X connect 28 0 29 1;
#X connect 29 0 0 0;
#X connect 30 0 36 0;
#X connect 31 0 14 0;
#X connect 32 0 6 0;
#X connect 33 0 1 0;
#X connect 34 0 29 0;
#X connect 35 0 37 0;
#X connect 36 0 35 0;
#X connect 37 0 34 0;
#X connect 38 0 40 0;
#X connect 39 0 36 0;
#X connect 40 0 39 0;
#X connect 41 0 21 0;
#X connect 42 0 41 0;
#X connect 43 0 2 0;
#X connect 44 0 8 0;
#X connect 45 0 15 0;
#X restore 780 373 pd armLeft-Hate;
#N canvas 749 16 1193 907 armLeft-Sadness 0;
#X obj 694 761 throw~ \$0-reverb;
#X obj 27 50 / 127;
#X obj 565 278 / 127;
#X obj 27 26 r \$0-armLeftX;
#X obj 565 254 r \$0-armLeftY;
#X obj 861 701 switch~;
#X obj 27 122 * 7;
#X obj 27 146 + 0.5;
#X obj 27 170 i;
#X obj 27 194 t f f;
#X obj 27 218 % 7;
#X obj 27 266 +;
#X obj 153 213 div 7;
#X obj 153 247 * 12;
#X obj 27 362 mtof~;
#X obj 27 386 phasor~;
#X obj 571 314 pow 2;
#X obj 25 496 cos~;
#X obj 333 512 *~;
#X obj 27 242 tabread \$0-scale;
#X obj 571 338 * 0.5;
#X obj 571 362 + 0.5;
#X msg 571 386 \$1 20;
#X obj 571 410 line~;
#X obj 641 615 *~;
#X obj 475 809 throw~ \$0-mono;
#X obj 27 73 * 2;
#X obj 27 290 + 12;
#X obj 540 510 / 127;
#X text 540 466 GUI:engagement;
#X obj 540 486 r \$0-engagement-s;
#X obj 540 544 else/f2s~ 8;
#X obj 522 593 *~;
#X obj 333 536 *~ 0.7;
#X obj 674 237 r \$0-armLeftAccXY;
#X obj 674 261 / 20;
#X obj 674 333 select 0;
#X obj 736 373 t b f;
#X obj 736 397 delay 500;
#X msg 736 481 0 100;
#X obj 797 456 clip 0 1;
#X obj 797 480 sqrt;
#X msg 797 504 \$1 50;
#X obj 735 540 line~;
#X obj 674 309 - 0.1;
#X obj 674 285 clip 0.1 1;
#X obj 797 432 * 4;
#X obj 861 643 r \$0-emotion-s;
#X obj 861 672 == 2;
#X obj 199 380 r \$0-emotion-s;
#X obj 199 405 == 2;
#X obj 80 426 cos~;
#X obj 80 474 *~;
#X obj 91 543 *~;
#X obj 80 450 *~ 0.2;
#X obj 27 98 + 2;
#X obj 27 314 sig~;
#X obj 198 429 metro 600;
#X obj 326 314 r \$0-armLeftAccXY;
#X obj 326 386 /;
#X obj 545 730 *~ 1;
#X obj 326 338 * 2;
#X obj 682 726 *~ 0.5;
#N canvas 208 208 450 300 delayeffect 0;
#X obj 37 37 inlet~;
#X obj 67 91 delwrite~ \$0-sadDelayL 1000;
#X obj 213 181 hip~ 250;
#X obj 213 205 lop~ 6000;
#X obj 213 229 *~ 0.7;
#X obj 37 228 outlet~;
#X obj 213 157 delread~ \$0-sadDelayL 500;
#X connect 0 0 1 0;
#X connect 2 0 3 0;
#X connect 2 0 5 0;
#X connect 3 0 4 0;
#X connect 4 0 1 0;
#X connect 6 0 2 0;
#X restore 658 661 pd delayeffect;
#X obj 333 560 else/lowpass~ 2000 0.4;
#X obj 199 453 else/decay2~ 25 250;
#X obj 228 267 osc~ 3;
#X obj 228 290 *~ 0.2;
#X obj 326 410 clip 250 6000;
#X msg 326 362 2000 \$1;
#X floatatom 394 373 5 0 0 0 - - - 0;
#X obj 120 394 cos~;
#X obj 121 418 *~ 0.01;
#X obj 118 369 *~ 3;
#X connect 1 0 26 0;
#X connect 2 0 16 0;
#X connect 3 0 1 0;
#X connect 4 0 2 0;
#X connect 6 0 7 0;
#X connect 7 0 8 0;
#X connect 8 0 9 0;
#X connect 9 0 10 0;
#X connect 9 1 12 0;
#X connect 10 0 19 0;
#X connect 11 0 27 0;
#X connect 12 0 13 0;
#X connect 13 0 11 1;
#X connect 14 0 15 0;
#X connect 15 0 51 0;
#X connect 15 0 17 0;
#X connect 15 0 73 0;
#X connect 16 0 20 0;
#X connect 17 0 53 0;
#X connect 18 0 33 0;
#X connect 19 0 11 0;
#X connect 20 0 21 0;
#X connect 21 0 22 0;
#X connect 22 0 23 0;
#X connect 23 0 18 1;
#X connect 24 0 60 0;
#X connect 24 0 62 0;
#X connect 24 0 63 0;
#X connect 26 0 55 0;
#X connect 27 0 56 0;
#X connect 28 0 31 0;
#X connect 30 0 28 0;
#X connect 31 0 32 1;
#X connect 32 0 24 0;
#X connect 33 0 64 0;
#X connect 34 0 35 0;
#X connect 35 0 45 0;
#X connect 36 0 39 0;
#X connect 36 1 37 0;
#X connect 37 0 38 0;
#X connect 37 1 46 0;
#X connect 38 0 39 0;
#X connect 39 0 43 0;
#X connect 40 0 41 0;
#X connect 41 0 42 0;
#X connect 42 0 43 0;
#X connect 43 0 24 1;
#X connect 44 0 36 0;
#X connect 45 0 44 0;
#X connect 46 0 40 0;
#X connect 47 0 48 0;
#X connect 48 0 5 0;
#X connect 49 0 50 0;
#X connect 50 0 57 0;
#X connect 51 0 54 0;
#X connect 52 0 17 0;
#X connect 53 0 18 0;
#X connect 54 0 52 0;
#X connect 55 0 6 0;
#X connect 56 0 14 0;
#X connect 57 0 65 0;
#X connect 58 0 61 0;
#X connect 59 0 68 0;
#X connect 59 0 70 0;
#X connect 60 0 25 0;
#X connect 61 0 69 0;
#X connect 62 0 0 0;
#X connect 63 0 60 0;
#X connect 63 0 62 0;
#X connect 64 0 32 0;
#X connect 65 0 52 1;
#X connect 65 0 53 1;
#X connect 66 0 67 0;
#X connect 67 0 14 0;
#X connect 68 0 57 1;
#X connect 69 0 59 0;
#X connect 71 0 72 0;
#X connect 72 0 52 0;
#X connect 73 0 71 0;
#X restore 780 409 pd armLeft-Sadness;
#N canvas 749 16 1193 907 armLeft-Sadness 0;
#X obj 694 761 throw~ \$0-reverb;
#X obj 27 50 / 127;
#X obj 565 278 / 127;
#X obj 861 701 switch~;
#X obj 27 122 * 7;
#X obj 27 146 + 0.5;
#X obj 27 170 i;
#X obj 27 194 t f f;
#X obj 27 218 % 7;
#X obj 27 266 +;
#X obj 153 213 div 7;
#X obj 153 247 * 12;
#X obj 27 362 mtof~;
#X obj 27 386 phasor~;
#X obj 571 314 pow 2;
#X obj 25 496 cos~;
#X obj 333 512 *~;
#X obj 27 242 tabread \$0-scale;
#X obj 571 338 * 0.5;
#X obj 571 362 + 0.5;
#X msg 571 386 \$1 20;
#X obj 571 410 line~;
#X obj 641 615 *~;
#X obj 475 809 throw~ \$0-mono;
#X obj 27 73 * 2;
#X obj 27 290 + 12;
#X obj 540 510 / 127;
#X text 540 466 GUI:engagement;
#X obj 540 486 r \$0-engagement-s;
#X obj 540 544 else/f2s~ 8;
#X obj 522 593 *~;
#X obj 333 536 *~ 0.7;
#X obj 674 261 / 20;
#X obj 674 333 select 0;
#X obj 736 373 t b f;
#X obj 736 397 delay 500;
#X msg 736 481 0 100;
#X obj 797 456 clip 0 1;
#X obj 797 480 sqrt;
#X msg 797 504 \$1 50;
#X obj 735 540 line~;
#X obj 674 309 - 0.1;
#X obj 674 285 clip 0.1 1;
#X obj 797 432 * 4;
#X obj 861 643 r \$0-emotion-s;
#X obj 861 672 == 2;
#X obj 199 380 r \$0-emotion-s;
#X obj 199 405 == 2;
#X obj 80 426 cos~;
#X obj 80 474 *~;
#X obj 91 543 *~;
#X obj 80 450 *~ 0.2;
#X obj 27 98 + 2;
#X obj 27 314 sig~;
#X obj 198 429 metro 600;
#X obj 326 386 /;
#X obj 545 730 *~ 1;
#X obj 326 338 * 2;
#X obj 682 726 *~ 0.5;
#N canvas 208 208 450 300 delayeffect 0;
#X obj 37 37 inlet~;
#X obj 213 181 hip~ 250;
#X obj 213 205 lop~ 6000;
#X obj 213 229 *~ 0.7;
#X obj 37 228 outlet~;
#X obj 67 91 delwrite~ \$0-sadDelayR 1000;
#X obj 212 157 delread~ \$0-sadDelayR 500;
#X connect 0 0 5 0;
#X connect 1 0 2 0;
#X connect 1 0 4 0;
#X connect 2 0 3 0;
#X connect 3 0 5 0;
#X connect 6 0 1 0;
#X restore 658 661 pd delayeffect;
#X obj 333 560 else/lowpass~ 2000 0.4;
#X obj 199 453 else/decay2~ 25 250;
#X obj 228 267 osc~ 3;
#X obj 228 290 *~ 0.2;
#X obj 326 410 clip 250 6000;
#X msg 326 362 2000 \$1;
#X obj 120 394 cos~;
#X obj 121 418 *~ 0.01;
#X obj 118 369 *~ 3;
#X obj 326 314 r \$0-armRightAccXY;
#X obj 27 26 r \$0-armRightX;
#X obj 674 237 r \$0-armRightAccXY;
#X obj 565 254 r \$0-armRightY;
#X connect 1 0 24 0;
#X connect 2 0 14 0;
#X connect 4 0 5 0;
#X connect 5 0 6 0;
#X connect 6 0 7 0;
#X connect 7 0 8 0;
#X connect 7 1 10 0;
#X connect 8 0 17 0;
#X connect 9 0 25 0;
#X connect 10 0 11 0;
#X connect 11 0 9 1;
#X connect 12 0 13 0;
#X connect 13 0 48 0;
#X connect 13 0 15 0;
#X connect 13 0 68 0;
#X connect 14 0 18 0;
#X connect 15 0 50 0;
#X connect 16 0 31 0;
#X connect 17 0 9 0;
#X connect 18 0 19 0;
#X connect 19 0 20 0;
#X connect 20 0 21 0;
#X connect 21 0 16 1;
#X connect 22 0 56 0;
#X connect 22 0 58 0;
#X connect 22 0 59 0;
#X connect 24 0 52 0;
#X connect 25 0 53 0;
#X connect 26 0 29 0;
#X connect 28 0 26 0;
#X connect 29 0 30 1;
#X connect 30 0 22 0;
#X connect 31 0 60 0;
#X connect 32 0 42 0;
#X connect 33 0 36 0;
#X connect 33 1 34 0;
#X connect 34 0 35 0;
#X connect 34 1 43 0;
#X connect 35 0 36 0;
#X connect 36 0 40 0;
#X connect 37 0 38 0;
#X connect 38 0 39 0;
#X connect 39 0 40 0;
#X connect 40 0 22 1;
#X connect 41 0 33 0;
#X connect 42 0 41 0;
#X connect 43 0 37 0;
#X connect 44 0 45 0;
#X connect 45 0 3 0;
#X connect 46 0 47 0;
#X connect 47 0 54 0;
#X connect 48 0 51 0;
#X connect 49 0 15 0;
#X connect 50 0 16 0;
#X connect 51 0 49 0;
#X connect 52 0 4 0;
#X connect 53 0 12 0;
#X connect 54 0 61 0;
#X connect 55 0 64 0;
#X connect 56 0 23 0;
#X connect 57 0 65 0;
#X connect 58 0 0 0;
#X connect 59 0 56 0;
#X connect 59 0 58 0;
#X connect 60 0 30 0;
#X connect 61 0 49 1;
#X connect 61 0 50 1;
#X connect 62 0 63 0;
#X connect 63 0 12 0;
#X connect 64 0 54 1;
#X connect 65 0 55 0;
#X connect 66 0 67 0;
#X connect 67 0 49 0;
#X connect 68 0 66 0;
#X connect 69 0 57 0;
#X connect 70 0 1 0;
#X connect 71 0 32 0;
#X connect 72 0 2 0;
#X restore 780 433 pd armLeft-Sadness;
#X connect 0 0 35 0;
#X connect 3 0 40 0;
#X connect 4 0 20 0;
#X connect 5 0 6 0;
#X connect 6 0 7 0;
#X connect 7 0 8 0;
#X connect 10 0 50 0;
#X connect 13 0 14 0;
#X connect 14 0 16 0;
#X connect 15 0 13 0;
#X connect 16 0 17 0;
#X connect 17 0 18 0;
#X connect 17 1 19 0;
#X connect 18 0 22 0;
#X connect 19 0 23 0;
#X connect 20 0 21 0;
#X connect 21 0 35 0;
#X connect 21 0 40 0;
#X connect 22 0 27 0;
#X connect 23 0 28 0;
#X connect 25 0 2 0;
#X connect 25 0 8 0;
#X connect 26 0 1 0;
#X connect 26 0 8 0;
#X connect 27 0 20 3;
#X connect 28 0 21 3;
#X connect 35 0 26 0;
#X connect 36 0 37 0;
#X connect 37 0 38 0;
#X connect 38 0 39 0;
#X connect 39 0 40 1;
#X connect 39 0 35 1;
#X connect 40 0 25 0;
#X connect 47 0 48 0;
#X connect 50 0 58 0;
#X connect 50 1 59 0;
#X connect 51 0 61 0;
#X connect 52 0 50 1;
#X connect 52 1 50 2;
#X connect 52 2 50 3;
#X connect 53 0 60 0;
#X connect 55 0 53 0;
#X connect 56 0 57 0;
#X connect 57 0 50 4;
#X connect 58 0 11 0;
#X connect 59 0 12 0;
#X connect 60 0 56 0;
#X connect 61 0 52 0;
#X connect 64 0 66 0;
#X connect 65 0 48 0;
#X connect 66 0 47 0;
#X connect 66 1 65 0;
#X connect 66 2 65 0;
#X connect 66 3 47 0;
#X connect 66 4 47 0;
#X connect 66 5 47 0;
#X connect 69 0 70 0;
#X connect 70 0 71 0;
#X connect 70 1 72 0;
#X connect 70 2 73 0;
#X connect 71 0 50 5;
#X connect 72 0 50 5;
#X connect 73 0 50 5;
#X restore 37 441 pd guts;
#X obj 34 818 list trim;
#X obj 34 842 send \$0-osc;
#X obj 512 472 r \$0-osc;
#X obj 512 616 s \$0-temperature-r;
#X text 512 448 OSC temperature;
#X obj 871 471 r \$0-osc;
#X obj 871 591 else/rescale -1 1 0 127;
#X obj 382 734 r \$0-osc;
#X obj 382 843 pack f f;
#X obj 382 867 s \$0-armLeftXY-r;
#X obj 582 734 r \$0-osc;
#X obj 582 851 pack f f;
#X obj 582 875 s \$0-armRightXY-r;
#X obj 312 472 r \$0-osc;
#X obj 312 616 s \$0-pressure-r;
#X obj 682 472 r \$0-osc;
#X obj 682 616 s \$0-electricity-r;
#X text 682 448 OSC electricity;
#X obj 871 615 s \$0-heartRate-r;
#X obj 53 772 print OSC:;
#X obj 53 683 spigot;
#X obj 92 653 tgl 19 0 empty empty Print 22 11 0 12 #00ff04 #000000 #000000 0 1;
#X obj 382 758 route armLeftX armLeftY;
#X obj 582 758 route armRightX armRightY;
#X obj 312 496 route pressure;
#X obj 512 496 route temperature;
#X obj 682 496 route electricity;
#X obj 871 496 route heartRate;
#X text 312 440 OSC pressure(BVP);
#X text 382 710 OSC Arm Left;
#X text 582 710 OSC Arm Right;
#X text 871 447 OSC heartRate rescaled;
#X obj 393 78 tgl 19 0 \$0-bioRand-s \$0-bioRand-r bioRand 22 10 0 12 #c6ffc7 #000000 #000000 0 1;
#X obj 260 68 tgl 19 0 \$0-poseRand-s \$0-poseRand-r poseRand 22 10 0 12 #c6ffc7 #000000 #000000 0 1;
#X obj 842 734 r \$0-osc;
#X text 842 710 OSC Arm Right;
#X obj 842 758 route engagement;
#X obj 842 806 s \$0-engagement-r;
#X obj 842 782 else/rescale -1 1 0 127;
#X obj 682 592 else/rescale -1 1 0 127;
#X obj 312 592 else/rescale -1 1 0 127;
#X obj 512 592 else/rescale -1 1 0 127;
#X obj 582 782 else/rescale -1 1 0 127;
#X obj 668 812 else/rescale -1 1 0 127;
#X obj 382 782 else/rescale -1 1 0 127;
#X obj 475 812 else/rescale -1 1 0 127;
#X obj 1032 272 tgl 19 0 empty empty empty 0 -10 0 12 #fcfcfc #000000 #000000 0 1;
#X obj 1032 296 metro 40;
#X obj 1032 349 else/count;
#X obj 1032 373 text get \$0-armData;
#X obj 1150 236 text define \$0-armData;
#X msg 1150 212 read ./arm-data-1.txt;
#X obj 1032 320 t b b;
#X obj 34 489 netreceive -u -b 5001;
#X obj 44 519 netreceive -u -b 6001;
#X obj 164 649 oscparse;
#X listbox 164 673 20 0 0 0 - - - 0;
#X obj 64 549 netreceive -u -b 7001;
#X obj 84 579 netreceive -u -b 9001;
#X obj 312 520 change -1;
#X msg 312 544 \$1 1000;
#X obj 312 568 line 0 1;
#X obj 512 520 change -1;
#X msg 512 544 \$1 1000;
#X obj 512 568 line 0 1;
#X obj 682 520 change -1;
#X msg 682 544 \$1 1000;
#X obj 682 568 line 0 1;
#X obj 872 520 change -1;
#X msg 872 544 \$1 1000;
#X obj 872 568 line 0 1;
#X obj 1056 873 netsend -u -b;
#X obj 1058 796 oscformat;
#X obj 1056 670 text get \$0-passionName;
#X obj 1056 646 r \$0-passion;
#X obj 337 348 bng 19 250 50 0 \$0-love-s \$0-love-r Love 0 -10 0 12 #000000 #ff0400 #000000;
#X obj 369 348 bng 19 250 50 0 \$0-hate-s \$0-hate-r Hate 0 -10 0 12 #000000 #ff0400 #000000;
#X obj 401 348 bng 19 250 50 0 \$0-sadness-s \$0-sadness-r Sadness 0 -10 0 12 #000000 #ff0400 #000000;
#X obj 453 348 bng 19 250 50 0 \$0-joy-s \$0-joy-r Joy 0 -10 0 12 #000000 #ff0400 #000000;
#X obj 483 348 bng 19 250 50 0 \$0-desire-s \$0-desire-r Desire 0 -10 0 12 #000000 #ff0400 #000000;
#X obj 533 348 bng 19 250 50 0 \$0-admiration-s \$0-admiration-r Admiration 0 -10 0 12 #000000 #ff0400 #000000;
#X obj 44 348 hradio 19 1 0 6 \$0-emotion-s \$0-emotion-r Emotion:Sadness 0 -10 0 12 #fcfcfc #000000 #000000 0;
#X text 335 307 Emotion Selected;
#X text 157 720 Port \; 5001 = MediaPipe \; 6001 = Biometrics \; 7001 = Real Emotion \; 8000 = selected-emotion \; 9001 = Engagement \;;
#X obj 1072 823 loadbang;
#X msg 1093 735 set /Selected Emotion/;
#X floatatom 1056 897 5 0 0 0 - - - 0;
#X msg 1072 847 connect 10.12.181.191 8000;
#X connect 1 0 3 0;
#X connect 2 0 4 0;
#X connect 4 0 1 0;
#X connect 5 0 7 0;
#X connect 6 0 5 0;
#X connect 8 0 6 0;
#X connect 22 0 24 0;
#X connect 22 0 44 0;
#X connect 24 0 25 0;
#X connect 26 0 49 0;
#X connect 29 0 51 0;
#X connect 30 0 42 0;
#X connect 31 0 46 0;
#X connect 32 0 33 0;
#X connect 34 0 47 0;
#X connect 35 0 36 0;
#X connect 37 0 48 0;
#X connect 39 0 50 0;
#X connect 44 0 43 0;
#X connect 45 0 44 1;
#X connect 46 0 68 0;
#X connect 46 1 69 0;
#X connect 47 0 66 0;
#X connect 47 1 67 0;
#X connect 48 0 83 0;
#X connect 49 0 86 0;
#X connect 50 0 89 0;
#X connect 51 0 92 0;
#X connect 58 0 60 0;
#X connect 60 0 62 0;
#X connect 62 0 61 0;
#X connect 63 0 40 0;
#X connect 64 0 38 0;
#X connect 65 0 27 0;
#X connect 66 0 35 0;
#X connect 67 0 35 1;
#X connect 68 0 32 0;
#X connect 69 0 32 1;
#X connect 70 0 71 0;
#X connect 71 0 76 0;
#X connect 72 0 73 0;
#X connect 75 0 74 0;
#X connect 76 0 72 0;
#X connect 76 1 72 0;
#X connect 77 0 22 0;
#X connect 78 0 22 0;
#X connect 79 0 80 0;
#X connect 81 0 22 0;
#X connect 82 0 22 0;
#X connect 83 0 84 0;
#X connect 84 0 85 0;
#X connect 85 0 64 0;
#X connect 86 0 87 0;
#X connect 87 0 88 0;
#X connect 88 0 65 0;
#X connect 89 0 90 0;
#X connect 90 0 91 0;
#X connect 91 0 63 0;
#X connect 92 0 93 0;
#X connect 93 0 94 0;
#X connect 95 0 110 0;
#X connect 96 0 95 0;
#X connect 97 0 96 0;
#X connect 98 0 97 0;
#X connect 108 0 111 0;
#X connect 108 0 109 0;
#X connect 109 0 96 0;
#X connect 111 0 95 0;
