#N struct 1246-point float x0 float y0 float xs float ys float fg float in float gridx float gridy;
#N struct 1259-point float x0 float y0 float xs float ys float fg float in float gridx float gridy;
#N canvas -1792 34 1385 988 12;
#X declare -path ./abs;
#X obj 17 62 cnv 15 320 240 empty empty MediaPipe\ Connection 20 20 0 18 #e3c6ff #404040 0;
#X listbox 176 250 16 0 0 0 - - - 0;
#X obj 176 114 r \$0-armRightXY-r;
#X obj 176 273 s \$0-armRightXY-s;
#X listbox 36 250 16 0 0 0 - - - 0;
#X obj 36 273 s \$0-armLeftXY-s;
#X obj 36 114 r \$0-armLeftXY-r;
#X obj 18 310 cnv 19 900 100 empty empty Emotion\ Detection\ Switch 20 20 0 18 #c6feff #404040 0;
#X obj 346 61 cnv 15 340 240 empty empty Empatica\ E4\ &\ EEG\ Connection 12 20 0 18 #c7c6ff #404040 0;
#X obj 396 139 hsl 101 19 0 127 0 1 \$0-pressure-s \$0-pressure-r BVP -2 -10 0 12 #d8fcfc #000000 #000000 3800 1;
#X obj 396 179 hsl 101 19 0 127 0 1 \$0-temperature-s \$0-temperature-r temperature -2 -10 0 12 #d8fcfc #000000 #000000 3400 1;
#X obj 396 219 hsl 101 19 0 127 0 1 \$0-electricity-s \$0-electricity-r electricity -2 -10 0 12 #d8fcfc #000000 #000000 3800 1;
#X obj 396 259 hsl 101 19 0 127 0 1 \$0-heartRate-s \$0-heartRate-r heartRate -2 -10 0 12 #d8fcfc #000000 #000000 3200 1;
#X obj 516 139 hsl 101 19 0 127 0 1 \$0-engagement-s \$0-engagement-r EEG:\ engagement -2 -10 0 12 #d8fcfc #000000 #000000 0 1;
#X obj 698 60 cnv 15 220 240 empty empty Main 12 20 0 18 #feffc6 #404040 0;
#N canvas 0 22 450 278 (subpatch) 0;
#X array \$0-scope 4410 float 0;
#X coords 0 1 4409 -1 188 100 1 0 0;
#X restore 712 130 graph;
#X obj 719 267 hsl 101 19 0 1 0 1 \$0-volumen-s \$0-volumen-r Volumen -2 -10 0 12 #000000 #ffffff #000000 9100 1;
#X text 783 249 1;
#X text 814 249 2;
#X obj 17 417 cnv 19 900 435 empty empty OSC\ Communication\ Structure 20 20 0 18 #c6ffc7 #404040 0;
#X obj 34 674 oscparse;
#N canvas 62 58 1920 926 guts 0;
#X obj 186 412 catch~ \$0-left;
#X obj 176 520 dac~ 1;
#X obj 306 520 dac~ 2;
#X obj 316 412 catch~ \$0-right;
#X obj 176 299 catch~ \$0-mono;
#X obj 31 433 loadbang;
#X msg 30 457 1;
#X obj 30 481 metro 100;
#X obj 30 505 tabwrite~ \$0-scope;
#N canvas 68 96 839 701 pressure-y-electricity 0;
#X obj 308 264 *~ 0.2;
#X obj 308 182 else/resonant~ 61.73 500;
#X obj 333 211 else/resonant~ 184.9 37;
#X obj 333 235 *~ 0.3;
#X obj 253 413 else/drive~;
#X obj 386 274 r \$0-pressure-s;
#X obj 386 298 / 127;
#X obj 386 322 * 24;
#X obj 386 346 + 100;
#X obj 386 370 dbtorms;
#X obj 386 394 else/f2s~ 20;
#X obj 308 124 else/pink~;
#X obj 35 218 noise~;
#X obj 102 50 r \$0-electricity-s;
#X obj 102 74 / 127;
#X msg 102 98 1 \$1;
#X obj 102 122 -;
#X msg 102 194 10 \$1;
#X obj 102 218 pow;
#X obj 102 170 + 2;
#X obj 102 146 * 2;
#X obj 65 305 *~ 0.02;
#X obj 35 276 else/highpass~ 3000 0.7;
#X obj 253 384 +~;
#X text 440 333 <- de 0 a +24 dB de distorsion;
#X text 145 202 <- de 10k a 100;
#X text 102 30 GUI: electricity;
#X obj 35 513 throw~ \$0-reverb;
#X obj 35 489 *~ 0.15;
#X obj 308 153 else/power~ 3;
#X obj 35 247 else/power~ 100;
#X text 386 255 GUI: blood pressure;
#X obj 667 304 / 127;
#X text 667 260 GUI:engagement;
#X obj 667 280 r \$0-engagement-s;
#X msg 667 328 1 \$1;
#X obj 667 352 -;
#X msg 667 424 \$1 20;
#X obj 667 448 line~;
#X obj 277 485 *~;
#X obj 277 509 *~ 0.7;
#X obj 277 533 throw~ \$0-mono;
#X obj 667 376 * 0.9;
#X obj 667 400 + 0.1;
#X connect 0 0 23 1;
#X connect 1 0 0 0;
#X connect 2 0 3 0;
#X connect 3 0 0 0;
#X connect 4 0 39 0;
#X connect 5 0 6 0;
#X connect 6 0 7 0;
#X connect 7 0 8 0;
#X connect 8 0 9 0;
#X connect 9 0 10 0;
#X connect 10 0 4 1;
#X connect 11 0 29 0;
#X connect 12 0 30 0;
#X connect 13 0 14 0;
#X connect 14 0 15 0;
#X connect 15 0 16 0;
#X connect 16 0 20 0;
#X connect 17 0 18 0;
#X connect 18 0 30 1;
#X connect 19 0 17 0;
#X connect 20 0 19 0;
#X connect 21 0 23 0;
#X connect 22 0 21 0;
#X connect 23 0 4 0;
#X connect 28 0 27 0;
#X connect 29 0 1 0;
#X connect 29 0 2 0;
#X connect 30 0 22 0;
#X connect 32 0 35 0;
#X connect 34 0 32 0;
#X connect 35 0 36 0;
#X connect 36 0 42 0;
#X connect 37 0 38 0;
#X connect 38 0 39 1;
#X connect 39 0 40 0;
#X connect 40 0 41 0;
#X connect 42 0 43 0;
#X connect 43 0 37 0;
#X restore 1090 305 pd pressure-y-electricity;
#X obj 551 174 catch~ \$0-reverb;
#X obj 551 390 throw~ \$0-left;
#X obj 653 365 throw~ \$0-right;
#X obj 394 173 / 127;
#X obj 394 197 - 0.5;
#X obj 394 149 r \$0-temperature-s;
#X obj 394 221 * 2;
#X obj 394 245 t f f;
#X obj 295 219 clip -0.5 1;
#X obj 426 284 clip -1 0.5;
#X obj 176 328 else/lowshelf~ 1000 0.5;
#X obj 176 353 else/highshelf~ 3000 0.5;
#X obj 294 243 * 12;
#X obj 426 310 * -12;
#X text 394 129 GUI:temperature;
#X obj 306 486 else/drive~;
#X obj 176 486 else/drive~;
#X obj 294 267 else/f2s~ 100;
#X obj 426 334 else/f2s~ 100;
#N canvas 131 22 633 626 heartRate 0;
#X obj 396 2 r \$0-heartRate-s;
#X obj 396 26 / 127;
#X obj 396 50 * 40;
#X obj 396 74 + 60;
#X msg 396 98 60000 \$1;
#X obj 396 122 /;
#X obj 285 93 loadbang;
#X msg 285 117 1;
#X obj 285 141 metro;
#X obj 95 422 else/lowpass~;
#X obj 95 263 else/pink~;
#X obj 183 398 sig~ 0.4;
#X obj 436 151 v \$0-latidoMs;
#X obj 313 315 vline~;
#X obj 139 383 mtof~;
#X obj 156 461 else/drive~;
#X obj 295 490 *~;
#X obj 295 593 throw~ \$0-mono;
#X msg 252 252 1 1 \, 0 160 1;
#X obj 139 354 *~ 100;
#X obj 95 292 else/resonant~ 110 250;
#X obj 370 218 delay;
#X obj 402 186 / 4;
#X msg 32 227 clear;
#X msg 370 241 0.7 1 \, 0 160 1;
#X obj 313 426 sqrt~;
#X obj 422 593 throw~ \$0-reverb;
#X obj 422 569 *~ 0.1;
#X obj 295 569 *~ 0.2;
#X obj 443 361 / 127;
#X text 443 317 GUI:engagement;
#X obj 443 337 r \$0-engagement-s;
#X msg 443 385 1 \$1;
#X obj 443 409 -;
#X msg 443 481 \$1 20;
#X obj 443 505 line~;
#X obj 295 514 *~;
#X obj 443 433 * 0.9;
#X obj 443 457 + 0.1;
#X connect 0 0 1 0;
#X connect 1 0 2 0;
#X connect 2 0 3 0;
#X connect 3 0 4 0;
#X connect 4 0 5 0;
#X connect 5 0 8 1;
#X connect 5 0 12 0;
#X connect 5 0 22 0;
#X connect 6 0 7 0;
#X connect 7 0 8 0;
#X connect 8 0 18 0;
#X connect 8 0 23 0;
#X connect 8 0 21 0;
#X connect 9 0 15 0;
#X connect 10 0 20 0;
#X connect 11 0 9 2;
#X connect 13 0 19 0;
#X connect 13 0 25 0;
#X connect 14 0 9 1;
#X connect 15 0 16 0;
#X connect 16 0 36 0;
#X connect 18 0 13 0;
#X connect 19 0 14 0;
#X connect 20 0 9 0;
#X connect 21 0 24 0;
#X connect 22 0 21 1;
#X connect 23 0 9 0;
#X connect 23 0 20 0;
#X connect 24 0 13 0;
#X connect 25 0 16 1;
#X connect 27 0 26 0;
#X connect 28 0 17 0;
#X connect 29 0 32 0;
#X connect 31 0 29 0;
#X connect 32 0 33 0;
#X connect 33 0 37 0;
#X connect 34 0 35 0;
#X connect 35 0 36 1;
#X connect 36 0 28 0;
#X connect 36 0 27 0;
#X connect 37 0 38 0;
#X connect 38 0 34 0;
#X restore 1090 281 pd heartRate;
#N canvas 10 136 805 364 bioRand 0;
#X obj 418 263 line;
#X msg 418 239 \$1 20000;
#X obj 578 263 line;
#X msg 578 239 \$1 20000;
#X obj 278 263 line;
#X msg 278 239 \$1 20000;
#X obj 278 287 s \$0-temperature-r;
#X obj 418 287 s \$0-electricity-r;
#X obj 578 287 s \$0-heartRate-r;
#X obj 128 263 line;
#X msg 128 239 \$1 20000;
#X obj 128 287 s \$0-pressure-r;
#X obj 128 215 else/rand.i 0 127;
#X obj 278 215 else/rand.i 0 127;
#X obj 418 215 else/rand.i 0 127;
#X obj 578 215 else/rand.i 0 127;
#X obj 96 87 t f f;
#X msg 36 244 stop;
#X obj 128 116 metro 10000;
#X obj 96 63 r \$0-bioRand-s;
#X obj 37 134 sel 0;
#X connect 0 0 7 0;
#X connect 1 0 0 0;
#X connect 2 0 8 0;
#X connect 3 0 2 0;
#X connect 4 0 6 0;
#X connect 5 0 4 0;
#X connect 9 0 11 0;
#X connect 10 0 9 0;
#X connect 12 0 10 0;
#X connect 13 0 5 0;
#X connect 14 0 1 0;
#X connect 15 0 3 0;
#X connect 16 0 20 0;
#X connect 16 1 18 0;
#X connect 17 0 9 0;
#X connect 17 0 4 0;
#X connect 17 0 2 0;
#X connect 17 0 0 0;
#X connect 18 0 12 0;
#X connect 18 0 15 0;
#X connect 18 0 14 0;
#X connect 18 0 13 0;
#X connect 19 0 16 0;
#X connect 20 0 17 0;
#X restore 1110 410 pd bioRand;
#N canvas 367 141 450 300 comentarios 0;
#X text 31 29 Brazo izquierdo (mano \, codo \, hombro);
#X text 29 49 Brazo derecho (mano \, codo \, hombro);
#X text 33 136 Brazos (izq y der);
#X text 34 156 Codos (izq y der);
#X text 34 176 Hombros (izq y der);
#X text 34 116 Cabeza;
#X text 34 216 Rodillas (izq y der);
#X text 34 236 Pies (izq y der);
#X text 34 196 Caderas (izq y der);
#X text 23 86 Open pose: controla la base;
#X text 243 86 Biomeotricos: agregan matiz;
#X restore 1120 458 pd comentarios;
#N canvas 272 313 755 363 poseRand 0;
#X obj 254 209 line;
#X obj 107 209 line;
#X obj 127 238 pack f f;
#X obj 107 161 else/rand.i 0 127;
#X obj 254 161 else/rand.i 0 127;
#X obj 120 26 r \$0-poseRand-s;
#X obj 120 50 t f f;
#X obj 152 79 metro 2000;
#X msg 37 190 stop;
#X obj 564 209 line;
#X obj 417 209 line;
#X obj 437 238 pack f f;
#X obj 417 161 else/rand.i 0 127;
#X obj 564 161 else/rand.i 0 127;
#X obj 127 267 s \$0-armLeftXY-r;
#X obj 437 267 s \$0-armRightXY-r;
#X obj 37 94 sel 0;
#X msg 107 185 \$1 1000;
#X msg 254 185 \$1 1000;
#X msg 417 185 \$1 1000;
#X msg 564 185 \$1 1000;
#X obj 317 62 metro 1;
#X connect 0 0 2 1;
#X connect 1 0 2 0;
#X connect 2 0 14 0;
#X connect 3 0 17 0;
#X connect 4 0 18 0;
#X connect 5 0 6 0;
#X connect 6 0 16 0;
#X connect 6 1 7 0;
#X connect 6 1 21 0;
#X connect 7 0 3 0;
#X connect 7 0 13 0;
#X connect 7 0 12 0;
#X connect 7 0 4 0;
#X connect 8 0 1 0;
#X connect 8 0 0 0;
#X connect 8 0 10 0;
#X connect 8 0 9 0;
#X connect 9 0 11 1;
#X connect 10 0 11 0;
#X connect 11 0 15 0;
#X connect 12 0 19 0;
#X connect 13 0 20 0;
#X connect 16 0 8 0;
#X connect 17 0 1 0;
#X connect 18 0 0 0;
#X connect 19 0 10 0;
#X connect 20 0 9 0;
#X connect 21 0 2 0;
#X connect 21 0 11 0;
#X restore 1110 433 pd poseRand;
#X text 1110 390 Rand;
#X text 780 231 Sub patches –––––––––––––;
#X obj 176 454 *~;
#X obj 430 363 r \$0-volumen-s;
#X obj 430 387 pow 2;
#X obj 430 411 * 2;
#X obj 430 435 else/f2s~ 100;
#X obj 306 454 *~;
#X text 1090 261 Biometrics;
#X text 780 261 Mediapipe;
#N canvas 675 481 824 403 passionsButtons 0;
#X obj 16 127 r \$0-love-s;
#X obj 16 175 s \$0-passion;
#X obj 116 175 s \$0-passion;
#X obj 116 127 r \$0-hate-s;
#X obj 546 175 s \$0-passion;
#X obj 546 127 r \$0-sadness-s;
#X obj 446 175 s \$0-passion;
#X obj 216 175 s \$0-passion;
#X obj 316 175 s \$0-passion;
#X obj 446 127 r \$0-joy-s;
#X obj 216 127 r \$0-desire-s;
#X obj 316 127 r \$0-admiration-s;
#X obj 60 48 text define -k \$0-passionName;
#A set Other \; Love \; Hate \; Desire \; Admiration \; Joy \; Sadness \;;
#X obj 219 260 r \$0-emotion-s;
#X obj 219 284 text get \$0-passionName;
#X msg 219 308 label Emotion:\$1;
#X obj 219 332 s \$0-emotion-r;
#X msg 16 151 1;
#X msg 116 151 2;
#X msg 216 151 3;
#X msg 316 151 4;
#X msg 446 151 5;
#X msg 546 151 6;
#X connect 0 0 17 0;
#X connect 3 0 18 0;
#X connect 5 0 22 0;
#X connect 9 0 21 0;
#X connect 10 0 19 0;
#X connect 11 0 20 0;
#X connect 13 0 14 0;
#X connect 14 0 15 0;
#X connect 15 0 16 0;
#X connect 17 0 1 0;
#X connect 18 0 2 0;
#X connect 19 0 7 0;
#X connect 20 0 8 0;
#X connect 21 0 6 0;
#X connect 22 0 4 0;
#X restore 563 467 pd passionsButtons;
#N canvas -1690 51 1660 997 armAcceleration 0;
#X obj 92 16 r \$0-armLeftXY-s;
#X obj 12 151 unpack f f;
#X obj 12 414 pow 2;
#X obj 79 414 pow 2;
#X obj 42 443 +;
#X obj 42 467 sqrt;
#X obj 12 241 t f f;
#X obj 12 122 list;
#X obj 12 280 -;
#X obj 79 280 -;
#X obj 79 241 t f f;
#X obj 92 74 lop 1 250;
#X obj 182 74 lop 1 250;
#X obj 42 491 max 0;
#X obj 12 65 metro 40;
#X obj 12 12 loadbang;
#X msg 12 36 1;
#X text 77 466 <- overall velocity;
#X text 106 279 <- velocity on x and y;
#X obj 92 45 unpack f f;
#X obj 92 103 pack f f;
#X text 252 74 <- low pass;
#X obj 12 339 t f f;
#X obj 79 309 t f f;
#X obj 130 573 select 1 0;
#X obj 60 612 t b b;
#X obj 220 612 t b b;
#X msg 180 671 stop;
#X obj 60 730 delay;
#X msg 60 759 1;
#X obj 219 730 delay;
#X msg 90 671 stop;
#X msg 219 759 0;
#X msg 130 671 500;
#X msg 60 671 0;
#X msg 251 671 0;
#X obj 42 515 t f f;
#X obj 42 827 *;
#X obj 42 856 s \$0-armLeftVel;
#X obj 44 368 s \$0-armLeftVelX;
#X obj 111 338 s \$0-armLeftVelY;
#X obj 412 151 unpack f f;
#X obj 412 424 pow 2;
#X obj 479 424 pow 2;
#X obj 442 453 +;
#X obj 442 477 sqrt;
#X obj 412 241 t f f;
#X obj 412 122 list;
#X obj 412 290 -;
#X obj 479 290 -;
#X obj 479 241 t f f;
#X obj 492 74 lop 1 250;
#X obj 582 74 lop 1 250;
#X obj 442 501 max 0;
#X obj 412 65 metro 40;
#X obj 412 12 loadbang;
#X msg 412 36 1;
#X text 477 476 <- overall velocity;
#X text 506 289 <- velocity on x and y;
#X obj 492 45 unpack f f;
#X obj 492 103 pack f f;
#X text 652 74 <- low pass;
#X obj 412 349 t f f;
#X obj 479 319 t f f;
#X obj 530 583 select 1 0;
#X obj 460 622 t b b;
#X obj 620 622 t b b;
#X msg 580 681 stop;
#X obj 460 740 delay;
#X msg 460 769 1;
#X obj 619 740 delay;
#X msg 490 681 stop;
#X msg 619 769 0;
#X msg 530 681 500;
#X msg 460 681 0;
#X msg 651 621 0;
#X obj 442 525 t f f;
#X obj 444 378 s \$0-armRightVelX;
#X obj 511 348 s \$0-armRightVelY;
#X obj 492 16 r \$0-armRightXY-s;
#X obj 60 798 t f f;
#X obj 92 827 s \$0-armLeftThresh;
#X obj 442 837 *;
#X obj 460 808 t f f;
#X obj 492 837 s \$0-armRightThresh;
#X obj 442 866 s \$0-armRightVel;
#X obj 12 180 t f f;
#X obj 79 180 t f f;
#X obj 44 209 s \$0-armLeftX;
#X obj 154 209 s \$0-armLeftY;
#X obj 412 180 t f f;
#X obj 479 180 t f f;
#X obj 444 209 s \$0-armRightX;
#X obj 554 209 s \$0-armRightY;
#X msg 220 671 40;
#X msg 620 681 40;
#X obj 130 544 > 0.002;
#X obj 530 554 > 0.002;
#X obj 311 854 t b f;
#X obj 291 883 +;
#X obj 291 907 s \$0-armVel;
#X obj 937 267 r \$0-armLeftX;
#X obj 957 296 r \$0-armRightX;
#X obj 937 349 -;
#X obj 957 320 t b f;
#X obj 1087 267 r \$0-armLeftX;
#X obj 1107 296 r \$0-armRightX;
#X obj 1087 349 -;
#X obj 1107 320 t b f;
#X obj 937 373 pow 2;
#X obj 1087 373 pow 2;
#X obj 1087 432 +;
#X obj 1087 397 t b f;
#X obj 1087 456 sqrt;
#X obj 1087 550 s \$0-armSeparation;
#X obj 1087 514 clip 0 127;
#X obj 1087 490 else/rescale 0.1 0.5 0 127;
#X connect 0 0 19 0;
#X connect 1 0 86 0;
#X connect 1 1 87 0;
#X connect 2 0 4 0;
#X connect 3 0 4 1;
#X connect 4 0 5 0;
#X connect 5 0 13 0;
#X connect 6 0 8 1;
#X connect 6 1 8 0;
#X connect 7 0 1 0;
#X connect 8 0 22 0;
#X connect 9 0 23 0;
#X connect 10 0 9 1;
#X connect 10 1 9 0;
#X connect 11 0 20 0;
#X connect 12 0 20 1;
#X connect 13 0 36 0;
#X connect 14 0 7 0;
#X connect 15 0 16 0;
#X connect 16 0 14 0;
#X connect 19 0 11 0;
#X connect 19 1 12 0;
#X connect 20 0 7 1;
#X connect 22 0 2 0;
#X connect 22 1 39 0;
#X connect 23 0 3 0;
#X connect 23 1 40 0;
#X connect 24 0 25 0;
#X connect 24 1 26 0;
#X connect 25 0 33 0;
#X connect 25 0 34 0;
#X connect 25 1 28 0;
#X connect 25 1 31 0;
#X connect 26 0 94 0;
#X connect 26 0 35 0;
#X connect 26 1 27 0;
#X connect 26 1 30 0;
#X connect 27 0 28 0;
#X connect 28 0 29 0;
#X connect 29 0 80 0;
#X connect 30 0 32 0;
#X connect 31 0 30 0;
#X connect 32 0 80 0;
#X connect 33 0 30 1;
#X connect 34 0 28 1;
#X connect 35 0 30 1;
#X connect 36 0 37 0;
#X connect 36 1 96 0;
#X connect 37 0 38 0;
#X connect 37 0 99 0;
#X connect 41 0 90 0;
#X connect 41 1 91 0;
#X connect 42 0 44 0;
#X connect 43 0 44 1;
#X connect 44 0 45 0;
#X connect 45 0 53 0;
#X connect 46 0 48 1;
#X connect 46 1 48 0;
#X connect 47 0 41 0;
#X connect 48 0 62 0;
#X connect 49 0 63 0;
#X connect 50 0 49 1;
#X connect 50 1 49 0;
#X connect 51 0 60 0;
#X connect 52 0 60 1;
#X connect 53 0 76 0;
#X connect 54 0 47 0;
#X connect 55 0 56 0;
#X connect 56 0 54 0;
#X connect 59 0 51 0;
#X connect 59 1 52 0;
#X connect 60 0 47 1;
#X connect 62 0 42 0;
#X connect 62 1 77 0;
#X connect 63 0 43 0;
#X connect 63 1 78 0;
#X connect 64 0 65 0;
#X connect 64 1 66 0;
#X connect 65 0 73 0;
#X connect 65 0 74 0;
#X connect 65 1 68 0;
#X connect 65 1 71 0;
#X connect 66 0 95 0;
#X connect 66 0 75 0;
#X connect 66 1 67 0;
#X connect 66 1 70 0;
#X connect 67 0 68 0;
#X connect 68 0 69 0;
#X connect 69 0 83 0;
#X connect 70 0 72 0;
#X connect 71 0 70 0;
#X connect 72 0 83 0;
#X connect 73 0 70 1;
#X connect 74 0 68 1;
#X connect 75 0 70 1;
#X connect 76 0 82 0;
#X connect 76 1 97 0;
#X connect 79 0 59 0;
#X connect 80 0 37 1;
#X connect 80 1 81 0;
#X connect 82 0 85 0;
#X connect 82 0 98 0;
#X connect 83 0 82 1;
#X connect 83 1 84 0;
#X connect 86 0 6 0;
#X connect 86 1 88 0;
#X connect 87 0 10 0;
#X connect 87 1 89 0;
#X connect 90 0 46 0;
#X connect 90 1 92 0;
#X connect 91 0 50 0;
#X connect 91 1 93 0;
#X connect 94 0 28 1;
#X connect 95 0 68 1;
#X connect 96 0 24 0;
#X connect 97 0 64 0;
#X connect 98 0 99 0;
#X connect 98 1 99 1;
#X connect 99 0 100 0;
#X connect 101 0 103 0;
#X connect 102 0 104 0;
#X connect 103 0 109 0;
#X connect 104 0 103 0;
#X connect 104 1 103 1;
#X connect 105 0 107 0;
#X connect 106 0 108 0;
#X connect 107 0 110 0;
#X connect 108 0 107 0;
#X connect 108 1 107 1;
#X connect 109 0 111 0;
#X connect 110 0 112 0;
#X connect 111 0 113 0;
#X connect 112 0 111 0;
#X connect 112 1 111 1;
#X connect 113 0 116 0;
#X connect 115 0 114 0;
#X connect 116 0 115 0;
#X restore 563 497 pd armAcceleration;
#X msg 1246 591 0 2 4 5 7 9 11;
#X obj 1335 639 array set \$0-scale;
#X obj 1367 665 array define -k \$0-scale 7;
#A 0 0 2 3 5 7 8 10;
#X obj 552 295 abs/re.plate~;
#X obj 584 216 loadbang;
#X obj 584 264 unpack f f f;
#X obj 687 126 / 127;
#X text 687 82 GUI:engagement;
#X obj 687 102 r \$0-engagement-s;
#X msg 687 174 \$1 20;
#X obj 687 198 line~;
#X obj 552 329 *~ 2;
#X obj 652 329 *~ 2;
#X obj 687 150 * 0.8;
#X msg 584 240 1 0.5 0.8;
#X obj 782 185 declare -path ./abs;
#X obj 1325 501 r \$0-emotion-s;
#X msg 1409 596 0 2 3 5 7 8 10;
#X text 1519 595 <- menor;
#X text 1183 593 mayor ->;
#X obj 1006 37 r \$0-emotion-s;
#X msg 1006 95 1200;
#X msg 1046 95 600;
#X msg 1086 95 0;
#X obj 1325 525 select 1 2 3 4 5 6;
#X obj 1006 63 select 1 2 3 4 5 6;
#X text 597 567 0 = Other \; 1 = Love \; 2 = Hate \; 3 = Desire \; 4 = Admiration \; 5 = Joy \; 6 = Sadness \;;
#X obj 911 352 _main-Love \$0;
#X obj 133 108 / 127;
#X text 133 64 GUI:engagement;
#X obj 133 180 else/f2s~ 8;
#X obj 115 209 *~;
#X obj 116 27 catch~ \$0-emotionAudio;
#X obj 133 84 r \$0-engagement-s;
#X obj 911 382 _main-Hate \$0;
#X obj 911 502 _main-sadness \$0;
#X obj 911 442 _main-Admiration \$0;
#X obj 911 412 _main-Desire \$0;
#X obj 911 472 _main-Joy \$0;
#X obj 1314 294 netsend -u -b;
#X obj 1314 215 oscformat;
#X obj 1314 129 text get \$0-passionName;
#X obj 1314 105 r \$0-passion;
#X obj 1330 244 loadbang;
#X msg 1330 174 set /Selected Emotion/;
#X floatatom 1314 318 5 0 0 0 - - - 0;
#X msg 1330 268 connect 10.12.181.191 8000;
#X text 1273 77 OSC Selected emotion test!!! -------;
#X obj 129 565 r \$0-armVel;
#X obj 127 696 sel 0;
#X msg 127 730 -1;
#X msg 159 730 1;
#X obj 127 784 +;
#X obj 167 784 i;
#X obj 330 840 hsl 162 19 0 1000 0 0 empty empty empty -2 -10 0 12 #fcfcfc #000000 #000000 0 1;
#X obj 258 577 r \$0-rec-s;
#X obj 311 640 else/datetime;
#X msg 311 669 \$1h\$2m\$3s;
#X msg 385 669 \$1y\$2m\$3d\$4;
#X obj 238 787 writesf~;
#X obj 239 524 +~;
#X obj 239 548 *~ 0.5;
#X obj 258 601 select 0 1;
#X msg 258 727 stop;
#X obj 406 538 r \$0-rec-s;
#X msg 406 591 color \$1 \$1;
#X obj 406 615 s \$0-rec-r;
#X obj 406 562 * 13;
#X obj 127 832 / 100;
#X obj 127 856 i;
#X obj 127 880 change -1;
#X obj 283 894 s \$0-armVelAcum;
#X obj 126 904 s \$0-armVelAcumStages;
#X obj 127 636 > 0.03;
#X obj 133 156 + 0.1;
#X obj 133 132 * 0.9;
#X obj 932 574 r \$0-armVel;
#X obj 932 658 sel 0;
#X obj 932 746 +;
#X obj 972 746 i;
#X obj 1135 802 hsl 162 19 0 1000 0 0 empty empty empty -2 -10 0 12 #fcfcfc #000000 #000000 0 1;
#X obj 932 794 / 100;
#X obj 932 818 i;
#X obj 932 842 change -1;
#X obj 932 598 > 0.03;
#X msg 932 692 1;
#X msg 964 692 -1;
#X obj 1088 856 s \$0-armHoldAcum;
#X obj 931 866 s \$0-armHoldAcumStages;
#X obj 932 770 clip 0 1000;
#X obj 127 808 clip 0 1000;
#X obj 23 668 +;
#X obj 23 692 clip 0 1000;
#X obj 63 668 f;
#X floatatom 23 716 5 0 0 0 - - - 0;
#X obj 63 571 - 0.04;
#X obj 29 610 clip -0.04 1;
#X msg 320 730 open C:/Users/Neurohumanities/Documents/recordings/scene1-sound/\$1-\$2-recording.wav \, start, f 79;
#X obj 506 533 loadbang;
#X msg 506 557 dsp 1;
#X obj 506 581 s pd;
#X obj 311 698 list prepend;
#X connect 0 0 35 0;
#X connect 3 0 40 0;
#X connect 4 0 20 0;
#X connect 5 0 6 0;
#X connect 6 0 7 0;
#X connect 7 0 8 0;
#X connect 10 0 48 0;
#X connect 13 0 14 0;
#X connect 14 0 16 0;
#X connect 15 0 13 0;
#X connect 16 0 17 0;
#X connect 17 0 18 0;
#X connect 17 1 19 0;
#X connect 18 0 22 0;
#X connect 19 0 23 0;
#X connect 20 0 21 0;
#X connect 21 0 35 0;
#X connect 21 0 40 0;
#X connect 22 0 27 0;
#X connect 23 0 28 0;
#X connect 25 0 2 0;
#X connect 25 0 8 0;
#X connect 25 0 105 1;
#X connect 26 0 1 0;
#X connect 26 0 8 0;
#X connect 26 0 105 0;
#X connect 27 0 20 3;
#X connect 28 0 21 3;
#X connect 35 0 26 0;
#X connect 36 0 37 0;
#X connect 37 0 38 0;
#X connect 38 0 39 0;
#X connect 39 0 40 1;
#X connect 39 0 35 1;
#X connect 40 0 25 0;
#X connect 45 0 46 0;
#X connect 48 0 56 0;
#X connect 48 1 57 0;
#X connect 49 0 59 0;
#X connect 50 0 48 1;
#X connect 50 1 48 2;
#X connect 50 2 48 3;
#X connect 51 0 58 0;
#X connect 53 0 51 0;
#X connect 54 0 55 0;
#X connect 55 0 48 4;
#X connect 56 0 11 0;
#X connect 57 0 12 0;
#X connect 58 0 54 0;
#X connect 59 0 50 0;
#X connect 61 0 69 0;
#X connect 62 0 46 0;
#X connect 65 0 70 0;
#X connect 66 0 48 5;
#X connect 67 0 48 5;
#X connect 68 0 48 5;
#X connect 69 0 45 0;
#X connect 69 1 62 0;
#X connect 69 2 62 0;
#X connect 69 3 45 0;
#X connect 69 4 45 0;
#X connect 69 5 62 0;
#X connect 70 0 66 0;
#X connect 70 1 67 0;
#X connect 70 5 68 0;
#X connect 73 0 120 0;
#X connect 75 0 76 1;
#X connect 76 0 20 0;
#X connect 77 0 76 0;
#X connect 78 0 73 0;
#X connect 84 0 90 0;
#X connect 85 0 84 0;
#X connect 86 0 85 0;
#X connect 87 0 86 0;
#X connect 88 0 91 0;
#X connect 88 0 89 0;
#X connect 89 0 85 0;
#X connect 91 0 84 0;
#X connect 93 0 118 0;
#X connect 93 0 140 0;
#X connect 94 0 95 0;
#X connect 94 1 96 0;
#X connect 95 0 97 0;
#X connect 96 0 97 0;
#X connect 97 0 135 0;
#X connect 98 0 97 1;
#X connect 100 0 107 0;
#X connect 101 0 102 0;
#X connect 101 1 103 0;
#X connect 102 0 146 0;
#X connect 103 0 146 1;
#X connect 105 0 106 0;
#X connect 106 0 104 0;
#X connect 107 0 108 0;
#X connect 107 1 101 0;
#X connect 108 0 104 0;
#X connect 109 0 112 0;
#X connect 110 0 111 0;
#X connect 112 0 110 0;
#X connect 113 0 114 0;
#X connect 114 0 115 0;
#X connect 115 0 117 0;
#X connect 118 0 94 0;
#X connect 119 0 75 0;
#X connect 120 0 119 0;
#X connect 121 0 129 0;
#X connect 122 0 130 0;
#X connect 122 1 131 0;
#X connect 123 0 134 0;
#X connect 124 0 123 1;
#X connect 126 0 127 0;
#X connect 127 0 128 0;
#X connect 128 0 133 0;
#X connect 129 0 122 0;
#X connect 130 0 123 0;
#X connect 131 0 123 0;
#X connect 134 0 124 0;
#X connect 134 0 125 0;
#X connect 134 0 126 0;
#X connect 134 0 132 0;
#X connect 135 0 98 0;
#X connect 135 0 99 0;
#X connect 135 0 113 0;
#X connect 135 0 116 0;
#X connect 136 0 137 0;
#X connect 137 0 138 0;
#X connect 137 0 139 0;
#X connect 138 0 136 1;
#X connect 140 0 141 0;
#X connect 141 0 136 0;
#X connect 142 0 104 0;
#X connect 143 0 144 0;
#X connect 144 0 145 0;
#X connect 146 0 142 0;
#X restore 37 461 pd guts;
#X obj 34 878 list trim;
#X obj 34 902 send \$0-osc;
#X obj 512 492 r \$0-osc;
#X obj 512 636 s \$0-temperature-r;
#X text 512 468 OSC temperature;
#X obj 871 491 r \$0-osc;
#X obj 870 611 else/rescale -1 1 0 127;
#X obj 342 714 r \$0-osc;
#X obj 342 767 pack f f;
#X obj 342 796 s \$0-armLeftXY-r;
#X obj 542 714 r \$0-osc;
#X obj 542 767 pack f f;
#X obj 542 796 s \$0-armRightXY-r;
#X obj 312 492 r \$0-osc;
#X obj 312 636 s \$0-pressure-r;
#X obj 682 492 r \$0-osc;
#X obj 682 636 s \$0-electricity-r;
#X text 682 468 OSC electricity;
#X obj 870 635 s \$0-heartRate-r;
#X obj 53 832 print OSC:;
#X obj 53 743 spigot;
#X obj 92 713 tgl 19 0 empty empty Print 22 11 0 12 #00ff04 #000000 #000000 0 1;
#X obj 342 738 route armLeftX armLeftY;
#X obj 542 738 route armRightX armRightY;
#X obj 312 516 route pressure;
#X obj 512 516 route temperature;
#X obj 682 516 route electricity;
#X obj 871 516 route heartRate;
#X text 312 460 OSC pressure(BVP);
#X text 342 690 OSC Arm Left;
#X text 542 690 OSC Arm Right;
#X text 871 467 OSC heartRate rescaled;
#X obj 393 98 tgl 19 0 \$0-bioRand-s \$0-bioRand-r bioRand 22 10 0 12 #c6ffc7 #000000 #000000 0 1;
#X obj 260 88 tgl 19 0 \$0-poseRand-s \$0-poseRand-r poseRand 22 10 0 12 #c6ffc7 #000000 #000000 0 1;
#X obj 752 694 r \$0-osc;
#X obj 752 718 route engagement;
#X obj 752 843 s \$0-engagement-r;
#X obj 682 612 else/rescale -1 1 0 127;
#X obj 312 612 else/rescale -1 1 0 127;
#X obj 512 612 else/rescale -1 1 0 127;
#X obj 34 489 netreceive -u -b 5001;
#X obj 44 539 netreceive -u -b 6001;
#X obj 164 709 oscparse;
#X listbox 164 733 20 0 0 0 - - - 0;
#X obj 64 569 netreceive -u -b 7001;
#X obj 84 639 netreceive -u -b 9001;
#X obj 312 540 change -1;
#X msg 312 564 \$1 1000;
#X obj 312 588 line 0 1;
#X obj 512 540 change -1;
#X msg 512 564 \$1 1000;
#X obj 512 588 line 0 1;
#X obj 682 540 change -1;
#X msg 682 564 \$1 1000;
#X obj 682 588 line 0 1;
#X obj 871 540 change -1;
#X msg 871 564 \$1 1000;
#X obj 871 588 line 0 1;
#X obj 337 368 bng 19 250 50 0 \$0-love-s \$0-love-r Love -4 -10 0 12 #000000 #ff0400 #000000;
#X obj 377 368 bng 19 250 50 0 \$0-hate-s \$0-hate-r Hate -2 30 0 12 #000000 #ff0400 #000000;
#X obj 537 368 bng 19 250 50 0 \$0-sadness-s \$0-sadness-r Sadness -15 30 0 12 #000000 #ff0400 #000000;
#X obj 497 368 bng 19 250 50 0 \$0-joy-s \$0-joy-r Joy 0 -10 0 12 #000000 #ff0400 #000000;
#X obj 417 368 bng 19 250 50 0 \$0-desire-s \$0-desire-r Desire -10 -10 0 12 #000000 #ff0400 #000000;
#X obj 457 368 bng 19 250 50 0 \$0-admiration-s \$0-admiration-r Admiration -20 30 0 12 #000000 #ff0400 #000000;
#X obj 44 368 hradio 19 1 0 7 \$0-emotion-s \$0-emotion-r Emotion:Sadness 0 -10 0 12 #fcfcfc #000000 #000000 0;
#X text 335 327 Emotion Selected;
#X obj 1061 491 r \$0-osc;
#X obj 177 138 else/slider2d 100 100 0 1 0 1 1 255 255 255 0 0 0 1 0 0 0 0 empty empty;
#X obj 36 138 else/slider2d 100 100 0 1 0 1 1 255 255 255 0 0 0 1 0 0 0 0 empty empty;
#X text 1190 468 0 = Other \; 1 = Love \; 2 = Hate \; 3 = Desire \; 4 = Admiration \; 5 = Joy \; 6 = Sadness \;;
#X obj 452 684 loadbang;
#X msg 452 708 range 0 1;
#X obj 652 684 loadbang;
#X msg 652 708 range 0 1;
#X obj 1061 515 route emotion-ID;
#X obj 1061 566 s \$0-emotion-r;
#X msg 752 766 \$1 10000;
#X obj 752 790 line 0 1;
#X text 1061 467 OSC emotionID;
#X obj 752 814 clip 0 127;
#N canvas 26 26 450 300 armdata 0;
#X obj 57 107 tgl 19 0 empty empty empty 0 -10 0 12 #fcfcfc #000000 #000000 0 1;
#X obj 57 131 metro 40;
#X obj 58 217 text get \$0-armData;
#X obj 179 141 text define \$0-armData;
#X msg 179 112 read ./arm-data-1.txt;
#X obj 57 155 t b b;
#X obj 57 184 else/count 2700;
#X obj 58 241 outlet;
#X connect 0 0 1 0;
#X connect 1 0 5 0;
#X connect 2 0 7 0;
#X connect 4 0 3 0;
#X connect 5 0 6 0;
#X connect 5 1 6 0;
#X connect 6 0 2 0;
#X restore 97 461 pd armdata;
#X obj 853 363 tgl 19 0 \$0-rec-s \$0-rec-r Record 0 -10 0 12 #fcfcfc #fcfcfc #000000 0 1;
#X text 39 390 LoveHateDesiAdmiJoySad;
#X obj 752 742 else/rescale -1 1 0 127;
#X obj 74 599 netreceive -u -b 8001;
#X text 752 670 OSC Engagement;
#X text 948 118 Archivo > Preferencias \; > Editar preferencias > Preferencias de audio;
#X text 948 168 Sistema de audio > standard (portaudio);
#X text 948 78 Configuraciones de audio:;
#X text 947 189 Velocidad de muestro: 44.1 kHz;
#X obj 17 12 cnv 40 500 40 empty empty Scene\ 1\ -\ Express\ your\ passions 20 20 0 24 #000000 #ffffff 0;
#X text 947 229 Retardo (mseg): 24 (subir a 40 o 80 si causa ruido);
#X text 947 209 Entrada/Salida: Windows WASAPI: 4-USB Audio CODEC;
#X obj 932 787 t b b;
#X msg 932 821 0;
#X obj 964 816 delay 10;
#X msg 964 840 1;
#X obj 964 864 s \$0-rec-r;
#X text 932 675 OSC Recording;
#X obj 932 704 r \$0-osc;
#X obj 932 728 route Rec Stop;
#X obj 932 762 route Rec;
#X obj 1012 762 route Stop;
#X text 158 780 Port \; 5001 = MediaPipe \; 5004 = Rec/Stop \; 6001 = Biometrics \; 7001 = Real Emotion \; 8000 = selected-emotion \; 8001 = record \; 9001 = Engagement \;;
#X obj 54 515 netreceive -u -b 5004;
#X connect 1 0 3 0;
#X connect 2 0 89 0;
#X connect 4 0 5 0;
#X connect 6 0 90 0;
#X connect 20 0 22 0;
#X connect 20 0 42 0;
#X connect 22 0 23 0;
#X connect 24 0 47 0;
#X connect 27 0 49 0;
#X connect 28 0 40 0;
#X connect 29 0 44 0;
#X connect 30 0 31 0;
#X connect 32 0 45 0;
#X connect 33 0 34 0;
#X connect 35 0 46 0;
#X connect 37 0 48 0;
#X connect 42 0 41 0;
#X connect 43 0 42 1;
#X connect 44 0 30 0;
#X connect 44 1 30 1;
#X connect 45 0 33 0;
#X connect 45 1 33 1;
#X connect 46 0 68 0;
#X connect 47 0 71 0;
#X connect 48 0 74 0;
#X connect 49 0 77 0;
#X connect 56 0 57 0;
#X connect 57 0 105 0;
#X connect 59 0 38 0;
#X connect 60 0 36 0;
#X connect 61 0 25 0;
#X connect 62 0 20 0;
#X connect 63 0 20 0;
#X connect 64 0 65 0;
#X connect 66 0 20 0;
#X connect 67 0 20 0;
#X connect 68 0 69 0;
#X connect 69 0 70 0;
#X connect 70 0 60 0;
#X connect 71 0 72 0;
#X connect 72 0 73 0;
#X connect 73 0 61 0;
#X connect 74 0 75 0;
#X connect 75 0 76 0;
#X connect 76 0 59 0;
#X connect 77 0 78 0;
#X connect 78 0 79 0;
#X connect 88 0 96 0;
#X connect 89 0 1 0;
#X connect 90 0 4 0;
#X connect 92 0 93 0;
#X connect 93 0 31 0;
#X connect 94 0 95 0;
#X connect 95 0 34 0;
#X connect 96 0 97 0;
#X connect 98 0 99 0;
#X connect 99 0 101 0;
#X connect 101 0 58 0;
#X connect 105 0 98 0;
#X connect 106 0 20 0;
#X connect 115 0 116 0;
#X connect 115 1 117 0;
#X connect 116 0 119 0;
#X connect 117 0 118 0;
#X connect 118 0 119 0;
#X connect 121 0 122 0;
#X connect 122 0 123 0;
#X connect 122 1 124 0;
#X connect 123 0 115 0;
#X connect 124 0 116 0;
#X connect 126 0 20 0;
