#N struct 1017-point float x0 float y0 float xs float ys float fg float in float gridx float gridy;
#N struct 1092-point float x0 float y0 float xs float ys float fg float in float gridx float gridy;
#N canvas 0 22 1920 1036 12;
#X obj 170 778 catch~ \$0-left;
#X obj 160 812 drive~;
#X obj 160 846 dac~ 1;
#X obj 290 812 drive~;
#X obj 290 846 dac~ 2;
#X obj 300 778 catch~ \$0-right;
#X obj 396 65 slider2d 127 127 0 127 0 127 1 255 255 255 0 0 0 0 0 0 38 81 empty empty;
#X listbox 397 197 20 0 0 0 - - - 0;
#X obj 668 188 hsl 162 19 0 127 0 1 \$0-presion-s empty Presion\ Sanguinea -2 -10 0 12 #d8fcfc #000000 #000000 1014 1;
#X text 109 40 Brazo izquierdo (mano \, codo \, hombro);
#X text 401 39 Brazo derecho (mano \, codo \, hombro);
#X text 113 481 Brazos (izq y der);
#X text 114 501 Codos (izq y der);
#X text 114 521 Hombros (izq y der);
#X text 114 461 Cabeza;
#X text 114 561 Rodillas (izq y der);
#X text 114 581 Pies (izq y der);
#X text 114 541 Caderas (izq y der);
#X obj 668 228 hsl 162 19 0 127 0 1 \$0-temperatura-s \$0-temperatura-r Temperatura -2 -10 0 12 #d8fcfc #000000 #000000 7987 1;
#X obj 668 268 hsl 162 19 0 127 0 1 \$0-electricidad-s empty Electricidad -2 -10 0 12 #d8fcfc #000000 #000000 14198 1;
#X obj 668 308 hsl 162 19 0 127 0 1 \$0-latidos-s \$0-latidos-r Latidos -2 -10 0 12 #d8fcfc #000000 #000000 11917 1;
#X obj 868 188 hsl 162 19 0 127 0 1 empty empty EEG:\ Concentracion -2 -10 0 12 #d8fcfc #000000 #000000 0 1;
#X text 103 431 Open pose: controla la base;
#X text 323 431 Biomeotricos: agregan matiz;
#X obj 160 628 catch~ \$0-mono;
#X obj 1137 94 tgl 19 0 empty empty empty 0 -10 0 12 #fcfcfc #000000 #000000 0 1;
#X obj 754 871 loadbang;
#X msg 753 895 1;
#X obj 753 919 metro 100;
#X obj 753 943 tabwrite~ \$0-scope;
#N canvas 0 22 450 278 (subpatch) 0;
#X array \$0-scope 441 float 0;
#X coords 0 1 440 -1 200 140 1;
#X restore 753 1077 graph;
#X obj 671 80 rand.i 0 127;
#X obj 671 128 line;
#X obj 1112 191 rand.i 0 127;
#X obj 1112 239 line;
#X obj 1132 119 metro 10000;
#X msg 1112 215 \$1 20000;
#X msg 671 104 \$1 20000;
#N canvas 68 96 720 547 presion-y-electricidad 0;
#X obj 253 471 throw~ \$0-mono;
#X obj 308 264 *~ 0.2;
#X obj 308 182 else/resonant~ 61.73 500;
#X obj 333 211 else/resonant~ 184.9 37;
#X obj 333 235 *~ 0.3;
#X obj 253 413 else/drive~;
#X obj 386 274 r \$0-presion-s;
#X obj 386 298 / 127;
#X obj 386 322 * 24;
#X obj 386 346 + 100;
#X obj 386 370 dbtorms;
#X obj 386 394 else/f2s~ 20;
#X obj 253 442 *~ 0.7;
#X obj 308 124 else/pink~;
#X obj 308 153 power~ 3;
#X obj 35 218 noise~;
#X obj 35 247 power~ 100;
#X obj 102 50 r \$0-electricidad-s;
#X obj 102 74 / 127;
#X msg 102 98 1 \$1;
#X obj 102 122 -;
#X msg 102 194 10 \$1;
#X obj 102 218 pow;
#X obj 102 170 + 2;
#X obj 102 146 * 2;
#X obj 65 305 *~ 0.02;
#X obj 35 276 else/highpass~ 3000 0.7;
#X obj 253 384 +~;
#X text 386 255 GUI: Presion sanguinea;
#X text 440 333 <- de 0 a +24 dB de distorsion;
#X text 145 202 <- de 10k a 100;
#X text 102 30 GUI: Electricidad;
#X obj 35 513 throw~ \$0-reverb;
#X obj 35 489 *~ 0.15;
#X connect 1 0 27 1;
#X connect 2 0 1 0;
#X connect 3 0 4 0;
#X connect 4 0 1 0;
#X connect 5 0 12 0;
#X connect 6 0 7 0;
#X connect 7 0 8 0;
#X connect 8 0 9 0;
#X connect 9 0 10 0;
#X connect 10 0 11 0;
#X connect 11 0 5 1;
#X connect 12 0 0 0;
#X connect 13 0 14 0;
#X connect 14 0 2 0;
#X connect 14 0 3 0;
#X connect 15 0 16 0;
#X connect 16 0 26 0;
#X connect 17 0 18 0;
#X connect 18 0 19 0;
#X connect 19 0 20 0;
#X connect 20 0 24 0;
#X connect 21 0 22 0;
#X connect 22 0 16 1;
#X connect 23 0 21 0;
#X connect 24 0 23 0;
#X connect 25 0 27 0;
#X connect 26 0 25 0;
#X connect 27 0 5 0;
#X connect 33 0 32 0;
#X restore 553 617 pd presion-y-electricidad;
#X obj 1235 199 rand.i 0 127;
#X obj 1235 247 line;
#X msg 1235 223 \$1 20000;
#X obj 495 810 catch~ \$0-reverb;
#X obj 497 945 else/plate.rev~;
#X obj 532 846 loadbang;
#X msg 532 870 wet 1 \, size 0.7 \, damp 0.5;
#X obj 497 969 throw~ \$0-left;
#X obj 617 969 throw~ \$0-right;
#X obj 390 516 / 127;
#X obj 390 540 - 0.5;
#X obj 390 492 r \$0-temperatura-s;
#X obj 390 564 * 2;
#X obj 390 588 t f f;
#X obj 453 653 clip -0.5 1;
#X obj 390 611 clip -1 0.5;
#X obj 159 681 else/lowshelf~ 1000 0.5;
#X obj 160 706 else/highshelf~ 3000 0.5;
#X obj 452 677 * 12;
#X obj 390 637 * -12;
#X obj 1010 317 rand.i 0 127;
#X obj 1010 365 line;
#X msg 1010 341 \$1 20000;
#X text 390 472 GUI:temperatura;
#X obj 397 220 unpack f f;
#X obj 491 311 -;
#X obj 491 267 t f f;
#X obj 414 302 -;
#X obj 414 258 t f f;
#X obj 398 404 send \$0-brazoDerX;
#X obj 484 385 send \$0-brazoDerY;
#N canvas 131 165 731 791 latido 0;
#X obj 552 138 r \$0-latidos-s;
#X obj 552 162 / 127;
#X obj 552 186 * 40;
#X obj 552 210 + 60;
#X msg 552 234 60000 \$1;
#X obj 552 258 /;
#X obj 441 229 loadbang;
#X msg 441 253 1;
#X obj 441 277 metro;
#X obj 441 317 bng 19 250 50 0 empty empty empty 0 -10 0 12 #fcfcfc #000000 #000000;
#X obj 250 576 else/lowpass~;
#X obj 254 381 else/pink~;
#X obj 368 536 sig~ 0.4;
#X obj 552 282 v \$0-latidoMs;
#X obj 420 451 vline~;
#X obj 317 525 mtof~;
#X obj 311 633 else/drive~;
#X obj 430 665 *~;
#X obj 403 735 throw~ \$0-mono;
#X msg 423 388 1 1 \, 0 160 1;
#X obj 322 479 *~ 100;
#X obj 251 428 else/resonant~ 110 250;
#X obj 541 354 delay;
#X obj 558 322 / 4;
#X msg 380 369 clear;
#X msg 541 377 0.7 1 \, 0 160 1;
#X obj 468 580 sqrt~;
#X obj 556 727 throw~ \$0-reverb;
#X obj 556 703 *~ 0.1;
#X obj 409 700 *~ 0.2;
#X connect 0 0 1 0;
#X connect 1 0 2 0;
#X connect 2 0 3 0;
#X connect 3 0 4 0;
#X connect 4 0 5 0;
#X connect 5 0 8 1;
#X connect 5 0 13 0;
#X connect 5 0 23 0;
#X connect 6 0 7 0;
#X connect 7 0 8 0;
#X connect 8 0 9 0;
#X connect 9 0 22 0;
#X connect 9 0 19 0;
#X connect 9 0 24 0;
#X connect 10 0 16 0;
#X connect 11 0 21 0;
#X connect 12 0 10 2;
#X connect 14 0 20 0;
#X connect 14 0 26 0;
#X connect 15 0 10 1;
#X connect 16 0 17 0;
#X connect 17 0 28 0;
#X connect 17 0 29 0;
#X connect 19 0 14 0;
#X connect 20 0 15 0;
#X connect 21 0 10 0;
#X connect 22 0 25 0;
#X connect 23 0 22 1;
#X connect 24 0 10 0;
#X connect 24 0 21 0;
#X connect 25 0 14 0;
#X connect 26 0 17 1;
#X connect 28 0 27 0;
#X connect 29 0 18 0;
#X restore 557 590 pd latido;
#X obj 1254 372 r \$0-brazoDerX;
#X obj 1254 396 / 127;
#X obj 1254 468 mtof;
#X obj 1254 492 f2s~ 100;
#X obj 1365 503 / 127;
#X obj 1365 479 r \$0-brazoDerY;
#X obj 1365 527 f2s~ 100;
#X obj 414 356 send \$0-brazoDerAccX;
#X obj 491 335 send \$0-brazoDerAccY;
#X obj 1056 605 r \$0-brazoDerAccX;
#X obj 1195 650 r \$0-brazoDerAccY;
#X obj 1045 801 abs~;
#X obj 1195 674 / 127;
#X obj 1056 629 / 127;
#X obj 823 833 *~;
#X obj 840 904 throw~ \$0-reverb;
#X obj 1254 444 + 30;
#X obj 1254 420 * 60;
#X obj 1254 546 bl.saw~;
#X obj 811 700 clone -s 1 randomPitches 30;
#X obj 774 468 r \$0-brazoDerX;
#X obj 774 492 / 127;
#X obj 774 516 * 2;
#X obj 774 540 - 1;
#X obj 774 564 * 3;
#X obj 1004 899 *~ 0.5;
#X obj 957 941 throw~ \$0-mono;
#X obj 811 724 /~ 20;
#X obj 1045 777 hip~ 0.2;
#X obj 1048 692 *~ 2;
#X obj 1040 759 clip~ 0 1;
#X obj 780 596 else/f2s~ 100;
#X obj 896 492 / 127;
#X obj 902 596 else/f2s~ 100;
#X obj 896 468 r \$0-brazoDerY;
#X obj 1048 668 else/f2s~ 100;
#X obj 1105 725 else/f2s~ 100;
#X obj 896 540 + 20;
#X obj 896 564 mtof;
#X obj 812 748 else/highpass~ 1000 1.8;
#X obj 895 516 * 80;
#X obj 139 57 slider2d 127 127 0 127 0 127 1 255 255 255 0 0 0 0 0 0 59 100 empty empty;
#X listbox 140 189 20 0 0 0 - - - 0;
#X obj 140 212 unpack f f;
#X obj 234 303 -;
#X obj 234 259 t f f;
#X obj 157 294 -;
#X obj 157 250 t f f;
#X obj 234 327 send \$0-brazoIzqAccY;
#X obj 156 348 send \$0-brazoIzqAccX;
#X obj 227 377 send \$0-brazoIzqY;
#X obj 141 396 send \$0-brazoIzqX;
#X obj 1484 1110 abs~;
#X obj 1634 983 / 127;
#X obj 1495 938 / 127;
#X obj 1262 1142 *~;
#X obj 1279 1213 throw~ \$0-reverb;
#X obj 1250 1009 clone -s 1 randomPitches 30;
#X obj 1213 801 / 127;
#X obj 1213 825 * 2;
#X obj 1213 849 - 1;
#X obj 1213 873 * 3;
#X obj 1443 1208 *~ 0.5;
#X obj 1396 1250 throw~ \$0-mono;
#X obj 1250 1033 /~ 20;
#X obj 1484 1086 hip~ 0.2;
#X obj 1487 1001 *~ 2;
#X obj 1479 1068 clip~ 0 1;
#X obj 1219 905 else/f2s~ 100;
#X obj 1335 801 / 127;
#X obj 1341 905 else/f2s~ 100;
#X obj 1487 977 else/f2s~ 100;
#X obj 1544 1034 else/f2s~ 100;
#X obj 1335 849 + 20;
#X obj 1335 873 mtof;
#X obj 1251 1057 else/highpass~ 1000 1.8;
#X obj 1334 825 * 80;
#X obj 1213 776 r \$0-brazoIzqX;
#X obj 1335 777 r \$0-brazoIzqY;
#X obj 1495 914 r \$0-brazoIzqAccX;
#X obj 1634 959 r \$0-brazoIzqAccY;
#X obj 743 371 rand.i 0 127;
#X obj 743 419 line;
#X obj 646 368 rand.i 0 127;
#X obj 646 416 line;
#X obj 646 440 pack f f;
#X obj 975 50 rand.i 0 127;
#X obj 975 98 line;
#X obj 878 47 rand.i 0 127;
#X obj 878 95 line;
#X obj 878 119 pack f f;
#X floatatom 504 242 5 0 0 0 - - - 0;
#X obj 1293 46 tgl 19 0 empty empty empty 0 -10 0 12 #fcfcfc #000000 #000000 0 1;
#X obj 1293 70 metro 2000;
#X msg 878 71 \$1 2000;
#X msg 975 74 \$1 2000;
#X msg 743 395 \$1 2000;
#X msg 646 392 \$1 2000;
#X obj 1045 825 *~ 4;
#X obj 1034 851 clip~ 0 1;
#X obj 1438 1130 *~ 4;
#X obj 1427 1156 clip~ 0 1;
#X connect 0 0 1 0;
#X connect 1 0 2 0;
#X connect 3 0 4 0;
#X connect 5 0 3 0;
#X connect 6 0 7 0;
#X connect 7 0 63 0;
#X connect 24 0 55 0;
#X connect 25 0 35 0;
#X connect 26 0 27 0;
#X connect 27 0 28 0;
#X connect 28 0 29 0;
#X connect 31 0 37 0;
#X connect 32 0 8 0;
#X connect 33 0 36 0;
#X connect 34 0 19 0;
#X connect 35 0 31 0;
#X connect 35 0 33 0;
#X connect 35 0 39 0;
#X connect 35 0 59 0;
#X connect 36 0 34 0;
#X connect 37 0 32 0;
#X connect 39 0 41 0;
#X connect 40 0 20 0;
#X connect 41 0 40 0;
#X connect 42 0 43 0;
#X connect 43 0 46 0;
#X connect 43 1 47 0;
#X connect 44 0 45 0;
#X connect 45 0 43 0;
#X connect 48 0 49 0;
#X connect 49 0 51 0;
#X connect 50 0 48 0;
#X connect 51 0 52 0;
#X connect 52 0 54 0;
#X connect 52 1 53 0;
#X connect 53 0 57 0;
#X connect 54 0 58 0;
#X connect 55 0 56 0;
#X connect 56 0 1 0;
#X connect 56 0 3 0;
#X connect 57 0 55 3;
#X connect 58 0 56 3;
#X connect 59 0 61 0;
#X connect 60 0 18 0;
#X connect 61 0 60 0;
#X connect 63 0 67 0;
#X connect 63 0 68 0;
#X connect 63 1 65 0;
#X connect 63 1 69 0;
#X connect 63 1 162 0;
#X connect 64 0 79 0;
#X connect 65 0 64 1;
#X connect 65 1 64 0;
#X connect 66 0 78 0;
#X connect 67 0 66 1;
#X connect 67 1 66 0;
#X connect 71 0 72 0;
#X connect 72 0 88 0;
#X connect 73 0 74 0;
#X connect 74 0 89 0;
#X connect 75 0 77 0;
#X connect 76 0 75 0;
#X connect 80 0 84 0;
#X connect 81 0 83 0;
#X connect 82 0 169 0;
#X connect 83 0 107 0;
#X connect 84 0 106 0;
#X connect 85 0 29 0;
#X connect 85 0 86 0;
#X connect 85 0 96 0;
#X connect 87 0 73 0;
#X connect 88 0 87 0;
#X connect 90 0 98 0;
#X connect 91 0 92 0;
#X connect 92 0 93 0;
#X connect 93 0 94 0;
#X connect 94 0 95 0;
#X connect 95 0 102 0;
#X connect 96 0 97 0;
#X connect 98 0 110 0;
#X connect 99 0 82 0;
#X connect 100 0 101 0;
#X connect 101 0 99 0;
#X connect 102 0 90 0;
#X connect 103 0 111 0;
#X connect 104 0 110 1;
#X connect 105 0 103 0;
#X connect 106 0 100 0;
#X connect 107 0 100 0;
#X connect 108 0 109 0;
#X connect 109 0 104 0;
#X connect 110 0 85 0;
#X connect 111 0 108 0;
#X connect 112 0 113 0;
#X connect 113 0 114 0;
#X connect 114 0 118 0;
#X connect 114 0 122 0;
#X connect 114 1 116 0;
#X connect 114 1 121 0;
#X connect 115 0 119 0;
#X connect 116 0 115 1;
#X connect 116 1 115 0;
#X connect 117 0 120 0;
#X connect 118 0 117 1;
#X connect 118 1 117 0;
#X connect 123 0 171 0;
#X connect 124 0 143 0;
#X connect 125 0 142 0;
#X connect 126 0 127 0;
#X connect 126 0 133 0;
#X connect 128 0 135 0;
#X connect 129 0 130 0;
#X connect 130 0 131 0;
#X connect 131 0 132 0;
#X connect 132 0 139 0;
#X connect 133 0 134 0;
#X connect 135 0 146 0;
#X connect 136 0 123 0;
#X connect 137 0 138 0;
#X connect 138 0 136 0;
#X connect 139 0 128 0;
#X connect 140 0 147 0;
#X connect 141 0 146 1;
#X connect 142 0 137 0;
#X connect 143 0 137 0;
#X connect 144 0 145 0;
#X connect 145 0 141 0;
#X connect 146 0 126 0;
#X connect 147 0 144 0;
#X connect 148 0 129 0;
#X connect 149 0 140 0;
#X connect 150 0 125 0;
#X connect 151 0 124 0;
#X connect 152 0 167 0;
#X connect 153 0 156 1;
#X connect 154 0 168 0;
#X connect 155 0 156 0;
#X connect 156 0 6 0;
#X connect 157 0 166 0;
#X connect 158 0 161 1;
#X connect 159 0 165 0;
#X connect 160 0 161 0;
#X connect 161 0 112 0;
#X connect 163 0 164 0;
#X connect 164 0 157 0;
#X connect 164 0 159 0;
#X connect 164 0 152 0;
#X connect 164 0 154 0;
#X connect 165 0 160 0;
#X connect 166 0 158 0;
#X connect 167 0 153 0;
#X connect 168 0 155 0;
#X connect 169 0 170 0;
#X connect 170 0 85 1;
#X connect 171 0 172 0;
#X connect 172 0 126 1;
