#N canvas 0 22 1920 1036 12;
#X obj 262 154 loadbang;
#X obj 262 177 else/rand.f 27 127;
#X obj 262 273 osc~;
#X obj 416 245 loadbang;
#X obj 416 291 + 100;
#X obj 416 314 dbtorms;
#X obj 416 268 else/rand.i -24 0;
#X obj 265 362 *~;
#X obj 265 385 outlet~;
#X obj 262 200 sig~;
#X obj 262 223 +~;
#X obj 262 250 mtof~;
#X obj 413 190 inlet~;
#X connect 0 0 1 0;
#X connect 1 0 9 0;
#X connect 2 0 7 0;
#X connect 3 0 6 0;
#X connect 4 0 5 0;
#X connect 5 0 7 1;
#X connect 6 0 4 0;
#X connect 7 0 8 0;
#X connect 9 0 10 0;
#X connect 10 0 11 0;
#X connect 11 0 2 0;
#X connect 12 0 10 1;
