#N canvas -1477 40 1920 1036 12;
#X obj 485 505 bl.saw~ 241.5;
#X obj 485 529 lowpass~ 4000 0.4;
#X obj 184 591 else/drive~;
#X obj 219 879 dac~ 1 2;
#X obj 503 324 sig~ 241.5;
#X msg 356 820 open ./test.wav \, start;
#X obj 356 844 writesf~;
#X msg 395 759 stop;
#X obj 219 855 *~ 0.5;
#X obj 748 340 osc~ 241.5;
#X obj 748 364 *~;
#X obj 508 454 +~;
#X obj 748 388 *~ 1;
#X floatatom 793 394 5 0 0 0 - - - 0;
#X obj 683 305 *~ 1;
#X floatatom 724 279 5 0 0 0 - - - 0;
#X msg 612 558 open ./voz.wav \, start;
#X obj 612 582 readsf~;
#X obj 204 761 *~ 1;
#X obj 237 34 r \$0-sampleSize;
#X obj 188 202 tabread4~ voz;
#X obj 104 134 phasor~;
#X obj 237 58 t f f;
#X msg 102 34 44100 \$1;
#X obj 102 58 /;
#X obj 150 165 *~;
#X floatatom 345 58 5 0 0 0 - - - 0;
#X obj 345 81 + 69;
#X obj 345 105 mtof;
#X obj 345 129 / 440;
#X obj 258 122 * -100;
#X floatatom 345 153 5 0 0 0 - - - 0;
#X obj 102 105 *~ 0.8;
#X msg 345 242 transposition \$1;
#X msg 939 256 read -resize ./voz.wav voz;
#X obj 1088 287 array define voz;
#X obj 939 280 soundfiler;
#X obj 939 304 s \$0-sampleSize;
#X obj 969 328 v \$0-sampleSize;
#X obj 939 227 loadbang;
#X obj 84 425 clip~ -1 1;
#X obj 172 323 lop~ 3000;
#X obj 171 371 else/eq~ 1500 0.4 12;
#X obj 172 347 hip~ 200;
#X obj 84 473 lop~ 1000;
#X obj 254 552 *~ 0.5;
#X obj 342 555 *~ 0.5;
#X obj 84 448 *~ 0.05;
#X obj 83 400 *~ 100;
#X obj 177 629 else/vibrato~ 50 40;
#X obj 172 271 abs/audiolab/pp.fft-pitchshift~;
#A saved empty_slot \; empty_slot \; empty_slot \; empty_slot \; empty_slot \; empty_slot \; empty_slot \; empty_slot \; empty_slot \; empty_slot \; empty_slot \; empty_slot \; empty_slot \; empty_slot \; empty_slot \; empty_slot \; empty_slot \; empty_slot \; empty_slot \; empty_slot \; empty_slot \;;
#X obj 259 515 else/freq.shift~ 50;
#X obj 185 498 *~ 1;
#X obj 416 650 line~;
#X obj 201 669 *~;
#X obj 416 573 change -1;
#X obj 416 597 select 0 1;
#X obj 416 525 env~;
#X obj 416 549 > 76;
#X obj 201 726 else/plate.rev~;
#X msg 415 708 wet 0.5 \, cutoff 1 \, pre 10 \, size 0.5 \, damp 0.5;
#X msg 416 621 1 100;
#X msg 477 619 4 10;
#X connect 0 0 1 0;
#X connect 2 0 49 0;
#X connect 4 0 11 0;
#X connect 4 0 14 0;
#X connect 5 0 6 0;
#X connect 7 0 6 0;
#X connect 8 0 3 0;
#X connect 8 0 3 1;
#X connect 9 0 10 0;
#X connect 10 0 12 0;
#X connect 11 0 0 0;
#X connect 12 0 11 1;
#X connect 13 0 12 1;
#X connect 14 0 9 0;
#X connect 14 0 10 1;
#X connect 15 0 14 1;
#X connect 16 0 17 0;
#X connect 18 0 6 0;
#X connect 18 0 8 0;
#X connect 19 0 22 0;
#X connect 20 0 50 0;
#X connect 20 0 57 0;
#X connect 21 0 25 0;
#X connect 22 0 23 0;
#X connect 22 1 25 1;
#X connect 23 0 24 0;
#X connect 24 0 32 0;
#X connect 25 0 20 0;
#X connect 26 0 27 0;
#X connect 26 0 30 0;
#X connect 27 0 28 0;
#X connect 28 0 29 0;
#X connect 29 0 31 0;
#X connect 29 0 32 1;
#X connect 30 0 33 0;
#X connect 32 0 21 0;
#X connect 33 0 50 2;
#X connect 34 0 36 0;
#X connect 36 0 37 0;
#X connect 39 0 34 0;
#X connect 40 0 47 0;
#X connect 41 0 43 0;
#X connect 42 0 48 0;
#X connect 42 0 52 0;
#X connect 43 0 42 0;
#X connect 44 0 52 0;
#X connect 45 0 2 0;
#X connect 46 0 2 0;
#X connect 47 0 44 0;
#X connect 48 0 40 0;
#X connect 49 0 54 0;
#X connect 50 0 41 0;
#X connect 51 0 45 0;
#X connect 51 1 46 0;
#X connect 52 0 2 0;
#X connect 52 0 51 0;
#X connect 53 0 54 1;
#X connect 55 0 56 0;
#X connect 56 0 61 0;
#X connect 56 1 62 0;
#X connect 57 0 58 0;
#X connect 58 0 55 0;
#X connect 59 0 18 0;
#X connect 60 0 59 0;
#X connect 61 0 53 0;
#X connect 62 0 53 0;
