#N canvas 465 322 967 680 12;
#X declare -path ./abs;
#X declare -path ./abs/scenes;
#X obj 45 461 oscparse;
#X obj 45 402 netreceive -u -b 5003;
#X obj 245 426 route mouth;
#X obj 45 485 list trim;
#X obj 245 450 clip 0.002 0.02;
#X obj 245 474 else/rescale 0.002 0.02 0 127;
#X obj 65 432 netreceive -u -b 7001;
#X obj 465 402 r \$0-osc;
#X obj 465 426 route emotion-ID;
#X obj 45 509 send \$0-osc;
#X obj 245 402 r \$0-osc;
#N canvas 504 142 1416 897 guts 0;
#X obj 609 117 i;
#X obj 609 88 t f b;
#X obj 589 198 i;
#X obj 589 169 t f b;
#X obj 629 60 t f f;
#X obj 931 223 _main-Love \$0;
#X obj 931 253 _main-Hate \$0;
#X obj 931 373 _main-sadness \$0;
#X obj 931 313 _main-Admiration \$0;
#X obj 931 283 _main-Desire \$0;
#X obj 931 343 _main-Joy \$0;
#X obj 1056 62 text define -k \$0-scales;
#A set none 0 0 0 0 0 0 0 \; love 0 2 4 5 7 9 11 \; hate 0 1 3 5 7 8 10 \; desire 0 2 4 5 7 9 11 \; sadness 0 2 3 5 7 8 10 \; joy 0 2 4 5 7 9 10 \; admiration 0 2 4 6 7 9 11 \;;
#X obj 609 141 t f f;
#X obj 942 155 array define -k -yrange 0 11 \$0-scale 7;
#A 0 0 0 0 0 0 0 0;
#X obj 905 97 list split 1;
#X obj 905 49 r \$0-emotion-1;
#X obj 905 73 text get \$0-scales;
#X obj 589 227 s \$0-emotion-3;
#X obj 641 170 s \$0-emotion-2;
#X obj 661 89 s \$0-emotion-1;
#X obj 945 121 array set \$0-scale;
#X obj 354 717 r~ \$0-voice;
#X obj 201 42 text define -k \$0-emotionIndexes;
#A set none 0 0 0 \; love 1 -1 1 \; hate -1 -1 1 \; sadness -1 0 -1 \; admiration 0 0 1 \; desire 1 0 -1 \; joy 1 0 1 \; generosity 1 1 1 \;;
#X obj 81 42 r \$0-emotion-1;
#X obj 81 76 text get \$0-emotionIndexes;
#X obj 81 100 list split 1;
#X obj 121 129 unpack f f f;
#X obj 51 183 +;
#X obj 91 183 i;
#X obj 161 183 +;
#X obj 201 183 i;
#X obj 281 183 +;
#X obj 321 183 i;
#X msg 321 124 0;
#X text 350 121 reset;
#X obj 32 554 metro;
#X obj 84 477 /;
#X obj 84 501 / 4;
#X obj 84 525 t f f;
#X obj 116 554 s \$0-duracion;
#X obj 32 598 i;
#X obj 72 598 + 1;
#X obj 84 333 r \$0-arousal;
#X msg 84 381 2 \$1;
#X obj 84 405 pow;
#X obj 84 429 * 40;
#X text 776 333 1 = fear \; 2 = hate \; 3 = disgust \; 4 = surprise \; 5 = hapiness \; 6 = sadness \;;
#X obj 12 501 loadbang;
#X msg 12 525 1;
#X obj 91 212 s \$0-valence;
#X obj 201 212 s \$0-dominance;
#X obj 321 212 s \$0-arousal;
#X obj 84 357 / 18;
#X obj 803 695 text define -k \$0-passionName;
#A set Other \; Love \; Hate \; Desire \; Admiration \; Joy \; Sadness \;;
#X obj 803 759 text get \$0-passionName;
#X obj 321 95 r \$0-reset;
#X text 321 75 GUI: Reset;
#N canvas 387 273 1280 641 voice-processing 0;
#X msg 425 91 open ./voz.wav \, start;
#X obj 425 124 readsf~;
#X msg 308 98 stop;
#X obj 588 492 else/plate.rev~;
#X obj 588 526 +~;
#X obj 664 218 / 127;
#X obj 664 295 mtof;
#X obj 664 319 else/f2s~ 100;
#N canvas 0 231 893 553 fear 0;
#X obj 101 382 audiolab/pp.fft-timbre~ 512 4;
#A saved empty_slot \; empty_slot \; empty_slot \; empty_slot \; empty_slot \; empty_slot \; empty_slot \; empty_slot \; empty_slot \; empty_slot \; empty_slot \; empty_slot \; empty_slot \; empty_slot \; empty_slot \; empty_slot \; empty_slot \; empty_slot \; empty_slot \; empty_slot \; empty_slot \;;
#X obj 101 325 else/highpass~ 300 0.4;
#X obj 274 311 loadbang;
#X obj 101 453 else/lowpass~ 4000 0.4;
#X obj 101 354 else/highpass~ 1000 0.4;
#X msg 274 339 curve-1 330 \, breakpoint-1 47 \, curve-2 533 \, breakpoint-2 26 \, rotate -78 \, shift 375 \, gain 20 \, dry/wet 90;
#X obj 101 424 else/highshelf~ 3000 0.4 9;
#X obj 709 276 switch~;
#X obj 711 432 line~;
#X obj 711 384 pow 2;
#X obj 711 455 sqrt~;
#X obj 677 157 sel 0;
#X msg 677 247 0;
#X msg 697 193 stop;
#X obj 424 472 *~;
#X obj 424 501 outlet~;
#X msg 711 408 \$1 100;
#X obj 677 222 delay 100;
#X obj 711 360 == 1;
#X obj 677 133 == 1;
#X obj 711 336 r \$0-faceEmotion-s;
#X obj 677 109 r \$0-faceEmotion-s;
#X obj 46 36 r \$0-sampleSize;
#X obj 101 239 tabread4~ voz;
#X obj 12 185 phasor~;
#X obj 46 60 t f f;
#X msg 12 85 44100 \$1;
#X obj 12 109 /;
#X obj 60 214 *~;
#X obj 175 89 + 69;
#X obj 175 113 mtof;
#X obj 175 137 / 440;
#X obj 274 210 * -100;
#X obj 12 156 *~ 0.8;
#X obj 101 268 audiolab/pp.fft-pitchshift~;
#A saved empty_slot \; empty_slot \; empty_slot \; empty_slot \; empty_slot \; empty_slot \; empty_slot \; empty_slot \; empty_slot \; empty_slot \; empty_slot \; empty_slot \; empty_slot \; empty_slot \; empty_slot \; empty_slot \; empty_slot \; empty_slot \; empty_slot \; empty_slot \; empty_slot \;;
#X msg 274 239 transposition \$1;
#X obj 242 12 loadbang;
#X msg 242 36 -6;
#X obj 242 60 t f f;
#X connect 0 0 6 0;
#X connect 1 0 4 0;
#X connect 2 0 5 0;
#X connect 3 0 14 0;
#X connect 4 0 0 0;
#X connect 5 0 0 1;
#X connect 6 0 3 0;
#X connect 8 0 10 0;
#X connect 9 0 16 0;
#X connect 10 0 14 1;
#X connect 11 0 17 0;
#X connect 11 1 13 0;
#X connect 11 1 7 0;
#X connect 12 0 7 0;
#X connect 13 0 17 0;
#X connect 14 0 15 0;
#X connect 16 0 8 0;
#X connect 17 0 12 0;
#X connect 18 0 9 0;
#X connect 19 0 11 0;
#X connect 20 0 18 0;
#X connect 21 0 19 0;
#X connect 22 0 25 0;
#X connect 23 0 34 0;
#X connect 24 0 28 0;
#X connect 25 0 26 0;
#X connect 25 1 28 1;
#X connect 26 0 27 0;
#X connect 27 0 33 0;
#X connect 28 0 23 0;
#X connect 29 0 30 0;
#X connect 30 0 31 0;
#X connect 31 0 33 1;
#X connect 32 0 35 0;
#X connect 33 0 24 0;
#X connect 34 0 1 0;
#X connect 35 0 34 2;
#X connect 36 0 37 0;
#X connect 37 0 38 0;
#X connect 38 0 29 0;
#X connect 38 1 32 0;
#X restore 62 251 pd fear;
#N canvas 278 181 755 552 sadness 0;
#X obj 38 339 delread4~ \$0-vibrato;
#X obj 183 200 *~ 2;
#X obj 183 224 -~ 1;
#X obj 345 156 loadbang;
#X msg 345 180 1;
#X obj 345 204 metro 100;
#X obj 345 228 t b b;
#X obj 434 218 t f f;
#X obj 345 330 pack f f;
#X obj 345 280 + 100;
#X obj 345 304 dbtorms;
#X obj 345 354 line~;
#X obj 38 373 *~;
#X obj 38 240 osc~ 5;
#X obj 111 242 osc~ 0.9;
#X obj 38 96 loadbang;
#X msg 38 120 1;
#X obj 38 216 line~;
#X obj 38 143 metro 500;
#X msg 38 192 \$1 500;
#X obj 183 171 phasor~ 0.5;
#X obj 183 254 else/lowpass~ 0.5 0.4;
#X obj 38 33 inlet~;
#X obj 38 310 +~ 90;
#X obj 650 456 switch~;
#X obj 458 385 line~;
#X obj 458 337 pow 2;
#X obj 458 408 sqrt~;
#X obj 618 337 sel 0;
#X msg 618 427 0;
#X msg 638 373 stop;
#X obj 38 427 *~;
#X obj 38 466 outlet~;
#X obj 38 57 delwrite~ \$0-vibrato 120;
#X msg 458 361 \$1 100;
#X obj 618 402 delay 100;
#X obj 458 313 == 6;
#X obj 618 313 == 6;
#X obj 38 269 *~ 2;
#X obj 183 281 *~ 60;
#X obj 111 266 *~ 5;
#X obj 458 288 r \$0-faceEmotion-s;
#X obj 618 289 r \$0-faceEmotion-s;
#X obj 38 168 rand.f 5 8;
#X obj 434 194 rand.f 10 200;
#X obj 345 256 else/rand.f -15 0;
#X connect 0 0 12 0;
#X connect 1 0 2 0;
#X connect 2 0 21 0;
#X connect 3 0 4 0;
#X connect 4 0 5 0;
#X connect 5 0 6 0;
#X connect 6 0 45 0;
#X connect 6 1 44 0;
#X connect 7 0 5 1;
#X connect 7 1 8 1;
#X connect 8 0 11 0;
#X connect 9 0 10 0;
#X connect 10 0 8 0;
#X connect 11 0 12 1;
#X connect 12 0 31 0;
#X connect 13 0 38 0;
#X connect 14 0 40 0;
#X connect 15 0 16 0;
#X connect 16 0 18 0;
#X connect 17 0 13 0;
#X connect 18 0 43 0;
#X connect 19 0 17 0;
#X connect 20 0 1 0;
#X connect 21 0 39 0;
#X connect 22 0 33 0;
#X connect 23 0 0 0;
#X connect 25 0 27 0;
#X connect 26 0 34 0;
#X connect 27 0 31 1;
#X connect 28 0 35 0;
#X connect 28 1 30 0;
#X connect 28 1 24 0;
#X connect 29 0 24 0;
#X connect 30 0 35 0;
#X connect 31 0 32 0;
#X connect 34 0 25 0;
#X connect 35 0 29 0;
#X connect 36 0 26 0;
#X connect 37 0 28 0;
#X connect 38 0 23 0;
#X connect 39 0 23 0;
#X connect 40 0 23 0;
#X connect 41 0 36 0;
#X connect 42 0 37 0;
#X connect 43 0 19 0;
#X connect 44 0 7 0;
#X connect 45 0 9 0;
#X restore 452 251 pd sadness;
#N canvas 299 144 786 589 disgust 0;
#N canvas 352 24 545 673 fft-analysis 0;
#X obj 92 534 *~;
#X obj 53 534 *~;
#X obj 330 325 *~;
#X obj 298 325 *~;
#X obj 298 351 +~;
#X obj 53 176 *~;
#X obj 53 151 inlet~;
#X obj 53 199 rfft~;
#X obj 53 603 *~;
#X obj 144 238 *~;
#X obj 298 297 rfft~;
#X obj 53 568 rifft~;
#X obj 53 636 outlet~;
#X obj 110 238 *~;
#X obj 110 261 +~;
#X text 379 355 modulus;
#X obj 110 443 *~;
#X obj 357 459 block~ 1024 4;
#X obj 110 391 clip~;
#X obj 86 177 tabreceive~ \$0-hann;
#X obj 356 499 loadbang;
#X obj 143 342 r squelch;
#X obj 142 365 expr 0.01*$f1*$f1;
#X obj 110 287 +~ 1e-20;
#X obj 110 503 *~ 0.00065;
#X obj 86 603 tabreceive~ \$0-hann;
#X obj 298 268 *~;
#X obj 298 239 inlet~;
#X obj 331 269 tabreceive~ \$0-hann;
#X text 379 372 of control;
#X text 377 389 amplitude;
#X text 187 242 reciprocal;
#X text 190 261 modulus of;
#X text 186 281 filter input;
#X text 187 300 amplitude;
#X text 114 152 filter input;
#X text 363 239 control source;
#X text 360 296 Fourier transform;
#X text 43 19 Internal workings of the timbre stamping algorithm. First the "filter input" is treated as in the compressor patch \, multiplying each channel amplitude by one over its modulus (but limited by the "squelch" parameter.) It is then multiplied by the modulus of the channel amplitude for the control source (which is Fourier analyzed in parallel with the filter input.);
#X text 148 440 multiply the two amplitude;
#X text 146 457 factors (for compression;
#X text 148 473 and to apply new timbre);
#X obj 110 314 rsqrt~;
#X obj 298 374 sqrt~;
#X msg 356 523 \; window-size 1024 \; squelch 100 \;;
#X connect 0 0 11 1;
#X connect 1 0 11 0;
#X connect 2 0 4 1;
#X connect 3 0 4 0;
#X connect 4 0 43 0;
#X connect 5 0 7 0;
#X connect 6 0 5 0;
#X connect 7 0 13 0;
#X connect 7 0 13 1;
#X connect 7 0 1 0;
#X connect 7 1 9 0;
#X connect 7 1 9 1;
#X connect 7 1 0 0;
#X connect 8 0 12 0;
#X connect 9 0 14 1;
#X connect 10 0 3 0;
#X connect 10 0 3 1;
#X connect 10 1 2 0;
#X connect 10 1 2 1;
#X connect 11 0 8 0;
#X connect 13 0 14 0;
#X connect 14 0 23 0;
#X connect 16 0 24 0;
#X connect 18 0 16 0;
#X connect 19 0 5 1;
#X connect 20 0 44 0;
#X connect 21 0 22 0;
#X connect 22 0 18 2;
#X connect 23 0 42 0;
#X connect 24 0 0 1;
#X connect 24 0 1 1;
#X connect 25 0 8 1;
#X connect 26 0 10 0;
#X connect 27 0 26 0;
#X connect 28 0 26 1;
#X connect 42 0 18 0;
#X connect 43 0 16 1;
#X restore 89 283 pd fft-analysis;
#N canvas 163 152 567 523 hann-window 0;
#N canvas 0 0 450 300 (subpatch) 0;
#X array \$0-hann 1024 float 0;
#X coords 0 1 1023 0 300 100 1;
#X restore 110 394 graph;
#X obj 327 184 osc~;
#X obj 327 209 *~ -0.5;
#X obj 327 233 +~ 0.5;
#X obj 310 276 tabwrite~ \$0-hann;
#X obj 86 113 r window-size;
#X obj 157 237 /;
#X obj 175 205 samplerate~;
#X obj 157 315 s window-sec;
#X obj 67 251 swap;
#X obj 67 275 /;
#X obj 67 299 s window-hz;
#X obj 168 265 * 1000;
#X obj 168 292 s window-msec;
#X obj 86 148 t f b f;
#X msg 175 155 resize \$1;
#X obj 175 179 s \$0-hann;
#X obj 279 122 r window-hz;
#X msg 352 154 0;
#X obj 279 150 t f b;
#X text 56 20 calculate Hann window table (variable window size) and constants window-hz (fundamental frequency of analysis) \, window-sec and window-msec (analysis window size in seconds and msec)., f 56;
#X connect 1 0 2 0;
#X connect 2 0 3 0;
#X connect 3 0 4 0;
#X connect 5 0 14 0;
#X connect 6 0 8 0;
#X connect 6 0 12 0;
#X connect 7 0 6 1;
#X connect 7 0 9 1;
#X connect 9 0 10 0;
#X connect 9 1 10 1;
#X connect 10 0 11 0;
#X connect 12 0 13 0;
#X connect 14 0 6 0;
#X connect 14 0 9 0;
#X connect 14 1 7 0;
#X connect 14 2 15 0;
#X connect 15 0 16 0;
#X connect 17 0 19 0;
#X connect 18 0 1 1;
#X connect 19 0 1 0;
#X connect 19 1 4 0;
#X connect 19 1 18 0;
#X restore 28 384 pd hann-window;
#X obj 174 410 *~;
#X obj 507 372 switch~;
#X obj 629 410 line~;
#X obj 629 362 pow 2;
#X obj 629 434 sqrt~;
#X obj 475 253 sel 0;
#X msg 475 343 0;
#X msg 495 289 stop;
#X msg 629 386 \$1 100;
#X obj 475 318 delay 100;
#X obj 629 338 == 3;
#X obj 475 229 == 3;
#X obj 174 468 outlet~;
#X obj 629 314 r \$0-faceEmotion-s;
#X obj 475 205 r \$0-faceEmotion-s;
#X obj 261 303 *~ 0.2;
#X obj 89 307 *~ 0.8;
#X obj 79 244 else/pulse~ 10;
#X obj 237 34 r \$0-sampleSize;
#X obj 191 190 tabread4~ voz;
#X obj 104 134 phasor~;
#X obj 237 58 t f f;
#X text 461 31 samples a Hz;
#X msg 102 34 44100 \$1;
#X obj 102 58 /;
#X obj 150 165 *~;
#X floatatom 345 58 5 0 0 0 - - - 0;
#X obj 345 81 + 69;
#X obj 345 105 mtof;
#X obj 345 129 / 440;
#X obj 258 122 * -100;
#X floatatom 345 153 5 0 0 0 - - - 0;
#X obj 102 105 *~ 0.8;
#X connect 0 0 18 0;
#X connect 2 0 14 0;
#X connect 4 0 6 0;
#X connect 5 0 10 0;
#X connect 6 0 2 1;
#X connect 7 0 11 0;
#X connect 7 1 9 0;
#X connect 7 1 3 0;
#X connect 8 0 3 0;
#X connect 9 0 11 0;
#X connect 10 0 4 0;
#X connect 11 0 8 0;
#X connect 12 0 5 0;
#X connect 13 0 7 0;
#X connect 15 0 12 0;
#X connect 16 0 13 0;
#X connect 17 0 2 0;
#X connect 18 0 2 0;
#X connect 19 0 0 0;
#X connect 20 0 23 0;
#X connect 21 0 0 1;
#X connect 21 0 17 0;
#X connect 22 0 27 0;
#X connect 23 0 25 0;
#X connect 23 1 27 1;
#X connect 25 0 26 0;
#X connect 26 0 34 0;
#X connect 27 0 21 0;
#X connect 28 0 29 0;
#X connect 28 0 32 0;
#X connect 29 0 30 0;
#X connect 30 0 31 0;
#X connect 31 0 33 0;
#X connect 31 0 34 1;
#X connect 34 0 22 0;
#X restore 202 251 pd disgust;
#N canvas 266 372 1014 323 anger 0;
#X obj 84 129 else/drive~ 60;
#X obj 84 153 hip~ 100;
#X obj 25 27 inlet~;
#X obj 431 243 switch~;
#X obj 239 172 line~;
#X obj 239 124 pow 2;
#X obj 239 196 sqrt~;
#X obj 399 124 sel 0;
#X msg 399 214 0;
#X msg 419 160 stop;
#X obj 84 215 *~;
#X obj 84 239 outlet~;
#X obj 84 80 -~ 0.02;
#X msg 239 148 \$1 100;
#X obj 399 189 delay 100;
#X obj 239 70 == 2;
#X obj 399 100 == 2;
#X obj 84 176 *~ 0.1;
#X obj 24 176 *~ 0.05;
#X obj 239 46 r \$0-faceEmotion-s;
#X obj 399 76 r \$0-faceEmotion-s;
#X obj 85 105 else/eq~ 2000 100 10;
#X obj 25 51 else/pitch.shift~ -300;
#X obj 239 94 * 0.3;
#X connect 0 0 1 0;
#X connect 1 0 17 0;
#X connect 2 0 22 0;
#X connect 4 0 6 0;
#X connect 5 0 13 0;
#X connect 6 0 10 1;
#X connect 7 0 14 0;
#X connect 7 1 9 0;
#X connect 7 1 3 0;
#X connect 8 0 3 0;
#X connect 9 0 14 0;
#X connect 10 0 11 0;
#X connect 12 0 21 0;
#X connect 13 0 4 0;
#X connect 14 0 8 0;
#X connect 15 0 23 0;
#X connect 16 0 7 0;
#X connect 17 0 10 0;
#X connect 18 0 10 0;
#X connect 19 0 15 0;
#X connect 20 0 16 0;
#X connect 21 0 0 0;
#X connect 22 0 12 0;
#X connect 22 0 18 0;
#X connect 23 0 5 0;
#X restore 132 251 pd anger;
#N canvas 341 395 677 292 happiness 0;
#X obj 12 70 audiolab/pp.fft-pitchshift~;
#A saved empty_slot \; empty_slot \; empty_slot \; empty_slot \; empty_slot \; empty_slot \; empty_slot \; empty_slot \; empty_slot \; empty_slot \; empty_slot \; empty_slot \; empty_slot \; empty_slot \; empty_slot \; empty_slot \; empty_slot \; empty_slot \; empty_slot \; empty_slot \; empty_slot \;;
#X obj 185 12 loadbang;
#X obj 12 41 inlet~;
#X obj 526 194 switch~;
#X obj 344 124 line~;
#X obj 344 76 pow 2;
#X obj 344 147 sqrt~;
#X obj 494 75 sel 0;
#X msg 494 165 0;
#X msg 514 111 stop;
#X obj 12 164 *~;
#X obj 12 188 outlet~;
#X msg 344 100 \$1 100;
#X obj 494 140 delay 100;
#X obj 344 52 == 5;
#X obj 494 51 == 5;
#X obj 344 27 r \$0-faceEmotion-s;
#X obj 494 27 r \$0-faceEmotion-s;
#X msg 185 41 transposition 700;
#X connect 0 0 10 0;
#X connect 1 0 18 0;
#X connect 2 0 0 0;
#X connect 4 0 6 0;
#X connect 5 0 12 0;
#X connect 6 0 10 1;
#X connect 7 0 13 0;
#X connect 7 1 9 0;
#X connect 7 1 3 0;
#X connect 8 0 3 0;
#X connect 9 0 13 0;
#X connect 10 0 11 0;
#X connect 12 0 4 0;
#X connect 13 0 8 0;
#X connect 14 0 5 0;
#X connect 15 0 7 0;
#X connect 16 0 14 0;
#X connect 17 0 15 0;
#X connect 18 0 0 2;
#X restore 362 251 pd happiness;
#X obj 664 271 + 60;
#X obj 664 247 * 75;
#X obj 543 244 + 100;
#X obj 543 268 dbtorms;
#X obj 543 292 else/f2s~ 100;
#X msg 543 148 1 \$1;
#X obj 543 172 -;
#X obj 474 311 *~;
#X msg 939 256 read -resize ./voz.wav voz;
#X obj 1088 287 array define voz;
#X obj 939 280 soundfiler;
#X obj 939 304 s \$0-sampleSize;
#X obj 969 328 v \$0-sampleSize;
#X obj 613 436 loadbang;
#X obj 588 555 s~ \$0-voice;
#X obj 939 227 loadbang;
#N canvas 131 165 848 806 surprise 0;
#X obj 560 725 switch~;
#X obj 358 617 line~;
#X obj 358 569 pow 2;
#X obj 358 640 sqrt~;
#X obj 528 606 sel 0;
#X msg 528 696 0;
#X msg 548 642 stop;
#X obj 340 669 *~;
#X obj 340 693 outlet~;
#X msg 358 593 \$1 100;
#X obj 528 671 delay 100;
#X obj 358 520 r \$0-faceEmotion-s;
#X obj 528 558 r \$0-faceEmotion-s;
#X obj 358 545 == 4;
#X obj 528 582 == 4;
#X obj 215 146 r \$0-sampleSize;
#X obj 229 369 tabread4~ voz;
#X obj 183 299 phasor~;
#X obj 215 170 t f f;
#X msg 181 199 44100 \$1;
#X obj 181 223 /;
#X obj 229 330 *~;
#X floatatom 344 140 5 0 0 0 - - - 0;
#X obj 304 203 + 69;
#X obj 304 227 mtof;
#X obj 304 251 / 440;
#X obj 376 368 * -100;
#X obj 181 270 *~ 0.8;
#X obj 14 485 audiolab/pp.fft-pitchshift~;
#A saved empty_slot \; empty_slot \; empty_slot \; empty_slot \; empty_slot \; empty_slot \; empty_slot \; empty_slot \; empty_slot \; empty_slot \; empty_slot \; empty_slot \; empty_slot \; empty_slot \; empty_slot \; empty_slot \; empty_slot \; empty_slot \; empty_slot \; empty_slot \; empty_slot \;;
#X msg 376 416 transposition \$1;
#X obj 440 84 random 100;
#X obj 440 318 sig~;
#X obj 558 126 sel 1;
#X obj 558 150 random 100;
#X obj 558 174 < 50;
#X obj 558 198 sel 1;
#X msg 558 270 1;
#X obj 558 318 sig~;
#X obj 558 294 * -8820;
#X obj 558 222 t b b;
#X obj 590 246 delay 200;
#X msg 590 270 0;
#X obj 229 631 line~;
#X obj 14 650 *~;
#X obj 229 554 change -1;
#X obj 604 355 sel 1;
#X obj 229 578 select 0 1;
#X obj 229 506 env~;
#X obj 229 530 > 76;
#X msg 674 408 0 10;
#X obj 604 437 line 0 1;
#X obj 674 384 delay 150;
#X msg 604 408 0 \, 1 150;
#X obj 440 294 * -8820;
#X obj 440 60 metro 200;
#X obj 440 107 < 10;
#X obj 344 87 loadbang;
#X obj 440 12 loadbang;
#X msg 440 36 1;
#X obj 344 163 t f f;
#X obj 376 392 + 100;
#X obj 604 466 * 500;
#X msg 344 112 4;
#X msg 290 600 1 10;
#X msg 229 602 0.25 100;
#X connect 1 0 3 0;
#X connect 2 0 9 0;
#X connect 3 0 7 1;
#X connect 4 0 10 0;
#X connect 4 1 6 0;
#X connect 4 1 0 0;
#X connect 5 0 0 0;
#X connect 6 0 10 0;
#X connect 7 0 8 0;
#X connect 9 0 1 0;
#X connect 10 0 5 0;
#X connect 11 0 13 0;
#X connect 12 0 14 0;
#X connect 13 0 2 0;
#X connect 14 0 4 0;
#X connect 15 0 18 0;
#X connect 16 0 47 0;
#X connect 16 0 28 0;
#X connect 17 0 21 0;
#X connect 18 0 19 0;
#X connect 18 1 21 1;
#X connect 19 0 20 0;
#X connect 20 0 27 0;
#X connect 21 0 16 0;
#X connect 22 0 59 0;
#X connect 23 0 24 0;
#X connect 24 0 25 0;
#X connect 25 0 27 1;
#X connect 26 0 60 0;
#X connect 27 0 17 0;
#X connect 28 0 43 0;
#X connect 29 0 28 2;
#X connect 30 0 55 0;
#X connect 31 0 16 0;
#X connect 32 0 33 0;
#X connect 33 0 34 0;
#X connect 34 0 35 0;
#X connect 35 0 39 0;
#X connect 36 0 38 0;
#X connect 37 0 16 0;
#X connect 38 0 37 0;
#X connect 39 0 36 0;
#X connect 39 1 40 0;
#X connect 40 0 41 0;
#X connect 41 0 38 0;
#X connect 42 0 43 1;
#X connect 43 0 7 0;
#X connect 44 0 45 0;
#X connect 44 0 46 0;
#X connect 45 0 52 0;
#X connect 45 0 51 0;
#X connect 46 0 64 0;
#X connect 46 1 63 0;
#X connect 47 0 48 0;
#X connect 48 0 44 0;
#X connect 49 0 50 0;
#X connect 50 0 61 0;
#X connect 51 0 49 0;
#X connect 52 0 50 0;
#X connect 53 0 31 0;
#X connect 54 0 30 0;
#X connect 55 0 32 0;
#X connect 55 0 53 0;
#X connect 56 0 62 0;
#X connect 57 0 58 0;
#X connect 58 0 54 0;
#X connect 59 0 23 0;
#X connect 59 1 26 0;
#X connect 60 0 29 0;
#X connect 61 0 28 1;
#X connect 62 0 22 0;
#X connect 63 0 42 0;
#X connect 64 0 42 0;
#X restore 282 251 pd surprise;
#X obj 425 62 loadbang;
#X text 958 104 1 = fear \; 2 = hate \; 3 = disgust \; 4 = surprise \; 5 = hapiness \; 6 = sadness \;;
#X obj 664 189 r \$0-mouth-s;
#X obj 220 327 r \$0-mouth-s;
#X text 220 307 GUI: Mouth;
#X obj 220 351 > 0;
#X text 664 169 GUI: Mouth (every 150 ms);
#X obj 220 428 +;
#X obj 260 428 i;
#X obj 220 375 * 2;
#X obj 220 399 - 1;
#X obj 260 487 / 15;
#X obj 220 452 clip 0 15;
#X obj 474 335 *~ 1;
#X obj 543 220 * 9;
#X obj 543 196 pow 2;
#X obj 589 349 else/lowpass~ 4000 0.4;
#X obj 589 378 else/lowpass~ 4000 0.4;
#X obj 589 407 else/lowpass~ 4000 0.4;
#X msg 614 461 wet 0.7 \, size 0.6 \, damp 0.5 \, pre 0 \, cutoff 0.25;
#X obj 260 511 s \$0-mouthAcum-r;
#X connect 0 0 1 0;
#X connect 1 0 9 0;
#X connect 1 0 11 0;
#X connect 1 0 12 0;
#X connect 1 1 0 0;
#X connect 2 0 1 0;
#X connect 3 0 4 0;
#X connect 3 1 4 1;
#X connect 4 0 27 0;
#X connect 5 0 14 0;
#X connect 5 0 18 0;
#X connect 6 0 7 0;
#X connect 7 0 46 1;
#X connect 7 0 47 1;
#X connect 7 0 48 1;
#X connect 8 0 20 0;
#X connect 9 0 20 0;
#X connect 10 0 20 0;
#X connect 11 0 20 0;
#X connect 12 0 20 0;
#X connect 13 0 6 0;
#X connect 14 0 13 0;
#X connect 15 0 16 0;
#X connect 16 0 17 0;
#X connect 17 0 20 1;
#X connect 18 0 19 0;
#X connect 19 0 45 0;
#X connect 20 0 43 0;
#X connect 21 0 23 0;
#X connect 23 0 24 0;
#X connect 26 0 49 0;
#X connect 28 0 21 0;
#X connect 29 0 20 0;
#X connect 30 0 0 0;
#X connect 32 0 5 0;
#X connect 33 0 35 0;
#X connect 35 0 39 0;
#X connect 37 0 42 0;
#X connect 38 0 37 1;
#X connect 38 0 41 0;
#X connect 39 0 40 0;
#X connect 40 0 37 0;
#X connect 41 0 50 0;
#X connect 42 0 38 0;
#X connect 43 0 46 0;
#X connect 44 0 15 0;
#X connect 45 0 44 0;
#X connect 46 0 47 0;
#X connect 47 0 48 0;
#X connect 48 0 3 0;
#X connect 49 0 3 0;
#X restore 1091 223 pd voice-processing;
#X msg 803 783 label \$1;
#X obj 803 807 s \$0-emotion-1-r;
#X obj 803 735 r \$0-emotion-1;
#X obj 983 759 text get \$0-passionName;
#X msg 983 783 label \$1;
#X obj 1163 759 text get \$0-passionName;
#X msg 1163 783 label \$1;
#X obj 983 735 r \$0-emotion-2;
#X obj 1163 735 r \$0-emotion-3;
#X obj 983 807 s \$0-emotion-2-r;
#X obj 1163 807 s \$0-emotion-3-r;
#X obj 629 31 r \$0-emotion;
#X obj 469 31 r \$0-emotionRand-s;
#X text 776 63 0 = Other \; 1 = Love \; 2 = Hate \; 3 = Desire \; 4 = Admiration \; 5 = Joy \; 6 = Sadness \;;
#X obj 469 79 random 6;
#X obj 469 103 + 1;
#X obj 469 127 s \$0-emotion;
#X obj 469 55 metro 10000;
#X obj 599 288 text define -k \$0-faceEmotions;
#A set none \; fear \; hate \; disgust \; surpirse \; hapiness \; sadness \;;
#X obj 589 318 r \$0-faceEmotion-s;
#X msg 589 366 label Face:\$1;
#X obj 589 390 s \$0-faceEmotion-r;
#X obj 589 342 text get \$0-faceEmotions;
#X obj 459 366 random 6;
#X obj 459 390 + 1;
#X obj 459 342 metro 5000;
#X obj 459 318 r \$0-faceRand-s;
#X text 469 11 GUI: emotion random;
#X text 91 232 // To accumulated emotion indexes;
#X text 589 247 // To emotion memory;
#X text 84 313 // Arousal controls tempo from 10 to 160 bpm;
#X obj 971 413 declare -path ./abs;
#X obj 971 443 declare -path ./abs/scenes;
#X text 1091 203 // Voice Processing;
#X text 931 203 // EEG Emotions;
#X obj 137 791 tgl 19 0 empty empty empty 0 -10 0 12 #fcfcfc #000000 #000000 0 1;
#X obj 137 839 tabwrite~ \$0-scope;
#X obj 137 815 metro 100;
#X obj 579 684 + 0.25;
#X obj 579 660 * 0.5;
#X msg 579 708 \$1 100;
#X obj 579 732 line~;
#X obj 521 649 -~;
#X obj 521 625 sig~ 1;
#X obj 314 688 *~;
#X obj 444 688 *~;
#X obj 354 751 *~;
#X obj 459 414 s \$0-faceEmotion-r;
#X text 458 434 // GUI: face emotion;
#X text 459 298 //GUI: face random;
#X obj 579 636 r \$0-mouthAcum-s;
#X msg 84 453 60000 \$1;
#X obj 649 695 r \$0-volumen-s;
#X obj 649 719 pow 2;
#X obj 649 743 * 2;
#X obj 649 767 else/f2s~ 100;
#X obj 444 786 *~;
#X obj 314 786 *~;
#X obj 314 820 else/drive~;
#X obj 314 854 dac~ 1;
#X obj 444 820 else/drive~;
#X obj 444 854 dac~ 2;
#X text 579 616 GUI: mouthAcum;
#X text 649 675 GUI: Volumen;
#X obj 137 738 loadbang;
#X msg 137 762 1;
#N canvas 101 167 1195 690 emotionAudio 0;
#X obj 48 99 catch~ \$0-emotionAudio;
#X obj 511 166 catch~ \$0-emotionReverb;
#X obj 511 338 else/plate.rev~;
#X obj 531 285 loadbang;
#X obj 253 609 hip~ 400;
#X obj 468 602 hip~ 400;
#X obj 253 633 lop~ 3000;
#X obj 468 626 lop~ 3000;
#X msg 531 309 wet 1 \, pre 0 \, cutoff 0.5 \, damp 0.25 \, size 0.7;
#N canvas -1894 26 524 378 crush~ 0;
#X obj 12 141 -~;
#X obj 27 115 wrap~;
#X obj 82 167 /~;
#X obj 12 68 *~;
#X obj 97 31 inlet~;
#X obj 82 188 outlet~;
#X obj 12 31 inlet~;
#X text 82 208 (O1) Output;
#X text 12 11 (I1) Input;
#X text 12 252 https://lists.puredata.info/pipermail/pd-list/2008-12/066923.html;
#X text 12 237 Reference:;
#X obj 97 52 /~ 2;
#X text 97 11 (I2) Steps;
#X obj 12 89 +~ 0.5;
#X connect 0 0 2 0;
#X connect 1 0 0 1;
#X connect 2 0 5 0;
#X connect 3 0 13 0;
#X connect 4 0 11 0;
#X connect 6 0 3 0;
#X connect 11 0 3 1;
#X connect 11 0 2 1;
#X connect 13 0 1 0;
#X connect 13 0 0 0;
#X restore 48 426 pd crush~;
#X obj 289 340 + 100;
#X obj 289 364 dbtorms;
#X obj 289 412 line~;
#X msg 288 388 \$1 100;
#X obj 48 500 *~;
#X obj 48 451 *~ 0.5;
#X msg 198 383 2 \$1;
#X obj 198 407 pow;
#X msg 198 263 1 \$1;
#X obj 198 287 -;
#X obj 253 580 *~;
#X obj 271 483 sig~ 1;
#X obj 271 507 /~;
#X obj 253 662 outlet~;
#X obj 468 655 outlet~;
#X obj 198 311 pow 4;
#X obj 271 531 clip~ 0.1 1;
#X obj 289 456 *~ 2;
#X obj 48 531 else/drive~;
#X obj 48 393 +~;
#X obj 505 378 +~;
#N canvas -1894 26 524 378 crush~ 0;
#X obj 12 141 -~;
#X obj 27 115 wrap~;
#X obj 82 167 /~;
#X obj 12 68 *~;
#X obj 97 31 inlet~;
#X obj 82 188 outlet~;
#X obj 12 31 inlet~;
#X text 82 208 (O1) Output;
#X text 12 11 (I1) Input;
#X text 12 252 https://lists.puredata.info/pipermail/pd-list/2008-12/066923.html;
#X text 12 237 Reference:;
#X obj 97 52 /~ 2;
#X text 97 11 (I2) Steps;
#X obj 12 89 +~ 0.5;
#X connect 0 0 2 0;
#X connect 1 0 0 1;
#X connect 2 0 5 0;
#X connect 3 0 13 0;
#X connect 4 0 11 0;
#X connect 6 0 3 0;
#X connect 11 0 3 1;
#X connect 11 0 2 1;
#X connect 13 0 1 0;
#X connect 13 0 0 0;
#X restore 505 426 pd crush~;
#X obj 487 500 *~;
#X obj 505 451 *~ 0.5;
#X obj 487 531 else/drive~;
#X obj 468 573 *~;
#X obj 48 173 *~;
#X obj 845 134 else/f2s~ 100;
#X obj 240 153 -~;
#X obj 240 129 sig~ 1;
#X obj 959 295 + 0.7;
#X obj 959 270 * 0.2;
#X obj 541 224 audiolab/pp.fft-pitchshift~;
#A saved empty_slot \; empty_slot \; empty_slot \; empty_slot \; empty_slot \; empty_slot \; empty_slot \; empty_slot \; empty_slot \; empty_slot \; empty_slot \; empty_slot \; empty_slot \; empty_slot \; empty_slot \; empty_slot \; empty_slot \; empty_slot \; empty_slot \; empty_slot \; empty_slot \;;
#X obj 714 166 loadbang;
#X obj 827 277 *~;
#X msg 959 319 size \$1;
#X msg 714 195 transposition 1200;
#X obj 289 162 r \$0-valence;
#X obj 289 186 * -1;
#X obj 959 57 r \$0-valence;
#X obj 289 234 / 12;
#X obj 289 210 clip 0 12;
#X obj 198 335 * 7;
#X obj 289 317 * 18;
#X obj 198 359 + 2;
#X obj 959 105 / 12;
#X obj 959 80 clip 0 12;
#X connect 0 0 36 0;
#X connect 1 0 42 0;
#X connect 1 0 2 0;
#X connect 2 0 29 1;
#X connect 2 1 30 1;
#X connect 3 0 8 0;
#X connect 4 0 6 0;
#X connect 5 0 7 0;
#X connect 6 0 23 0;
#X connect 7 0 24 0;
#X connect 8 0 2 0;
#X connect 9 0 15 0;
#X connect 10 0 11 0;
#X connect 11 0 13 0;
#X connect 12 0 14 1;
#X connect 12 0 27 0;
#X connect 12 0 32 0;
#X connect 13 0 12 0;
#X connect 14 0 28 0;
#X connect 15 0 14 0;
#X connect 16 0 17 0;
#X connect 17 0 9 1;
#X connect 17 0 31 1;
#X connect 18 0 19 0;
#X connect 19 0 25 0;
#X connect 20 0 4 0;
#X connect 21 0 22 0;
#X connect 22 0 26 0;
#X connect 25 0 52 0;
#X connect 26 0 20 1;
#X connect 26 0 35 0;
#X connect 27 0 22 1;
#X connect 28 0 20 0;
#X connect 29 0 9 0;
#X connect 30 0 31 0;
#X connect 31 0 33 0;
#X connect 32 0 34 0;
#X connect 33 0 32 1;
#X connect 34 0 35 1;
#X connect 35 0 5 0;
#X connect 36 0 29 0;
#X connect 36 0 30 0;
#X connect 37 0 38 1;
#X connect 37 0 44 1;
#X connect 38 0 36 1;
#X connect 39 0 38 0;
#X connect 40 0 45 0;
#X connect 41 0 40 0;
#X connect 42 0 44 0;
#X connect 43 0 46 0;
#X connect 44 0 2 0;
#X connect 45 0 2 0;
#X connect 46 0 42 2;
#X connect 47 0 48 0;
#X connect 48 0 51 0;
#X connect 49 0 56 0;
#X connect 50 0 18 0;
#X connect 50 0 53 0;
#X connect 51 0 50 0;
#X connect 52 0 54 0;
#X connect 53 0 10 0;
#X connect 54 0 16 0;
#X connect 55 0 41 0;
#X connect 55 0 37 0;
#X connect 56 0 55 0;
#X restore 334 629 pd emotionAudio;
#X obj 386 459 r \$0-dominance;
#X text 91 252 18 emociones en 3 minutos;
#X obj 394 567 s dominance;
#X obj 387 512 clip 0 6;
#X obj 386 483 abs;
#X obj 391 541 / 120;
#X obj 32 722 change -1;
#X obj 32 755 s \$0-clock;
#X obj 121 695 div 1;
#X obj 121 719 change -1;
#X obj 84 549 / 8;
#X obj 32 698 div 8;
#X obj 225 511 r \$0-dominance;
#X obj 225 535 abs;
#X obj 226 563 clip 0 12;
#X obj 226 587 / 12;
#X obj 123 616 t b f;
#X obj 123 664 f;
#X obj 123 640 else/chance 0;
#X obj 226 611 * 2;
#X msg 812 222 0;
#X obj 812 198 r \$0-reset;
#X obj 768 183 loadbang;
#X connect 0 0 12 0;
#X connect 1 0 0 1;
#X connect 1 1 0 0;
#X connect 2 0 17 0;
#X connect 3 0 2 1;
#X connect 3 1 2 0;
#X connect 4 0 1 0;
#X connect 4 1 19 0;
#X connect 12 0 3 0;
#X connect 12 1 18 0;
#X connect 14 1 20 0;
#X connect 15 0 16 0;
#X connect 16 0 14 0;
#X connect 21 0 104 0;
#X connect 23 0 24 0;
#X connect 24 0 25 0;
#X connect 25 1 26 0;
#X connect 26 0 27 0;
#X connect 26 1 29 0;
#X connect 26 2 31 0;
#X connect 27 0 28 0;
#X connect 28 0 27 1;
#X connect 28 0 49 0;
#X connect 29 0 30 0;
#X connect 30 0 29 1;
#X connect 30 0 50 0;
#X connect 31 0 32 0;
#X connect 32 0 31 1;
#X connect 32 0 51 0;
#X connect 33 0 32 0;
#X connect 33 0 28 0;
#X connect 33 0 30 0;
#X connect 35 0 40 0;
#X connect 36 0 37 0;
#X connect 37 0 38 0;
#X connect 38 0 135 0;
#X connect 38 1 39 0;
#X connect 40 0 41 0;
#X connect 40 0 136 0;
#X connect 40 0 141 0;
#X connect 41 0 40 1;
#X connect 42 0 52 0;
#X connect 43 0 44 0;
#X connect 44 0 45 0;
#X connect 45 0 109 0;
#X connect 47 0 48 0;
#X connect 48 0 35 0;
#X connect 52 0 43 0;
#X connect 54 0 58 0;
#X connect 55 0 33 0;
#X connect 58 0 59 0;
#X connect 60 0 54 0;
#X connect 61 0 62 0;
#X connect 62 0 67 0;
#X connect 63 0 64 0;
#X connect 64 0 68 0;
#X connect 65 0 61 0;
#X connect 66 0 63 0;
#X connect 69 0 4 0;
#X connect 70 0 75 0;
#X connect 72 0 73 0;
#X connect 73 0 74 0;
#X connect 75 0 72 0;
#X connect 77 0 80 0;
#X connect 78 0 79 0;
#X connect 80 0 78 0;
#X connect 81 0 82 0;
#X connect 82 0 105 0;
#X connect 83 0 81 0;
#X connect 84 0 83 0;
#X connect 93 0 95 0;
#X connect 95 0 94 0;
#X connect 96 0 98 0;
#X connect 97 0 96 0;
#X connect 98 0 99 0;
#X connect 99 0 100 1;
#X connect 99 0 104 1;
#X connect 100 0 103 1;
#X connect 100 0 102 1;
#X connect 101 0 100 0;
#X connect 102 0 115 0;
#X connect 103 0 114 0;
#X connect 104 0 114 0;
#X connect 104 0 115 0;
#X connect 108 0 97 0;
#X connect 109 0 36 0;
#X connect 110 0 111 0;
#X connect 111 0 112 0;
#X connect 112 0 113 0;
#X connect 113 0 114 1;
#X connect 113 0 115 1;
#X connect 114 0 118 0;
#X connect 115 0 116 0;
#X connect 116 0 117 0;
#X connect 116 0 94 0;
#X connect 118 0 119 0;
#X connect 122 0 123 0;
#X connect 123 0 93 0;
#X connect 124 0 102 0;
#X connect 124 1 103 0;
#X connect 125 0 129 0;
#X connect 128 0 130 0;
#X connect 129 0 128 0;
#X connect 130 0 127 0;
#X connect 131 0 132 0;
#X connect 133 0 134 0;
#X connect 134 0 132 0;
#X connect 135 0 35 1;
#X connect 136 0 131 0;
#X connect 137 0 138 0;
#X connect 138 0 139 0;
#X connect 139 0 140 0;
#X connect 140 0 144 0;
#X connect 141 0 143 0;
#X connect 141 1 142 1;
#X connect 142 0 133 0;
#X connect 143 0 142 0;
#X connect 144 0 143 1;
#X connect 145 0 18 0;
#X connect 145 0 17 0;
#X connect 145 0 19 0;
#X connect 146 0 145 0;
#X connect 147 0 145 0;
#X restore 45 362 pd guts;
#X obj 465 450 s \$0-emotion;
#X obj 245 498 s \$0-mouth-r;
#X text 245 382 OSC: Mouth;
#X text 465 382 OSC: Emotion ID;
#X text 45 539 Port \; 5003 = Mouth \; 7001 = Emotion ID \;;
#X obj 82 105 cnv 19 170 220 empty empty empty 20 12 0 12 #c7c6ff #404040 0;
#X obj 262 105 cnv 19 320 220 empty empty empty 20 12 0 12 #feffc6 #404040 0;
#N canvas 0 22 450 278 (subpatch) 0;
#X array \$0-scope 4410 float 0;
#X coords 0 1 4409 -1 200 140 1;
#X restore 590 133 graph;
#X obj 372 145 hradio 19 1 0 7 \$0-emotion empty EEG\ Emotion 0 -10 0 12 #ffffff #000000 #000000 0;
#X obj 102 185 hradio 19 1 0 7 \$0-faceEmotion-s \$0-faceEmotion-r Face:fear 0 -10 0 12 #e3c6ff #000000 #000000 0;
#X obj 342 285 nbx 5 17 -1e+37 1e+37 0 0 empty \$0-dominance dominance 0 -10 0 12 #000000 #ffffff #000000 0 256;
#X obj 272 285 nbx 5 17 -1e+37 1e+37 0 0 empty \$0-valence valence 0 -10 0 12 #000000 #ffffff #000000 0 256;
#X obj 412 285 nbx 5 17 -1e+37 1e+37 0 0 empty \$0-arousal arousal 0 -10 0 12 #000000 #ffffff #000000 0 256;
#X obj 482 283 bng 19 250 50 0 \$0-reset empty RESET 0 -10 0 12 #ff0400 #000000 #000000;
#X obj 272 145 tgl 19 0 \$0-emotionRand-s \$0-emotionRand-r emotionRand 0 -10 0 12 #c6ffc7 #000000 #000000 0 1;
#X obj 272 215 nbx 8 17 -1e+37 1e+37 0 0 empty \$0-emotion-1-r Other 20 9 0 12 #000000 #000000 #ffffff 0 256;
#X obj 372 215 nbx 8 17 -1e+37 1e+37 0 0 empty \$0-emotion-2-r Other 20 9 0 12 #000000 #000000 #ffffff 0 256;
#X obj 472 215 nbx 8 17 -1e+37 1e+37 0 0 empty \$0-emotion-3-r Other 20 9 0 12 #000000 #000000 #ffffff 0 256;
#X text 270 194 Emotion 1;
#X text 370 194 Emotion 2;
#X text 470 194 Emotion 3;
#X obj 105 225 hsl 128 19 0 127 0 1 \$0-mouth-s \$0-mouth-r mouth -2 -10 0 12 #e3c6ff #000000 #000000 12700 1;
#X obj 102 145 tgl 19 0 \$0-faceRand-s \$0-faceRand-r faceRand 0 -10 0 12 #e3c6ff #000000 #000000 0 1;
#X text 270 174 Emotion Memory –––––––––––––––––––––––;
#X text 270 245 Accumulated emotion indexes ––––––––––;
#X obj 105 265 hsl 128 19 0 1 0 1 \$0-mouthAcum-s \$0-mouthAcum-r mouthAcum -2 -10 0 12 #e3c6ff #000000 #000000 847 1;
#X text 100 105 Face Emotion;
#X obj 637 296 hsl 101 19 0 1 0 1 \$0-volumen-s \$0-volumen-r Volumen -2 -10 0 12 #000000 #ffffff #000000 7100 1;
#X text 701 278 1;
#X text 732 278 2;
#X connect 0 0 3 0;
#X connect 1 0 0 0;
#X connect 2 0 4 0;
#X connect 3 0 9 0;
#X connect 4 0 5 0;
#X connect 5 0 13 0;
#X connect 6 0 0 0;
#X connect 7 0 8 0;
#X connect 8 0 12 0;
#X connect 10 0 2 0;
