#N canvas 0 61 1920 997 12;
#X obj 23 195 array set \$0-scale;
#X obj 63 229 array define -k -yrange 0 11 \$0-scale 7;
#A 0 0 2 4 5 7 9 11;
#X obj 23 142 loadbang;
#X obj 1071 825 pack f f f;
#X obj 1071 959 throw~ \$0-output;
#X obj 139 359 catch~ \$0-output;
#X obj 143 875 ws.tanh~;
#X obj 143 899 hip~ 3;
#X obj 143 947 dac~ 1 2;
#X obj 349 880 tgl 19 0 empty empty empty 0 -10 0 12 #fcfcfc #000000 #000000 0 1;
#X obj 349 904 metro 100;
#X obj 349 928 tabwrite~ \$0-scope;
#N canvas 0 22 450 278 (subpatch) 0;
#X array \$0-scope 441 float 0;
#X coords 0 1 440 -1 200 140 1;
#X restore 933 50 graph;
#X obj 961 663 t f f;
#X obj 961 692 % 7;
#X obj 961 716 tabread \$0-scale;
#X obj 1063 745 +;
#X obj 1081 692 div 7;
#X obj 1081 716 * 12;
#X obj 397 149 tgl 19 0 empty empty empty 0 -10 0 12 #fcfcfc #000000 #000000 0 1;
#X obj 397 173 metro 250;
#X msg 533 52 60000 \$1;
#X obj 533 76 /;
#X msg 533 130 \$1 1000;
#X obj 1598 728 array define -k \$0-wavetable;
#A resize 16576;
#X obj 1600 582 loadbang;
#X obj 1600 606 f \$0;
#X msg 1600 635 read -resize ./brown-noise.wav \$1-wavetable;
#X obj 1600 659 soundfiler;
#X obj 1680 562 bng 19 250 50 0 empty empty empty 0 -10 0 12 #fcfcfc #000000 #000000;
#X obj 1071 849 clone -s 1 cello~ 6 \$0;
#X obj 1156 405 bng 19 250 50 0 empty empty empty 0 -10 0 12 #fcfcfc #000000 #000000;
#X msg 1156 429 4;
#X obj 1029 502 until;
#X obj 1156 453 t f b b;
#X obj 1074 602 t f b;
#X obj 1070 801 poly 6 1;
#X obj 1071 901 else/highshelf~ 2000 0.4 -12;
#X obj 143 728 *~ 0.5;
#X obj 533 28 else/rand.f 60 80;
#X msg 1180 523 clear;
#X obj 138 606 else/highpass~ 100 0.4;
#X obj 1063 769 makenote 127 6500;
#X obj 143 923 *~ 0.9;
#X obj 1071 930 else/lowshelf~ 400 0.4 -12;
#X obj 180 662 else/lowpass~ 4000 0.4;
#X obj 1575 330 hsl 128 19 0 127 0 0 empty empty Separacion -2 -10 0 12 #00ff04 #000000 #000000 0 1;
#X obj 1260 57 hsl 128 19 0 127 0 1 \$0-velocidad-s empty velocidad -2 -10 0 12 #00ff04 #000000 #000000 0 1;
#X obj 1167 163 r \$0-velocidad-s;
#X obj 1167 187 / 127;
#X obj 1157 255 + 60;
#X obj 1207 255 + 80;
#X obj 533 178 s \$0-duracion;
#X obj 1282 668 r \$0-duracion;
#X obj 533 154 line 0 10;
#X obj 1572 354 / 127;
#X msg 1572 378 1 \$1;
#X obj 1572 402 -;
#X obj 1572 426 s \$0-separacion-s;
#X obj 1074 570 else/rand.u 28;
#X obj 1279 418 r \$0-separacion-s;
#X obj 1279 442 * 14;
#X obj 1279 466 + 0.5;
#X obj 1279 490 i;
#X obj 1279 514 + 14;
#X obj 1167 210 * 300;
#X obj 1412 198 r \$0-velocidad-s;
#X obj 1412 222 / 127;
#X floatatom 1412 246 5 0 0 0 - - - 0;
#X obj 284 784 else/plate.rev~;
#X obj 336 690 loadbang;
#X obj 728 74 loadbang;
#X obj 533 100 / 4;
#X obj 1281 692 * 16;
#X obj 961 634 + 25;
#X msg 23 171 0 2 3 5 7 9 10;
#X obj 588 256 change -1;
#X obj 397 197 else/count 0 15;
#X obj 393 263 sel 0;
#X obj 610 864 pack f f f;
#X obj 508 700 t f f;
#X obj 508 729 % 7;
#X obj 508 753 tabread \$0-scale;
#X obj 610 782 +;
#X obj 628 729 div 7;
#X obj 628 753 * 12;
#X obj 621 639 t f b;
#X obj 688 697 + 63;
#X obj 611 983 throw~ \$0-output;
#X obj 610 806 makenote 127 100;
#X obj 621 549 +;
#X obj 665 547 i;
#X obj 145 851 *~ 4;
#X obj 588 280 bang;
#X obj 588 232 div 4;
#X obj 720 211 t f f;
#X obj 783 264 sel 0;
#X msg 783 312 2 \$1;
#X obj 783 336 pow;
#X obj 720 413 change -1;
#X obj 783 693 t b f;
#X obj 515 480 bang;
#X obj 563 198 v \$0-duracion;
#X obj 783 717 v \$0-duracion;
#X obj 610 835 poly 3 1;
#X obj 610 897 clone -s 1 cello-desire~ 3 \$0;
#X obj 783 288 else/rand.i 2 3;
#X obj 621 525 else/rand.i -3 3;
#X obj 720 389 div 8;
#X obj 714 457 t b b;
#X obj 770 506 f;
#X obj 1141 660 + 64;
#X obj 1141 636 random 63;
#X obj 1072 872 /~ 4;
#X obj 783 239 % 16;
#X obj 783 361 t f f;
#X obj 621 602 + 0;
#X obj 621 572 % 14;
#X obj 688 673 random 63;
#X obj 611 925 else/lowshelf~ 400 0.4 -12;
#X obj 611 954 *~ 0.3;
#X msg 728 98 50;
#X msg 309 750 wet 1 \, size 0.8 \, pre 0;
#X obj 468 332 t f f;
#X obj 468 380 change -1;
#X obj 547 352 sel 0;
#X msg 547 376 0;
#X obj 784 765 * 1;
#X obj 530 326 % 8;
#X obj 819 439 loadbang;
#X msg 819 463 2;
#X obj 507 671 + 43;
#X msg 108 139 0 2 4 5 7 9 11;
#X msg 599 392 seed 762565;
#X obj 468 356 div 2;
#X connect 2 0 75 0;
#X connect 3 0 30 0;
#X connect 5 0 41 0;
#X connect 6 0 7 0;
#X connect 6 0 11 0;
#X connect 7 0 43 0;
#X connect 9 0 10 0;
#X connect 10 0 11 0;
#X connect 13 0 14 0;
#X connect 13 1 17 0;
#X connect 14 0 15 0;
#X connect 15 0 16 0;
#X connect 16 0 42 0;
#X connect 17 0 18 0;
#X connect 18 0 16 1;
#X connect 19 0 20 0;
#X connect 20 0 77 0;
#X connect 21 0 22 0;
#X connect 22 0 72 0;
#X connect 23 0 54 0;
#X connect 25 0 26 0;
#X connect 26 0 27 0;
#X connect 27 0 28 0;
#X connect 29 0 26 0;
#X connect 30 0 113 0;
#X connect 31 0 32 0;
#X connect 32 0 34 0;
#X connect 33 0 59 0;
#X connect 34 0 33 0;
#X connect 34 1 40 0;
#X connect 35 0 74 0;
#X connect 35 1 112 0;
#X connect 36 0 3 0;
#X connect 36 1 3 1;
#X connect 36 2 3 2;
#X connect 37 0 44 0;
#X connect 38 0 92 0;
#X connect 39 0 21 0;
#X connect 40 0 59 0;
#X connect 41 0 38 0;
#X connect 41 0 45 0;
#X connect 42 0 36 0;
#X connect 42 1 36 1;
#X connect 43 0 8 0;
#X connect 43 0 8 1;
#X connect 44 0 4 0;
#X connect 45 0 69 0;
#X connect 46 0 55 0;
#X connect 48 0 49 0;
#X connect 49 0 65 0;
#X connect 53 0 73 0;
#X connect 54 0 20 1;
#X connect 54 0 52 0;
#X connect 55 0 56 0;
#X connect 56 0 57 0;
#X connect 57 0 58 0;
#X connect 59 0 35 0;
#X connect 60 0 61 0;
#X connect 61 0 62 0;
#X connect 62 0 63 0;
#X connect 63 0 64 0;
#X connect 64 0 59 1;
#X connect 65 0 50 0;
#X connect 65 0 51 0;
#X connect 66 0 67 0;
#X connect 67 0 68 0;
#X connect 69 0 92 0;
#X connect 69 1 92 0;
#X connect 70 0 122 0;
#X connect 71 0 121 0;
#X connect 72 0 23 0;
#X connect 73 0 42 2;
#X connect 74 0 13 0;
#X connect 75 0 0 0;
#X connect 76 0 93 0;
#X connect 77 0 78 0;
#X connect 77 0 94 0;
#X connect 77 0 95 0;
#X connect 77 0 123 0;
#X connect 78 0 31 0;
#X connect 79 0 105 0;
#X connect 80 0 81 0;
#X connect 80 1 84 0;
#X connect 81 0 82 0;
#X connect 82 0 83 0;
#X connect 83 0 89 0;
#X connect 84 0 85 0;
#X connect 85 0 83 1;
#X connect 86 0 131 0;
#X connect 86 1 118 0;
#X connect 87 0 89 1;
#X connect 89 0 104 0;
#X connect 89 1 104 1;
#X connect 90 0 117 0;
#X connect 91 0 90 1;
#X connect 92 0 6 0;
#X connect 94 0 76 0;
#X connect 95 0 108 0;
#X connect 95 1 114 0;
#X connect 96 0 106 0;
#X connect 97 0 98 0;
#X connect 98 0 115 0;
#X connect 100 0 103 0;
#X connect 100 1 127 1;
#X connect 101 0 107 0;
#X connect 103 0 127 0;
#X connect 104 0 79 0;
#X connect 104 1 79 1;
#X connect 104 2 79 2;
#X connect 105 0 119 0;
#X connect 106 0 97 0;
#X connect 107 0 90 0;
#X connect 108 0 99 0;
#X connect 109 0 101 0;
#X connect 109 1 110 0;
#X connect 110 0 100 0;
#X connect 111 0 42 1;
#X connect 112 0 111 0;
#X connect 113 0 37 0;
#X connect 114 0 96 0;
#X connect 115 0 108 1;
#X connect 116 0 86 0;
#X connect 117 0 91 0;
#X connect 117 0 116 0;
#X connect 118 0 87 0;
#X connect 119 0 120 0;
#X connect 120 0 88 0;
#X connect 121 0 21 0;
#X connect 122 0 69 0;
#X connect 123 0 134 0;
#X connect 123 1 128 0;
#X connect 124 0 109 0;
#X connect 125 0 126 0;
#X connect 125 0 133 0;
#X connect 126 0 91 0;
#X connect 127 0 89 2;
#X connect 128 0 125 0;
#X connect 129 0 130 0;
#X connect 130 0 110 1;
#X connect 131 0 80 0;
#X connect 132 0 0 0;
#X connect 133 0 107 0;
#X connect 134 0 124 0;
