#N canvas 0 0 1920 997 12;
#X obj 23 195 array set \$0-scale;
#X obj 63 229 array define -k -yrange 0 11 \$0-scale 7;
#A 0 0 2 4 6 7 9 11;
#X obj 23 142 loadbang;
#X obj 814 783 pack f f f;
#X obj 831 1013 throw~ \$0-output;
#X obj 138 582 catch~ \$0-output;
#X obj 167 927 ws.tanh~;
#X obj 145 967 hip~ 3;
#X obj 145 1015 dac~ 1 2;
#X obj 335 547 tgl 19 0 empty empty empty 0 -10 0 12 #fcfcfc #000000 #000000 0 1;
#X obj 335 571 metro 100;
#X obj 335 595 tabwrite~ \$0-scope;
#N canvas 0 22 450 278 (subpatch) 0;
#X array \$0-scope 441 float 0;
#X coords 0 1 440 -1 200 140 1;
#X restore 933 50 graph;
#X obj 704 621 t f f;
#X obj 704 650 % 7;
#X obj 704 674 tabread \$0-scale;
#X obj 806 703 +;
#X obj 824 650 div 7;
#X obj 824 674 * 12;
#X obj 397 149 tgl 19 0 empty empty empty 0 -10 0 12 #fcfcfc #000000 #000000 0 1;
#X obj 397 173 metro 250;
#X msg 533 52 60000 \$1;
#X obj 533 76 /;
#X obj 533 154 line 0 1;
#X msg 533 130 \$1 1000;
#X obj 665 97 loadbang;
#X msg 665 121 1;
#X obj 665 145 metro 1000;
#X obj 327 739 re.plate~;
#X obj 426 639 loadbang;
#X obj 424 686 unpack f f f;
#X obj 817 560 t f b;
#X floatatom 533 178 5 0 0 0 - - - 0;
#X obj 884 618 + 63;
#X obj 884 594 random 32;
#X obj 704 592 + 25;
#X msg 23 171 0 2 4 6 7 9 11;
#X obj 397 221 select 1;
#X obj 397 245 bng 19 250 50 0 empty empty empty 0 -10 0 12 #fcfcfc #000000 #000000;
#X obj 1155 758 pack f f f;
#X obj 1155 782 clone -s 1 organ~ 6;
#X obj 1154 734 poly 6 1;
#X obj 1152 831 else/crossover~ 500;
#X obj 1174 883 sig~ 2;
#X obj 1174 907 pow~;
#X obj 1239 892 +~ 1;
#X obj 1239 916 *~ -0.5;
#X obj 1158 968 +~;
#X obj 1148 932 *~;
#X obj 1346 887 sig~ 2;
#X obj 1346 911 pow~;
#X obj 1411 896 +~ 1;
#X obj 1411 920 *~ -0.5;
#X obj 1320 936 *~;
#X obj 145 991 *~ 0.9;
#X obj 1239 868 osc~ 2;
#X obj 143 668 *~ 0.5;
#X obj 977 1012 throw~ \$0-reverb;
#X obj 271 665 catch~ \$0-reverb;
#X obj 1161 1075 throw~ \$0-reverb;
#X obj 1412 872 osc~ 3.1;
#X obj 1394 655 loadbang;
#X msg 1394 679 1;
#X obj 1394 703 metro 5000;
#X msg 1349 764 \$1 1000;
#X obj 1349 788 line 0 1;
#X msg 1462 797 \$1 1000;
#X obj 1462 821 line 0 1;
#X obj 1349 740 else/rand.f 0.5 4;
#X obj 1462 773 else/rand.f 0.5 4;
#X obj 1155 806 /~ 6;
#X obj 664 495 else/rand.u 22;
#X obj 664 519 + 7;
#X obj 790 528 - 7;
#X obj 789 473 else/chance 20;
#X obj 663 464 else/chance 50;
#X obj 790 504 else/rand.u 14;
#X obj 1620 273 bng 19 250 50 0 empty empty empty 0 -10 0 12 #fcfcfc #000000 #000000;
#X msg 1620 297 4;
#X obj 1493 370 until;
#X obj 1523 399 i;
#X obj 1563 399 + 1;
#X msg 1595 360 0;
#X obj 1218 330 t f f;
#X obj 1218 359 % 7;
#X obj 1218 383 tabread \$0-scale;
#X obj 1320 412 +;
#X obj 1338 359 div 7;
#X obj 1338 383 * 12;
#X obj 1523 428 sel 0;
#X msg 1523 457 0;
#X obj 1555 516 +;
#X obj 1595 516 i;
#X obj 1585 598 list prepend;
#X obj 1685 598 t l;
#X obj 1620 321 t f b b;
#X obj 1555 569 +;
#X msg 1555 457 bang;
#X obj 1585 627 array set \$0-chord;
#X obj 1615 651 array define \$0-chord 4;
#X obj 1218 301 tabread \$0-chord;
#X obj 1236 211 t b b;
#X obj 1382 280 random 127;
#X obj 1382 304 + 1;
#X obj 1320 436 + 60;
#X obj 1218 248 else/count 0 3;
#X obj 1432 200 select 0;
#X obj 1432 224 else/count 1 4;
#X obj 1432 248 select 4;
#X obj 1555 487 else/rand.i 1 2;
#X obj 1636 550 else/rand.i 0 6;
#X obj 1218 272 t f f;
#X obj 1628 230 loadbang;
#X obj 1409 351 * 12;
#X obj 1409 375 + 60;
#X obj 1409 327 else/rand.i -1 0;
#X msg 1695 448 seed 125;
#X msg 424 662 1 0.5 0.7;
#X obj 965 924 *~ 0.05;
#X obj 1147 702 makenote 127 200;
#X obj 145 761 *~ 4;
#X obj 533 100 / 2;
#X obj 397 197 else/count 1 2;
#X obj 533 27 else/rand.f 90 100;
#X obj 1169 1026 *~ 0.1;
#X obj 789 332 hsl 128 19 0 127 0 0 \$0-separacion-s empty Separacion -2 -10 0 12 #00ff04 #000000 #000000 0 1;
#X floatatom 786 356 5 0 0 0 - - - 0;
#X obj 339 422 r \$0-separacion-s;
#X obj 339 446 / 127;
#X msg 339 470 1 \$1;
#X obj 339 494 -;
#X obj 1149 456 r \$0-separacion-s;
#X obj 1149 480 / 127;
#X msg 1149 504 1 \$1;
#X obj 1149 528 -;
#X msg 1149 592 \$1 20;
#X obj 1149 616 line~;
#X obj 266 802 delwrite~ \$0-stutter 2000;
#X obj 250 1046 tgl 19 0 empty empty empty 0 -10 0 12 #fcfcfc #000000 #000000 0 1;
#X obj 250 1094 random 2000;
#X obj 250 1118 delread~ \$0-stutter;
#X obj 250 1142 *~;
#X obj 386 1089 vline~;
#X obj 250 1070 metro 150;
#X msg 387 1065 1 10 \, 0 10 120;
#N canvas -1894 26 524 378 crush~ 0;
#X obj 12 141 -~;
#X obj 27 115 wrap~;
#X obj 82 167 /~;
#X obj 12 68 *~;
#X obj 97 31 inlet~;
#X obj 82 188 outlet~;
#X obj 12 31 inlet~;
#X text 82 208 (O1) Output;
#X text 12 11 (I1) Input;
#X text 12 252 https://lists.puredata.info/pipermail/pd-list/2008-12/066923.html;
#X text 12 237 Reference:;
#X obj 97 52 /~ 2;
#X text 97 11 (I2) Steps;
#X obj 12 89 +~ 0.5;
#X connect 0 0 2 0;
#X connect 1 0 0 1;
#X connect 2 0 5 0;
#X connect 3 0 13 0;
#X connect 4 0 11 0;
#X connect 6 0 3 0;
#X connect 11 0 3 1;
#X connect 11 0 2 1;
#X connect 13 0 1 0;
#X connect 13 0 0 0;
#X restore 335 994 pd crush~;
#X floatatom 395 951 5 0 0 0 - - - 0;
#X obj 437 1104 r \$0-separacion-s;
#X obj 437 1128 / 127;
#X msg 437 1152 1 \$1;
#X obj 437 1176 -;
#X msg 437 1200 \$1 20;
#X obj 437 1224 line~;
#X obj 250 1166 *~;
#X obj 529 496 else/rand.u 22;
#X obj 528 465 else/chance 50;
#X obj 615 278 r \$0-separacion-s;
#X obj 615 302 / 127;
#X msg 615 326 1 \$1;
#X obj 615 350 -;
#X obj 615 374 * 100;
#X obj 529 520 + 14;
#X obj 1149 552 * 0.1;
#X obj 814 807 clone -s 1 leadorgan~ 2;
#X obj 811 760 poly 2 1;
#X obj 571 1019 pack f f f;
#X obj 461 857 t f f;
#X obj 461 886 % 7;
#X obj 461 910 tabread \$0-scale;
#X obj 563 939 +;
#X obj 581 886 div 7;
#X obj 581 910 * 12;
#X obj 574 796 t f b;
#X obj 641 854 + 63;
#X obj 641 830 random 32;
#X obj 461 828 + 25;
#X obj 561 1172 throw~ \$0-output;
#X obj 707 1171 throw~ \$0-reverb;
#X obj 563 963 makenote 127 100;
#X obj 806 727 makenote 127 50;
#X msg 1003 589 1 \$1;
#X obj 1003 613 -;
#X obj 1003 637 * 4;
#X msg 1003 661 2 \$1;
#X obj 1003 685 pow;
#X obj 1253 651 * 100;
#X obj 699 927 * 100;
#X obj 569 996 poly 1 1;
#X obj 571 1043 clone -s 1 leadorgan~ 1;
#X obj 693 1082 *~ 0.01;
#X obj 771 66 hsl 128 19 0 127 0 0 \$0-velocidad-s empty velocidad -2 -10 0 12 #00ff04 #000000 #000000 0 1;
#X floatatom 767 91 5 0 0 0 - - - 0;
#X obj 768 114 / 127;
#X obj 768 174 + 90;
#X obj 817 168 + 100;
#X obj 768 138 * 120;
#X obj 1003 709 * 50;
#X connect 2 0 36 0;
#X connect 3 0 163 0;
#X connect 5 0 56 0;
#X connect 6 0 7 0;
#X connect 7 0 54 0;
#X connect 9 0 10 0;
#X connect 10 0 11 0;
#X connect 13 0 14 0;
#X connect 13 1 17 0;
#X connect 14 0 15 0;
#X connect 15 0 16 0;
#X connect 16 0 179 0;
#X connect 17 0 18 0;
#X connect 18 0 16 1;
#X connect 19 0 20 0;
#X connect 20 0 122 0;
#X connect 20 0 101 0;
#X connect 20 0 155 0;
#X connect 21 0 22 0;
#X connect 22 0 121 0;
#X connect 23 0 20 1;
#X connect 23 0 32 0;
#X connect 24 0 23 0;
#X connect 25 0 26 0;
#X connect 26 0 27 0;
#X connect 27 0 123 0;
#X connect 28 0 120 0;
#X connect 28 1 120 0;
#X connect 29 0 117 0;
#X connect 30 0 28 1;
#X connect 30 1 28 2;
#X connect 30 2 28 3;
#X connect 31 0 35 0;
#X connect 31 1 34 0;
#X connect 33 0 179 1;
#X connect 34 0 33 0;
#X connect 35 0 13 0;
#X connect 36 0 0 0;
#X connect 37 0 38 0;
#X connect 38 0 75 0;
#X connect 38 0 74 0;
#X connect 39 0 40 0;
#X connect 40 0 70 0;
#X connect 41 0 39 0;
#X connect 41 1 39 1;
#X connect 41 2 39 2;
#X connect 42 0 48 0;
#X connect 42 1 53 0;
#X connect 43 0 44 0;
#X connect 44 0 48 1;
#X connect 45 0 46 0;
#X connect 46 0 44 1;
#X connect 47 0 124 0;
#X connect 48 0 47 0;
#X connect 49 0 50 0;
#X connect 50 0 53 1;
#X connect 51 0 52 0;
#X connect 52 0 50 1;
#X connect 53 0 47 1;
#X connect 54 0 8 0;
#X connect 54 0 8 1;
#X connect 55 0 45 0;
#X connect 56 0 120 0;
#X connect 58 0 28 0;
#X connect 60 0 51 0;
#X connect 61 0 62 0;
#X connect 62 0 63 0;
#X connect 63 0 68 0;
#X connect 63 0 69 0;
#X connect 64 0 65 0;
#X connect 65 0 55 0;
#X connect 66 0 67 0;
#X connect 67 0 60 0;
#X connect 68 0 64 0;
#X connect 69 0 66 0;
#X connect 70 0 42 0;
#X connect 71 0 72 0;
#X connect 72 0 31 0;
#X connect 73 0 31 0;
#X connect 74 0 76 0;
#X connect 75 0 71 0;
#X connect 76 0 73 0;
#X connect 77 0 78 0;
#X connect 77 0 115 0;
#X connect 78 0 95 0;
#X connect 79 0 80 0;
#X connect 80 0 81 0;
#X connect 80 0 89 0;
#X connect 81 0 80 1;
#X connect 82 0 80 1;
#X connect 82 0 92 0;
#X connect 83 0 84 0;
#X connect 83 1 87 0;
#X connect 84 0 85 0;
#X connect 85 0 86 0;
#X connect 86 0 104 0;
#X connect 87 0 88 0;
#X connect 88 0 86 1;
#X connect 89 0 90 0;
#X connect 89 1 97 0;
#X connect 90 0 91 0;
#X connect 91 0 92 0;
#X connect 91 0 96 0;
#X connect 92 0 91 1;
#X connect 93 0 94 0;
#X connect 93 0 98 0;
#X connect 94 0 93 1;
#X connect 95 0 79 0;
#X connect 95 1 82 0;
#X connect 95 2 93 1;
#X connect 95 2 110 0;
#X connect 96 0 93 0;
#X connect 97 0 109 0;
#X connect 100 0 83 0;
#X connect 101 0 105 0;
#X connect 101 1 102 0;
#X connect 102 0 103 0;
#X connect 104 0 119 0;
#X connect 105 0 111 0;
#X connect 106 0 107 0;
#X connect 107 0 108 0;
#X connect 108 0 77 0;
#X connect 109 0 91 0;
#X connect 110 0 96 1;
#X connect 111 0 100 0;
#X connect 111 1 106 0;
#X connect 112 0 77 0;
#X connect 112 0 116 0;
#X connect 113 0 114 0;
#X connect 114 0 104 1;
#X connect 115 0 113 0;
#X connect 116 0 109 0;
#X connect 117 0 30 0;
#X connect 118 0 4 0;
#X connect 118 0 57 0;
#X connect 119 0 41 0;
#X connect 119 1 41 1;
#X connect 120 0 137 0;
#X connect 120 0 6 0;
#X connect 121 0 24 0;
#X connect 122 0 37 0;
#X connect 123 0 21 0;
#X connect 124 0 59 0;
#X connect 125 0 126 0;
#X connect 127 0 128 0;
#X connect 128 0 129 0;
#X connect 129 0 130 0;
#X connect 131 0 132 0;
#X connect 132 0 133 0;
#X connect 132 0 180 0;
#X connect 133 0 134 0;
#X connect 134 0 162 0;
#X connect 135 0 136 0;
#X connect 136 0 40 1;
#X connect 136 0 163 1;
#X connect 138 0 143 0;
#X connect 139 0 140 0;
#X connect 140 0 141 0;
#X connect 141 0 153 0;
#X connect 142 0 141 1;
#X connect 143 0 139 0;
#X connect 143 0 144 0;
#X connect 144 0 142 0;
#X connect 146 0 145 1;
#X connect 147 0 148 0;
#X connect 148 0 149 0;
#X connect 149 0 150 0;
#X connect 150 0 151 0;
#X connect 151 0 152 0;
#X connect 152 0 153 1;
#X connect 154 0 161 0;
#X connect 155 0 154 0;
#X connect 156 0 157 0;
#X connect 157 0 158 0;
#X connect 158 0 159 0;
#X connect 159 0 160 0;
#X connect 160 0 155 1;
#X connect 161 0 172 0;
#X connect 162 0 135 0;
#X connect 163 0 118 0;
#X connect 164 0 3 0;
#X connect 164 1 3 1;
#X connect 164 2 3 2;
#X connect 165 0 188 0;
#X connect 166 0 167 0;
#X connect 166 1 170 0;
#X connect 167 0 168 0;
#X connect 168 0 169 0;
#X connect 169 0 178 0;
#X connect 170 0 171 0;
#X connect 171 0 169 1;
#X connect 172 0 175 0;
#X connect 172 1 174 0;
#X connect 173 0 178 1;
#X connect 174 0 173 0;
#X connect 175 0 166 0;
#X connect 178 0 187 0;
#X connect 178 1 187 1;
#X connect 179 0 164 0;
#X connect 179 1 164 1;
#X connect 180 0 181 0;
#X connect 181 0 182 0;
#X connect 182 0 183 0;
#X connect 183 0 184 0;
#X connect 184 0 185 0;
#X connect 184 0 186 0;
#X connect 184 0 196 0;
#X connect 185 0 119 2;
#X connect 186 0 178 2;
#X connect 187 0 165 0;
#X connect 187 1 165 1;
#X connect 187 2 165 2;
#X connect 188 0 189 0;
#X connect 189 0 176 0;
#X connect 189 0 177 0;
#X connect 190 0 191 0;
#X connect 191 0 192 0;
#X connect 192 0 195 0;
#X connect 193 0 123 1;
#X connect 194 0 123 2;
#X connect 195 0 193 0;
#X connect 195 0 194 0;
#X connect 196 0 179 2;
