#N canvas 0 61 1920 997 12;
#X obj 23 195 array set \$0-scale;
#X obj 63 229 array define -k -yrange 0 11 \$0-scale 7;
#A 0 0 2 4 5 7 9 10;
#X obj 23 142 loadbang;
#X obj 138 582 catch~ \$0-output;
#X obj 101 789 ws.tanh~;
#X obj 108 840 hip~ 3;
#X obj 100 970 dac~ 1 2;
#X obj 335 547 tgl 19 0 empty empty empty 0 -10 0 12 #fcfcfc #000000 #000000 0 1;
#X obj 335 571 metro 100;
#X obj 335 595 tabwrite~ \$0-scope;
#N canvas 0 22 450 278 (subpatch) 0;
#X array \$0-scope 441 float 0;
#X coords 0 1 440 -1 200 140 1;
#X restore 933 50 graph;
#X obj 360 99 tgl 19 0 empty empty empty 0 -10 0 12 #fcfcfc #000000 #000000 0 1;
#X obj 360 123 metro 250;
#X obj 107 874 *~ 0.9;
#X obj 1620 273 bng 19 250 50 0 empty empty empty 0 -10 0 12 #fcfcfc #000000 #000000;
#X msg 1620 297 4;
#X obj 1493 370 until;
#X obj 1523 399 i;
#X obj 1563 399 + 1;
#X msg 1595 360 0;
#X obj 1218 330 t f f;
#X obj 1218 359 % 7;
#X obj 1218 383 tabread \$0-scale;
#X obj 1320 412 +;
#X obj 1338 359 div 7;
#X obj 1338 383 * 12;
#X obj 1523 428 sel 0;
#X msg 1523 457 0;
#X obj 1555 516 +;
#X obj 1595 516 i;
#X obj 1585 598 list prepend;
#X obj 1685 598 t l;
#X obj 1620 321 t f b b;
#X obj 1555 569 +;
#X msg 1555 457 bang;
#X obj 1585 627 array set \$0-chord;
#X obj 1615 651 array define \$0-chord 4;
#X obj 1218 301 tabread \$0-chord;
#X obj 1236 211 t b b;
#X obj 1382 280 random 127;
#X obj 1382 304 + 1;
#X obj 1320 436 + 60;
#X obj 1218 248 else/count 0 3;
#X obj 1432 200 select 0;
#X obj 1432 224 else/count 1 4;
#X obj 1432 248 select 4;
#X obj 1555 487 else/rand.i 1 2;
#X obj 1636 550 else/rand.i 0 6;
#X obj 1218 272 t f f;
#X obj 1628 230 loadbang;
#X obj 1409 351 * 12;
#X obj 1409 375 + 60;
#X obj 1409 327 else/rand.i -1 0;
#X msg 1695 448 seed 125;
#X obj 771 106 hsl 128 19 0 127 0 0 \$0-separacion-s empty Separacion -2 -10 0 12 #00ff04 #000000 #000000 0 1;
#X floatatom 768 130 5 0 0 0 - - - 0;
#X obj 646 1031 pack f f f;
#X obj 544 867 t f f;
#X obj 544 896 % 7;
#X obj 544 920 tabread \$0-scale;
#X obj 646 949 +;
#X obj 664 896 div 7;
#X obj 664 920 * 12;
#X obj 657 806 t f b;
#X obj 724 864 + 63;
#X obj 724 840 random 32;
#X obj 642 1165 throw~ \$0-output;
#X obj 726 1138 throw~ \$0-reverb;
#X obj 646 1002 poly 1 1;
#X obj 622 22 hsl 128 19 0 127 0 0 \$0-velocidad-s empty velocidad -2 -10 0 12 #00ff04 #000000 #000000 0 1;
#X obj 646 973 makenote 127 100;
#X obj 461 -2 loadbang;
#X obj 461 46 /;
#X obj 461 70 / 4;
#X obj 461 94 t f f;
#X obj 493 123 s \$0-16;
#X obj 514 153 v \$0-16;
#X obj 412 271 else/count 0 15;
#X obj 649 202 t f f;
#X obj 712 231 % 4;
#X obj 712 255 sel 0;
#X msg 712 303 2 \$1;
#X obj 712 327 pow;
#X obj 712 279 else/rand.i 0 2;
#X obj 649 380 div;
#X obj 649 404 change -1;
#X obj 805 842 t b f;
#X obj 805 866 v \$0-16;
#X obj 544 838 + 40;
#X obj 657 716 +;
#X obj 701 714 i;
#X obj 657 692 else/rand.i -2 2;
#X obj 231 708 else/plate.rev~;
#X obj 238 670 catch~ \$0-reverb;
#X obj 1296 1158 pack f f f;
#X obj 1177 981 t f f;
#X obj 1177 1010 % 7;
#X obj 1177 1034 tabread \$0-scale;
#X obj 1279 1063 +;
#X obj 1297 1010 div 7;
#X obj 1297 1034 * 12;
#X obj 1292 897 t f b;
#X obj 1359 955 + 63;
#X obj 1359 931 random 32;
#X obj 971 1241 throw~ \$0-output;
#X obj 1442 1269 throw~ \$0-reverb;
#X obj 1296 1100 makenote 127 100;
#X obj 1253 484 t f f;
#X obj 1316 513 % 4;
#X obj 1316 537 sel 0;
#X msg 1316 585 2 \$1;
#X obj 1316 609 pow;
#X obj 1253 662 div;
#X obj 1253 686 change -1;
#X obj 1440 933 t b f;
#X obj 1440 957 v \$0-16;
#X obj 1292 807 +;
#X obj 1336 805 i;
#X obj 1292 783 else/rand.i -2 2;
#X obj 1184 921 + 25;
#X obj 1295 1129 poly 3 1;
#X obj 1296 1192 clone -s 1 trumpet~ 3;
#X obj 1226 948 + 2;
#X msg 23 171 0 2 4 5 7 9 10;
#X obj 265 595 loadbang;
#X obj 1276 957 - 2;
#X obj 645 437 t f f;
#X obj 646 619 pipe;
#X obj 676 465 % 2;
#X obj 676 489 sel 0 1;
#X msg 676 513 0;
#X obj 724 551 v \$0-16;
#X obj 724 575 /;
#X obj 712 352 t f f f;
#X obj 1292 860 + 7;
#X obj 1292 831 % 14;
#X obj 1046 601 t f f;
#X obj 1047 783 pipe;
#X obj 1077 629 % 2;
#X obj 1077 653 sel 0 1;
#X msg 1077 677 0;
#X obj 1047 816 bang;
#X obj 1125 715 v \$0-16;
#X obj 1125 739 /;
#X obj 1316 632 t f f f;
#X floatatom 1125 787 5 0 0 0 - - - 0;
#X obj 1125 763 * 0;
#X floatatom 1253 710 5 0 0 0 - - - 0;
#X floatatom 1440 1029 5 0 0 0 - - - 0;
#X obj 1440 981 *;
#X obj 724 599 * 0.1;
#X obj 1440 1005 * 0.5;
#X obj 1316 561 else/rand.i 1 3;
#X obj 871 1202 else/plate.rev~;
#X obj 905 1089 loadbang;
#X obj 619 46 / 127;
#X obj 619 70 * 100;
#X obj 619 94 + 120;
#X msg 461 22 60000 \$1;
#X floatatom 558 7 5 0 0 0 - - - 0;
#X obj 646 1064 clone -s 1 trumpet~ 1;
#X obj 657 769 +;
#X obj 805 890 *;
#X obj 806 914 * 0.5;
#X obj 701 1114 *~ 0.5;
#N canvas 0 22 1920 1036 lol 0;
#X obj 646 1031 pack f f f;
#X obj 544 867 t f f;
#X obj 544 896 % 7;
#X obj 544 920 tabread \$0-scale;
#X obj 646 949 +;
#X obj 664 896 div 7;
#X obj 664 920 * 12;
#X obj 657 806 t f b;
#X obj 724 864 + 63;
#X obj 724 840 random 32;
#X obj 642 1165 throw~ \$0-output;
#X obj 726 1138 throw~ \$0-reverb;
#X obj 646 1002 poly 1 1;
#X obj 646 973 makenote 127 100;
#X obj 649 202 t f f;
#X obj 712 231 % 4;
#X obj 712 255 sel 0;
#X msg 712 303 2 \$1;
#X obj 712 327 pow;
#X obj 649 380 div;
#X obj 649 404 change -1;
#X obj 805 842 t b f;
#X obj 805 866 v \$0-16;
#X obj 544 838 + 40;
#X obj 657 716 +;
#X obj 701 714 i;
#X obj 657 692 else/rand.i -2 2;
#X obj 645 437 t f f;
#X obj 646 619 pipe;
#X obj 676 465 % 2;
#X obj 676 489 sel 0 1;
#X msg 676 513 0;
#X obj 724 551 v \$0-16;
#X obj 724 575 /;
#X obj 712 352 t f f f;
#X obj 724 599 * 0.1;
#X obj 805 890 *;
#X obj 806 914 * 0.5;
#X obj 701 1114 *~ 0.5;
#X obj 652 157 inlet;
#X obj 657 769 + 0;
#X obj 657 740 % 7;
#X obj 646 652 else/chance 70;
#X obj 554 612 bang;
#X obj 712 278 else/rand.i 1 2;
#X obj 1262 818 array define -k \$0-wavetable;
#A resize 16576;
#X obj 1264 672 loadbang;
#X obj 1264 696 f \$0;
#X msg 1264 725 read -resize ./brown-noise.wav \$1-wavetable;
#X obj 1264 749 soundfiler;
#X obj 1344 652 bng 19 250 50 0 empty empty empty 0 -10 0 12 #fcfcfc #000000 #000000;
#X obj 646 1064 clone -s 1 cello-desire~ 1 \$0;
#X obj 635 1091 *~ 1;
#X connect 0 0 51 0;
#X connect 1 0 2 0;
#X connect 1 1 5 0;
#X connect 2 0 3 0;
#X connect 3 0 4 0;
#X connect 4 0 13 0;
#X connect 5 0 6 0;
#X connect 6 0 4 1;
#X connect 7 0 23 0;
#X connect 7 1 9 0;
#X connect 8 0 13 1;
#X connect 9 0 8 0;
#X connect 12 0 0 0;
#X connect 12 1 0 1;
#X connect 12 2 0 2;
#X connect 13 0 12 0;
#X connect 13 1 12 1;
#X connect 14 0 19 0;
#X connect 14 1 15 0;
#X connect 15 0 16 0;
#X connect 16 0 44 0;
#X connect 17 0 18 0;
#X connect 18 0 34 0;
#X connect 19 0 20 0;
#X connect 20 0 27 0;
#X connect 20 0 43 0;
#X connect 21 0 22 0;
#X connect 21 1 36 1;
#X connect 22 0 36 0;
#X connect 23 0 1 0;
#X connect 24 0 41 0;
#X connect 25 0 24 1;
#X connect 26 0 24 0;
#X connect 27 0 28 0;
#X connect 27 1 29 0;
#X connect 29 0 30 0;
#X connect 30 0 31 0;
#X connect 30 1 32 0;
#X connect 31 0 28 1;
#X connect 32 0 33 0;
#X connect 33 0 35 0;
#X connect 34 0 19 1;
#X connect 34 1 33 1;
#X connect 34 2 21 0;
#X connect 35 0 28 1;
#X connect 36 0 37 0;
#X connect 37 0 13 2;
#X connect 38 0 11 0;
#X connect 39 0 14 0;
#X connect 40 0 7 0;
#X connect 41 0 25 0;
#X connect 41 0 40 0;
#X connect 42 0 26 0;
#X connect 43 0 42 0;
#X connect 44 0 17 0;
#X connect 46 0 47 0;
#X connect 47 0 48 0;
#X connect 48 0 49 0;
#X connect 50 0 47 0;
#X connect 51 0 52 0;
#X connect 52 0 10 0;
#X connect 52 0 38 0;
#X restore 465 393 pd lol;
#X obj 657 739 % 7;
#X obj 633 1092 *~ 0.3;
#X obj 646 652 else/chance 70;
#X obj 554 612 bang;
#X obj 240 748 *~ 0.5;
#X obj 138 606 *~ 0.5;
#X msg 271 628 wet 1 \, size 0.5 \, pre 0;
#X msg 265 819 open ./trumpet-concerto.wav \, start;
#X obj 273 908 writesf~;
#X msg 386 761 stop;
#N canvas 0 22 1920 1036 lol 0;
#X obj 646 1031 pack f f f;
#X obj 544 867 t f f;
#X obj 544 896 % 7;
#X obj 544 920 tabread \$0-scale;
#X obj 646 949 +;
#X obj 664 896 div 7;
#X obj 664 920 * 12;
#X obj 657 806 t f b;
#X obj 724 864 + 63;
#X obj 724 840 random 32;
#X obj 642 1165 throw~ \$0-output;
#X obj 726 1138 throw~ \$0-reverb;
#X obj 646 1002 poly 1 1;
#X obj 646 973 makenote 127 100;
#X obj 649 202 t f f;
#X obj 712 231 % 4;
#X obj 712 255 sel 0;
#X msg 712 303 2 \$1;
#X obj 712 327 pow;
#X obj 649 380 div;
#X obj 649 404 change -1;
#X obj 805 842 t b f;
#X obj 805 866 v \$0-16;
#X obj 544 838 + 40;
#X obj 657 716 +;
#X obj 701 714 i;
#X obj 657 692 else/rand.i -2 2;
#X obj 645 437 t f f;
#X obj 646 619 pipe;
#X obj 676 465 % 2;
#X obj 676 489 sel 0 1;
#X msg 676 513 0;
#X obj 724 551 v \$0-16;
#X obj 724 575 /;
#X obj 712 352 t f f f;
#X obj 724 599 * 0.1;
#X obj 805 890 *;
#X obj 806 914 * 0.5;
#X obj 701 1114 *~ 0.5;
#X obj 652 157 inlet;
#X obj 657 740 % 7;
#X obj 646 652 else/chance 70;
#X obj 554 612 bang;
#X obj 712 278 else/rand.i 1 2;
#X obj 646 1064 clone -s 1 cello-desire~ 1 \$0;
#X obj 635 1091 *~ 1;
#X obj 657 768 + 0;
#X connect 0 0 44 0;
#X connect 1 0 2 0;
#X connect 1 1 5 0;
#X connect 2 0 3 0;
#X connect 3 0 4 0;
#X connect 4 0 13 0;
#X connect 5 0 6 0;
#X connect 6 0 4 1;
#X connect 7 0 23 0;
#X connect 7 1 9 0;
#X connect 8 0 13 1;
#X connect 9 0 8 0;
#X connect 12 0 0 0;
#X connect 12 1 0 1;
#X connect 12 2 0 2;
#X connect 13 0 12 0;
#X connect 13 1 12 1;
#X connect 14 0 19 0;
#X connect 14 1 15 0;
#X connect 15 0 16 0;
#X connect 16 0 43 0;
#X connect 17 0 18 0;
#X connect 18 0 34 0;
#X connect 19 0 20 0;
#X connect 20 0 27 0;
#X connect 20 0 42 0;
#X connect 21 0 22 0;
#X connect 21 1 36 1;
#X connect 22 0 36 0;
#X connect 23 0 1 0;
#X connect 24 0 40 0;
#X connect 25 0 24 1;
#X connect 26 0 24 0;
#X connect 27 0 28 0;
#X connect 27 1 29 0;
#X connect 29 0 30 0;
#X connect 30 0 31 0;
#X connect 30 1 32 0;
#X connect 31 0 28 1;
#X connect 32 0 33 0;
#X connect 33 0 35 0;
#X connect 34 0 19 1;
#X connect 34 1 33 1;
#X connect 34 2 21 0;
#X connect 35 0 28 1;
#X connect 36 0 37 0;
#X connect 37 0 13 2;
#X connect 38 0 11 0;
#X connect 39 0 14 0;
#X connect 40 0 25 0;
#X connect 40 0 46 0;
#X connect 41 0 26 0;
#X connect 42 0 41 0;
#X connect 43 0 17 0;
#X connect 44 0 45 0;
#X connect 45 0 10 0;
#X connect 45 0 38 0;
#X connect 46 0 7 0;
#X restore 393 401 pd lol;
#X connect 2 0 123 0;
#X connect 3 0 171 0;
#X connect 4 0 5 0;
#X connect 5 0 13 0;
#X connect 7 0 8 0;
#X connect 8 0 9 0;
#X connect 11 0 12 0;
#X connect 12 0 77 0;
#X connect 13 0 6 0;
#X connect 13 0 6 1;
#X connect 13 0 174 0;
#X connect 14 0 15 0;
#X connect 14 0 52 0;
#X connect 15 0 32 0;
#X connect 16 0 17 0;
#X connect 17 0 18 0;
#X connect 17 0 26 0;
#X connect 18 0 17 1;
#X connect 19 0 17 1;
#X connect 19 0 29 0;
#X connect 20 0 21 0;
#X connect 20 1 24 0;
#X connect 21 0 22 0;
#X connect 22 0 23 0;
#X connect 23 0 41 0;
#X connect 24 0 25 0;
#X connect 25 0 23 1;
#X connect 26 0 27 0;
#X connect 26 1 34 0;
#X connect 27 0 28 0;
#X connect 28 0 29 0;
#X connect 28 0 33 0;
#X connect 29 0 28 1;
#X connect 30 0 31 0;
#X connect 30 0 35 0;
#X connect 31 0 30 1;
#X connect 32 0 16 0;
#X connect 32 1 19 0;
#X connect 32 2 30 1;
#X connect 32 2 47 0;
#X connect 33 0 30 0;
#X connect 34 0 46 0;
#X connect 37 0 20 0;
#X connect 38 0 42 0;
#X connect 38 1 39 0;
#X connect 39 0 40 0;
#X connect 42 0 48 0;
#X connect 43 0 44 0;
#X connect 44 0 45 0;
#X connect 45 0 14 0;
#X connect 46 0 28 0;
#X connect 47 0 33 1;
#X connect 48 0 37 0;
#X connect 48 1 43 0;
#X connect 49 0 14 0;
#X connect 49 0 53 0;
#X connect 50 0 51 0;
#X connect 51 0 41 1;
#X connect 52 0 50 0;
#X connect 53 0 46 0;
#X connect 54 0 55 0;
#X connect 56 0 160 0;
#X connect 57 0 58 0;
#X connect 57 1 61 0;
#X connect 58 0 59 0;
#X connect 59 0 60 0;
#X connect 60 0 70 0;
#X connect 61 0 62 0;
#X connect 62 0 60 1;
#X connect 63 0 88 0;
#X connect 63 1 65 0;
#X connect 64 0 70 1;
#X connect 65 0 64 0;
#X connect 68 0 56 0;
#X connect 68 1 56 1;
#X connect 68 2 56 2;
#X connect 69 0 155 0;
#X connect 70 0 68 0;
#X connect 70 1 68 1;
#X connect 71 0 158 0;
#X connect 72 0 73 0;
#X connect 73 0 74 0;
#X connect 74 0 12 1;
#X connect 74 1 75 0;
#X connect 77 0 78 0;
#X connect 77 0 107 0;
#X connect 77 0 165 0;
#X connect 77 0 176 0;
#X connect 78 0 84 0;
#X connect 78 1 79 0;
#X connect 79 0 80 0;
#X connect 80 0 83 0;
#X connect 81 0 82 0;
#X connect 82 0 133 0;
#X connect 83 0 81 0;
#X connect 84 0 85 0;
#X connect 85 0 126 0;
#X connect 85 0 169 0;
#X connect 86 0 87 0;
#X connect 86 1 162 1;
#X connect 87 0 162 0;
#X connect 88 0 57 0;
#X connect 89 0 166 0;
#X connect 90 0 89 1;
#X connect 91 0 89 0;
#X connect 92 0 170 0;
#X connect 92 1 170 0;
#X connect 93 0 92 0;
#X connect 94 0 121 0;
#X connect 95 0 96 0;
#X connect 95 1 99 0;
#X connect 96 0 97 0;
#X connect 97 0 98 0;
#X connect 98 0 106 0;
#X connect 99 0 100 0;
#X connect 100 0 98 1;
#X connect 101 0 119 0;
#X connect 101 1 103 0;
#X connect 102 0 106 1;
#X connect 103 0 102 0;
#X connect 106 0 120 0;
#X connect 106 1 120 1;
#X connect 107 0 112 0;
#X connect 107 1 108 0;
#X connect 108 0 109 0;
#X connect 109 0 152 0;
#X connect 110 0 111 0;
#X connect 111 0 144 0;
#X connect 112 0 113 0;
#X connect 113 0 136 0;
#X connect 113 0 147 0;
#X connect 114 0 115 0;
#X connect 114 1 149 1;
#X connect 115 0 149 0;
#X connect 116 0 135 0;
#X connect 117 0 116 1;
#X connect 118 0 116 0;
#X connect 119 0 95 0;
#X connect 119 0 122 0;
#X connect 119 0 125 0;
#X connect 120 0 94 0;
#X connect 120 1 94 1;
#X connect 120 2 94 2;
#X connect 122 0 95 0;
#X connect 123 0 0 0;
#X connect 124 0 172 0;
#X connect 125 0 95 0;
#X connect 126 0 127 0;
#X connect 126 1 128 0;
#X connect 128 0 129 0;
#X connect 129 0 130 0;
#X connect 129 1 131 0;
#X connect 130 0 127 1;
#X connect 131 0 132 0;
#X connect 132 0 150 0;
#X connect 133 0 84 1;
#X connect 133 1 132 1;
#X connect 133 2 86 0;
#X connect 134 0 101 0;
#X connect 135 0 117 0;
#X connect 135 0 134 0;
#X connect 136 0 137 0;
#X connect 136 1 138 0;
#X connect 137 0 141 0;
#X connect 138 0 139 0;
#X connect 139 0 140 0;
#X connect 139 1 142 0;
#X connect 140 0 137 1;
#X connect 141 0 118 0;
#X connect 142 0 143 0;
#X connect 143 0 146 0;
#X connect 144 0 112 1;
#X connect 144 1 143 1;
#X connect 144 2 114 0;
#X connect 146 0 137 1;
#X connect 146 0 145 0;
#X connect 149 0 151 0;
#X connect 150 0 127 1;
#X connect 151 0 106 2;
#X connect 151 0 148 0;
#X connect 152 0 110 0;
#X connect 153 0 104 0;
#X connect 153 1 104 0;
#X connect 155 0 156 0;
#X connect 156 0 157 0;
#X connect 157 0 158 0;
#X connect 158 0 72 0;
#X connect 159 0 158 0;
#X connect 160 0 167 0;
#X connect 161 0 63 0;
#X connect 162 0 163 0;
#X connect 163 0 70 2;
#X connect 164 0 67 0;
#X connect 166 0 90 0;
#X connect 166 0 161 0;
#X connect 167 0 66 0;
#X connect 167 0 164 0;
#X connect 168 0 91 0;
#X connect 169 0 168 0;
#X connect 170 0 4 0;
#X connect 171 0 4 0;
#X connect 172 0 92 0;
#X connect 173 0 174 0;
#X connect 175 0 174 0;
