#N canvas -2078 31 1920 997 12;
#X obj 23 195 array set \$0-scale;
#X obj 63 229 array define -k -yrange 0 11 \$0-scale 7;
#A 0 0 1 3 5 7 9 10;
#X obj 23 142 loadbang;
#X obj 706 1011 throw~ \$0-output;
#X obj 139 359 catch~ \$0-output;
#X obj 143 875 ws.tanh~;
#X obj 143 899 hip~ 3;
#X obj 143 947 dac~ 1 2;
#X obj 349 880 tgl 19 0 empty empty empty 0 -10 0 12 #fcfcfc #000000 #000000 0 1;
#X obj 349 904 metro 100;
#X obj 349 928 tabwrite~ \$0-scope;
#N canvas 0 22 450 278 (subpatch) 0;
#X array \$0-scope 441 float 0;
#X coords 0 1 440 -1 200 140 1;
#X restore 933 50 graph;
#X obj 882 690 t f f;
#X obj 882 719 % 7;
#X obj 882 743 tabread \$0-scale;
#X obj 984 772 +;
#X obj 1002 719 div 7;
#X obj 1002 743 * 12;
#X obj 397 149 tgl 19 0 empty empty empty 0 -10 0 12 #fcfcfc #000000 #000000 0 1;
#X obj 397 173 metro 250;
#X msg 533 52 60000 \$1;
#X obj 533 76 /;
#X msg 533 130 \$1 1000;
#X obj 665 97 loadbang;
#X msg 665 121 1;
#X obj 665 145 metro 1000;
#X obj 363 793 re.plate~;
#X obj 424 698 loadbang;
#X obj 424 746 unpack f f f;
#X obj 772 485 array define -k \$0-wavetable;
#A resize 16576;
#X obj 774 339 loadbang;
#X obj 774 363 f \$0;
#X msg 774 392 read -resize ./brown-noise.wav \$1-wavetable;
#X obj 774 416 soundfiler;
#X obj 854 319 bng 19 250 50 0 empty empty empty 0 -10 0 12 #fcfcfc #000000 #000000;
#X obj 1221 335 bng 19 250 50 0 empty empty empty 0 -10 0 12 #fcfcfc #000000 #000000;
#X obj 1094 432 until;
#X obj 1221 383 t f b b;
#X obj 995 629 t f b;
#X obj 145 808 *~ 0.5;
#X obj 533 28 else/rand.f 60 80;
#X obj 578 667 t f f;
#X obj 578 696 % 7;
#X obj 578 720 tabread \$0-scale;
#X obj 680 749 +;
#X obj 698 696 div 7;
#X obj 698 720 * 12;
#X obj 691 606 t f b;
#X obj 680 773 makenote 127 6000;
#X msg 1245 453 clear;
#X msg 797 596 clear;
#X obj 675 566 else/rand.u 14;
#X obj 138 606 else/highpass~ 100 0.4;
#X obj 680 797 else/mono;
#X obj 680 821 pack f f;
#X obj 678 850 cello~ 1 \$0;
#X obj 984 796 makenote 127 6500;
#X obj 578 638 + 25;
#X obj 143 923 *~ 0.9;
#X obj 758 664 + 1;
#X obj 758 640 random 127;
#X obj 678 874 else/lowshelf~ 800 0.4 -12;
#X obj 180 662 else/lowpass~ 4000 0.4;
#X obj 678 898 *~ 0.3;
#X obj 568 874 *~ 0.1;
#X obj 1575 330 hsl 128 19 0 127 0 1 empty empty Separacion -2 -10 0 12 #00ff04 #000000 #000000 11600 1;
#X obj 1260 57 hsl 128 19 0 127 0 1 \$0-velocidad-s empty velocidad -2 -10 0 12 #00ff04 #000000 #000000 0 1;
#X obj 1167 163 r \$0-velocidad-s;
#X obj 1167 187 / 127;
#X obj 1157 255 + 60;
#X obj 1207 255 + 80;
#X obj 533 178 s \$0-duracion;
#X obj 868 568 r \$0-duracion;
#X obj 1203 695 r \$0-duracion;
#X obj 533 154 line 0 10;
#X obj 1572 354 / 127;
#X msg 1572 378 1 \$1;
#X obj 1572 402 -;
#X obj 1572 426 s \$0-separacion-s;
#X obj 294 441 r \$0-separacion-s;
#X obj 294 465 * 12;
#X obj 294 489 + 100;
#X obj 294 513 dbtorms;
#X obj 294 561 line~;
#X obj 149 543 *~;
#X msg 423 723 1 0.8 0.8;
#X obj 1344 348 r \$0-separacion-s;
#X obj 1344 372 * 14;
#X obj 1344 396 + 0.5;
#X obj 1344 420 i;
#X obj 1344 444 + 14;
#X obj 643 383 r \$0-separacion-s;
#X obj 643 407 * 14;
#X obj 643 431 + 0.5;
#X obj 643 455 i;
#X obj 643 479 + 14;
#X obj 1202 719 * 2;
#X obj 868 592 * 2;
#X obj 1447 646 r \$0-separacion-s;
#X msg 1447 694 2 \$1;
#X obj 1447 718 pow;
#X msg 293 537 \$1 100;
#X obj 1447 671 * 3;
#X obj 1167 210 * 300;
#X obj 1412 198 r \$0-velocidad-s;
#X obj 1412 222 / 127;
#X floatatom 1412 246 5 0 0 0 - - - 0;
#X obj 481 251 sel 1;
#X obj 397 197 else/count 1 4;
#X obj 530 328 % 2;
#X obj 530 352 sel 0;
#X obj 533 100 * 1;
#X obj 868 616 * 2;
#X obj 1447 742 * 0.5;
#X obj 1391 880 else/drive~;
#X obj 1312 903 else/highpass~ 100 0.4;
#X obj 1347 785 else/sfont~ Electric_guitar.sf2;
#X obj 981 849 pack f f;
#X obj 237 734 osc~ 440;
#X obj 145 851 *~ 1;
#X obj 1062 687 + 90;
#X obj 1062 663 random 37;
#X obj 1201 743 * 4;
#X obj 1037 824 sel 0;
#X floatatom 1137 525 5 0 0 0 - - - 0;
#X listbox 981 873 20 0 0 0 - - - 0;
#X obj 881 661 + 14;
#X obj 1399 810 else/lowpass~ 100 0.4;
#X obj 1391 838 -~ 0.01;
#X obj 1619 592 r \$0-separacion-s;
#X msg 1619 616 1 \$1;
#X obj 1619 640 -;
#X obj 1619 712 mtof;
#X msg 1619 736 \$1 200;
#X obj 1619 760 line~;
#X obj 1390 859 *~ 200;
#X obj 1310 931 else/lowpass~ 2000 0.4;
#X obj 1589 864 dbtorms;
#X obj 1588 840 + 140;
#X obj 1222 952 *~ 1;
#X msg 23 171 0 1 3 5 7 9 10;
#X obj 1136 501 else/rand.u 14;
#X msg 1221 359 4;
#X obj 1619 688 + 50;
#X obj 1619 664 * 80;
#X obj 1589 816 * 25;
#X connect 2 0 140 0;
#X connect 4 0 84 0;
#X connect 5 0 6 0;
#X connect 6 0 58 0;
#X connect 8 0 9 0;
#X connect 9 0 10 0;
#X connect 12 0 13 0;
#X connect 12 1 16 0;
#X connect 13 0 14 0;
#X connect 14 0 15 0;
#X connect 15 0 56 0;
#X connect 16 0 17 0;
#X connect 17 0 15 1;
#X connect 18 0 19 0;
#X connect 19 0 108 0;
#X connect 20 0 21 0;
#X connect 21 0 111 0;
#X connect 22 0 74 0;
#X connect 23 0 24 0;
#X connect 24 0 25 0;
#X connect 25 0 40 0;
#X connect 26 0 119 0;
#X connect 26 1 119 0;
#X connect 27 0 85 0;
#X connect 28 0 26 1;
#X connect 28 1 26 2;
#X connect 28 2 26 3;
#X connect 30 0 31 0;
#X connect 31 0 32 0;
#X connect 32 0 33 0;
#X connect 34 0 31 0;
#X connect 35 0 142 0;
#X connect 35 0 51 0;
#X connect 36 0 141 0;
#X connect 37 0 36 0;
#X connect 37 1 49 0;
#X connect 38 0 126 0;
#X connect 38 1 121 0;
#X connect 39 0 119 0;
#X connect 40 0 20 0;
#X connect 41 0 42 0;
#X connect 41 1 45 0;
#X connect 42 0 43 0;
#X connect 43 0 44 0;
#X connect 44 0 48 0;
#X connect 45 0 46 0;
#X connect 46 0 44 1;
#X connect 47 0 57 0;
#X connect 47 1 60 0;
#X connect 48 0 53 0;
#X connect 48 1 53 1;
#X connect 49 0 141 0;
#X connect 50 0 51 0;
#X connect 51 0 47 0;
#X connect 51 1 50 0;
#X connect 52 0 39 0;
#X connect 52 0 62 0;
#X connect 53 0 54 0;
#X connect 53 1 54 1;
#X connect 54 0 55 0;
#X connect 55 0 61 0;
#X connect 56 0 117 0;
#X connect 56 1 123 0;
#X connect 57 0 41 0;
#X connect 58 0 7 0;
#X connect 58 0 7 1;
#X connect 59 0 48 1;
#X connect 60 0 59 0;
#X connect 61 0 63 0;
#X connect 64 0 26 0;
#X connect 65 0 75 0;
#X connect 67 0 68 0;
#X connect 68 0 103 0;
#X connect 69 0 40 1;
#X connect 70 0 40 2;
#X connect 72 0 97 0;
#X connect 73 0 96 0;
#X connect 74 0 19 1;
#X connect 74 0 71 0;
#X connect 75 0 76 0;
#X connect 76 0 77 0;
#X connect 77 0 78 0;
#X connect 79 0 80 0;
#X connect 80 0 81 0;
#X connect 81 0 82 0;
#X connect 82 0 101 0;
#X connect 83 0 84 1;
#X connect 84 0 52 0;
#X connect 85 0 28 0;
#X connect 86 0 87 0;
#X connect 87 0 88 0;
#X connect 88 0 89 0;
#X connect 89 0 90 0;
#X connect 91 0 92 0;
#X connect 92 0 93 0;
#X connect 93 0 94 0;
#X connect 94 0 95 0;
#X connect 95 0 51 1;
#X connect 96 0 122 0;
#X connect 97 0 112 0;
#X connect 98 0 102 0;
#X connect 99 0 100 0;
#X connect 100 0 113 0;
#X connect 101 0 83 0;
#X connect 102 0 99 0;
#X connect 103 0 69 0;
#X connect 103 0 70 0;
#X connect 104 0 105 0;
#X connect 105 0 106 0;
#X connect 107 0 35 0;
#X connect 108 0 107 0;
#X connect 108 0 109 0;
#X connect 109 0 110 0;
#X connect 110 0 51 0;
#X connect 111 0 22 0;
#X connect 112 0 48 2;
#X connect 113 0 96 1;
#X connect 113 0 97 1;
#X connect 114 0 115 0;
#X connect 115 0 136 0;
#X connect 116 0 127 0;
#X connect 117 0 116 0;
#X connect 117 0 125 0;
#X connect 119 0 5 0;
#X connect 120 0 56 1;
#X connect 121 0 120 0;
#X connect 122 0 56 2;
#X connect 123 1 117 1;
#X connect 126 0 12 0;
#X connect 127 0 128 0;
#X connect 128 0 135 0;
#X connect 129 0 130 0;
#X connect 129 0 145 0;
#X connect 130 0 131 0;
#X connect 131 0 144 0;
#X connect 132 0 133 0;
#X connect 133 0 134 0;
#X connect 134 0 127 1;
#X connect 135 0 114 0;
#X connect 136 0 139 0;
#X connect 137 0 135 1;
#X connect 138 0 137 0;
#X connect 139 0 3 0;
#X connect 140 0 0 0;
#X connect 141 0 38 0;
#X connect 141 0 124 0;
#X connect 142 0 37 0;
#X connect 143 0 132 0;
#X connect 144 0 143 0;
#X connect 145 0 138 0;
