#N canvas -1863 30 1589 1036 12;
#X obj 219 80 bng 19 250 50 0 empty empty empty 0 -10 0 12 #fcfcfc #000000 #000000;
#X obj 219 104 t b b;
#X obj 918 290 array set \$0-scale;
#X obj 89 690 % 7;
#X obj 89 714 tabread \$0-scale;
#X obj 191 748 +;
#X obj 209 690 div 7;
#X obj 209 714 * 12;
#X obj 929 463 array set \$0-prob;
#X obj 326 316 tabread \$0-prob;
#X obj 190 276 random 100;
#X obj 201 326 <;
#X obj 948 314 array define -yrange 0 12 -k \$0-scale 12;
#A 0 0 1 3 5 7 8 10 0 0 0 0 0;
#X obj 959 486 array define -yrange 0 100 -k \$0-prob 7;
#A 0 100 100 25 50 100 25 100;
#X obj 201 350 select 1 0;
#X obj 165 189 t b f f;
#X obj 287 922 pack f f f;
#X obj 298 21 tgl 19 0 empty empty empty 0 -10 0 12 #fcfcfc #000000 #000000 0 1;
#X obj 200 387 f;
#X obj 269 1184 hip~ 3;
#X obj 268 1247 dac~ 1 2;
#X obj 200 419 t f f b b;
#X msg 960 402 100 100 100 100 100 100;
#X obj 92 657 t f f;
#X obj 191 795 t f b;
#X obj 586 1104 tgl 19 0 empty empty empty 0 -10 0 12 #fcfcfc #000000 #000000 0 1;
#X obj 573 1135 metro 100;
#X obj 573 1159 tabwrite~ \$0-scope;
#N canvas 0 22 450 278 (subpatch) 0;
#X array \$0-scope 441 float 0;
#X coords 0 1 440 -1 200 140 1;
#X restore 1210 670 graph;
#X obj 269 1160 else/drive~;
#X obj 395 1223 writesf~;
#X msg 435 1159 stop;
#X obj 269 1136 *~ 0.25;
#X text 550 169 i ii` III iv v VI VII;
#X obj 622 599 notein;
#X text 550 239 i II III iv v` VI vii;
#X msg 918 266 0 1 3 5 7 8 10;
#X obj 158 360 bng 19 250 50 0 empty empty empty 0 -10 0 12 #fcfcfc #000000 #000000;
#X floatatom 622 623 5 0 0 0 - - - 0;
#X obj 313 258 mod 7;
#X floatatom 358 275 5 0 0 0 - - - 0;
#X obj 387 492 + 1;
#X obj 308 539 pipe 20;
#X obj 164 561 pipe 30;
#X obj 376 557 pipe 40;
#N canvas 194 234 655 363 test 0;
#X obj 121 29 inlet~;
#X obj 441 290 block~ 1 1 1;
#X obj 51 320 outlet~;
#X obj 58 261 else/lowpass~ 6000 0.4;
#X obj 58 237 else/highpass~ 20 0.4;
#X obj 68 103 else/highpass~ 20 0.4;
#X obj 62 193 else/drive~ 50;
#X connect 0 0 5 0;
#X connect 3 0 2 0;
#X connect 4 0 3 0;
#X connect 5 0 6 0;
#X connect 6 0 4 0;
#X restore 571 709 pd test;
#X text 788 760 pole (%);
#X floatatom 927 824 3 -99 99 0 - \$0-pole - 0;
#X obj 832 844 rpole~;
#X obj 927 847 / 100;
#X obj 832 819 rzero_rev~;
#X text 922 800 pole (%);
#X obj 567 923 +~;
#X obj 832 906 rpole~;
#X obj 832 881 rzero_rev~;
#X obj 838 970 rpole~;
#X obj 838 945 rzero_rev~;
#X obj 990 930 rpole~;
#X obj 990 905 rzero_rev~;
#X obj 990 992 rpole~;
#X obj 990 967 rzero_rev~;
#X obj 996 1056 rpole~;
#X obj 996 1031 rzero_rev~;
#X obj 996 1118 rpole~;
#X obj 996 1093 rzero_rev~;
#X floatatom 1093 984 5 0 0 0 - - - 0;
#X floatatom 848 374 3 -99 99 0 - \$0-pole - 0;
#X obj 753 394 rpole~;
#X obj 848 397 / 100;
#X obj 753 369 rzero_rev~;
#X text 843 350 pole (%);
#X obj 595 671 +~;
#X obj 753 456 rpole~;
#X obj 753 431 rzero_rev~;
#X obj 759 520 rpole~;
#X obj 759 495 rzero_rev~;
#X obj 759 582 rpole~;
#X obj 759 557 rzero_rev~;
#X obj 759 605 *~ 1;
#X obj 568 785 hip~ 100;
#X obj 608 733 else/ffdelay~ 0.5;
#X obj 608 757 *~ 0.33;
#X obj 825 1143 *~ 1;
#X obj 847 1021 rpole~;
#X obj 847 996 rzero_rev~;
#X obj 185 832 makenote 127 4000;
#X floatatom 1096 869 3 -99 99 0 - \$0-pole - 0;
#X obj 1096 892 / 100;
#X text 1091 845 pole (%);
#X obj 92 633 + 7;
#X obj 182 134 random 5;
#X obj 182 158 - 2;
#X msg 121 400 6;
#X obj 997 723 loadbang;
#X msg 936 754 70;
#X msg 373 792 2 \$1;
#X obj 373 816 pow;
#X msg 373 864 all \$1;
#X obj 384 952 else/allpass.rev~ 1.5 0.5 1;
#X obj 278 1072 else/plate.rev~;
#X obj 269 1208 *~ 1;
#X obj 538 843 else/eq~ 400 0.4 -6;
#X obj 569 882 else/lowshelf~ 400 1 6;
#X obj 384 1022 else/allpass.rev~ 0.5 -0.5 1;
#X obj 384 1045 else/allpass.rev~ 3.33 0.5 1;
#X obj 383 998 else/allpass.rev~ 0.123 0.5 1;
#X obj 384 976 else/allpass.rev~ 1.637 -0.5 1;
#X obj 557 811 else/eq~ 4000 0.4 12;
#X obj 839 1055 *~ 0.5;
#X obj 375 766 random 4;
#X obj 373 839 * 64;
#X obj 298 42 metro 4000;
#X obj 217 474 random 2;
#X obj 217 498 * 2;
#X obj 209 528 + 2;
#X msg 1033 787 -50;
#X floatatom 264 186 5 0 0 0 - - - 0;
#X obj 387 524 + 7;
#X obj 262 794 + 1;
#X obj 262 770 random 127;
#X obj 544 365 lop~ 2000;
#X obj 190 771 + 30;
#X obj 308 515 + 7;
#X obj 371 591 random 6;
#X msg 929 437 100 100 25 50 100 25 100;
#X msg 395 1189 open ./sunn-oo.wav \, start;
#X msg 506 1100 size 0.1;
#X msg 265 1035 damp 0;
#X obj 165 537 + 4;
#X msg 411 1099 wet 1;
#X obj 371 615 + 30;
#X obj 210 958 clone -s 1 fmVoice~ 4;
#X obj 287 898 poly 4 1;
#X obj 481 647 *~;
#X obj 258 1110 /~ 4;
#X floatatom 533 594 5 0 0 0 - - - 0;
#X obj 481 623 osc~ 2000;
#X connect 0 0 1 0;
#X connect 1 0 90 0;
#X connect 1 1 123 0;
#X connect 3 0 4 0;
#X connect 4 0 5 0;
#X connect 5 0 121 0;
#X connect 6 0 7 0;
#X connect 7 0 5 1;
#X connect 9 0 11 1;
#X connect 10 0 11 0;
#X connect 11 0 14 0;
#X connect 14 0 18 0;
#X connect 14 1 90 0;
#X connect 15 0 10 0;
#X connect 15 1 39 0;
#X connect 15 2 18 1;
#X connect 16 0 131 0;
#X connect 17 0 111 0;
#X connect 18 0 21 0;
#X connect 19 0 100 0;
#X connect 21 0 89 0;
#X connect 21 1 41 0;
#X connect 21 1 122 0;
#X connect 21 1 128 0;
#X connect 21 3 109 0;
#X connect 21 3 112 0;
#X connect 23 0 3 0;
#X connect 23 1 6 0;
#X connect 24 0 85 0;
#X connect 24 1 119 0;
#X connect 25 0 26 0;
#X connect 26 0 27 0;
#X connect 29 0 19 0;
#X connect 29 0 30 0;
#X connect 29 0 27 0;
#X connect 31 0 30 0;
#X connect 32 0 29 0;
#X connect 34 0 38 0;
#X connect 34 0 132 0;
#X connect 34 1 132 1;
#X connect 36 0 2 0;
#X connect 37 0 18 0;
#X connect 39 0 9 0;
#X connect 39 0 40 0;
#X connect 41 0 117 0;
#X connect 42 0 89 0;
#X connect 43 0 89 0;
#X connect 44 0 89 0;
#X connect 45 0 79 0;
#X connect 45 0 80 0;
#X connect 47 0 49 0;
#X connect 48 0 54 0;
#X connect 49 0 50 1;
#X connect 49 0 48 1;
#X connect 49 0 54 1;
#X connect 49 0 53 1;
#X connect 49 0 56 1;
#X connect 49 0 55 1;
#X connect 49 0 58 1;
#X connect 49 0 62 1;
#X connect 49 0 61 1;
#X connect 49 0 60 1;
#X connect 49 0 59 1;
#X connect 49 0 57 1;
#X connect 49 0 64 1;
#X connect 49 0 63 1;
#X connect 49 0 84 1;
#X connect 49 0 83 1;
#X connect 50 0 48 0;
#X connect 52 0 98 0;
#X connect 53 0 56 0;
#X connect 54 0 53 0;
#X connect 55 0 84 0;
#X connect 56 0 55 0;
#X connect 57 0 60 0;
#X connect 58 0 57 0;
#X connect 59 0 62 0;
#X connect 60 0 59 0;
#X connect 61 0 64 0;
#X connect 62 0 61 0;
#X connect 63 0 82 0;
#X connect 64 0 63 0;
#X connect 65 0 58 1;
#X connect 65 0 62 1;
#X connect 65 0 61 1;
#X connect 65 0 60 1;
#X connect 65 0 59 1;
#X connect 65 0 57 1;
#X connect 65 0 64 1;
#X connect 65 0 63 1;
#X connect 66 0 68 0;
#X connect 67 0 73 0;
#X connect 68 0 69 1;
#X connect 68 0 67 1;
#X connect 68 0 73 1;
#X connect 68 0 72 1;
#X connect 68 0 77 1;
#X connect 68 0 76 1;
#X connect 68 0 75 1;
#X connect 68 0 74 1;
#X connect 69 0 67 0;
#X connect 71 0 45 0;
#X connect 72 0 75 0;
#X connect 73 0 72 0;
#X connect 74 0 77 0;
#X connect 75 0 74 0;
#X connect 76 0 78 0;
#X connect 77 0 76 0;
#X connect 78 0 71 1;
#X connect 79 0 107 0;
#X connect 80 0 81 0;
#X connect 81 0 79 0;
#X connect 82 0 52 1;
#X connect 83 0 58 0;
#X connect 83 0 108 0;
#X connect 84 0 83 0;
#X connect 85 0 132 0;
#X connect 85 1 132 1;
#X connect 86 0 87 0;
#X connect 87 0 65 0;
#X connect 89 0 23 0;
#X connect 90 0 91 0;
#X connect 91 0 15 0;
#X connect 91 0 116 0;
#X connect 92 0 21 0;
#X connect 93 0 94 0;
#X connect 93 0 115 0;
#X connect 94 0 49 0;
#X connect 95 0 96 0;
#X connect 96 0 110 0;
#X connect 98 0 106 0;
#X connect 99 0 134 0;
#X connect 99 1 134 0;
#X connect 100 0 20 0;
#X connect 100 0 20 1;
#X connect 101 0 102 0;
#X connect 102 0 52 0;
#X connect 102 0 50 0;
#X connect 103 0 104 0;
#X connect 104 0 99 0;
#X connect 105 0 103 0;
#X connect 106 0 105 0;
#X connect 107 0 101 0;
#X connect 108 0 52 1;
#X connect 109 0 95 0;
#X connect 110 0 97 0;
#X connect 111 0 37 0;
#X connect 111 0 0 0;
#X connect 112 0 113 0;
#X connect 113 0 114 0;
#X connect 115 0 87 0;
#X connect 117 0 44 0;
#X connect 118 0 85 1;
#X connect 119 0 118 0;
#X connect 120 0 69 0;
#X connect 120 0 71 0;
#X connect 121 0 24 0;
#X connect 122 0 42 0;
#X connect 123 0 130 0;
#X connect 124 0 8 0;
#X connect 125 0 30 0;
#X connect 126 0 99 0;
#X connect 127 0 99 0;
#X connect 128 0 43 0;
#X connect 129 0 99 0;
#X connect 130 0 121 1;
#X connect 131 0 120 0;
#X connect 132 0 16 0;
#X connect 132 1 16 1;
#X connect 132 2 16 2;
#X connect 133 0 45 0;
#X connect 134 0 32 0;
#X connect 135 0 133 1;
#X connect 136 0 133 0;
