#N canvas 155 22 1765 1034 12;
#X obj 23 195 array set \$0-scale;
#X obj 63 229 array define -k -yrange 0 11 \$0-scale 7;
#A 0 0 2 4 6 7 9 11;
#X obj 23 142 loadbang;
#X obj 826 816 pack f f f;
#X obj 687 999 throw~ \$0-output;
#X obj 138 582 catch~ \$0-output;
#X obj 143 875 ws.tanh~;
#X obj 143 899 hip~ 3;
#X obj 143 947 dac~ 1 2;
#X obj 335 607 tgl 19 0 empty empty empty 0 -10 0 12 #fcfcfc #000000 #000000 0 1;
#X obj 335 631 metro 100;
#X obj 335 655 tabwrite~ \$0-scope;
#N canvas 0 22 450 278 (subpatch) 0;
#X array \$0-scope 441 float 0;
#X coords 0 1 440 -1 200 140 1;
#X restore 933 50 graph;
#X obj 716 654 t f f;
#X obj 716 683 % 7;
#X obj 716 707 tabread \$0-scale;
#X obj 818 736 +;
#X obj 836 683 div 7;
#X obj 836 707 * 12;
#X obj 397 149 tgl 19 0 empty empty empty 0 -10 0 12 #fcfcfc #000000 #000000 0 1;
#X obj 397 173 metro 250;
#X msg 533 52 60000 \$1;
#X obj 533 76 /;
#X obj 533 154 line 0 1;
#X msg 533 130 \$1 1000;
#X obj 665 97 loadbang;
#X msg 665 121 1;
#X obj 665 145 metro 1000;
#X obj 363 793 re.plate~;
#X obj 424 698 loadbang;
#X obj 424 746 unpack f f f;
#X obj 829 593 t f b;
#X floatatom 533 178 5 0 0 0 - - - 0;
#X obj 896 651 + 63;
#X obj 896 627 random 32;
#X obj 716 625 + 25;
#X obj 533 27 else/rand.f 100 120;
#X msg 23 171 0 2 4 6 7 9 11;
#X obj 818 760 makenote 127 150;
#X obj 397 221 select 1;
#X obj 397 245 bng 19 250 50 0 empty empty empty 0 -10 0 12 #fcfcfc #000000 #000000;
#X obj 1155 758 pack f f f;
#X obj 1045 596 t f f;
#X obj 1047 622 % 7;
#X obj 1045 649 tabread \$0-scale;
#X obj 1147 678 +;
#X obj 1165 625 div 7;
#X obj 1165 649 * 12;
#X obj 1158 535 t f b;
#X obj 1225 593 + 63;
#X obj 1225 569 random 32;
#X obj 1155 782 clone -s 1 organ~ 6;
#X obj 1154 734 poly 6 1;
#X obj 1098 298 until;
#X obj 1128 327 i;
#X obj 1168 327 + 1;
#X msg 1200 288 0;
#X obj 1128 356 sel 0;
#X msg 1128 385 0;
#X obj 1160 444 +;
#X obj 1200 444 i;
#X obj 1225 249 t f b b;
#X obj 1160 497 +;
#X msg 1160 385 bang;
#X msg 1225 225 5;
#X obj 1152 831 else/crossover~ 500;
#X obj 1174 883 sig~ 2;
#X obj 1174 907 pow~;
#X obj 1239 892 +~ 1;
#X obj 1239 916 *~ -0.5;
#X obj 1158 968 +~;
#X obj 1148 932 *~;
#X obj 1346 887 sig~ 2;
#X obj 1346 911 pow~;
#X obj 1411 896 +~ 1;
#X obj 1411 920 *~ -0.5;
#X obj 1320 936 *~;
#X obj 145 851 *~ 1;
#X obj 143 923 *~ 0.9;
#X obj 1239 868 osc~ 2;
#X obj 143 728 *~ 0.5;
#X obj 833 998 throw~ \$0-reverb;
#X obj 271 725 catch~ \$0-reverb;
#X obj 1161 1075 throw~ \$0-reverb;
#X obj 1412 872 osc~ 3.1;
#X obj 1169 1026 *~ 0.2;
#X obj 1394 655 loadbang;
#X msg 1394 679 1;
#X obj 1394 703 metro 5000;
#X msg 1349 764 \$1 1000;
#X obj 1349 788 line 0 1;
#X msg 1462 797 \$1 1000;
#X obj 1462 821 line 0 1;
#X obj 1349 740 else/rand.f 0.5 4;
#X obj 1462 773 else/rand.f 0.5 4;
#X obj 1155 806 /~ 6;
#X obj 1048 560 + 21;
#X obj 1160 415 else/rand.i 1 4;
#X obj 1241 478 else/rand.i 0 7;
#X msg 424 722 1 0.5 0.9;
#X obj 1147 702 makenote 127 3000;
#X obj 676 528 else/rand.u 22;
#X obj 676 552 + 7;
#X obj 802 561 - 7;
#X obj 801 506 else/chance 20;
#X obj 827 863 *~ 0.1;
#X obj 826 840 clone -s 1 leadorgan~ 2;
#X obj 825 792 poly 2 1;
#X obj 533 100 / 1;
#X obj 397 197 else/count 1 8;
#X obj 675 497 else/chance 50;
#X obj 802 537 else/rand.u 14;
#X connect 2 0 37 0;
#X connect 3 0 106 0;
#X connect 5 0 80 0;
#X connect 6 0 7 0;
#X connect 6 0 11 0;
#X connect 7 0 78 0;
#X connect 9 0 10 0;
#X connect 10 0 11 0;
#X connect 13 0 14 0;
#X connect 13 1 17 0;
#X connect 14 0 15 0;
#X connect 15 0 16 0;
#X connect 16 0 38 0;
#X connect 17 0 18 0;
#X connect 18 0 16 1;
#X connect 19 0 20 0;
#X connect 20 0 104 0;
#X connect 20 0 109 0;
#X connect 20 0 110 0;
#X connect 21 0 22 0;
#X connect 22 0 108 0;
#X connect 23 0 20 1;
#X connect 23 0 32 0;
#X connect 24 0 23 0;
#X connect 25 0 26 0;
#X connect 26 0 27 0;
#X connect 27 0 36 0;
#X connect 28 0 77 0;
#X connect 28 1 77 0;
#X connect 29 0 99 0;
#X connect 30 0 28 1;
#X connect 30 1 28 2;
#X connect 30 2 28 3;
#X connect 31 0 35 0;
#X connect 31 1 34 0;
#X connect 33 0 38 1;
#X connect 34 0 33 0;
#X connect 35 0 13 0;
#X connect 36 0 21 0;
#X connect 37 0 0 0;
#X connect 38 0 107 0;
#X connect 38 1 107 1;
#X connect 39 0 40 0;
#X connect 40 0 64 0;
#X connect 41 0 51 0;
#X connect 42 0 43 0;
#X connect 42 1 46 0;
#X connect 43 0 44 0;
#X connect 44 0 45 0;
#X connect 45 0 100 0;
#X connect 46 0 47 0;
#X connect 47 0 45 1;
#X connect 48 0 96 0;
#X connect 48 1 50 0;
#X connect 49 0 100 1;
#X connect 50 0 49 0;
#X connect 51 0 95 0;
#X connect 52 0 41 0;
#X connect 52 1 41 1;
#X connect 52 2 41 2;
#X connect 53 0 54 0;
#X connect 54 0 55 0;
#X connect 54 0 57 0;
#X connect 55 0 54 1;
#X connect 56 0 54 1;
#X connect 56 0 60 0;
#X connect 57 0 58 0;
#X connect 57 1 63 0;
#X connect 58 0 59 0;
#X connect 59 0 60 0;
#X connect 59 0 62 0;
#X connect 60 0 59 1;
#X connect 61 0 53 0;
#X connect 61 1 56 0;
#X connect 61 2 98 0;
#X connect 62 0 48 0;
#X connect 63 0 97 0;
#X connect 64 0 61 0;
#X connect 65 0 71 0;
#X connect 65 1 76 0;
#X connect 66 0 67 0;
#X connect 67 0 71 1;
#X connect 68 0 69 0;
#X connect 69 0 67 1;
#X connect 70 0 85 0;
#X connect 71 0 70 0;
#X connect 72 0 73 0;
#X connect 73 0 76 1;
#X connect 74 0 75 0;
#X connect 75 0 73 1;
#X connect 76 0 70 1;
#X connect 77 0 6 0;
#X connect 78 0 8 0;
#X connect 78 0 8 1;
#X connect 79 0 68 0;
#X connect 80 0 77 0;
#X connect 82 0 28 0;
#X connect 84 0 74 0;
#X connect 85 0 83 0;
#X connect 86 0 87 0;
#X connect 87 0 88 0;
#X connect 88 0 93 0;
#X connect 88 0 94 0;
#X connect 89 0 90 0;
#X connect 90 0 79 0;
#X connect 91 0 92 0;
#X connect 92 0 84 0;
#X connect 93 0 89 0;
#X connect 94 0 91 0;
#X connect 95 0 65 0;
#X connect 96 0 42 0;
#X connect 97 0 59 0;
#X connect 98 0 62 1;
#X connect 99 0 30 0;
#X connect 100 0 52 0;
#X connect 100 1 52 1;
#X connect 101 0 102 0;
#X connect 102 0 31 0;
#X connect 103 0 31 0;
#X connect 104 0 111 0;
#X connect 105 0 4 0;
#X connect 105 0 81 0;
#X connect 106 0 105 0;
#X connect 107 0 3 0;
#X connect 107 1 3 1;
#X connect 107 2 3 2;
#X connect 108 0 24 0;
#X connect 109 0 39 0;
#X connect 110 0 101 0;
#X connect 111 0 103 0;
