#N canvas 710 189 1153 869 12;
#X msg 23 171 0 2 4 5 7 9 11;
#X obj 23 195 array set \$0-scale;
#X obj 63 229 array define -k -yrange 0 11 \$0-scale 7;
#A 0 0 2 4 5 7 9 11;
#X obj 23 142 loadbang;
#X obj 796 287 bng 19 250 50 0 empty empty empty 0 -10 0 12 #fcfcfc #000000 #000000;
#X obj 504 498 makenote 127 100;
#X obj 504 546 pack f f f;
#X obj 504 647 throw~ \$0-output;
#X obj 138 582 catch~ \$0-output;
#X obj 138 736 *~ 0.5;
#X obj 138 760 ws.tanh~;
#X obj 138 784 hip~ 3;
#X obj 138 808 *~ 0.5;
#X obj 138 832 dac~ 1 2;
#X obj 335 607 tgl 19 0 empty empty empty 0 -10 0 12 #fcfcfc #000000 #000000 0 1;
#X obj 335 631 metro 100;
#X obj 335 655 tabwrite~ \$0-scope;
#N canvas 0 22 450 278 (subpatch) 0;
#X array \$0-scope 441 float 0;
#X coords 0 1 440 -1 200 140 1;
#X restore 864 51 graph;
#X msg 796 311 4;
#X obj 669 384 until;
#X obj 699 413 i;
#X obj 739 413 + 1;
#X msg 771 374 0;
#X obj 394 344 t f f;
#X obj 394 373 % 7;
#X obj 394 397 tabread \$0-scale;
#X obj 496 426 +;
#X obj 514 373 div 7;
#X obj 514 397 * 12;
#X obj 699 442 sel 0;
#X msg 699 471 0;
#X obj 731 530 +;
#X obj 771 530 i;
#X obj 761 612 list prepend;
#X obj 861 612 t l;
#X obj 796 335 t f b b;
#X obj 731 583 +;
#X msg 731 471 bang;
#X obj 504 522 poly 6 1;
#X obj 504 570 clone -s 1 harp~ 6;
#X obj 397 149 tgl 19 0 empty empty empty 0 -10 0 12 #fcfcfc #000000 #000000 0 1;
#X obj 761 641 array set \$0-chord;
#X obj 791 665 array define \$0-chord 4;
#X obj 394 315 tabread \$0-chord;
#X obj 412 225 t b b;
#X obj 558 294 random 127;
#X obj 558 318 + 1;
#X obj 496 450 + 60;
#X obj 394 262 else/count 0 3;
#X obj 397 173 metro 250;
#X msg 533 52 60000 \$1;
#X obj 533 76 /;
#X obj 533 154 line 0 1;
#X obj 533 100 / 2;
#X msg 533 130 \$1 1000;
#X obj 665 97 loadbang;
#X msg 665 121 1;
#X obj 665 145 metro 1000;
#X obj 363 793 re.plate~;
#X obj 424 698 loadbang;
#X obj 424 746 unpack f f f;
#X obj 608 214 select 0;
#X obj 608 238 else/count 1 4;
#X obj 608 262 select 4;
#X msg 424 722 1 0.5 0.8;
#X obj 731 501 else/rand.i 1 2;
#X obj 812 564 else/rand.i 0 6;
#X obj 394 286 t f f;
#X obj 804 244 loadbang;
#X obj 504 594 else/highshelf~ 6000 0.4 -6;
#X obj 504 618 else/lowshelf~ 500 0.4 -12;
#X obj 585 365 * 12;
#X obj 585 389 + 60;
#X obj 585 341 else/rand.i -1 0;
#X obj 533 28 else/rand.f 100 160;
#X msg 871 462 seed 125;
#X obj 228 703 hip~ 1000;
#X obj 228 727 else/lowpass~ 4000 0.4;
#X obj 363 841 hip~ 200;
#X connect 0 0 1 0;
#X connect 3 0 0 0;
#X connect 4 0 18 0;
#X connect 4 0 73 0;
#X connect 5 0 38 0;
#X connect 5 1 38 1;
#X connect 6 0 39 0;
#X connect 8 0 16 0;
#X connect 8 0 9 0;
#X connect 8 0 76 0;
#X connect 9 0 10 0;
#X connect 10 0 11 0;
#X connect 11 0 12 0;
#X connect 12 0 13 0;
#X connect 12 0 13 1;
#X connect 14 0 15 0;
#X connect 15 0 16 0;
#X connect 18 0 35 0;
#X connect 19 0 20 0;
#X connect 20 0 21 0;
#X connect 20 0 29 0;
#X connect 21 0 20 1;
#X connect 22 0 20 1;
#X connect 22 0 32 0;
#X connect 23 0 24 0;
#X connect 23 1 27 0;
#X connect 24 0 25 0;
#X connect 25 0 26 0;
#X connect 26 0 47 0;
#X connect 27 0 28 0;
#X connect 28 0 26 1;
#X connect 29 0 30 0;
#X connect 29 1 37 0;
#X connect 30 0 31 0;
#X connect 31 0 32 0;
#X connect 31 0 36 0;
#X connect 32 0 31 1;
#X connect 33 0 34 0;
#X connect 33 0 41 0;
#X connect 34 0 33 1;
#X connect 35 0 19 0;
#X connect 35 1 22 0;
#X connect 35 2 33 1;
#X connect 35 2 66 0;
#X connect 36 0 33 0;
#X connect 37 0 65 0;
#X connect 38 0 6 0;
#X connect 38 1 6 1;
#X connect 38 2 6 2;
#X connect 39 0 69 0;
#X connect 40 0 49 0;
#X connect 43 0 23 0;
#X connect 44 0 48 0;
#X connect 44 1 45 0;
#X connect 45 0 46 0;
#X connect 46 0 5 1;
#X connect 47 0 5 0;
#X connect 48 0 67 0;
#X connect 49 0 44 0;
#X connect 50 0 51 0;
#X connect 51 0 53 0;
#X connect 52 0 49 1;
#X connect 53 0 54 0;
#X connect 54 0 52 0;
#X connect 55 0 56 0;
#X connect 56 0 57 0;
#X connect 57 0 74 0;
#X connect 58 0 78 0;
#X connect 58 1 78 0;
#X connect 59 0 64 0;
#X connect 60 0 58 1;
#X connect 60 1 58 2;
#X connect 60 2 58 3;
#X connect 61 0 62 0;
#X connect 62 0 63 0;
#X connect 63 0 4 0;
#X connect 64 0 60 0;
#X connect 65 0 31 0;
#X connect 66 0 36 1;
#X connect 67 0 43 0;
#X connect 67 1 61 0;
#X connect 68 0 4 0;
#X connect 68 0 75 0;
#X connect 69 0 70 0;
#X connect 70 0 7 0;
#X connect 71 0 72 0;
#X connect 72 0 47 1;
#X connect 73 0 71 0;
#X connect 74 0 50 0;
#X connect 75 0 65 0;
#X connect 76 0 77 0;
#X connect 77 0 58 0;
#X connect 78 0 9 0;
