#N canvas 155 22 1586 1034 12;
#X obj 23 195 array set \$0-scale;
#X obj 63 229 array define -k -yrange 0 11 \$0-scale 7;
#A 0 0 2 3 5 7 8 10;
#X obj 23 142 loadbang;
#X obj 992 852 pack f f f;
#X obj 706 1011 throw~ \$0-output;
#X obj 138 582 catch~ \$0-output;
#X obj 143 875 ws.tanh~;
#X obj 143 899 hip~ 3;
#X obj 143 947 dac~ 1 2;
#X obj 349 880 tgl 19 0 empty empty empty 0 -10 0 12 #fcfcfc #000000 #000000 0 1;
#X obj 349 904 metro 100;
#X obj 349 928 tabwrite~ \$0-scope;
#N canvas 0 22 450 278 (subpatch) 0;
#X array \$0-scope 441 float 0;
#X coords 0 1 440 -1 200 140 1;
#X restore 933 50 graph;
#X obj 882 690 t f f;
#X obj 882 719 % 7;
#X obj 882 743 tabread \$0-scale;
#X obj 984 772 +;
#X obj 1002 719 div 7;
#X obj 1002 743 * 12;
#X obj 397 149 tgl 19 0 empty empty empty 0 -10 0 12 #fcfcfc #000000 #000000 0 1;
#X obj 397 173 metro 250;
#X msg 533 52 60000 \$1;
#X obj 533 76 /;
#X obj 533 154 line 0 1;
#X msg 533 130 \$1 1000;
#X obj 665 97 loadbang;
#X msg 665 121 1;
#X obj 665 145 metro 1000;
#X obj 363 793 re.plate~;
#X obj 424 698 loadbang;
#X obj 424 746 unpack f f f;
#X msg 23 171 0 2 3 5 7 8 10;
#X obj 533 100 * 8;
#X obj 772 485 array define -k \$0-wavetable;
#A resize 16576;
#X obj 774 339 loadbang;
#X obj 774 363 f \$0;
#X msg 774 392 read -resize ./brown-noise.wav \$1-wavetable;
#X obj 774 416 soundfiler;
#X obj 854 319 bng 19 250 50 0 empty empty empty 0 -10 0 12 #fcfcfc #000000 #000000;
#X obj 992 876 clone -s 1 cello~ 6 \$0;
#X obj 1221 335 bng 19 250 50 0 empty empty empty 0 -10 0 12 #fcfcfc #000000 #000000;
#X msg 1221 359 4;
#X obj 1094 432 until;
#X obj 1221 383 t f b b;
#X obj 995 629 t f b;
#X floatatom 533 178 5 0 0 0 - - - 0;
#X obj 991 828 poly 6 1;
#X obj 708 932 else/highshelf~ 2000 0.4 -12;
#X obj 143 728 *~ 0.5;
#X obj 533 28 else/rand.f 60 80;
#X obj 578 667 t f f;
#X obj 578 696 % 7;
#X obj 578 720 tabread \$0-scale;
#X obj 680 749 +;
#X obj 698 696 div 7;
#X obj 698 720 * 12;
#X obj 691 606 t f b;
#X obj 680 773 makenote 127 6000;
#X msg 1245 453 clear;
#X msg 797 596 clear;
#X obj 675 566 else/rand.u 14;
#X obj 487 416 delay 3000;
#X msg 424 722 0.5 0.8 0.8;
#X obj 138 606 else/highpass~ 100 0.4;
#X obj 680 797 else/mono;
#X obj 680 821 pack f f;
#X obj 678 850 cello~ 1 \$0;
#X obj 984 796 makenote 127 6500;
#X obj 1139 500 else/rand.u 12;
#X obj 882 661 + 25;
#X obj 578 638 + 25;
#X obj 143 923 *~ 0.9;
#X obj 145 851 *~ 10;
#X obj 1062 687 + 1;
#X obj 1062 663 random 127;
#X obj 758 664 + 1;
#X obj 758 640 random 127;
#X obj 707 977 else/lowshelf~ 400 0.4 -12;
#X obj 678 874 else/lowshelf~ 800 0.4 -12;
#X obj 180 662 else/lowpass~ 4000 0.4;
#X obj 678 898 *~ 0.3;
#X obj 568 874 *~ 0.1;
#X obj 992 899 /~ 8;
#X connect 2 0 31 0;
#X connect 3 0 39 0;
#X connect 5 0 63 0;
#X connect 6 0 7 0;
#X connect 6 0 11 0;
#X connect 7 0 71 0;
#X connect 9 0 10 0;
#X connect 10 0 11 0;
#X connect 13 0 14 0;
#X connect 13 1 17 0;
#X connect 14 0 15 0;
#X connect 15 0 16 0;
#X connect 16 0 67 0;
#X connect 17 0 18 0;
#X connect 18 0 16 1;
#X connect 19 0 20 0;
#X connect 20 0 40 0;
#X connect 20 0 61 0;
#X connect 21 0 22 0;
#X connect 22 0 32 0;
#X connect 23 0 20 1;
#X connect 23 0 45 0;
#X connect 24 0 23 0;
#X connect 25 0 26 0;
#X connect 26 0 27 0;
#X connect 27 0 49 0;
#X connect 28 0 72 0;
#X connect 28 1 72 0;
#X connect 29 0 62 0;
#X connect 30 0 28 1;
#X connect 30 1 28 2;
#X connect 30 2 28 3;
#X connect 31 0 0 0;
#X connect 32 0 24 0;
#X connect 34 0 35 0;
#X connect 35 0 36 0;
#X connect 36 0 37 0;
#X connect 38 0 35 0;
#X connect 39 0 82 0;
#X connect 40 0 41 0;
#X connect 40 0 60 0;
#X connect 41 0 43 0;
#X connect 42 0 68 0;
#X connect 43 0 42 0;
#X connect 43 1 58 0;
#X connect 44 0 69 0;
#X connect 44 1 74 0;
#X connect 46 0 3 0;
#X connect 46 1 3 1;
#X connect 46 2 3 2;
#X connect 47 0 77 0;
#X connect 48 0 72 0;
#X connect 49 0 21 0;
#X connect 50 0 51 0;
#X connect 50 1 54 0;
#X connect 51 0 52 0;
#X connect 52 0 53 0;
#X connect 53 0 57 0;
#X connect 54 0 55 0;
#X connect 55 0 53 1;
#X connect 56 0 70 0;
#X connect 56 1 76 0;
#X connect 57 0 64 0;
#X connect 57 1 64 1;
#X connect 58 0 68 0;
#X connect 59 0 60 0;
#X connect 60 0 56 0;
#X connect 60 1 59 0;
#X connect 61 0 60 0;
#X connect 62 0 30 0;
#X connect 63 0 48 0;
#X connect 63 0 79 0;
#X connect 64 0 65 0;
#X connect 64 1 65 1;
#X connect 65 0 66 0;
#X connect 66 0 78 0;
#X connect 67 0 46 0;
#X connect 67 1 46 1;
#X connect 68 0 44 0;
#X connect 69 0 13 0;
#X connect 70 0 50 0;
#X connect 71 0 8 0;
#X connect 71 0 8 1;
#X connect 72 0 6 0;
#X connect 73 0 67 1;
#X connect 74 0 73 0;
#X connect 75 0 57 1;
#X connect 76 0 75 0;
#X connect 77 0 4 0;
#X connect 78 0 80 0;
#X connect 78 0 81 0;
#X connect 79 0 28 0;
#X connect 80 0 47 0;
#X connect 81 0 28 0;
#X connect 82 0 47 0;
