#N canvas 0 61 1920 997 12;
#N canvas 0 22 450 278 (subpatch) 0;
#X array \$0-scope 441 float 0;
#X coords 0 1 440 -1 200 140 1;
#X restore 886 359 graph;
#X obj 494 983 clip~ -1 1;
#X obj 494 1007 hip~ 3;
#X obj 494 1031 *~ 0.5;
#X obj 494 1085 dac~ 1 2;
#X obj 473 502 > 0, f 4;
#X obj 473 550 line~;
#X obj 400 671 mtof~;
#X obj 469 834 *~;
#X msg 1059 907 open ./trumpet.wav \, start;
#X obj 1059 931 writesf~;
#X msg 1219 838 stop;
#X obj 677 240 bng 19 250 50 0 empty empty empty 0 -10 0 12 #fcfcfc #000000 #000000;
#X obj 1151 753 t b b;
#X obj 1217 808 delay 4500;
#X floatatom 536 342 5 0 0 0 - - - 0;
#X obj 536 365 mtof;
#X floatatom 536 389 5 0 0 0 - - - 0;
#X obj 643 697 loadbang;
#X msg 643 721 1;
#X obj 643 745 metro 400;
#X msg 643 793 \$1 400;
#X obj 643 817 line~;
#X obj 643 841 osc~;
#X obj 643 865 +~ 1;
#X obj 538 898 sig~ 2;
#X obj 538 922 pow~;
#X obj 467 914 *~;
#X obj 643 769 else/rand.f 2 4;
#X obj 643 889 *~ -0.1;
#X obj 284 832 else/highpass~ 1000 0.2;
#X obj 494 958 *~ 0.5;
#X obj 315 770 else/lowpass~ 3000 0.4;
#X obj 315 794 lop~ 3000;
#X msg 473 526 \$1 250;
#X obj 287 378 makenote 127 4000;
#X obj 284 856 else/eq~ 1500 0.4 12;
#N canvas 89 119 450 614 polyblep 0;
#X obj 195 67 *~;
#X obj 39 384 +~;
#N canvas 1329 474 147 163 1/Fs 1;
#X obj 12 54 samplerate~;
#X obj 12 12 loadbang;
#X msg 12 75 1 \$1;
#X obj 12 96 /;
#X msg 12 33 bang;
#X obj 12 117 outlet;
#X connect 0 0 2 0;
#X connect 1 0 4 0;
#X connect 2 0 3 0;
#X connect 3 0 5 0;
#X connect 4 0 0 0;
#X restore 210 41 pd 1/Fs;
#X obj 39 426 outlet~;
#X obj 39 405 *~ -1;
#X obj 12 31 inlet~;
#N canvas 1008 608 416 294 polyblep 0;
#X obj 167 225 -~;
#X obj 230 127 -~;
#X obj 230 12 sig~ 1;
#X obj 177 74 /~;
#X obj 167 252 outlet~;
#X obj 12 173 *~;
#X obj 162 173 *~;
#X obj 12 90 *~;
#X obj 162 147 -~;
#X obj 47 54 inlet~;
#X text 47 34 (I1) Phase;
#X obj 12 147 -~ 1;
#X obj 177 120 -~ 1;
#X text 245 38 (I2) Normalised Frequency;
#X obj 32 199 *~;
#X obj 182 199 *~;
#N canvas 1389 528 164 179 >=~ 0;
#X obj 47 64 -~;
#X obj 47 85 clip~ -1e-37 0;
#X obj 12 12 inlet~;
#X obj 62 12 inlet~;
#X obj 47 148 outlet~;
#X obj 47 127 *~ 1e+37;
#X obj 12 38 min~;
#X obj 47 106 +~ 1e-37;
#X connect 0 0 1 0;
#X connect 1 0 7 0;
#X connect 2 0 6 0;
#X connect 3 0 6 1;
#X connect 3 0 0 1;
#X connect 5 0 4 0;
#X connect 6 0 0 0;
#X connect 7 0 5 0;
#X restore 197 153 pd >=~;
#N canvas 1221 655 166 185 <=~ 0;
#X obj 41 60 -~;
#X obj 41 81 clip~ -1e-37 0;
#X obj 12 12 inlet~;
#X obj 62 12 inlet~;
#X obj 41 144 outlet~;
#X obj 41 123 *~ 1e+37;
#X obj 41 38 min~;
#X obj 41 102 +~ 1e-37;
#X connect 0 0 1 0;
#X connect 1 0 7 0;
#X connect 2 0 6 0;
#X connect 2 0 0 1;
#X connect 3 0 6 1;
#X connect 5 0 4 0;
#X connect 6 0 0 0;
#X connect 7 0 5 0;
#X restore 47 173 pd <=~;
#X obj 245 58 inlet~;
#X connect 0 0 4 0;
#X connect 1 0 16 1;
#X connect 2 0 3 0;
#X connect 2 0 1 0;
#X connect 3 0 7 1;
#X connect 3 0 12 0;
#X connect 5 0 14 0;
#X connect 6 0 15 0;
#X connect 7 0 8 0;
#X connect 7 0 11 0;
#X connect 8 0 6 0;
#X connect 8 0 6 1;
#X connect 9 0 7 0;
#X connect 9 0 17 0;
#X connect 9 0 16 0;
#X connect 11 0 5 0;
#X connect 11 0 5 1;
#X connect 12 0 8 1;
#X connect 14 0 0 0;
#X connect 15 0 0 1;
#X connect 16 0 15 1;
#X connect 17 0 14 1;
#X connect 18 0 1 1;
#X connect 18 0 3 1;
#X connect 18 0 17 1;
#X restore 159 368 pd polyblep;
#X obj 111 31 inlet;
#X text 111 11 (I2) Phase;
#X text 12 11 (I1) Frequency;
#X text 89 426 (O1) Sawtooth;
#X obj 6 143 phasor~;
#X obj 35 191 min~ 1;
#X obj 33 276 wrap~;
#X obj 33 252 -~ 0.5;
#X obj 31 318 *~ 2;
#X obj 31 342 -~ 1;
#X obj 35 215 *~ 1;
#X obj 100 109 sig~ 880;
#X obj 100 133 /~;
#X obj 100 157 max~ 2;
#X obj 35 166 *~;
#X connect 0 0 6 1;
#X connect 1 0 4 0;
#X connect 2 0 0 1;
#X connect 4 0 3 0;
#X connect 5 0 0 0;
#X connect 5 0 19 1;
#X connect 5 0 11 0;
#X connect 6 0 1 1;
#X connect 11 0 21 0;
#X connect 12 0 17 0;
#X connect 13 0 15 0;
#X connect 13 0 6 0;
#X connect 14 0 13 0;
#X connect 15 0 16 0;
#X connect 16 0 1 0;
#X connect 17 0 14 0;
#X connect 18 0 19 0;
#X connect 19 0 20 0;
#X connect 20 0 21 1;
#X connect 21 0 12 0;
#X restore 111 606 pd polyblep;
#X obj 600 543 tgl 19 0 empty empty empty 0 -10 0 12 #fcfcfc #000000 #000000 0 1;
#X obj 600 567 metro 100;
#X obj 600 591 tabwrite~ \$0-scope;
#X obj 287 402 sig~;
#X obj 286 509 mtof~;
#X obj 111 194 loadbang;
#X msg 111 218 1;
#X obj 111 242 metro 400;
#X msg 111 290 \$1 400;
#X obj 111 314 line~;
#X obj 111 338 osc~;
#X obj 111 362 *~ 0.1;
#X obj 111 266 else/rand.f 4 5;
#X obj 499 780 line~;
#X obj 490 695 sel 0 1;
#X msg 530 719 1 50;
#X obj 293 480 -~ 1;
#X obj 353 453 sel 1;
#X msg 353 477 0 \, 1 50;
#X obj 353 501 line~;
#X msg 486 721 0 500;
#X obj 369 563 sig~ 69;
#X obj 310 708 else/lowpass~ 1000 0.4;
#X obj 310 732 else/lowpass~ 1000 0.4;
#X obj 465 586 *~ 48;
#X msg 287 327 56;
#X connect 1 0 2 0;
#X connect 2 0 3 0;
#X connect 3 0 4 0;
#X connect 3 0 4 1;
#X connect 5 0 34 0;
#X connect 5 0 52 0;
#X connect 5 0 55 0;
#X connect 6 0 62 0;
#X connect 7 0 60 1;
#X connect 7 0 61 1;
#X connect 8 0 27 0;
#X connect 9 0 10 0;
#X connect 11 0 10 0;
#X connect 12 0 13 0;
#X connect 12 0 63 0;
#X connect 13 0 9 0;
#X connect 13 1 14 0;
#X connect 14 0 11 0;
#X connect 15 0 16 0;
#X connect 16 0 17 0;
#X connect 18 0 19 0;
#X connect 19 0 20 0;
#X connect 20 0 28 0;
#X connect 21 0 22 0;
#X connect 22 0 23 0;
#X connect 23 0 24 0;
#X connect 24 0 29 0;
#X connect 25 0 26 0;
#X connect 26 0 27 1;
#X connect 27 0 31 0;
#X connect 27 0 40 0;
#X connect 28 0 21 0;
#X connect 29 0 26 1;
#X connect 30 0 36 0;
#X connect 31 0 1 0;
#X connect 31 0 10 0;
#X connect 32 0 33 0;
#X connect 33 0 30 0;
#X connect 34 0 6 0;
#X connect 35 0 41 0;
#X connect 35 1 5 0;
#X connect 36 0 8 0;
#X connect 37 0 60 0;
#X connect 38 0 39 0;
#X connect 39 0 40 0;
#X connect 41 0 54 0;
#X connect 42 0 37 0;
#X connect 43 0 44 0;
#X connect 44 0 45 0;
#X connect 45 0 50 0;
#X connect 46 0 47 0;
#X connect 47 0 48 0;
#X connect 48 0 49 0;
#X connect 49 0 54 0;
#X connect 50 0 46 0;
#X connect 51 0 8 1;
#X connect 52 0 58 0;
#X connect 52 1 53 0;
#X connect 53 0 51 0;
#X connect 54 0 42 0;
#X connect 55 0 56 0;
#X connect 56 0 57 0;
#X connect 57 0 54 0;
#X connect 58 0 51 0;
#X connect 59 0 7 0;
#X connect 60 0 61 0;
#X connect 61 0 32 0;
#X connect 62 0 7 0;
#X connect 63 0 35 0;
