#N canvas 242 233 1153 612 12;
#X obj 231 117 inlet;
#X obj 231 151 unpack f f;
#X obj 192 185 sig~;
#X obj 63 289 mtof~;
#X obj 447 521 *~;
#X obj 568 169 / 127;
#X obj 568 193 sel 0;
#X obj 610 230 sqrt;
#X msg 610 264 \$1 20;
#X msg 568 264 0 20;
#X obj 598 308 line~;
#X obj 447 565 outlet~;
#X obj 96 205 *~ 0.25;
#X obj 49 316 phasor~;
#X obj 323 203 > 0;
#X obj 323 227 sel 0 1;
#X msg 323 251 0 500;
#X obj 324 299 vline~;
#X obj 324 323 *~;
#X obj 324 395 mtof~;
#X obj 249 222 line~;
#X obj 56 408 clip~ 0 1;
#X obj 198 484 else/lowpass~ 1000 0.7;
#X obj 192 209 -~ 3;
#X obj 249 246 *~ 3;
#X obj 324 371 +~ 10;
#X obj 135 335 /~;
#X obj 55 366 *~;
#X obj 157 363 max~ 1;
#X obj 56 432 -~ 0.25;
#X obj 56 456 cos~;
#X obj 95 171 osc~ 5;
#X msg 249 198 \$1 10;
#X obj 325 347 *~ 80;
#X msg 383 251 1 20 \, 0.9 500 20;
#X obj 157 315 sig~ 2000;
#X connect 0 0 1 0;
#X connect 1 0 2 0;
#X connect 1 1 5 0;
#X connect 1 1 14 0;
#X connect 2 0 23 0;
#X connect 3 0 13 0;
#X connect 3 0 26 1;
#X connect 4 0 11 0;
#X connect 5 0 6 0;
#X connect 6 0 9 0;
#X connect 6 1 7 0;
#X connect 7 0 8 0;
#X connect 8 0 10 0;
#X connect 9 0 10 0;
#X connect 10 0 4 1;
#X connect 12 0 3 0;
#X connect 13 0 27 0;
#X connect 14 0 15 0;
#X connect 14 0 32 0;
#X connect 15 0 16 0;
#X connect 15 1 34 0;
#X connect 16 0 17 0;
#X connect 17 0 18 0;
#X connect 17 0 18 1;
#X connect 18 0 33 0;
#X connect 19 0 22 1;
#X connect 20 0 24 0;
#X connect 21 0 29 0;
#X connect 22 0 4 0;
#X connect 23 0 3 0;
#X connect 24 0 3 0;
#X connect 25 0 19 0;
#X connect 26 0 28 0;
#X connect 27 0 21 0;
#X connect 28 0 27 1;
#X connect 29 0 30 0;
#X connect 30 0 22 0;
#X connect 31 0 12 0;
#X connect 32 0 20 0;
#X connect 33 0 25 0;
#X connect 34 0 17 0;
#X connect 35 0 26 0;
