#N canvas 404 281 967 680 12;
#X obj 45 461 oscparse;
#X obj 45 402 netreceive -u -b 5003;
#X obj 45 485 list trim;
#X obj 65 432 netreceive -u -b 7001;
#X obj 235 402 r \$0-osc;
#X obj 235 426 route emotion-ID;
#X obj 45 509 send \$0-osc;
#N canvas 280 152 1920 997 guts 0;
#X obj 168 336 dac~ 1;
#X obj 298 336 dac~ 2;
#X obj 298 302 else/drive~;
#X obj 168 302 else/drive~;
#X obj 250 393 r \$0-rec-s;
#X obj 303 456 else/datetime;
#X obj 303 514 list append;
#X msg 303 485 \$1h\$2m\$3s;
#X msg 377 485 \$1y\$2m\$3d\$4;
#X obj 231 785 writesf~;
#X obj 231 340 +~;
#X obj 231 364 *~ 0.5;
#X obj 250 417 select 0 1;
#X msg 251 725 stop;
#X obj 398 354 r \$0-rec-s;
#X msg 398 407 color \$1 \$1;
#X obj 398 431 s \$0-rec-r;
#X obj 398 378 * 13;
#X obj 169 191 adc~ 1;
#X obj 577 211 loadbang;
#X msg 577 235 1;
#X obj 577 259 metro 100;
#X obj 577 283 tabwrite~ \$0-scope;
#X msg 303 728 open C:/Users/Neurohumanities/Documents/recordings/scene3-sound/\$1-\$2-recording.wav \, start;
#X obj 326 699 text define scene3-latest;
#X msg 349 567 C:/Users/Neurohumanities/Documents/recordings/scene3-sound/\$1-\$2-recording.wav;
#X obj 349 634 text set scene3-latest;
#X obj 303 538 t l b l;
#X obj 89 215 env~;
#X obj 89 239 - 100;
#X obj 89 263 s \$0-vu;
#X obj 349 605 list;
#X msg 326 670 write ../scene3-latest.txt;
#X connect 2 0 1 0;
#X connect 2 0 10 1;
#X connect 3 0 0 0;
#X connect 3 0 10 0;
#X connect 4 0 12 0;
#X connect 5 0 7 0;
#X connect 5 1 8 0;
#X connect 6 0 27 0;
#X connect 7 0 6 0;
#X connect 8 0 6 1;
#X connect 10 0 11 0;
#X connect 11 0 9 0;
#X connect 12 0 13 0;
#X connect 12 1 5 0;
#X connect 13 0 9 0;
#X connect 14 0 17 0;
#X connect 15 0 16 0;
#X connect 17 0 15 0;
#X connect 18 0 22 0;
#X connect 18 0 3 0;
#X connect 18 0 2 0;
#X connect 18 0 28 0;
#X connect 19 0 20 0;
#X connect 20 0 21 0;
#X connect 21 0 22 0;
#X connect 23 0 9 0;
#X connect 25 0 31 0;
#X connect 27 0 23 0;
#X connect 27 1 32 0;
#X connect 27 2 25 0;
#X connect 28 0 29 0;
#X connect 29 0 30 0;
#X connect 31 0 26 0;
#X connect 32 0 24 0;
#X restore 45 362 pd guts;
#X obj 235 450 s \$0-emotion;
#X text 235 382 OSC: Emotion ID;
#X text 45 539 Port \; 5003 = Mouth \; 7001 = Emotion ID \;;
#X obj 207 87 cnv 19 320 220 empty empty empty 20 12 0 12 #feffc6 #404040 0;
#N canvas 0 22 450 278 (subpatch) 0;
#X array \$0-scope 4410 float 0;
#X coords 0 1 4409 -1 200 140 1;
#X restore 300 117 graph;
#X obj 347 280 hsl 101 19 0 1 0 1 \$0-volumen-s \$0-volumen-r Volumen -2 -10 0 12 #000000 #ffffff #000000 7600 1;
#X text 411 262 1;
#X text 442 262 2;
#X obj 232 121 tgl 19 0 \$0-rec-s \$0-rec-r REC 0 -10 0 12 #fcfcfc #fcfcfc #000000 0 1;
#X obj 233 162 vu 19 120 \$0-vu empty -1 -10 0 12 #404040 #000000 1 0;
#X connect 0 0 2 0;
#X connect 1 0 0 0;
#X connect 2 0 6 0;
#X connect 3 0 0 0;
#X connect 4 0 5 0;
#X connect 5 0 8 0;
