#N canvas 0 23 1280 710 12;
#X msg 108 307 0 2 4 5 7 9 11;
#X obj 108 331 array set \$0-scale;
#X obj 148 365 array define -k -yrange 0 11 \$0-scale 7;
#A 0 0 2 4 5 7 9 11;
#X obj 108 278 loadbang;
#X obj 604 453 makenote 127 100;
#X obj 604 501 pack f f f;
#X obj 604 646 throw~ \$0-output;
#X obj 91 509 catch~ \$0-output;
#X msg 954 278 4;
#X obj 827 351 until;
#X obj 857 380 i;
#X obj 897 380 + 1;
#X msg 929 341 0;
#X obj 483 216 t f f;
#X obj 483 245 % 7;
#X obj 585 298 +;
#X obj 603 245 div 7;
#X obj 603 269 * 12;
#X obj 857 409 sel 0;
#X msg 857 438 0;
#X obj 889 497 +;
#X obj 929 497 i;
#X obj 919 579 list prepend;
#X obj 1019 579 t l;
#X obj 954 302 t f b b;
#X obj 889 550 +;
#X msg 889 438 bang;
#X obj 604 477 poly 6 1;
#X obj 604 525 clone -s 1 harp~ 6;
#X obj 292 140 tgl 19 0 empty empty empty 0 -10 0 12 #00ff04 #000000 #000000 0 1;
#X obj 919 608 array set \$0-chord;
#X obj 949 632 array define \$0-chord 4;
#X obj 483 187 tabread \$0-chord;
#X obj 658 249 random 127;
#X obj 585 405 + 60;
#X obj 795 177 select 0;
#X obj 889 468 else/rand.i 1 2;
#X obj 970 531 else/rand.i 0 6;
#X obj 483 158 t f f;
#X obj 954 249 loadbang;
#X obj 604 588 else/highshelf~ 6000 0.4 -6;
#X obj 604 617 else/lowshelf~ 500 0.4 -12;
#X obj 685 352 * 12;
#X obj 685 376 + 60;
#X obj 685 328 else/rand.i -1 0;
#X obj 148 747 hip~ 1000;
#X obj 148 771 else/lowpass~ 4000 0.4;
#X obj 658 413 clip 1 127;
#X obj 658 273 + 127;
#X obj 1233 444 makenote 127 100;
#X obj 1233 492 pack f f f;
#X obj 1123 290 t f f;
#X obj 1123 319 % 7;
#X obj 1225 372 +;
#X obj 1243 319 div 7;
#X obj 1243 343 * 12;
#X obj 1233 468 poly 6 1;
#X obj 1123 261 tabread \$0-chord;
#X obj 1141 171 t b b;
#X obj 1123 232 t f f;
#X obj 1287 264 + 60;
#X obj 1287 240 random 63;
#X obj 1225 396 + 72;
#X obj 1233 516 clone -s 1 leadharp~ 6;
#X obj 1123 208 else/rand.u 14;
#X obj 148 723 *~ 0.5;
#X obj 105 216 switch~;
#X obj 91 827 throw~ \$1-emotionAudio;
#X msg 178 626 \$1 1000;
#X obj 178 650 line~;
#X obj 91 694 *~;
#X obj 178 602 pow 2;
#X obj 178 674 sqrt~;
#X obj 73 97 sel 0;
#X obj 73 162 delay 1000;
#X msg 73 187 0;
#X msg 93 133 stop;
#X obj 293 20 sel 0;
#X obj 293 85 delay 1000;
#X msg 293 110 0;
#X msg 313 56 stop;
#X obj 1233 540 *~ 0.2;
#X obj 334 211 s \$0-duracion;
#X obj 1141 142 else/chance 50;
#X obj 203 232 s \$0-clock;
#X obj 795 225 select 0;
#X obj 795 201 else/count 0 4;
#X obj 795 249 t b b;
#X obj 626 66 r \$0-clock;
#X obj 1141 113 r \$0-clock;
#X obj 604 559 +~;
#X obj 483 269 tabread \$1-scale;
#X obj 1123 343 tabread \$1-scale;
#X obj 519 821 expr $f1 + $f2 + $f3;
#X obj 519 884 > 0;
#X obj 477 729 == 1;
#X obj 587 729 == 1;
#X obj 697 729 == 1;
#X obj 587 782 t b f;
#X obj 697 782 t b f;
#X obj 519 845 t f f;
#X obj 551 874 s \$0-intensity;
#X obj 519 908 change -1;
#X obj 519 932 s \$0-active;
#X text 477 685 // Emotion intensity and activity;
#X obj 477 705 r \$1-emotion-3;
#X obj 587 705 r \$1-emotion-2;
#X obj 697 705 r \$1-emotion-1;
#X obj 293 -4 r \$0-active;
#X obj 73 73 r \$0-active;
#X obj 178 544 r \$0-active;
#X obj 334 187 r \$1-duracion;
#X obj 203 135 r \$1-clock;
#X obj 203 207 change -1;
#X obj 203 183 div 4;
#X obj 203 159 spigot;
#X obj 483 134 % 4;
#X obj 626 95 t f b;
#X obj 587 753 * 2;
#X obj 477 753 * 1;
#X obj 148 800 throw~ \$1-emotionReverb;
#X obj 268 415 r \$0-intensity;
#X obj 268 463 * 12;
#X obj 268 487 + 100;
#X obj 268 511 dbtorms;
#X obj 268 559 t b f;
#X obj 178 578 *;
#X obj 697 753 * 4;
#X obj 268 535 * 0.4;
#X obj 268 439 / 7;
#X connect 0 0 1 0;
#X connect 3 0 0 0;
#X connect 4 0 27 0;
#X connect 4 1 27 1;
#X connect 5 0 28 0;
#X connect 7 0 70 0;
#X connect 8 0 24 0;
#X connect 9 0 10 0;
#X connect 10 0 11 0;
#X connect 10 0 18 0;
#X connect 11 0 10 1;
#X connect 12 0 10 1;
#X connect 12 0 21 0;
#X connect 13 0 14 0;
#X connect 13 1 16 0;
#X connect 14 0 91 0;
#X connect 15 0 34 0;
#X connect 16 0 17 0;
#X connect 17 0 15 1;
#X connect 18 0 19 0;
#X connect 18 1 26 0;
#X connect 19 0 20 0;
#X connect 20 0 21 0;
#X connect 20 0 25 0;
#X connect 21 0 20 1;
#X connect 22 0 23 0;
#X connect 22 0 30 0;
#X connect 23 0 22 1;
#X connect 24 0 9 0;
#X connect 24 1 12 0;
#X connect 24 2 22 1;
#X connect 24 2 37 0;
#X connect 25 0 22 0;
#X connect 26 0 36 0;
#X connect 27 0 5 0;
#X connect 27 1 5 1;
#X connect 27 2 5 2;
#X connect 28 0 90 0;
#X connect 29 0 115 1;
#X connect 32 0 13 0;
#X connect 33 0 48 0;
#X connect 34 0 4 0;
#X connect 35 0 86 0;
#X connect 36 0 20 0;
#X connect 37 0 25 1;
#X connect 38 0 32 0;
#X connect 38 1 35 0;
#X connect 39 0 8 0;
#X connect 40 0 41 0;
#X connect 41 0 6 0;
#X connect 42 0 43 0;
#X connect 43 0 34 1;
#X connect 44 0 42 0;
#X connect 45 0 46 0;
#X connect 46 0 120 0;
#X connect 47 0 4 1;
#X connect 48 0 47 0;
#X connect 49 0 56 0;
#X connect 49 1 56 1;
#X connect 50 0 63 0;
#X connect 51 0 52 0;
#X connect 51 1 54 0;
#X connect 52 0 92 0;
#X connect 53 0 62 0;
#X connect 54 0 55 0;
#X connect 55 0 53 1;
#X connect 56 0 50 0;
#X connect 56 1 50 1;
#X connect 56 2 50 2;
#X connect 57 0 51 0;
#X connect 58 0 64 0;
#X connect 58 1 61 0;
#X connect 59 0 57 0;
#X connect 60 0 49 1;
#X connect 61 0 60 0;
#X connect 62 0 49 0;
#X connect 63 0 81 0;
#X connect 64 0 59 0;
#X connect 65 0 45 0;
#X connect 68 0 69 0;
#X connect 69 0 72 0;
#X connect 70 0 67 0;
#X connect 70 0 65 0;
#X connect 71 0 68 0;
#X connect 72 0 70 1;
#X connect 73 0 74 0;
#X connect 73 1 76 0;
#X connect 73 1 66 0;
#X connect 74 0 75 0;
#X connect 75 0 66 0;
#X connect 76 0 74 0;
#X connect 77 0 78 0;
#X connect 77 1 80 0;
#X connect 77 1 29 0;
#X connect 78 0 79 0;
#X connect 79 0 29 0;
#X connect 80 0 78 0;
#X connect 81 0 90 1;
#X connect 83 0 58 0;
#X connect 85 0 87 0;
#X connect 86 0 85 0;
#X connect 87 0 44 0;
#X connect 87 1 8 0;
#X connect 88 0 117 0;
#X connect 89 0 83 0;
#X connect 90 0 40 0;
#X connect 91 0 15 0;
#X connect 92 0 53 0;
#X connect 93 0 100 0;
#X connect 94 0 102 0;
#X connect 95 0 119 0;
#X connect 96 0 118 0;
#X connect 97 0 127 0;
#X connect 98 0 93 0;
#X connect 98 1 93 1;
#X connect 99 0 93 0;
#X connect 99 1 93 2;
#X connect 100 0 94 0;
#X connect 100 1 101 0;
#X connect 102 0 103 0;
#X connect 105 0 95 0;
#X connect 106 0 96 0;
#X connect 107 0 97 0;
#X connect 108 0 77 0;
#X connect 109 0 73 0;
#X connect 110 0 126 0;
#X connect 111 0 82 0;
#X connect 112 0 115 0;
#X connect 113 0 84 0;
#X connect 114 0 113 0;
#X connect 115 0 114 0;
#X connect 116 0 38 0;
#X connect 117 0 116 0;
#X connect 117 1 33 0;
#X connect 118 0 98 0;
#X connect 119 0 93 0;
#X connect 121 0 129 0;
#X connect 122 0 123 0;
#X connect 123 0 124 0;
#X connect 124 0 128 0;
#X connect 125 0 126 0;
#X connect 125 1 126 1;
#X connect 126 0 71 0;
#X connect 127 0 99 0;
#X connect 128 0 125 0;
#X connect 129 0 122 0;
