#N canvas 0 23 1280 710 12;
#X obj 23 145 array set \$0-scale;
#X obj 63 179 array define -k -yrange 0 11 \$0-scale 7;
#A 0 0 2 3 5 7 8 10;
#X obj 23 92 loadbang;
#X obj 1063 566 pack f f f;
#X obj 1065 775 throw~ \$0-output;
#X obj 932 387 t f f;
#X obj 932 416 % 7;
#X obj 1034 469 +;
#X obj 1052 416 div 7;
#X obj 1052 440 * 12;
#X msg 23 121 0 2 3 5 7 8 10;
#X obj 1432 778 array define -k \$0-wavetable;
#A resize 16576;
#X obj 1434 632 loadbang;
#X obj 1434 656 f \$0;
#X msg 1434 685 read -resize ./brown-noise.wav \$1-wavetable;
#X obj 1434 709 soundfiler;
#X obj 1063 595 clone -s 1 cello~ 6 \$0;
#X msg 1129 208 4;
#X obj 1089 261 until;
#X obj 1063 537 poly 6 1;
#X obj 576 442 t f f;
#X obj 576 471 % 7;
#X obj 678 524 +;
#X obj 696 471 div 7;
#X obj 696 495 * 12;
#X obj 708 563 makenote 127 6000;
#X msg 1161 261 clear;
#X msg 856 355 clear;
#X obj 734 355 else/rand.u 14;
#X obj 708 587 else/mono;
#X obj 708 611 pack f f;
#X obj 708 640 cello~ 1 \$0;
#X obj 1063 508 makenote 127 6500;
#X obj 1065 746 else/lowshelf~ 400 0.4 -12;
#X obj 708 669 else/lowshelf~ 800 0.4 -12;
#X obj 824 510 * 2;
#X obj 636 116 switch~;
#X obj 605 -3 sel 0;
#X obj 605 62 delay 1000;
#X msg 605 87 0;
#X msg 625 33 stop;
#X obj 1129 232 t f b;
#X obj 1112 435 + 95;
#X obj 1112 411 random 32;
#X obj 932 358 + 14;
#X obj 746 486 random 32;
#X obj 746 510 + 95;
#X obj 576 413 + 25;
#X obj 932 440 tabread \$1-scale;
#X obj 576 495 tabread \$1-scale;
#X obj 1346 250 expr $f1 + $f2 + $f3;
#X obj 1346 313 > 0;
#X obj 1414 211 t b f;
#X obj 1524 211 t b f;
#X obj 1346 274 t f f;
#X obj 1378 303 s \$0-intensity;
#X obj 1346 337 change -1;
#X obj 1346 361 s \$0-active;
#X text 1304 143 // Emotion intensity and activity;
#X obj 1304 163 r \$1-emotion-3;
#X obj 1414 163 r \$1-emotion-2;
#X obj 1524 163 r \$1-emotion-1;
#X obj 1304 187 == 6;
#X obj 1414 187 == 6;
#X obj 1524 187 == 6;
#X obj 605 -27 r \$0-active;
#X obj 1021 88 s \$0-duracion;
#X obj 1021 64 r \$1-duracion;
#X obj 806 56 tgl 19 0 empty empty empty 0 -10 0 12 #00ff04 #000000 #000000 0 1;
#X obj 807 -64 sel 0;
#X obj 807 1 delay 1000;
#X msg 807 26 0;
#X msg 827 -28 stop;
#X obj 807 -88 r \$0-active;
#X obj 717 22 r \$1-clock;
#X obj 717 75 spigot;
#X obj 1129 140 change -1;
#X obj 1129 164 bang;
#X obj 727 277 change -1;
#X obj 727 301 bang;
#X obj 1129 116 div 16;
#X obj 727 253 div 4;
#X obj 77 587 catch~ \$0-output;
#X obj 77 905 throw~ \$1-emotionAudio;
#X msg 164 704 \$1 1000;
#X obj 164 728 line~;
#X obj 77 772 *~;
#X obj 164 680 pow 2;
#X obj 164 752 sqrt~;
#X obj 505 899 expr $f1 + $f2 + $f3;
#X obj 505 962 > 0;
#X obj 573 860 t b f;
#X obj 683 860 t b f;
#X obj 505 923 t f f;
#X obj 537 952 s \$0-intensity;
#X obj 505 986 change -1;
#X obj 505 1010 s \$0-active;
#X text 463 763 // Emotion intensity and activity;
#X obj 463 783 r \$1-emotion-3;
#X obj 573 783 r \$1-emotion-2;
#X obj 683 783 r \$1-emotion-1;
#X obj 164 622 r \$0-active;
#X obj 573 831 * 2;
#X obj 463 831 * 1;
#X obj 134 878 throw~ \$1-emotionReverb;
#X obj 254 493 r \$0-intensity;
#X obj 254 541 * 12;
#X obj 254 565 + 100;
#X obj 254 589 dbtorms;
#X obj 254 637 t b f;
#X obj 164 656 *;
#X obj 683 831 * 4;
#X obj 254 517 / 7;
#X obj 134 825 hip~ 100;
#X obj 463 807 == 6;
#X obj 573 807 == 6;
#X obj 683 807 == 6;
#X obj 717 46 + 1;
#X obj 1179 479 * 16;
#X obj 1089 329 t f b b;
#X obj 1179 441 v \$0-duracion;
#X obj 824 486 v \$0-duracion;
#X obj 734 384 t f b b;
#X obj 1065 717 else/highshelf~ 2000 0.4 0;
#X obj 1064 636 *~ 0.2;
#X obj 77 856 *~ 0.3;
#X obj 1089 300 else/rand.u 21;
#X obj 708 698 *~ 0.4;
#X obj 254 613 * 1.5;
#X connect 2 0 10 0;
#X connect 3 0 16 0;
#X connect 5 0 6 0;
#X connect 5 1 8 0;
#X connect 6 0 48 0;
#X connect 7 0 32 0;
#X connect 8 0 9 0;
#X connect 9 0 7 1;
#X connect 10 0 0 0;
#X connect 12 0 13 0;
#X connect 13 0 14 0;
#X connect 14 0 15 0;
#X connect 16 0 124 0;
#X connect 17 0 41 0;
#X connect 18 0 126 0;
#X connect 19 0 3 0;
#X connect 19 1 3 1;
#X connect 19 2 3 2;
#X connect 20 0 21 0;
#X connect 20 1 23 0;
#X connect 21 0 49 0;
#X connect 22 0 25 0;
#X connect 23 0 24 0;
#X connect 24 0 22 1;
#X connect 25 0 29 0;
#X connect 25 1 29 1;
#X connect 26 0 126 0;
#X connect 27 0 28 0;
#X connect 28 0 122 0;
#X connect 28 1 27 0;
#X connect 29 0 30 0;
#X connect 29 1 30 1;
#X connect 30 0 31 0;
#X connect 31 0 34 0;
#X connect 32 0 19 0;
#X connect 32 1 19 1;
#X connect 33 0 4 0;
#X connect 34 0 127 0;
#X connect 35 0 25 2;
#X connect 37 0 38 0;
#X connect 37 1 40 0;
#X connect 37 1 36 0;
#X connect 38 0 39 0;
#X connect 39 0 36 0;
#X connect 40 0 38 0;
#X connect 41 0 18 0;
#X connect 41 1 26 0;
#X connect 42 0 32 1;
#X connect 43 0 42 0;
#X connect 44 0 5 0;
#X connect 45 0 46 0;
#X connect 46 0 25 1;
#X connect 47 0 20 0;
#X connect 48 0 7 0;
#X connect 49 0 22 0;
#X connect 50 0 54 0;
#X connect 51 0 56 0;
#X connect 52 0 50 0;
#X connect 52 1 50 1;
#X connect 53 0 50 0;
#X connect 53 1 50 2;
#X connect 54 0 51 0;
#X connect 54 1 55 0;
#X connect 56 0 57 0;
#X connect 59 0 62 0;
#X connect 60 0 63 0;
#X connect 61 0 64 0;
#X connect 62 0 50 0;
#X connect 63 0 52 0;
#X connect 64 0 53 0;
#X connect 65 0 37 0;
#X connect 67 0 66 0;
#X connect 68 0 75 1;
#X connect 69 0 70 0;
#X connect 69 1 72 0;
#X connect 69 1 68 0;
#X connect 70 0 71 0;
#X connect 71 0 68 0;
#X connect 72 0 70 0;
#X connect 73 0 69 0;
#X connect 74 0 117 0;
#X connect 75 0 80 0;
#X connect 75 0 81 0;
#X connect 76 0 77 0;
#X connect 77 0 17 0;
#X connect 78 0 79 0;
#X connect 79 0 28 0;
#X connect 80 0 76 0;
#X connect 81 0 78 0;
#X connect 82 0 86 0;
#X connect 84 0 85 0;
#X connect 85 0 88 0;
#X connect 86 0 113 0;
#X connect 86 0 125 0;
#X connect 87 0 84 0;
#X connect 88 0 86 1;
#X connect 89 0 93 0;
#X connect 90 0 95 0;
#X connect 91 0 89 0;
#X connect 91 1 89 1;
#X connect 92 0 89 0;
#X connect 92 1 89 2;
#X connect 93 0 90 0;
#X connect 93 1 94 0;
#X connect 95 0 96 0;
#X connect 98 0 114 0;
#X connect 99 0 115 0;
#X connect 100 0 116 0;
#X connect 101 0 110 0;
#X connect 102 0 91 0;
#X connect 103 0 89 0;
#X connect 105 0 112 0;
#X connect 106 0 107 0;
#X connect 107 0 108 0;
#X connect 108 0 128 0;
#X connect 109 0 110 0;
#X connect 109 1 110 1;
#X connect 110 0 87 0;
#X connect 111 0 92 0;
#X connect 112 0 106 0;
#X connect 113 0 104 0;
#X connect 114 0 103 0;
#X connect 115 0 102 0;
#X connect 116 0 111 0;
#X connect 117 0 75 0;
#X connect 118 0 32 2;
#X connect 119 0 44 0;
#X connect 119 1 43 0;
#X connect 119 2 120 0;
#X connect 120 0 118 0;
#X connect 121 0 35 0;
#X connect 122 0 47 0;
#X connect 122 1 45 0;
#X connect 122 2 121 0;
#X connect 123 0 33 0;
#X connect 124 0 123 0;
#X connect 125 0 83 0;
#X connect 126 0 119 0;
#X connect 127 0 123 0;
#X connect 128 0 109 0;
