#N canvas 0 23 1280 710 12;
#X obj 23 195 array set \$0-scale;
#X obj 33 225 array define -k -yrange 0 11 \$0-scale 7;
#A 0 0 2 4 5 7 9 11;
#X obj 23 137 loadbang;
#X obj 1057 598 pack f f f;
#X obj 1057 732 throw~ \$0-output;
#X obj 23 334 catch~ \$0-output;
#X obj 947 436 t f f;
#X obj 947 465 % 7;
#X obj 1049 518 +;
#X obj 1067 465 div 7;
#X obj 1067 489 * 12;
#X obj 773 745 loadbang;
#X obj 773 769 f \$0;
#X msg 773 798 read -resize ./brown-noise.wav \$1-wavetable;
#X obj 773 822 soundfiler;
#X obj 1057 622 clone -s 1 cello~ 6 \$0;
#X msg 1028 261 4;
#X obj 1007 314 until;
#X obj 1060 375 t f b;
#X obj 1056 574 poly 6 1;
#X obj 1057 674 else/highshelf~ 2000 0.4 -12;
#X msg 1060 314 clear;
#X obj 23 363 else/highpass~ 100 0.4;
#X obj 1049 542 makenote 127 6500;
#X obj 1057 703 else/lowshelf~ 400 0.4 -12;
#X obj 1163 445 r \$0-duracion;
#X obj 1060 343 else/rand.u 28;
#X obj 1155 218 r \$0-separacion-s;
#X obj 1155 242 * 14;
#X obj 1155 266 + 0.5;
#X obj 1155 290 i;
#X obj 1155 314 + 14;
#X obj 1162 469 * 16;
#X obj 947 407 + 25;
#X obj 490 814 pack f f f;
#X obj 388 650 t f f;
#X obj 388 679 % 7;
#X obj 490 732 +;
#X obj 508 679 div 7;
#X obj 508 703 * 12;
#X obj 501 589 t f b;
#X obj 568 647 + 63;
#X obj 490 930 throw~ \$0-output;
#X obj 490 756 makenote 127 100;
#X obj 501 499 +;
#X obj 545 497 i;
#X obj 664 659 t b f;
#X obj 501 436 bang;
#X obj 664 688 v \$0-duracion;
#X obj 490 785 poly 3 1;
#X obj 490 843 clone -s 1 cello-desire~ 3 \$0;
#X obj 501 475 else/rand.i -3 3;
#X obj 507 394 t b b;
#X obj 664 426 f;
#X obj 1127 433 + 64;
#X obj 1127 409 random 63;
#X obj 501 552 + 0;
#X obj 501 522 % 14;
#X obj 568 623 random 63;
#X obj 490 872 else/lowshelf~ 400 0.4 -12;
#X obj 518 286 t f f;
#X obj 607 350 sel 0;
#X msg 642 389 0;
#X obj 664 717 * 1;
#X obj 699 363 loadbang;
#X msg 699 387 2;
#X obj 388 621 + 43;
#X msg 143 166 0 2 3 5 7 9 10;
#X msg 23 166 0 2 4 5 7 9 11;
#X obj 1028 285 t f b;
#X obj 55 903 switch~;
#X obj 23 784 sel 0;
#X obj 23 849 delay 1000;
#X msg 23 874 0;
#X msg 43 820 stop;
#X obj 792 283 change -1;
#X obj 793 331 random 541467;
#X obj 791 259 r \$1-armVelAcumStages;
#X obj 792 307 bang;
#X obj 743 436 r \$1-armVelAcumStages;
#X msg 551 430 seed \$1;
#X obj 793 355 v \$0-seed;
#X obj 559 392 v \$0-seed;
#X obj 1398 909 pack f f f;
#X obj 1296 745 t f f;
#X obj 1296 774 % 7;
#X obj 1398 827 +;
#X obj 1416 774 div 7;
#X obj 1416 798 * 12;
#X obj 1409 684 t f b;
#X obj 1476 742 + 63;
#X obj 1398 1025 throw~ \$0-output;
#X obj 1398 851 makenote 127 100;
#X obj 1409 594 +;
#X obj 1453 592 i;
#X obj 1572 754 t b f;
#X obj 1409 531 bang;
#X obj 1572 783 v \$0-duracion;
#X obj 1398 880 poly 3 1;
#X obj 1409 570 else/rand.i -3 3;
#X obj 1415 489 t b b;
#X obj 1572 521 f;
#X obj 1409 647 + 0;
#X obj 1409 617 % 14;
#X obj 1476 718 random 63;
#X obj 1398 967 else/lowshelf~ 400 0.4 -12;
#X obj 1422 365 change -1;
#X obj 1515 445 sel 0;
#X msg 1550 484 0;
#X obj 1572 812 * 1;
#X obj 1607 458 loadbang;
#X msg 1607 482 2;
#X obj 1296 716 + 43;
#X obj 1398 996 *~ 0.4;
#X obj 1651 531 r \$1-armVelAcumStages;
#X msg 1459 525 seed \$1;
#X obj 1467 487 v \$0-seed;
#X obj 1398 938 clone -s 1 marimba~ 3 \$0;
#X obj 1514 410 % 8;
#X obj 1509 80 r \$1-armSeparation;
#X obj 1509 104 / 127;
#X obj 1509 152 -;
#X msg 1509 128 1 \$1;
#X msg 1509 245 2 \$1;
#X obj 1509 269 pow;
#X obj 1427 340 div 4;
#X obj 1422 389 t f f;
#X obj 1509 176 * 3;
#X obj 1510 198 + 0.5;
#X obj 1510 222 i;
#X obj 1367 66 r \$1-armSeparation;
#X obj 1367 90 / 127;
#X obj 1367 114 > 0.1;
#X obj 1367 138 change -1;
#X obj 1340 274 spigot;
#X obj 389 703 tabread \$1-scale;
#X obj 947 489 tabread \$1-scale;
#X obj 1296 798 tabread \$1-scale;
#X obj 23 760 r \$0-active;
#X obj 204 -56 tgl 19 0 empty empty empty 0 -10 0 12 #00ff04 #000000 #000000 0 1;
#X obj 205 -176 sel 0;
#X obj 205 -111 delay 1000;
#X msg 205 -86 0;
#X msg 225 -140 stop;
#X obj 246 55 s \$0-duracion;
#X obj 205 -200 r \$0-active;
#X obj 246 31 r \$1-duracion;
#X obj 115 -61 r \$1-clock;
#X obj 115 81 change -1;
#X obj 115 105 bang;
#X obj 115 -37 spigot;
#X obj 115 57 div 16;
#X obj 518 257 change -1;
#X obj 518 204 + 1;
#X obj 115 27 + 1;
#X obj 80 595 hip~ 1000;
#X obj 80 619 else/lowpass~ 4000 0.4;
#X obj 23 675 throw~ \$1-emotionAudio;
#X msg 110 474 \$1 1000;
#X obj 110 498 line~;
#X obj 23 542 *~;
#X obj 110 450 pow 2;
#X obj 110 522 sqrt~;
#X obj 110 392 r \$0-active;
#X obj 80 648 throw~ \$1-emotionReverb;
#X obj 200 263 r \$0-intensity;
#X obj 200 311 * 12;
#X obj 200 335 + 100;
#X obj 200 359 dbtorms;
#X obj 200 407 t b f;
#X obj 110 426 *;
#X obj 200 383 * 0.7;
#X obj 539 -7 expr $f1 + $f2 + $f3;
#X obj 539 56 > 0;
#X obj 607 -46 t b f;
#X obj 717 -46 t b f;
#X obj 539 17 t f f;
#X obj 571 46 s \$0-intensity;
#X obj 539 80 change -1;
#X obj 539 104 s \$0-active;
#X text 497 -143 // Emotion intensity and activity;
#X obj 497 -123 r \$1-emotion-3;
#X obj 607 -123 r \$1-emotion-2;
#X obj 717 -123 r \$1-emotion-1;
#X obj 607 -75 * 2;
#X obj 497 -75 * 1;
#X obj 497 -99 == 3;
#X obj 607 -99 == 3;
#X obj 717 -99 == 3;
#X obj 23 648 *~ 0.5;
#X obj 80 571 *~ 1;
#X obj 606 315 % 8;
#X obj 518 233 div 8;
#X obj 717 -75 * 4;
#X obj 200 287 / 7;
#X obj 490 901 *~ 0.33;
#X obj 1057 650 *~ 0.5;
#X obj 771 892 array define \$0-wavetable;
#X connect 2 0 68 0;
#X connect 3 0 15 0;
#X connect 5 0 22 0;
#X connect 6 0 7 0;
#X connect 6 1 9 0;
#X connect 7 0 136 0;
#X connect 8 0 23 0;
#X connect 9 0 10 0;
#X connect 10 0 8 1;
#X connect 11 0 12 0;
#X connect 12 0 13 0;
#X connect 13 0 14 0;
#X connect 15 0 196 0;
#X connect 16 0 69 0;
#X connect 17 0 26 0;
#X connect 18 0 33 0;
#X connect 18 1 55 0;
#X connect 19 0 3 0;
#X connect 19 1 3 1;
#X connect 19 2 3 2;
#X connect 20 0 24 0;
#X connect 21 0 26 0;
#X connect 22 0 160 0;
#X connect 23 0 19 0;
#X connect 23 1 19 1;
#X connect 24 0 4 0;
#X connect 25 0 32 0;
#X connect 26 0 18 0;
#X connect 27 0 28 0;
#X connect 28 0 29 0;
#X connect 29 0 30 0;
#X connect 30 0 31 0;
#X connect 31 0 26 1;
#X connect 32 0 23 2;
#X connect 33 0 6 0;
#X connect 34 0 50 0;
#X connect 35 0 36 0;
#X connect 35 1 38 0;
#X connect 36 0 135 0;
#X connect 37 0 43 0;
#X connect 38 0 39 0;
#X connect 39 0 37 1;
#X connect 40 0 66 0;
#X connect 40 1 58 0;
#X connect 41 0 43 1;
#X connect 43 0 49 0;
#X connect 43 1 49 1;
#X connect 44 0 57 0;
#X connect 45 0 44 1;
#X connect 46 0 48 0;
#X connect 46 1 63 1;
#X connect 47 0 51 0;
#X connect 48 0 63 0;
#X connect 49 0 34 0;
#X connect 49 1 34 1;
#X connect 49 2 34 2;
#X connect 50 0 59 0;
#X connect 51 0 44 0;
#X connect 52 0 47 0;
#X connect 52 1 53 0;
#X connect 53 0 46 0;
#X connect 54 0 23 1;
#X connect 55 0 54 0;
#X connect 56 0 40 0;
#X connect 57 0 45 0;
#X connect 57 0 56 0;
#X connect 58 0 41 0;
#X connect 59 0 195 0;
#X connect 60 0 52 0;
#X connect 60 1 191 0;
#X connect 61 0 62 0;
#X connect 61 0 82 0;
#X connect 62 0 45 0;
#X connect 63 0 43 2;
#X connect 64 0 65 0;
#X connect 65 0 53 1;
#X connect 66 0 35 0;
#X connect 68 0 0 0;
#X connect 69 0 17 0;
#X connect 69 1 21 0;
#X connect 71 0 72 0;
#X connect 71 1 70 0;
#X connect 71 1 74 0;
#X connect 72 0 73 0;
#X connect 73 0 70 0;
#X connect 74 0 72 0;
#X connect 75 0 78 0;
#X connect 76 0 81 0;
#X connect 77 0 75 0;
#X connect 78 0 76 0;
#X connect 78 0 62 0;
#X connect 79 0 56 1;
#X connect 80 0 51 0;
#X connect 82 0 80 0;
#X connect 83 0 117 0;
#X connect 84 0 85 0;
#X connect 84 1 87 0;
#X connect 85 0 137 0;
#X connect 86 0 92 0;
#X connect 87 0 88 0;
#X connect 88 0 86 1;
#X connect 89 0 112 0;
#X connect 89 1 104 0;
#X connect 90 0 92 1;
#X connect 92 0 98 0;
#X connect 92 1 98 1;
#X connect 93 0 103 0;
#X connect 94 0 93 1;
#X connect 95 0 97 0;
#X connect 95 1 109 1;
#X connect 96 0 99 0;
#X connect 97 0 109 0;
#X connect 98 0 83 0;
#X connect 98 1 83 1;
#X connect 98 2 83 2;
#X connect 99 0 93 0;
#X connect 100 0 96 0;
#X connect 100 1 101 0;
#X connect 101 0 95 0;
#X connect 102 0 89 0;
#X connect 103 0 94 0;
#X connect 103 0 102 0;
#X connect 104 0 90 0;
#X connect 105 0 113 0;
#X connect 106 0 126 0;
#X connect 107 0 108 0;
#X connect 107 0 116 0;
#X connect 108 0 94 0;
#X connect 109 0 92 2;
#X connect 110 0 111 0;
#X connect 111 0 101 1;
#X connect 112 0 84 0;
#X connect 113 0 91 0;
#X connect 114 0 102 1;
#X connect 115 0 99 0;
#X connect 116 0 115 0;
#X connect 117 0 105 0;
#X connect 118 0 107 0;
#X connect 119 0 120 0;
#X connect 120 0 122 0;
#X connect 121 0 127 0;
#X connect 122 0 121 0;
#X connect 123 0 124 0;
#X connect 124 0 125 1;
#X connect 125 0 106 0;
#X connect 126 0 100 0;
#X connect 126 1 118 1;
#X connect 127 0 128 0;
#X connect 128 0 129 0;
#X connect 129 0 123 0;
#X connect 130 0 131 0;
#X connect 131 0 132 0;
#X connect 132 0 133 0;
#X connect 133 0 134 1;
#X connect 134 0 125 0;
#X connect 135 0 37 0;
#X connect 136 0 8 0;
#X connect 137 0 86 0;
#X connect 138 0 71 0;
#X connect 139 0 150 1;
#X connect 140 0 141 0;
#X connect 140 1 143 0;
#X connect 140 1 139 0;
#X connect 141 0 142 0;
#X connect 142 0 139 0;
#X connect 143 0 141 0;
#X connect 145 0 140 0;
#X connect 146 0 144 0;
#X connect 147 0 150 0;
#X connect 148 0 149 0;
#X connect 149 0 16 0;
#X connect 150 0 154 0;
#X connect 150 0 153 0;
#X connect 151 0 148 0;
#X connect 152 0 60 0;
#X connect 153 0 192 0;
#X connect 154 0 151 0;
#X connect 155 0 156 0;
#X connect 156 0 164 0;
#X connect 158 0 159 0;
#X connect 159 0 162 0;
#X connect 160 0 189 0;
#X connect 160 0 190 0;
#X connect 161 0 158 0;
#X connect 162 0 160 1;
#X connect 163 0 170 0;
#X connect 165 0 194 0;
#X connect 166 0 167 0;
#X connect 167 0 168 0;
#X connect 168 0 171 0;
#X connect 169 0 170 0;
#X connect 169 1 170 1;
#X connect 170 0 161 0;
#X connect 171 0 169 0;
#X connect 172 0 176 0;
#X connect 173 0 178 0;
#X connect 174 0 172 0;
#X connect 174 1 172 1;
#X connect 175 0 172 0;
#X connect 175 1 172 2;
#X connect 176 0 173 0;
#X connect 176 1 177 0;
#X connect 178 0 179 0;
#X connect 181 0 186 0;
#X connect 182 0 187 0;
#X connect 183 0 188 0;
#X connect 184 0 174 0;
#X connect 185 0 172 0;
#X connect 186 0 185 0;
#X connect 187 0 184 0;
#X connect 188 0 193 0;
#X connect 189 0 157 0;
#X connect 190 0 155 0;
#X connect 191 0 61 0;
#X connect 192 0 152 0;
#X connect 193 0 175 0;
#X connect 194 0 166 0;
#X connect 195 0 42 0;
#X connect 196 0 20 0;
