#N canvas -12 0 1920 997 12;
#X obj 23 145 array set \$0-scale;
#X obj 63 179 array define -k -yrange 0 11 \$0-scale 7;
#A 0 0 2 3 5 7 8 10;
#X obj 23 92 loadbang;
#X obj 1063 566 pack f f f;
#X obj 1063 796 throw~ \$0-output;
#X obj 139 348 catch~ \$0-output;
#X obj 139 727 ws.tanh~;
#X obj 932 387 t f f;
#X obj 932 416 % 7;
#X obj 1034 469 +;
#X obj 1052 416 div 7;
#X obj 1052 440 * 12;
#X obj 734 117 tgl 19 0 empty empty empty 0 -10 0 12 #00ff04 #000000 #000000 0 1;
#X obj 734 141 metro 250;
#X msg 23 121 0 2 3 5 7 8 10;
#X obj 1432 778 array define -k \$0-wavetable;
#A resize 16576;
#X obj 1434 632 loadbang;
#X obj 1434 656 f \$0;
#X msg 1434 685 read -resize ./brown-noise.wav \$1-wavetable;
#X obj 1434 709 soundfiler;
#X obj 1063 595 clone -s 1 cello~ 6 \$0;
#X msg 1129 208 4;
#X obj 1089 261 until;
#X obj 1089 329 t f b;
#X obj 1063 537 poly 6 1;
#X obj 1065 717 else/highshelf~ 2000 0.4 -12;
#X obj 139 503 *~ 0.5;
#X obj 576 442 t f f;
#X obj 576 471 % 7;
#X obj 678 524 +;
#X obj 696 471 div 7;
#X obj 696 495 * 12;
#X obj 734 384 t f b;
#X obj 708 563 makenote 127 6000;
#X msg 1161 261 clear;
#X msg 856 355 clear;
#X obj 734 355 else/rand.u 14;
#X obj 139 377 else/highpass~ 100 0.4;
#X obj 708 587 else/mono;
#X obj 708 611 pack f f;
#X obj 708 640 cello~ 1 \$0;
#X obj 1063 508 makenote 127 6500;
#X obj 1064 762 else/lowshelf~ 400 0.4 -12;
#X obj 708 669 else/lowshelf~ 800 0.4 -12;
#X obj 209 416 else/lowpass~ 4000 0.4;
#X obj 875 141 s \$0-duracion;
#X obj 824 486 r \$0-duracion;
#X obj 1179 431 r \$0-duracion;
#X obj 1089 300 else/rand.u 28;
#X obj 824 510 * 2;
#X obj 1129 184 sel 1;
#X obj 734 165 else/count 1 4;
#X obj 734 292 % 2;
#X obj 734 316 sel 0;
#X obj 824 534 * 2;
#X obj 139 751 throw~ \$1-emotionAudio;
#X obj 636 116 switch~;
#X obj 605 -3 sel 0;
#X obj 605 62 delay 1000;
#X msg 605 87 0;
#X msg 625 33 stop;
#X obj 735 -3 sel 0;
#X obj 735 62 delay 1000;
#X msg 735 87 0;
#X msg 755 33 stop;
#X msg 377 599 \$1 1000;
#X obj 377 623 line~;
#X obj 377 647 sqrt~;
#X obj 377 576 pow 2;
#X obj 377 551 * 1;
#X obj 139 665 *~;
#X obj 139 561 *~ 3;
#X obj 843 88 /;
#X obj 228 445 loadbang;
#X obj 208 503 else/plate.rev~;
#X msg 228 474 pre 0 \, wet 1 \, size 0.7 \, damp 0.8 \, cutoff 1;
#X obj 843 35 loadbang;
#X obj 843 112 t f f;
#X obj 1129 232 t f b;
#X obj 1121 402 + 95;
#X obj 1121 378 random 32;
#X obj 1179 479 * 4;
#X obj 932 358 + 14;
#X obj 766 457 random 32;
#X obj 766 481 + 95;
#X obj 576 413 + 25;
#X obj 708 698 *~ 0.5;
#X obj 1064 636 /~ 8;
#X msg 843 64 60000 30;
#X obj 932 440 tabread \$1-scale;
#X obj 576 495 tabread \$1-scale;
#X obj 1346 250 expr $f1 + $f2 + $f3;
#X obj 1346 313 > 0;
#X obj 1414 211 t b f;
#X obj 1524 211 t b f;
#X obj 1346 274 t f f;
#X obj 1378 303 s \$0-intensity;
#X obj 1346 337 change -1;
#X obj 1346 361 s \$0-active;
#X text 1304 143 // Emotion intensity and activity;
#X obj 1304 163 r \$1-emotion-3;
#X obj 1414 163 r \$1-emotion-2;
#X obj 1524 163 r \$1-emotion-1;
#X obj 1304 187 == 6;
#X obj 1414 187 == 6;
#X obj 1524 187 == 6;
#X obj 735 -27 r \$0-active;
#X obj 605 -27 r \$0-active;
#X obj 377 527 r \$0-active;
#X connect 2 0 14 0;
#X connect 3 0 20 0;
#X connect 5 0 37 0;
#X connect 6 0 55 0;
#X connect 7 0 8 0;
#X connect 7 1 10 0;
#X connect 8 0 89 0;
#X connect 9 0 41 0;
#X connect 10 0 11 0;
#X connect 11 0 9 1;
#X connect 12 0 13 0;
#X connect 13 0 51 0;
#X connect 14 0 0 0;
#X connect 16 0 17 0;
#X connect 17 0 18 0;
#X connect 18 0 19 0;
#X connect 20 0 87 0;
#X connect 21 0 78 0;
#X connect 22 0 48 0;
#X connect 23 0 82 0;
#X connect 23 1 80 0;
#X connect 24 0 3 0;
#X connect 24 1 3 1;
#X connect 24 2 3 2;
#X connect 25 0 42 0;
#X connect 26 0 71 0;
#X connect 27 0 28 0;
#X connect 27 1 30 0;
#X connect 28 0 90 0;
#X connect 29 0 33 0;
#X connect 30 0 31 0;
#X connect 31 0 29 1;
#X connect 32 0 85 0;
#X connect 32 1 83 0;
#X connect 33 0 38 0;
#X connect 33 1 38 1;
#X connect 34 0 48 0;
#X connect 35 0 36 0;
#X connect 36 0 32 0;
#X connect 36 1 35 0;
#X connect 37 0 26 0;
#X connect 37 0 44 0;
#X connect 38 0 39 0;
#X connect 38 1 39 1;
#X connect 39 0 40 0;
#X connect 40 0 43 0;
#X connect 41 0 24 0;
#X connect 41 1 24 1;
#X connect 42 0 4 0;
#X connect 43 0 86 0;
#X connect 44 0 74 0;
#X connect 46 0 49 0;
#X connect 47 0 81 0;
#X connect 48 0 23 0;
#X connect 49 0 54 0;
#X connect 50 0 21 0;
#X connect 51 0 50 0;
#X connect 51 0 52 0;
#X connect 52 0 53 0;
#X connect 53 0 36 0;
#X connect 54 0 33 2;
#X connect 57 0 58 0;
#X connect 57 1 60 0;
#X connect 57 1 56 0;
#X connect 58 0 59 0;
#X connect 59 0 56 0;
#X connect 60 0 58 0;
#X connect 61 0 62 0;
#X connect 61 1 64 0;
#X connect 61 1 12 0;
#X connect 62 0 63 0;
#X connect 63 0 12 0;
#X connect 64 0 62 0;
#X connect 65 0 66 0;
#X connect 66 0 67 0;
#X connect 67 0 70 1;
#X connect 68 0 65 0;
#X connect 69 0 68 0;
#X connect 70 0 6 0;
#X connect 71 0 70 0;
#X connect 72 0 77 0;
#X connect 73 0 75 0;
#X connect 74 0 71 0;
#X connect 74 1 71 0;
#X connect 75 0 74 0;
#X connect 76 0 88 0;
#X connect 77 0 13 1;
#X connect 77 1 45 0;
#X connect 78 0 22 0;
#X connect 78 1 34 0;
#X connect 79 0 41 1;
#X connect 80 0 79 0;
#X connect 81 0 41 2;
#X connect 82 0 7 0;
#X connect 83 0 84 0;
#X connect 84 0 33 1;
#X connect 85 0 27 0;
#X connect 86 0 25 0;
#X connect 87 0 25 0;
#X connect 88 0 72 0;
#X connect 89 0 9 0;
#X connect 90 0 29 0;
#X connect 91 0 95 0;
#X connect 92 0 97 0;
#X connect 93 0 91 0;
#X connect 93 1 91 1;
#X connect 94 0 91 0;
#X connect 94 1 91 2;
#X connect 95 0 92 0;
#X connect 95 1 96 0;
#X connect 97 0 98 0;
#X connect 100 0 103 0;
#X connect 101 0 104 0;
#X connect 102 0 105 0;
#X connect 103 0 91 0;
#X connect 104 0 93 0;
#X connect 105 0 94 0;
#X connect 106 0 61 0;
#X connect 107 0 57 0;
#X connect 108 0 69 0;
