#N canvas 0 0 1920 997 12;
#X obj 23 195 array set \$0-scale;
#X obj 63 229 array define -k -yrange 0 11 \$0-scale 7;
#A 0 0 2 4 6 7 9 11;
#X obj 23 142 loadbang;
#X obj 814 783 pack f f f;
#X obj 831 1013 throw~ \$0-output;
#X obj 138 582 catch~ \$0-output;
#X obj 704 621 t f f;
#X obj 704 650 % 7;
#X obj 806 703 +;
#X obj 824 650 div 7;
#X obj 824 674 * 12;
#X obj 397 149 tgl 19 0 empty empty empty 0 -10 0 12 #00ff04 #000000 #000000 0 1;
#X obj 397 173 metro 250;
#X msg 533 52 60000 \$1;
#X obj 533 76 /;
#X obj 533 154 line 0 1;
#X msg 533 130 \$1 1000;
#X obj 471 -51 loadbang;
#X msg 471 -27 1;
#X obj 426 639 loadbang;
#X obj 424 686 unpack f f f;
#X obj 817 560 t f b;
#X obj 884 618 + 63;
#X obj 884 594 random 32;
#X obj 704 592 + 25;
#X msg 23 171 0 2 4 6 7 9 11;
#X obj 397 221 select 1;
#X obj 397 245 bng 19 250 50 0 empty empty empty 0 -10 0 12 #fcfcfc #000000 #000000;
#X obj 1155 758 pack f f f;
#X obj 1155 782 clone -s 1 organ~ 6;
#X obj 1154 734 poly 6 1;
#X obj 1152 831 else/crossover~ 500;
#X obj 1174 883 sig~ 2;
#X obj 1174 907 pow~;
#X obj 1239 892 +~ 1;
#X obj 1239 916 *~ -0.5;
#X obj 1158 968 +~;
#X obj 1148 932 *~;
#X obj 1346 887 sig~ 2;
#X obj 1346 911 pow~;
#X obj 1411 896 +~ 1;
#X obj 1411 920 *~ -0.5;
#X obj 1320 936 *~;
#X obj 1239 868 osc~ 2;
#X obj 977 1012 throw~ \$0-reverb;
#X obj 271 665 catch~ \$0-reverb;
#X obj 1161 1075 throw~ \$0-reverb;
#X obj 1412 872 osc~ 3.1;
#X obj 1394 655 loadbang;
#X msg 1394 679 1;
#X obj 1394 703 metro 5000;
#X msg 1349 764 \$1 1000;
#X obj 1349 788 line 0 1;
#X msg 1462 797 \$1 1000;
#X obj 1462 821 line 0 1;
#X obj 1349 740 else/rand.f 0.5 4;
#X obj 1462 773 else/rand.f 0.5 4;
#X obj 664 495 else/rand.u 22;
#X obj 664 519 + 7;
#X obj 790 528 - 7;
#X obj 789 473 else/chance 20;
#X obj 663 464 else/chance 50;
#X obj 790 504 else/rand.u 14;
#X obj 1620 273 bng 19 250 50 0 empty empty empty 0 -10 0 12 #fcfcfc #000000 #000000;
#X msg 1620 297 4;
#X obj 1493 370 until;
#X obj 1523 399 i;
#X obj 1563 399 + 1;
#X msg 1595 360 0;
#X obj 1218 330 t f f;
#X obj 1218 359 % 7;
#X obj 1320 412 +;
#X obj 1338 359 div 7;
#X obj 1338 383 * 12;
#X obj 1523 428 sel 0;
#X msg 1523 457 0;
#X obj 1555 516 +;
#X obj 1595 516 i;
#X obj 1585 598 list prepend;
#X obj 1685 598 t l;
#X obj 1620 321 t f b b;
#X obj 1555 569 +;
#X msg 1555 457 bang;
#X obj 1585 627 array set \$0-chord;
#X obj 1615 651 array define \$0-chord 4;
#X obj 1218 301 tabread \$0-chord;
#X obj 1236 211 t b b;
#X obj 1382 280 random 127;
#X obj 1382 304 + 1;
#X obj 1320 436 + 60;
#X obj 1218 248 else/count 0 3;
#X obj 1432 200 select 0;
#X obj 1432 224 else/count 1 4;
#X obj 1432 248 select 4;
#X obj 1555 487 else/rand.i 1 2;
#X obj 1636 550 else/rand.i 0 6;
#X obj 1218 272 t f f;
#X obj 1628 230 loadbang;
#X obj 1409 351 * 12;
#X obj 1409 375 + 60;
#X obj 1409 327 else/rand.i -1 0;
#X msg 1695 448 seed 125;
#X msg 424 662 1 0.5 0.7;
#X obj 965 924 *~ 0.05;
#X obj 1147 702 makenote 127 200;
#X obj 533 100 / 2;
#X obj 397 197 else/count 1 2;
#X obj 1149 456 r \$0-separacion-s;
#X obj 1149 480 / 127;
#X msg 1149 504 1 \$1;
#X obj 1149 528 -;
#X msg 1149 592 \$1 20;
#X obj 1149 616 line~;
#X obj 529 496 else/rand.u 22;
#X obj 528 465 else/chance 50;
#X obj 615 278 r \$0-separacion-s;
#X obj 615 302 / 127;
#X msg 615 326 1 \$1;
#X obj 615 350 -;
#X obj 615 374 * 100;
#X obj 529 520 + 14;
#X obj 1149 552 * 0.1;
#X obj 814 807 clone -s 1 leadorgan~ 2;
#X obj 811 760 poly 2 1;
#X obj 571 1019 pack f f f;
#X obj 461 857 t f f;
#X obj 461 886 % 7;
#X obj 563 939 +;
#X obj 581 886 div 7;
#X obj 581 910 * 12;
#X obj 574 796 t f b;
#X obj 641 854 + 63;
#X obj 641 830 random 32;
#X obj 461 828 + 25;
#X obj 561 1172 throw~ \$0-output;
#X obj 707 1171 throw~ \$0-reverb;
#X obj 563 963 makenote 127 100;
#X obj 806 727 makenote 127 50;
#X msg 1003 589 1 \$1;
#X obj 1003 613 -;
#X obj 1003 637 * 4;
#X msg 1003 661 2 \$1;
#X obj 1003 685 pow;
#X obj 1253 651 * 100;
#X obj 699 927 * 100;
#X obj 569 996 poly 1 1;
#X obj 571 1043 clone -s 1 leadorgan~ 1;
#X obj 693 1082 *~ 0.01;
#X obj 1003 709 * 50;
#X obj 327 739 re.plate-1~;
#X obj 144 1033 throw~ \$1-emotionAudio;
#X obj 1087 16 switch~;
#X msg 234 914 \$1 1000;
#X obj 234 938 line~;
#X obj 1055 -103 sel 0;
#X obj 1055 -38 delay 1000;
#X msg 1055 -13 0;
#X obj 234 962 sqrt~;
#X obj 234 890 pow 2;
#X msg 1075 -67 stop;
#X obj 365 30 sel 0;
#X obj 365 95 delay 1000;
#X msg 365 120 0;
#X msg 385 66 stop;
#X obj 142 905 *~;
#X obj 1155 806 /~ 1;
#X obj 1169 1026 *~ 0.1;
#X obj 235 865 * 0.5;
#X obj 471 -3 metro 500;
#X obj 142 929 hip~ 100;
#X obj 143 668 *~ 0.3;
#X obj 533 27 else/rand.f 90 100;
#X obj 1218 383 tabread \$1-scale;
#X obj 704 674 tabread \$1-scale;
#X obj 461 910 tabread \$1-scale;
#X obj 1314 -8 expr $f1 + $f2 + $f3;
#X obj 1314 55 > 0;
#X obj 1382 -47 t b f;
#X obj 1492 -47 t b f;
#X obj 1314 16 t f f;
#X obj 1346 45 s \$0-intensity;
#X obj 1314 79 change -1;
#X obj 1314 103 s \$0-active;
#X text 1272 -115 // Emotion intensity and activity;
#X obj 1272 -95 r \$1-emotion-3;
#X obj 1382 -95 r \$1-emotion-2;
#X obj 1492 -95 r \$1-emotion-1;
#X obj 1272 -71 == 4;
#X obj 1382 -71 == 4;
#X obj 1492 -71 == 4;
#X obj 365 6 r \$0-active;
#X obj 1055 -127 r \$0-active;
#X obj 234 842 r \$0-active;
#X connect 2 0 25 0;
#X connect 3 0 122 0;
#X connect 5 0 170 0;
#X connect 6 0 7 0;
#X connect 6 1 9 0;
#X connect 7 0 173 0;
#X connect 8 0 137 0;
#X connect 9 0 10 0;
#X connect 10 0 8 1;
#X connect 11 0 12 0;
#X connect 12 0 106 0;
#X connect 12 0 86 0;
#X connect 12 0 114 0;
#X connect 13 0 14 0;
#X connect 14 0 105 0;
#X connect 15 0 12 1;
#X connect 16 0 15 0;
#X connect 17 0 18 0;
#X connect 18 0 168 0;
#X connect 19 0 102 0;
#X connect 20 0 149 1;
#X connect 20 1 149 2;
#X connect 20 2 149 3;
#X connect 21 0 24 0;
#X connect 21 1 23 0;
#X connect 22 0 137 1;
#X connect 23 0 22 0;
#X connect 24 0 6 0;
#X connect 25 0 0 0;
#X connect 26 0 27 0;
#X connect 27 0 61 0;
#X connect 27 0 60 0;
#X connect 28 0 29 0;
#X connect 29 0 165 0;
#X connect 30 0 28 0;
#X connect 30 1 28 1;
#X connect 30 2 28 2;
#X connect 31 0 37 0;
#X connect 31 1 42 0;
#X connect 32 0 33 0;
#X connect 33 0 37 1;
#X connect 34 0 35 0;
#X connect 35 0 33 1;
#X connect 36 0 166 0;
#X connect 37 0 36 0;
#X connect 38 0 39 0;
#X connect 39 0 42 1;
#X connect 40 0 41 0;
#X connect 41 0 39 1;
#X connect 42 0 36 1;
#X connect 43 0 34 0;
#X connect 45 0 149 0;
#X connect 47 0 40 0;
#X connect 48 0 49 0;
#X connect 49 0 50 0;
#X connect 50 0 55 0;
#X connect 50 0 56 0;
#X connect 51 0 52 0;
#X connect 52 0 43 0;
#X connect 53 0 54 0;
#X connect 54 0 47 0;
#X connect 55 0 51 0;
#X connect 56 0 53 0;
#X connect 57 0 58 0;
#X connect 58 0 21 0;
#X connect 59 0 21 0;
#X connect 60 0 62 0;
#X connect 61 0 57 0;
#X connect 62 0 59 0;
#X connect 63 0 64 0;
#X connect 63 0 100 0;
#X connect 64 0 80 0;
#X connect 65 0 66 0;
#X connect 66 0 67 0;
#X connect 66 0 74 0;
#X connect 67 0 66 1;
#X connect 68 0 66 1;
#X connect 68 0 77 0;
#X connect 69 0 70 0;
#X connect 69 1 72 0;
#X connect 70 0 172 0;
#X connect 71 0 89 0;
#X connect 72 0 73 0;
#X connect 73 0 71 1;
#X connect 74 0 75 0;
#X connect 74 1 82 0;
#X connect 75 0 76 0;
#X connect 76 0 77 0;
#X connect 76 0 81 0;
#X connect 77 0 76 1;
#X connect 78 0 79 0;
#X connect 78 0 83 0;
#X connect 79 0 78 1;
#X connect 80 0 65 0;
#X connect 80 1 68 0;
#X connect 80 2 78 1;
#X connect 80 2 95 0;
#X connect 81 0 78 0;
#X connect 82 0 94 0;
#X connect 85 0 69 0;
#X connect 86 0 90 0;
#X connect 86 1 87 0;
#X connect 87 0 88 0;
#X connect 89 0 104 0;
#X connect 90 0 96 0;
#X connect 91 0 92 0;
#X connect 92 0 93 0;
#X connect 93 0 63 0;
#X connect 94 0 76 0;
#X connect 95 0 81 1;
#X connect 96 0 85 0;
#X connect 96 1 91 0;
#X connect 97 0 63 0;
#X connect 97 0 101 0;
#X connect 98 0 99 0;
#X connect 99 0 89 1;
#X connect 100 0 98 0;
#X connect 101 0 94 0;
#X connect 102 0 20 0;
#X connect 103 0 4 0;
#X connect 103 0 44 0;
#X connect 104 0 30 0;
#X connect 104 1 30 1;
#X connect 105 0 16 0;
#X connect 106 0 26 0;
#X connect 107 0 108 0;
#X connect 108 0 109 0;
#X connect 108 0 138 0;
#X connect 109 0 110 0;
#X connect 110 0 121 0;
#X connect 111 0 112 0;
#X connect 112 0 122 1;
#X connect 112 0 29 1;
#X connect 113 0 120 0;
#X connect 114 0 113 0;
#X connect 115 0 116 0;
#X connect 116 0 117 0;
#X connect 117 0 118 0;
#X connect 118 0 119 0;
#X connect 119 0 114 1;
#X connect 120 0 130 0;
#X connect 121 0 111 0;
#X connect 122 0 103 0;
#X connect 123 0 3 0;
#X connect 123 1 3 1;
#X connect 123 2 3 2;
#X connect 124 0 146 0;
#X connect 125 0 126 0;
#X connect 125 1 128 0;
#X connect 126 0 174 0;
#X connect 127 0 136 0;
#X connect 128 0 129 0;
#X connect 129 0 127 1;
#X connect 130 0 133 0;
#X connect 130 1 132 0;
#X connect 131 0 136 1;
#X connect 132 0 131 0;
#X connect 133 0 125 0;
#X connect 136 0 145 0;
#X connect 136 1 145 1;
#X connect 137 0 123 0;
#X connect 137 1 123 1;
#X connect 138 0 139 0;
#X connect 139 0 140 0;
#X connect 140 0 141 0;
#X connect 141 0 142 0;
#X connect 142 0 143 0;
#X connect 142 0 144 0;
#X connect 142 0 148 0;
#X connect 143 0 104 2;
#X connect 144 0 136 2;
#X connect 145 0 124 0;
#X connect 145 1 124 1;
#X connect 145 2 124 2;
#X connect 146 0 147 0;
#X connect 147 0 134 0;
#X connect 147 0 135 0;
#X connect 148 0 137 2;
#X connect 149 0 164 0;
#X connect 149 1 164 0;
#X connect 152 0 153 0;
#X connect 153 0 157 0;
#X connect 154 0 155 0;
#X connect 154 1 151 0;
#X connect 154 1 159 0;
#X connect 155 0 156 0;
#X connect 156 0 151 0;
#X connect 157 0 164 1;
#X connect 158 0 152 0;
#X connect 159 0 155 0;
#X connect 160 0 161 0;
#X connect 160 1 163 0;
#X connect 160 1 11 0;
#X connect 161 0 162 0;
#X connect 162 0 11 0;
#X connect 163 0 161 0;
#X connect 164 0 169 0;
#X connect 165 0 31 0;
#X connect 166 0 46 0;
#X connect 167 0 158 0;
#X connect 168 0 171 0;
#X connect 169 0 150 0;
#X connect 170 0 164 0;
#X connect 171 0 13 0;
#X connect 172 0 71 0;
#X connect 173 0 8 0;
#X connect 174 0 127 0;
#X connect 175 0 179 0;
#X connect 176 0 181 0;
#X connect 177 0 175 0;
#X connect 177 1 175 1;
#X connect 178 0 175 0;
#X connect 178 1 175 2;
#X connect 179 0 176 0;
#X connect 179 1 180 0;
#X connect 181 0 182 0;
#X connect 184 0 187 0;
#X connect 185 0 188 0;
#X connect 186 0 189 0;
#X connect 187 0 175 0;
#X connect 188 0 177 0;
#X connect 189 0 178 0;
#X connect 190 0 160 0;
#X connect 191 0 154 0;
#X connect 192 0 167 0;
