#N canvas 73 143 1455 794 12;
#X msg 108 307 0 2 4 5 7 9 11;
#X obj 108 331 array set \$0-scale;
#X obj 148 365 array define -k -yrange 0 11 \$0-scale 7;
#A 0 0 2 4 5 7 9 11;
#X obj 108 278 loadbang;
#X obj 604 453 makenote 127 100;
#X obj 604 501 pack f f f;
#X obj 604 646 throw~ \$0-output;
#X obj 91 419 catch~ \$0-output;
#X msg 954 278 4;
#X obj 827 351 until;
#X obj 857 380 i;
#X obj 897 380 + 1;
#X msg 929 341 0;
#X obj 483 216 t f f;
#X obj 483 245 % 7;
#X obj 585 298 +;
#X obj 603 245 div 7;
#X obj 603 269 * 12;
#X obj 857 409 sel 0;
#X msg 857 438 0;
#X obj 889 497 +;
#X obj 929 497 i;
#X obj 919 579 list prepend;
#X obj 1019 579 t l;
#X obj 954 302 t f b b;
#X obj 889 550 +;
#X msg 889 438 bang;
#X obj 604 477 poly 6 1;
#X obj 604 525 clone -s 1 harp~ 6;
#X obj 202 217 tgl 19 0 empty empty empty 0 -10 0 12 #00ff04 #000000 #000000 0 1;
#X obj 919 608 array set \$0-chord;
#X obj 949 632 array define \$0-chord 4;
#X obj 483 187 tabread \$0-chord;
#X obj 626 95 t b b;
#X obj 658 249 random 127;
#X obj 585 405 + 60;
#X obj 483 134 else/count 0 3;
#X obj 202 241 metro 250;
#X obj 172 555 loadbang;
#X obj 172 603 unpack f f f;
#X obj 795 177 select 0;
#X obj 889 468 else/rand.i 1 2;
#X obj 970 531 else/rand.i 0 6;
#X obj 483 158 t f f;
#X obj 954 249 loadbang;
#X obj 604 588 else/highshelf~ 6000 0.4 -6;
#X obj 604 617 else/lowshelf~ 500 0.4 -12;
#X obj 685 352 * 12;
#X obj 685 376 + 60;
#X obj 685 328 else/rand.i -1 0;
#X obj 149 502 hip~ 1000;
#X obj 149 526 else/lowpass~ 4000 0.4;
#X obj 148 660 hip~ 200;
#X obj 658 413 clip 1 127;
#X obj 658 273 + 127;
#X obj 1233 444 makenote 127 100;
#X obj 1233 492 pack f f f;
#X obj 1123 290 t f f;
#X obj 1123 319 % 7;
#X obj 1225 372 +;
#X obj 1243 319 div 7;
#X obj 1243 343 * 12;
#X obj 1233 468 poly 6 1;
#X obj 1123 261 tabread \$0-chord;
#X obj 1141 171 t b b;
#X obj 1123 232 t f f;
#X obj 1287 264 + 60;
#X obj 1287 240 random 63;
#X obj 1225 396 + 72;
#X obj 1233 516 clone -s 1 leadharp~ 6;
#X msg 172 579 1 0.5 0.9;
#X obj 1123 208 else/rand.u 14;
#X obj 148 473 *~ 0.5;
#X obj 148 632 re.plate-1~;
#X obj 105 216 switch~;
#X obj 91 747 throw~ \$1-emotionAudio;
#X msg 328 654 \$1 1000;
#X obj 328 678 line~;
#X obj 91 722 *~;
#X obj 328 601 * 0.3;
#X obj 328 625 pow 2;
#X obj 328 702 sqrt~;
#X obj 73 97 sel 0;
#X obj 73 162 delay 1000;
#X msg 73 187 0;
#X msg 93 133 stop;
#X obj 203 97 sel 0;
#X obj 203 162 delay 1000;
#X msg 203 187 0;
#X msg 223 133 stop;
#X obj 1233 540 *~ 0.2;
#X obj 302 86 loadbang;
#X msg 302 110 60000 80;
#X obj 302 134 /;
#X obj 302 182 t f f;
#X obj 334 211 s \$0-duracion;
#X obj 1141 142 else/chance 50;
#X obj 202 265 s \$0-clock;
#X obj 795 225 select 0;
#X obj 795 201 else/count 0 4;
#X obj 795 249 t b b;
#X obj 626 66 r \$0-clock;
#X obj 1141 113 r \$0-clock;
#X obj 604 559 +~;
#X obj 91 693 +~;
#X obj 302 158 / 1;
#X obj 483 269 tabread \$1-scale;
#X obj 1123 343 tabread \$1-scale;
#X obj 519 792 expr $f1 + $f2 + $f3;
#X obj 519 855 > 0;
#X obj 477 729 == 1;
#X obj 587 729 == 1;
#X obj 697 729 == 1;
#X obj 587 753 t b f;
#X obj 697 753 t b f;
#X obj 519 816 t f f;
#X obj 551 845 s \$0-intensity;
#X obj 519 879 change -1;
#X obj 519 903 s \$0-active;
#X text 477 685 // Emotion intensity and activity;
#X obj 477 705 r \$1-emotion-3;
#X obj 587 705 r \$1-emotion-2;
#X obj 697 705 r \$1-emotion-1;
#X obj 203 73 r \$0-active;
#X obj 73 73 r \$0-active;
#X obj 328 577 r \$0-active;
#X connect 0 0 1 0;
#X connect 3 0 0 0;
#X connect 4 0 27 0;
#X connect 4 1 27 1;
#X connect 5 0 28 0;
#X connect 7 0 72 0;
#X connect 7 0 104 0;
#X connect 8 0 24 0;
#X connect 9 0 10 0;
#X connect 10 0 11 0;
#X connect 10 0 18 0;
#X connect 11 0 10 1;
#X connect 12 0 10 1;
#X connect 12 0 21 0;
#X connect 13 0 14 0;
#X connect 13 1 16 0;
#X connect 14 0 106 0;
#X connect 15 0 35 0;
#X connect 16 0 17 0;
#X connect 17 0 15 1;
#X connect 18 0 19 0;
#X connect 18 1 26 0;
#X connect 19 0 20 0;
#X connect 20 0 21 0;
#X connect 20 0 25 0;
#X connect 21 0 20 1;
#X connect 22 0 23 0;
#X connect 22 0 30 0;
#X connect 23 0 22 1;
#X connect 24 0 9 0;
#X connect 24 1 12 0;
#X connect 24 2 22 1;
#X connect 24 2 42 0;
#X connect 25 0 22 0;
#X connect 26 0 41 0;
#X connect 27 0 5 0;
#X connect 27 1 5 1;
#X connect 27 2 5 2;
#X connect 28 0 103 0;
#X connect 29 0 37 0;
#X connect 32 0 13 0;
#X connect 33 0 36 0;
#X connect 33 1 34 0;
#X connect 34 0 54 0;
#X connect 35 0 4 0;
#X connect 36 0 43 0;
#X connect 37 0 97 0;
#X connect 38 0 70 0;
#X connect 39 0 73 1;
#X connect 39 1 73 2;
#X connect 39 2 73 3;
#X connect 40 0 99 0;
#X connect 41 0 20 0;
#X connect 42 0 25 1;
#X connect 43 0 32 0;
#X connect 43 1 40 0;
#X connect 44 0 8 0;
#X connect 45 0 46 0;
#X connect 46 0 6 0;
#X connect 47 0 48 0;
#X connect 48 0 35 1;
#X connect 49 0 47 0;
#X connect 50 0 51 0;
#X connect 51 0 73 0;
#X connect 52 0 104 1;
#X connect 53 0 4 1;
#X connect 54 0 53 0;
#X connect 55 0 62 0;
#X connect 55 1 62 1;
#X connect 56 0 69 0;
#X connect 57 0 58 0;
#X connect 57 1 60 0;
#X connect 58 0 107 0;
#X connect 59 0 68 0;
#X connect 60 0 61 0;
#X connect 61 0 59 1;
#X connect 62 0 56 0;
#X connect 62 1 56 1;
#X connect 62 2 56 2;
#X connect 63 0 57 0;
#X connect 64 0 71 0;
#X connect 64 1 67 0;
#X connect 65 0 63 0;
#X connect 66 0 55 1;
#X connect 67 0 66 0;
#X connect 68 0 55 0;
#X connect 69 0 90 0;
#X connect 70 0 39 0;
#X connect 71 0 65 0;
#X connect 72 0 50 0;
#X connect 73 0 52 0;
#X connect 73 1 52 0;
#X connect 76 0 77 0;
#X connect 77 0 81 0;
#X connect 78 0 75 0;
#X connect 79 0 80 0;
#X connect 80 0 76 0;
#X connect 81 0 78 1;
#X connect 82 0 83 0;
#X connect 82 1 85 0;
#X connect 82 1 74 0;
#X connect 83 0 84 0;
#X connect 84 0 74 0;
#X connect 85 0 83 0;
#X connect 86 0 87 0;
#X connect 86 1 89 0;
#X connect 86 1 29 0;
#X connect 87 0 88 0;
#X connect 88 0 29 0;
#X connect 89 0 87 0;
#X connect 90 0 103 1;
#X connect 91 0 92 0;
#X connect 92 0 93 0;
#X connect 93 0 105 0;
#X connect 94 0 37 1;
#X connect 94 1 95 0;
#X connect 96 0 64 0;
#X connect 98 0 100 0;
#X connect 99 0 98 0;
#X connect 100 0 49 0;
#X connect 100 1 8 0;
#X connect 101 0 33 0;
#X connect 102 0 96 0;
#X connect 103 0 45 0;
#X connect 104 0 78 0;
#X connect 105 0 94 0;
#X connect 106 0 15 0;
#X connect 107 0 59 0;
#X connect 108 0 115 0;
#X connect 109 0 117 0;
#X connect 110 0 108 0;
#X connect 111 0 113 0;
#X connect 112 0 114 0;
#X connect 113 0 108 0;
#X connect 113 1 108 1;
#X connect 114 0 108 0;
#X connect 114 1 108 2;
#X connect 115 0 109 0;
#X connect 115 1 116 0;
#X connect 117 0 118 0;
#X connect 120 0 110 0;
#X connect 121 0 111 0;
#X connect 122 0 112 0;
#X connect 123 0 86 0;
#X connect 124 0 82 0;
#X connect 125 0 79 0;
