#N canvas 0 22 1920 1036 12;
#X obj 302 254 t b b;
#X obj 1138 211 array set \$0-scale;
#X obj 105 688 % 7;
#X obj 204 750 +;
#X obj 235 688 div 7;
#X obj 235 712 * 12;
#X obj 1138 321 array set \$0-prob;
#X obj 100 427 tabread \$0-prob;
#X obj 11 427 random 100;
#X obj 82 456 <;
#X obj 1168 235 array define -yrange 0 12 -k \$0-scale 12;
#A 0 0 1 3 5 7 8 10 0 0 0 0 0;
#X obj 1168 344 array define -yrange 0 100 -k \$0-prob 7;
#A 0 100 100 25 50 100 25 100;
#X obj 82 485 select 1 0;
#X obj 77 337 t b f f;
#X obj 204 942 pack f f f;
#X obj 105 514 f;
#X obj 105 659 t f f;
#X obj 204 808 t f b;
#X msg 1138 187 0 1 3 5 7 8 10;
#X obj 100 398 mod 7;
#X obj 209 596 pipe 20;
#X obj 149 596 pipe 30;
#X text 909 462 pole (%);
#X obj 578 595 +~;
#X obj 876 171 / 100;
#X obj 694 230 +~;
#X obj 575 436 hip~ 100;
#X obj 614 384 else/ffdelay~ 0.5;
#X obj 614 408 *~ 0.33;
#X obj 204 889 makenote 127 4000;
#X obj 77 284 random 5;
#X obj 77 308 - 2;
#X obj 830 480 loadbang;
#X msg 750 509 70;
#X obj 578 624 else/allpass.rev~ 1.5 0.5 1;
#X obj 577 783 else/plate.rev~;
#X obj 576 484 else/eq~ 400 0.4 -6;
#X obj 577 508 else/lowshelf~ 400 1 6;
#X obj 578 672 else/allpass.rev~ 0.5 -0.5 1;
#X obj 578 696 else/allpass.rev~ 3.33 0.5 1;
#X obj 578 648 else/allpass.rev~ 1.637 -0.5 1;
#X obj 575 460 else/eq~ 4000 0.4 12;
#X obj 627 567 *~ 0.5;
#X msg 830 509 -50;
#X obj 695 171 lop~ 2000;
#X obj 209 572 + 7;
#X msg 1138 295 100 100 25 50 100 25 100;
#X obj 149 572 + 4;
#X obj 695 142 clone -s 1 fmVoice~ 4;
#X obj 204 918 poly 4 1;
#X obj 477 166 switch~;
#X obj 597 730 loadbang;
#X obj 445 47 sel 0;
#X obj 445 112 delay 1000;
#X msg 445 137 0;
#X msg 465 83 stop;
#X obj 577 210 osc~ 1000;
#X obj 105 543 t f f f f;
#X obj 876 118 loadbang;
#X msg 876 142 99;
#N canvas 208 208 431 371 4allpassfilters 0;
#X obj 13 80 rpole~;
#X obj 13 55 rzero_rev~;
#X obj 13 134 rpole~;
#X obj 13 109 rzero_rev~;
#X obj 13 188 rpole~;
#X obj 13 163 rzero_rev~;
#X obj 13 242 rpole~;
#X obj 13 217 rzero_rev~;
#X obj 129 12 inlet;
#X obj 129 36 / 100;
#X obj 12 26 inlet~;
#X obj 13 276 outlet~;
#X connect 0 0 3 0;
#X connect 1 0 0 0;
#X connect 2 0 5 0;
#X connect 3 0 2 0;
#X connect 4 0 7 0;
#X connect 5 0 4 0;
#X connect 6 0 11 0;
#X connect 7 0 6 0;
#X connect 8 0 9 0;
#X connect 9 0 1 1;
#X connect 9 0 7 1;
#X connect 9 0 6 1;
#X connect 9 0 5 1;
#X connect 9 0 4 1;
#X connect 9 0 3 1;
#X connect 9 0 2 1;
#X connect 9 0 0 1;
#X connect 10 0 1 0;
#X restore 753 200 pd 4allpassfilters;
#N canvas 208 208 431 371 4allpassfilters 0;
#X obj 13 80 rpole~;
#X obj 13 55 rzero_rev~;
#X obj 13 134 rpole~;
#X obj 13 109 rzero_rev~;
#X obj 13 188 rpole~;
#X obj 13 163 rzero_rev~;
#X obj 13 242 rpole~;
#X obj 13 217 rzero_rev~;
#X obj 129 12 inlet;
#X obj 129 36 / 100;
#X obj 12 26 inlet~;
#X obj 13 276 outlet~;
#X connect 0 0 3 0;
#X connect 1 0 0 0;
#X connect 2 0 5 0;
#X connect 3 0 2 0;
#X connect 4 0 7 0;
#X connect 5 0 4 0;
#X connect 6 0 11 0;
#X connect 7 0 6 0;
#X connect 8 0 9 0;
#X connect 9 0 1 1;
#X connect 9 0 7 1;
#X connect 9 0 6 1;
#X connect 9 0 5 1;
#X connect 9 0 4 1;
#X connect 9 0 3 1;
#X connect 9 0 2 1;
#X connect 9 0 0 1;
#X connect 10 0 1 0;
#X restore 627 538 pd 4allpassfilters;
#N canvas 208 208 431 371 4allpassfilters 0;
#X obj 13 80 rpole~;
#X obj 13 55 rzero_rev~;
#X obj 13 134 rpole~;
#X obj 13 109 rzero_rev~;
#X obj 13 188 rpole~;
#X obj 13 163 rzero_rev~;
#X obj 13 242 rpole~;
#X obj 13 217 rzero_rev~;
#X obj 129 12 inlet;
#X obj 129 36 / 100;
#X obj 12 26 inlet~;
#X obj 13 276 outlet~;
#X connect 0 0 3 0;
#X connect 1 0 0 0;
#X connect 2 0 5 0;
#X connect 3 0 2 0;
#X connect 4 0 7 0;
#X connect 5 0 4 0;
#X connect 6 0 11 0;
#X connect 7 0 6 0;
#X connect 8 0 9 0;
#X connect 9 0 1 1;
#X connect 9 0 7 1;
#X connect 9 0 6 1;
#X connect 9 0 5 1;
#X connect 9 0 4 1;
#X connect 9 0 3 1;
#X connect 9 0 2 1;
#X connect 9 0 0 1;
#X connect 10 0 1 0;
#X restore 707 567 pd 4allpassfilters;
#X obj 204 966 s \$0-notes;
#X obj 695 113 r \$0-notes;
#X obj 575 355 else/lowpass~ 6000 0.4;
#X obj 575 331 else/highpass~ 20 0.4;
#X obj 575 283 else/highpass~ 20 0.4;
#X obj 445 23 r \$0-active;
#X obj 105 712 tabread \$1-scale;
#X obj 243 78 tgl 19 0 empty empty empty 0 -10 0 12 #00ff04 #000000 #000000 0 1;
#X obj 244 -42 sel 0;
#X obj 244 23 delay 1000;
#X msg 244 48 0;
#X msg 264 -6 stop;
#X obj 285 149 s \$0-duracion;
#X obj 244 -66 r \$0-active;
#X obj 285 125 r \$1-duracion;
#X obj 154 73 r \$1-clock;
#X obj 154 145 change -1;
#X obj 154 169 bang;
#X obj 154 97 spigot;
#X obj 154 121 div 16;
#X obj 409 846 r \$0-duracion;
#X obj 204 779 + 36;
#X obj 105 635 + 7;
#X obj 832 891 throw~ \$1-emotionAudio;
#X msg 919 734 \$1 1000;
#X obj 919 758 line~;
#X obj 832 802 *~;
#X obj 919 710 pow 2;
#X obj 919 782 sqrt~;
#X obj 919 652 r \$0-active;
#X obj 1009 523 r \$0-intensity;
#X obj 1009 571 * 12;
#X obj 1009 595 + 100;
#X obj 1009 619 dbtorms;
#X obj 1009 667 t b f;
#X obj 919 686 *;
#X obj 1172 691 expr $f1 + $f2 + $f3;
#X obj 1172 754 > 0;
#X obj 1240 652 t b f;
#X obj 1350 652 t b f;
#X obj 1172 715 t f f;
#X obj 1204 744 s \$0-intensity;
#X obj 1172 778 change -1;
#X obj 1172 802 s \$0-active;
#X text 1130 555 // Emotion intensity and activity;
#X obj 1130 575 r \$1-emotion-3;
#X obj 1240 575 r \$1-emotion-2;
#X obj 1350 575 r \$1-emotion-1;
#X obj 1240 623 * 2;
#X obj 1130 623 * 1;
#X obj 1130 599 == 2;
#X obj 1240 599 == 2;
#X obj 1350 599 == 2;
#X obj 1009 643 * 0.05;
#X obj 302 225 else/chance 100;
#X obj 577 234 *~ 0.5;
#X obj 1350 623 * 4;
#X obj 262 860 + 63;
#X obj 262 836 random 64;
#X obj 955 192 r \$0-intensity;
#X obj 955 216 / 6;
#X obj 955 264 + 100;
#X obj 955 288 dbtorms;
#X obj 955 240 * 30;
#X obj 575 307 else/drive~ 30;
#X obj 1009 547 / 7;
#X obj 409 870 * 4;
#X msg 597 754 damp 0.5 \, wet 1 \, size 0.5 \, pre 0 \, cutoff 0.1;
#X obj 902 826 *~ 0.5;
#X obj 902 861 throw~ \$1-emotionReverb;
#X obj 577 807 *~ 0.5;
#X obj 577 831 hip~ 400;
#X connect 0 0 30 0;
#X connect 2 0 69 0;
#X connect 3 0 84 0;
#X connect 4 0 5 0;
#X connect 5 0 3 1;
#X connect 7 0 9 1;
#X connect 8 0 9 0;
#X connect 9 0 12 0;
#X connect 12 0 15 0;
#X connect 12 1 30 0;
#X connect 13 0 8 0;
#X connect 13 1 19 0;
#X connect 13 2 15 1;
#X connect 14 0 63 0;
#X connect 15 0 57 0;
#X connect 16 0 2 0;
#X connect 16 1 4 0;
#X connect 17 0 29 0;
#X connect 17 1 121 0;
#X connect 18 0 1 0;
#X connect 19 0 7 0;
#X connect 20 0 85 0;
#X connect 21 0 85 0;
#X connect 23 0 34 0;
#X connect 24 0 60 1;
#X connect 25 0 67 0;
#X connect 26 0 41 0;
#X connect 27 0 28 0;
#X connect 28 0 26 0;
#X connect 29 0 49 0;
#X connect 29 1 49 1;
#X connect 30 0 31 0;
#X connect 31 0 13 0;
#X connect 32 0 33 0;
#X connect 32 0 43 0;
#X connect 33 0 61 1;
#X connect 34 0 40 0;
#X connect 35 0 133 0;
#X connect 35 1 133 0;
#X connect 36 0 37 0;
#X connect 37 0 23 0;
#X connect 37 0 61 0;
#X connect 38 0 39 0;
#X connect 39 0 35 0;
#X connect 40 0 38 0;
#X connect 41 0 36 0;
#X connect 42 0 23 1;
#X connect 43 0 62 1;
#X connect 44 0 25 0;
#X connect 44 0 60 0;
#X connect 45 0 20 0;
#X connect 46 0 6 0;
#X connect 47 0 21 0;
#X connect 48 0 44 0;
#X connect 49 0 14 0;
#X connect 49 1 14 1;
#X connect 49 2 14 2;
#X connect 51 0 130 0;
#X connect 52 0 53 0;
#X connect 52 1 50 0;
#X connect 52 1 55 0;
#X connect 53 0 54 0;
#X connect 54 0 50 0;
#X connect 55 0 53 0;
#X connect 56 0 118 0;
#X connect 57 0 85 0;
#X connect 57 1 47 0;
#X connect 57 2 45 0;
#X connect 58 0 59 0;
#X connect 59 0 24 0;
#X connect 60 0 25 1;
#X connect 61 0 42 0;
#X connect 61 0 62 0;
#X connect 62 0 23 1;
#X connect 64 0 48 0;
#X connect 65 0 27 0;
#X connect 65 0 26 0;
#X connect 66 0 65 0;
#X connect 67 0 127 0;
#X connect 68 0 52 0;
#X connect 69 0 3 0;
#X connect 70 0 81 1;
#X connect 71 0 72 0;
#X connect 71 1 74 0;
#X connect 71 1 70 0;
#X connect 72 0 73 0;
#X connect 73 0 70 0;
#X connect 74 0 72 0;
#X connect 76 0 71 0;
#X connect 77 0 75 0;
#X connect 78 0 81 0;
#X connect 79 0 80 0;
#X connect 80 0 117 0;
#X connect 81 0 82 0;
#X connect 82 0 79 0;
#X connect 83 0 129 0;
#X connect 84 0 17 0;
#X connect 85 0 16 0;
#X connect 87 0 88 0;
#X connect 88 0 91 0;
#X connect 89 0 86 0;
#X connect 89 0 131 0;
#X connect 90 0 87 0;
#X connect 91 0 89 1;
#X connect 92 0 98 0;
#X connect 93 0 128 0;
#X connect 94 0 95 0;
#X connect 95 0 96 0;
#X connect 96 0 116 0;
#X connect 97 0 98 0;
#X connect 97 1 98 1;
#X connect 98 0 90 0;
#X connect 99 0 103 0;
#X connect 100 0 105 0;
#X connect 101 0 99 0;
#X connect 101 1 99 1;
#X connect 102 0 99 0;
#X connect 102 1 99 2;
#X connect 103 0 100 0;
#X connect 103 1 104 0;
#X connect 105 0 106 0;
#X connect 108 0 113 0;
#X connect 109 0 114 0;
#X connect 110 0 115 0;
#X connect 111 0 101 0;
#X connect 112 0 99 0;
#X connect 113 0 112 0;
#X connect 114 0 111 0;
#X connect 115 0 119 0;
#X connect 116 0 97 0;
#X connect 117 0 0 0;
#X connect 119 0 102 0;
#X connect 120 0 29 1;
#X connect 121 0 120 0;
#X connect 122 0 123 0;
#X connect 123 0 126 0;
#X connect 124 0 125 0;
#X connect 125 0 127 1;
#X connect 126 0 124 0;
#X connect 127 0 66 0;
#X connect 128 0 94 0;
#X connect 129 0 29 2;
#X connect 130 0 35 0;
#X connect 131 0 132 0;
#X connect 133 0 134 0;
#X connect 134 0 89 0;
