#N canvas 0 23 1280 710 12;
#X obj 23 195 array set \$0-scale;
#X obj 63 229 array define -k -yrange 0 11 \$0-scale 7;
#A 0 0 2 4 6 7 9 11;
#X obj 23 142 loadbang;
#X obj 814 783 pack f f f;
#X obj 831 1013 throw~ \$0-output;
#X obj 704 621 t f f;
#X obj 704 650 % 7;
#X obj 806 703 +;
#X obj 824 650 div 7;
#X obj 824 674 * 12;
#X obj 817 560 t f b;
#X obj 884 618 + 63;
#X obj 884 594 random 32;
#X obj 704 592 + 25;
#X msg 23 171 0 2 4 6 7 9 11;
#X obj 1155 758 pack f f f;
#X obj 1155 782 clone -s 1 organ~ 6;
#X obj 1154 734 poly 6 1;
#X obj 1152 831 else/crossover~ 500;
#X obj 1174 883 sig~ 2;
#X obj 1174 907 pow~;
#X obj 1239 892 +~ 1;
#X obj 1239 916 *~ -0.5;
#X obj 1158 968 +~;
#X obj 1148 932 *~;
#X obj 1346 887 sig~ 2;
#X obj 1346 911 pow~;
#X obj 1411 896 +~ 1;
#X obj 1411 920 *~ -0.5;
#X obj 1320 936 *~;
#X obj 1239 868 osc~ 2;
#X obj 1412 872 osc~ 3.1;
#X obj 1394 655 loadbang;
#X msg 1394 679 1;
#X obj 1394 703 metro 5000;
#X msg 1349 764 \$1 1000;
#X obj 1349 788 line 0 1;
#X msg 1462 797 \$1 1000;
#X obj 1462 821 line 0 1;
#X obj 1349 740 else/rand.f 0.5 4;
#X obj 1462 773 else/rand.f 0.5 4;
#X obj 664 495 else/rand.u 22;
#X obj 664 519 + 7;
#X obj 790 528 - 7;
#X obj 789 473 else/chance 20;
#X obj 663 464 else/chance 50;
#X obj 790 504 else/rand.u 14;
#X obj 1620 273 bng 19 250 50 0 empty empty empty 0 -10 0 12 #fcfcfc #000000 #000000;
#X msg 1620 297 4;
#X obj 1493 370 until;
#X obj 1523 399 i;
#X obj 1563 399 + 1;
#X msg 1595 360 0;
#X obj 1218 330 t f f;
#X obj 1218 359 % 7;
#X obj 1320 412 +;
#X obj 1338 359 div 7;
#X obj 1338 383 * 12;
#X obj 1523 428 sel 0;
#X msg 1523 457 0;
#X obj 1555 516 +;
#X obj 1595 516 i;
#X obj 1585 598 list prepend;
#X obj 1685 598 t l;
#X obj 1620 321 t f b b;
#X obj 1555 569 +;
#X msg 1555 457 bang;
#X obj 1585 627 array set \$0-chord;
#X obj 1615 651 array define \$0-chord 4;
#X obj 1218 301 tabread \$0-chord;
#X obj 1320 436 + 60;
#X obj 1432 200 select 0;
#X obj 1432 224 else/count 1 4;
#X obj 1432 248 select 4;
#X obj 1555 487 else/rand.i 1 2;
#X obj 1636 550 else/rand.i 0 6;
#X obj 1218 272 t f f;
#X obj 1628 230 loadbang;
#X obj 1409 351 * 12;
#X obj 1409 375 + 60;
#X obj 1409 327 else/rand.i -1 0;
#X msg 1695 448 seed 125;
#X obj 1147 702 makenote 127 200;
#X obj 1149 456 r \$0-separacion-s;
#X obj 1149 480 / 127;
#X msg 1149 504 1 \$1;
#X obj 1149 528 -;
#X msg 1149 592 \$1 20;
#X obj 1149 616 line~;
#X obj 529 496 else/rand.u 22;
#X obj 529 520 + 14;
#X obj 1149 552 * 0.1;
#X obj 814 807 clone -s 1 leadorgan~ 2;
#X obj 811 760 poly 2 1;
#X obj 571 1019 pack f f f;
#X obj 461 857 t f f;
#X obj 461 886 % 7;
#X obj 563 939 +;
#X obj 581 886 div 7;
#X obj 581 910 * 12;
#X obj 574 796 t f b;
#X obj 641 854 + 63;
#X obj 641 830 random 32;
#X obj 461 828 + 25;
#X obj 561 1172 throw~ \$0-output;
#X obj 563 963 makenote 127 100;
#X obj 806 727 makenote 127 50;
#X msg 1003 589 1 \$1;
#X obj 1003 613 -;
#X obj 1003 637 * 4;
#X msg 1003 661 2 \$1;
#X obj 1003 685 pow;
#X obj 1253 651 * 100;
#X obj 699 927 * 100;
#X obj 569 996 poly 1 1;
#X obj 571 1043 clone -s 1 leadorgan~ 1;
#X obj 1003 709 * 50;
#X obj 1087 16 switch~;
#X obj 1055 -103 sel 0;
#X obj 1055 -38 delay 1000;
#X msg 1055 -13 0;
#X msg 1075 -67 stop;
#X obj 1155 806 /~ 1;
#X obj 1169 1026 *~ 0.1;
#X obj 1218 383 tabread \$1-scale;
#X obj 704 674 tabread \$1-scale;
#X obj 461 910 tabread \$1-scale;
#X obj 1055 -127 r \$0-active;
#X obj 806 56 tgl 19 0 empty empty empty 0 -10 0 12 #00ff04 #000000 #000000 0 1;
#X obj 807 -64 sel 0;
#X obj 807 1 delay 1000;
#X msg 807 26 0;
#X msg 827 -28 stop;
#X obj 848 127 s \$0-duracion;
#X obj 807 -88 r \$0-active;
#X obj 848 103 r \$1-duracion;
#X obj 717 22 r \$1-clock;
#X obj 606 209 change -1;
#X obj 717 75 spigot;
#X obj 844 182 change -1;
#X obj 606 234 bang;
#X obj 844 207 bang;
#X obj 844 158 div 4;
#X obj 693 1082 *~ 0.1;
#X obj 965 924 *~ 0.1;
#X obj 528 465 else/chance 100;
#X obj 1218 248 % 4;
#X obj 352 83 expr $f1 + $f2 + $f3;
#X obj 352 146 > 0;
#X obj 420 44 t b f;
#X obj 530 44 t b f;
#X obj 352 107 t f f;
#X obj 384 136 s \$0-intensity;
#X obj 352 170 change -1;
#X obj 352 194 s \$0-active;
#X text 310 -53 // Emotion intensity and activity;
#X obj 310 -33 r \$1-emotion-3;
#X obj 420 -33 r \$1-emotion-2;
#X obj 530 -33 r \$1-emotion-1;
#X obj 420 15 * 2;
#X obj 310 15 * 1;
#X obj 310 -9 == 4;
#X obj 420 -9 == 4;
#X obj 530 -9 == 4;
#X obj 74 675 catch~ \$0-output;
#X obj 74 992 throw~ \$1-emotionAudio;
#X msg 161 815 \$1 1000;
#X obj 161 839 line~;
#X obj 74 883 *~;
#X obj 161 791 pow 2;
#X obj 161 863 sqrt~;
#X obj 161 733 r \$0-active;
#X obj 131 965 throw~ \$1-emotionReverb;
#X obj 251 604 r \$0-intensity;
#X obj 251 652 * 12;
#X obj 251 676 + 100;
#X obj 251 700 dbtorms;
#X obj 251 748 t b f;
#X obj 161 767 *;
#X obj 74 965 *~ 0.5;
#X obj 131 912 *~ 1;
#X obj 1161 1075 throw~ \$0-output;
#X obj 131 936 hip~ 500;
#X obj 251 724 * 0.3;
#X obj 530 15 * 4;
#X obj 606 185 div 4;
#X obj 251 628 / 7;
#X obj 717 46 + 1;
#X connect 2 0 14 0;
#X connect 3 0 92 0;
#X connect 5 0 6 0;
#X connect 5 1 8 0;
#X connect 6 0 125 0;
#X connect 7 0 106 0;
#X connect 8 0 9 0;
#X connect 9 0 7 1;
#X connect 10 0 13 0;
#X connect 10 1 12 0;
#X connect 11 0 106 1;
#X connect 12 0 11 0;
#X connect 13 0 5 0;
#X connect 14 0 0 0;
#X connect 15 0 16 0;
#X connect 16 0 122 0;
#X connect 17 0 15 0;
#X connect 17 1 15 1;
#X connect 17 2 15 2;
#X connect 18 0 24 0;
#X connect 18 1 29 0;
#X connect 19 0 20 0;
#X connect 20 0 24 1;
#X connect 21 0 22 0;
#X connect 22 0 20 1;
#X connect 23 0 123 0;
#X connect 24 0 23 0;
#X connect 25 0 26 0;
#X connect 26 0 29 1;
#X connect 27 0 28 0;
#X connect 28 0 26 1;
#X connect 29 0 23 1;
#X connect 30 0 21 0;
#X connect 31 0 27 0;
#X connect 32 0 33 0;
#X connect 33 0 34 0;
#X connect 34 0 39 0;
#X connect 34 0 40 0;
#X connect 35 0 36 0;
#X connect 36 0 30 0;
#X connect 37 0 38 0;
#X connect 38 0 31 0;
#X connect 39 0 35 0;
#X connect 40 0 37 0;
#X connect 41 0 42 0;
#X connect 42 0 10 0;
#X connect 43 0 10 0;
#X connect 44 0 46 0;
#X connect 45 0 41 0;
#X connect 46 0 43 0;
#X connect 47 0 48 0;
#X connect 47 0 80 0;
#X connect 48 0 64 0;
#X connect 49 0 50 0;
#X connect 50 0 51 0;
#X connect 50 0 58 0;
#X connect 51 0 50 1;
#X connect 52 0 50 1;
#X connect 52 0 61 0;
#X connect 53 0 54 0;
#X connect 53 1 56 0;
#X connect 54 0 124 0;
#X connect 55 0 70 0;
#X connect 56 0 57 0;
#X connect 57 0 55 1;
#X connect 58 0 59 0;
#X connect 58 1 66 0;
#X connect 59 0 60 0;
#X connect 60 0 61 0;
#X connect 60 0 65 0;
#X connect 61 0 60 1;
#X connect 62 0 63 0;
#X connect 62 0 67 0;
#X connect 63 0 62 1;
#X connect 64 0 49 0;
#X connect 64 1 52 0;
#X connect 64 2 62 1;
#X connect 64 2 75 0;
#X connect 65 0 62 0;
#X connect 66 0 74 0;
#X connect 69 0 53 0;
#X connect 70 0 82 0;
#X connect 71 0 72 0;
#X connect 72 0 73 0;
#X connect 73 0 47 0;
#X connect 74 0 60 0;
#X connect 75 0 65 1;
#X connect 76 0 69 0;
#X connect 76 1 71 0;
#X connect 77 0 47 0;
#X connect 77 0 81 0;
#X connect 78 0 79 0;
#X connect 79 0 70 1;
#X connect 80 0 78 0;
#X connect 81 0 74 0;
#X connect 82 0 17 0;
#X connect 82 1 17 1;
#X connect 83 0 84 0;
#X connect 84 0 85 0;
#X connect 84 0 107 0;
#X connect 85 0 86 0;
#X connect 86 0 91 0;
#X connect 87 0 88 0;
#X connect 88 0 92 1;
#X connect 88 0 16 1;
#X connect 89 0 90 0;
#X connect 90 0 100 0;
#X connect 91 0 87 0;
#X connect 92 0 144 0;
#X connect 93 0 3 0;
#X connect 93 1 3 1;
#X connect 93 2 3 2;
#X connect 94 0 115 0;
#X connect 95 0 96 0;
#X connect 95 1 98 0;
#X connect 96 0 126 0;
#X connect 97 0 105 0;
#X connect 98 0 99 0;
#X connect 99 0 97 1;
#X connect 100 0 103 0;
#X connect 100 1 102 0;
#X connect 101 0 105 1;
#X connect 102 0 101 0;
#X connect 103 0 95 0;
#X connect 105 0 114 0;
#X connect 105 1 114 1;
#X connect 106 0 93 0;
#X connect 106 1 93 1;
#X connect 107 0 108 0;
#X connect 108 0 109 0;
#X connect 109 0 110 0;
#X connect 110 0 111 0;
#X connect 111 0 112 0;
#X connect 111 0 113 0;
#X connect 111 0 116 0;
#X connect 112 0 82 2;
#X connect 113 0 105 2;
#X connect 114 0 94 0;
#X connect 114 1 94 1;
#X connect 114 2 94 2;
#X connect 115 0 143 0;
#X connect 116 0 106 2;
#X connect 118 0 119 0;
#X connect 118 1 117 0;
#X connect 118 1 121 0;
#X connect 119 0 120 0;
#X connect 120 0 117 0;
#X connect 121 0 119 0;
#X connect 122 0 18 0;
#X connect 123 0 181 0;
#X connect 124 0 55 0;
#X connect 125 0 7 0;
#X connect 126 0 97 0;
#X connect 127 0 118 0;
#X connect 128 0 138 1;
#X connect 129 0 130 0;
#X connect 129 1 132 0;
#X connect 129 1 128 0;
#X connect 130 0 131 0;
#X connect 131 0 128 0;
#X connect 132 0 130 0;
#X connect 134 0 129 0;
#X connect 135 0 133 0;
#X connect 136 0 187 0;
#X connect 137 0 140 0;
#X connect 137 0 146 0;
#X connect 138 0 142 0;
#X connect 138 0 185 0;
#X connect 139 0 141 0;
#X connect 140 0 145 0;
#X connect 141 0 44 0;
#X connect 141 0 45 0;
#X connect 142 0 139 0;
#X connect 143 0 104 0;
#X connect 144 0 4 0;
#X connect 145 0 89 0;
#X connect 146 0 76 0;
#X connect 147 0 151 0;
#X connect 148 0 153 0;
#X connect 149 0 147 0;
#X connect 149 1 147 1;
#X connect 150 0 147 0;
#X connect 150 1 147 2;
#X connect 151 0 148 0;
#X connect 151 1 152 0;
#X connect 153 0 154 0;
#X connect 156 0 161 0;
#X connect 157 0 162 0;
#X connect 158 0 163 0;
#X connect 159 0 149 0;
#X connect 160 0 147 0;
#X connect 161 0 160 0;
#X connect 162 0 159 0;
#X connect 163 0 184 0;
#X connect 164 0 168 0;
#X connect 166 0 167 0;
#X connect 167 0 170 0;
#X connect 168 0 179 0;
#X connect 168 0 180 0;
#X connect 169 0 166 0;
#X connect 170 0 168 1;
#X connect 171 0 178 0;
#X connect 173 0 186 0;
#X connect 174 0 175 0;
#X connect 175 0 176 0;
#X connect 176 0 183 0;
#X connect 177 0 178 0;
#X connect 177 1 178 1;
#X connect 178 0 169 0;
#X connect 179 0 165 0;
#X connect 180 0 182 0;
#X connect 182 0 172 0;
#X connect 183 0 177 0;
#X connect 184 0 150 0;
#X connect 185 0 137 0;
#X connect 186 0 174 0;
#X connect 187 0 138 0;
