#N canvas 175 207 1589 813 12;
#X obj 156 22 inlet;
#X obj 155 48 unpack f f;
#X obj 181 258 mtof;
#X obj 181 282 phasor~;
#X obj 181 516 cos~;
#X obj 419 275 / 127;
#X obj 419 298 t f f;
#X obj 419 351 sqrt;
#X obj 469 351 sqrt;
#X obj 346 430 vline~;
#X obj 231 385 cos~;
#X obj 231 418 *~ 0.16;
#X obj 231 461 *~;
#X obj 198 722 outlet~;
#X obj 201 604 *~;
#X obj 527 480 loadbang;
#X obj 527 528 osc~;
#X obj 112 497 cos~;
#X obj 116 447 *~ 8;
#X obj 440 541 sig~ 2;
#X obj 440 565 pow~;
#X obj 527 552 +~ 1;
#X obj 264 67 > 0;
#X obj 156 97 list prepend;
#X obj 156 121 route 1;
#X obj 337 252 f;
#X obj 419 374 pack f f f;
#X obj 156 145 t b f;
#X obj 264 290 sel 0;
#X msg 555 220 1000 \$1;
#X obj 555 244 /;
#X msg 418 397 \$1 0.1 \, \$2 \$3 0.1;
#X obj 469 327 * 0.01;
#X obj 264 314 f;
#X msg 264 338 0 \$1;
#X obj 663 213 inlet;
#X obj 228 641 *~;
#X obj 527 504 else/rand.f 0.1 1;
#X obj 112 521 /~ 8;
#X obj 527 576 *~ -0.3;
#X obj 118 588 *~;
#X obj 557 291 / 1;
#X obj 193 169 t f b;
#X obj 193 213 +;
#X obj 347 455 pow~ 2;
#X obj 557 267 * 1024;
#X obj 391 62 r dominance;
#X obj 370 185 else/rand.f 0 0;
#X obj 497 117 r dominance;
#X obj 423 149 * -2;
#X obj 497 141 * 2;
#X connect 0 0 1 0;
#X connect 1 0 23 0;
#X connect 1 1 22 0;
#X connect 1 1 25 1;
#X connect 2 0 3 0;
#X connect 2 0 29 0;
#X connect 3 0 4 0;
#X connect 3 0 10 0;
#X connect 3 0 18 0;
#X connect 4 0 14 0;
#X connect 5 0 6 0;
#X connect 6 0 7 0;
#X connect 6 1 32 0;
#X connect 7 0 26 0;
#X connect 8 0 26 1;
#X connect 9 0 44 0;
#X connect 10 0 11 0;
#X connect 11 0 12 0;
#X connect 12 0 4 0;
#X connect 12 0 17 0;
#X connect 14 0 36 0;
#X connect 14 0 13 0;
#X connect 15 0 37 0;
#X connect 16 0 21 0;
#X connect 17 0 38 0;
#X connect 18 0 17 0;
#X connect 19 0 20 0;
#X connect 20 0 36 1;
#X connect 21 0 39 0;
#X connect 22 0 23 1;
#X connect 22 0 28 0;
#X connect 23 0 24 0;
#X connect 24 0 27 0;
#X connect 25 0 5 0;
#X connect 26 0 31 0;
#X connect 27 0 25 0;
#X connect 27 1 42 0;
#X connect 28 0 33 0;
#X connect 29 0 30 0;
#X connect 30 0 45 0;
#X connect 31 0 9 0;
#X connect 32 0 8 0;
#X connect 33 0 34 0;
#X connect 34 0 9 0;
#X connect 37 0 16 0;
#X connect 38 0 40 0;
#X connect 39 0 20 1;
#X connect 40 0 14 0;
#X connect 41 0 33 1;
#X connect 42 0 43 0;
#X connect 42 1 47 0;
#X connect 43 0 2 0;
#X connect 44 0 14 1;
#X connect 44 0 12 1;
#X connect 44 0 40 1;
#X connect 45 0 26 2;
#X connect 45 0 41 0;
#X connect 47 0 43 1;
#X connect 48 0 49 0;
#X connect 48 0 50 0;
#X connect 49 0 47 1;
#X connect 50 0 47 2;
