#N canvas 242 233 1153 612 12;
#X obj 153 71 inlet;
#X obj 153 95 unpack f f;
#X obj 220 137 > 0;
#X obj 153 172 list prepend;
#X obj 153 196 route 1;
#X msg 153 280 1000 \$1;
#X obj 153 304 /;
#X msg 153 328 0 \, 1 \$1;
#X obj 153 352 vline~;
#X obj 153 376 -~ 0.25;
#X obj 153 400 cos~;
#X obj 109 446 *~ 2;
#X obj 283 487 +~;
#X obj 282 574 delwrite~ \$0-delay 100;
#X obj 331 323 delread4~ \$0-delay;
#X obj 418 511 outlet~;
#X obj 263 114 sel 0;
#X obj 295 145 - 1;
#X obj 295 169 / 126;
#X obj 295 193 s \$0-velocity;
#X obj 216 391 r \$0-velocity;
#X obj 153 220 mtof;
#X obj 6 313 noise~;
#X obj 11 379 *~;
#X obj 71 317 / 2;
#X msg 71 341 1 \$1 \, 0 \$1 \$1;
#X obj 71 365 vline~;
#X obj 6 337 lop~;
#N canvas 110 142 450 300 tanh~ 0;
#X obj 12 12 inlet~;
#X obj 12 38 clip~ -3 3;
#X obj 27 64 *~;
#X obj 12 192 outlet~;
#X obj 27 140 /~;
#X obj 12 166 *~;
#X obj 67 90 *~ 9;
#X text 92 42 // http://www.musicdsp.org/showone.php?id=238;
#X text 92 62 // y = x * (27 + x^2) / (27 + 9*x^2);
#X obj 27 90 +~ 27;
#X obj 67 116 +~ 27;
#X text 92 22 // pade-approximation of tanh function;
#X connect 0 0 1 0;
#X connect 1 0 2 0;
#X connect 1 0 2 1;
#X connect 1 0 5 0;
#X connect 2 0 9 0;
#X connect 2 0 6 0;
#X connect 4 0 5 1;
#X connect 5 0 3 0;
#X connect 6 0 10 0;
#X connect 9 0 4 0;
#X connect 10 0 4 1;
#X restore 188 487 pd tanh~;
#X obj 331 396 *~ 0.99;
#X obj 331 371 hip~ 10;
#X obj 367 475 *~;
#X obj 216 439 + 0.01;
#X obj 216 415 * 0.99;
#X obj 508 186 t f b;
#X msg 535 207 0.001;
#X obj 535 228 log;
#X obj 508 249 *;
#X obj 508 297 exp;
#X obj 508 275 / 8000;
#X msg 339 526 clear;
#X obj 507 409 block~ 2 1 1;
#X obj 331 347 lop~ 6000;
#X connect 0 0 1 0;
#X connect 1 0 3 0;
#X connect 1 1 2 0;
#X connect 1 1 16 0;
#X connect 2 0 3 1;
#X connect 3 0 4 0;
#X connect 4 0 21 0;
#X connect 4 0 40 0;
#X connect 5 0 6 0;
#X connect 6 0 7 0;
#X connect 6 0 14 0;
#X connect 6 0 24 0;
#X connect 6 0 34 0;
#X connect 7 0 8 0;
#X connect 8 0 9 0;
#X connect 8 0 31 0;
#X connect 9 0 10 0;
#X connect 10 0 11 0;
#X connect 11 0 28 0;
#X connect 12 0 13 0;
#X connect 12 0 31 1;
#X connect 14 0 42 0;
#X connect 16 1 17 0;
#X connect 17 0 18 0;
#X connect 18 0 19 0;
#X connect 20 0 33 0;
#X connect 21 0 5 0;
#X connect 21 0 27 1;
#X connect 22 0 27 0;
#X connect 23 0 11 0;
#X connect 24 0 25 0;
#X connect 25 0 26 0;
#X connect 26 0 23 1;
#X connect 27 0 23 0;
#X connect 28 0 12 0;
#X connect 29 0 12 1;
#X connect 30 0 29 0;
#X connect 31 0 15 0;
#X connect 32 0 11 1;
#X connect 33 0 32 0;
#X connect 34 0 37 0;
#X connect 34 1 35 0;
#X connect 35 0 36 0;
#X connect 36 0 37 1;
#X connect 37 0 39 0;
#X connect 38 0 29 1;
#X connect 39 0 38 0;
#X connect 40 0 13 0;
#X connect 42 0 30 0;
