#N canvas 242 233 1153 612 12;
#X obj 388 158 inlet;
#X obj 388 182 unpack f f;
#X obj 388 206 mtof;
#X obj 388 230 phasor~;
#X obj 248 274 *~ 1;
#X obj 248 368 cos~;
#X obj 248 392 *~ 0.5;
#X obj 756 518 *~;
#X obj 308 368 cos~;
#X obj 368 368 cos~;
#X obj 428 368 cos~;
#X obj 488 368 cos~;
#X obj 548 368 cos~;
#X obj 608 368 cos~;
#X obj 308 274 *~ 2;
#X obj 756 542 outlet~;
#X obj 248 298 -~ 0.25;
#X obj 308 298 -~ 0.25;
#X obj 368 298 -~ 0.25;
#X obj 428 298 -~ 0.25;
#X obj 488 298 -~ 0.25;
#X obj 548 298 -~ 0.25;
#X obj 608 298 -~ 0.25;
#X obj 608 274 *~ 16;
#X obj 548 274 *~ 8;
#X obj 368 274 *~ 4;
#X obj 428 274 *~ 6;
#X obj 488 274 *~ 3;
#X obj 739 257 sel 0;
#X obj 748 321 line~;
#X obj 748 345 *~;
#X msg 736 281 0 10;
#X msg 824 277 1 10;
#X obj 864 514 delwrite~ \$0-feedback;
#X obj 745 104 delread~ \$0-feedback;
#X obj 803 174 *~;
#X obj 924 84 inlet~;
#X obj 548 392 *~ 0.01;
#X obj 608 392 *~ 0.01;
#X obj 488 392 *~ 0.01;
#X obj 428 392 *~ 0.01;
#X obj 368 392 *~ 0.01;
#X obj 308 392 *~ 0.5;
#X connect 0 0 1 0;
#X connect 1 0 2 0;
#X connect 1 1 28 0;
#X connect 2 0 3 0;
#X connect 3 0 4 0;
#X connect 3 0 14 0;
#X connect 3 0 23 0;
#X connect 3 0 24 0;
#X connect 3 0 25 0;
#X connect 3 0 26 0;
#X connect 3 0 27 0;
#X connect 4 0 16 0;
#X connect 5 0 6 0;
#X connect 6 0 7 0;
#X connect 7 0 15 0;
#X connect 7 0 33 0;
#X connect 8 0 42 0;
#X connect 9 0 41 0;
#X connect 10 0 40 0;
#X connect 11 0 39 0;
#X connect 12 0 37 0;
#X connect 13 0 38 0;
#X connect 14 0 17 0;
#X connect 16 0 5 0;
#X connect 17 0 8 0;
#X connect 18 0 9 0;
#X connect 19 0 10 0;
#X connect 20 0 11 0;
#X connect 21 0 12 0;
#X connect 22 0 13 0;
#X connect 23 0 22 0;
#X connect 24 0 21 0;
#X connect 25 0 18 0;
#X connect 26 0 19 0;
#X connect 27 0 20 0;
#X connect 28 0 31 0;
#X connect 28 1 32 0;
#X connect 29 0 30 0;
#X connect 29 0 30 1;
#X connect 30 0 7 1;
#X connect 31 0 29 0;
#X connect 32 0 29 0;
#X connect 34 0 35 0;
#X connect 35 0 22 0;
#X connect 35 0 21 0;
#X connect 35 0 20 0;
#X connect 35 0 19 0;
#X connect 35 0 18 0;
#X connect 35 0 17 0;
#X connect 35 0 16 0;
#X connect 36 0 35 1;
#X connect 37 0 7 0;
#X connect 38 0 7 0;
#X connect 39 0 7 0;
#X connect 40 0 7 0;
#X connect 41 0 7 0;
#X connect 42 0 7 0;
