#N canvas 151 0 1569 988 12;
#X obj 302 254 t b b;
#X obj 1138 211 array set \$0-scale;
#X obj 105 688 % 7;
#X obj 105 712 tabread \$0-scale;
#X obj 204 750 +;
#X obj 235 688 div 7;
#X obj 235 712 * 12;
#X obj 1138 321 array set \$0-prob;
#X obj 100 427 tabread \$0-prob;
#X obj 11 427 random 100;
#X obj 82 456 <;
#X obj 1168 235 array define -yrange 0 12 -k \$0-scale 12;
#A 0 0 1 3 5 7 8 10 0 0 0 0 0;
#X obj 1168 344 array define -yrange 0 100 -k \$0-prob 7;
#A 0 100 100 25 50 100 25 100;
#X obj 82 485 select 1 0;
#X obj 77 337 t b f f;
#X obj 204 942 pack f f f;
#X obj 302 171 tgl 19 0 empty empty empty 0 -10 0 12 #00ff04 #000000 #000000 0 1;
#X obj 105 514 f;
#X obj 105 659 t f f;
#X obj 204 808 t f b;
#X obj 577 864 else/drive~;
#X msg 1138 187 0 1 3 5 7 8 10;
#X obj 100 398 mod 7;
#X obj 209 596 pipe 20;
#X obj 149 596 pipe 30;
#X obj 279 596 pipe 40;
#X text 909 462 pole (%);
#X obj 578 595 +~;
#X obj 876 171 / 100;
#X obj 694 230 +~;
#X obj 576 436 hip~ 100;
#X obj 616 384 else/ffdelay~ 0.5;
#X obj 616 408 *~ 0.33;
#X obj 204 889 makenote 127 4000;
#X obj 105 635 + 7;
#X obj 77 284 random 5;
#X obj 77 308 - 2;
#X obj 830 480 loadbang;
#X msg 750 509 70;
#X obj 578 624 else/allpass.rev~ 1.5 0.5 1;
#X obj 577 807 else/plate.rev~;
#X obj 576 484 else/eq~ 400 0.4 -6;
#X obj 577 508 else/lowshelf~ 400 1 6;
#X obj 578 696 else/allpass.rev~ 0.5 -0.5 1;
#X obj 578 720 else/allpass.rev~ 3.33 0.5 1;
#X obj 578 672 else/allpass.rev~ 0.123 0.5 1;
#X obj 578 648 else/allpass.rev~ 1.637 -0.5 1;
#X obj 575 460 else/eq~ 4000 0.4 12;
#X obj 627 567 *~ 0.5;
#X msg 830 509 -50;
#X obj 262 860 + 1;
#X obj 262 836 random 127;
#X obj 695 171 lop~ 2000;
#X obj 204 779 + 30;
#X obj 209 572 + 7;
#X obj 334 736 random 6;
#X msg 1138 295 100 100 25 50 100 25 100;
#X obj 149 572 + 4;
#X obj 334 760 + 30;
#X obj 695 142 clone -s 1 fmVoice~ 4;
#X obj 204 918 poly 4 1;
#X obj 577 888 throw~ \$1-emotionAudio;
#X obj 477 166 switch~;
#X obj 445 -1 r \$1-emotion-s;
#X obj 445 23 == 2;
#X obj 606 749 loadbang;
#X obj 873 673 r \$1-emotion-s;
#X obj 873 697 == 2;
#X msg 873 769 \$1 1000;
#X obj 873 793 line~;
#X obj 577 835 *~;
#X obj 445 47 sel 0;
#X obj 445 112 delay 1000;
#X msg 445 137 0;
#X obj 873 721 * 0.02;
#X obj 873 817 sqrt~;
#X obj 873 745 pow 2;
#X msg 465 83 stop;
#X obj 302 4 r \$1-emotion-s;
#X obj 302 28 == 2;
#X obj 302 52 sel 0;
#X obj 302 117 delay 1000;
#X msg 302 142 0;
#X msg 322 88 stop;
#X obj 577 210 osc~ 1000;
#X obj 577 234 *~ 0.002;
#X obj 302 200 metro 2000;
#X obj 105 543 t f f f f;
#X obj 279 572 + 8;
#X obj 876 118 loadbang;
#X msg 876 142 99;
#X msg 606 778 damp 0 \, wet 1 \, size 0.1;
#N canvas 208 208 431 371 4allpassfilters 0;
#X obj 13 80 rpole~;
#X obj 13 55 rzero_rev~;
#X obj 13 134 rpole~;
#X obj 13 109 rzero_rev~;
#X obj 13 188 rpole~;
#X obj 13 163 rzero_rev~;
#X obj 13 242 rpole~;
#X obj 13 217 rzero_rev~;
#X obj 129 12 inlet;
#X obj 129 36 / 100;
#X obj 12 26 inlet~;
#X obj 13 276 outlet~;
#X connect 0 0 3 0;
#X connect 1 0 0 0;
#X connect 2 0 5 0;
#X connect 3 0 2 0;
#X connect 4 0 7 0;
#X connect 5 0 4 0;
#X connect 6 0 11 0;
#X connect 7 0 6 0;
#X connect 8 0 9 0;
#X connect 9 0 1 1;
#X connect 9 0 7 1;
#X connect 9 0 6 1;
#X connect 9 0 5 1;
#X connect 9 0 4 1;
#X connect 9 0 3 1;
#X connect 9 0 2 1;
#X connect 9 0 0 1;
#X connect 10 0 1 0;
#X restore 753 200 pd 4allpassfilters;
#N canvas 208 208 431 371 4allpassfilters 0;
#X obj 13 80 rpole~;
#X obj 13 55 rzero_rev~;
#X obj 13 134 rpole~;
#X obj 13 109 rzero_rev~;
#X obj 13 188 rpole~;
#X obj 13 163 rzero_rev~;
#X obj 13 242 rpole~;
#X obj 13 217 rzero_rev~;
#X obj 129 12 inlet;
#X obj 129 36 / 100;
#X obj 12 26 inlet~;
#X obj 13 276 outlet~;
#X connect 0 0 3 0;
#X connect 1 0 0 0;
#X connect 2 0 5 0;
#X connect 3 0 2 0;
#X connect 4 0 7 0;
#X connect 5 0 4 0;
#X connect 6 0 11 0;
#X connect 7 0 6 0;
#X connect 8 0 9 0;
#X connect 9 0 1 1;
#X connect 9 0 7 1;
#X connect 9 0 6 1;
#X connect 9 0 5 1;
#X connect 9 0 4 1;
#X connect 9 0 3 1;
#X connect 9 0 2 1;
#X connect 9 0 0 1;
#X connect 10 0 1 0;
#X restore 627 538 pd 4allpassfilters;
#N canvas 208 208 431 371 4allpassfilters 0;
#X obj 13 80 rpole~;
#X obj 13 55 rzero_rev~;
#X obj 13 134 rpole~;
#X obj 13 109 rzero_rev~;
#X obj 13 188 rpole~;
#X obj 13 163 rzero_rev~;
#X obj 13 242 rpole~;
#X obj 13 217 rzero_rev~;
#X obj 129 12 inlet;
#X obj 129 36 / 100;
#X obj 12 26 inlet~;
#X obj 13 276 outlet~;
#X connect 0 0 3 0;
#X connect 1 0 0 0;
#X connect 2 0 5 0;
#X connect 3 0 2 0;
#X connect 4 0 7 0;
#X connect 5 0 4 0;
#X connect 6 0 11 0;
#X connect 7 0 6 0;
#X connect 8 0 9 0;
#X connect 9 0 1 1;
#X connect 9 0 7 1;
#X connect 9 0 6 1;
#X connect 9 0 5 1;
#X connect 9 0 4 1;
#X connect 9 0 3 1;
#X connect 9 0 2 1;
#X connect 9 0 0 1;
#X connect 10 0 1 0;
#X restore 707 567 pd 4allpassfilters;
#X obj 204 966 s \$0-notes;
#X obj 695 113 r \$0-notes;
#X obj 577 355 else/lowpass~ 6000 0.4;
#X obj 577 331 else/highpass~ 20 0.4;
#X obj 577 283 else/highpass~ 20 0.4;
#X obj 577 307 else/drive~ 50;
#X obj 302 225 else/chance 70;
#X connect 0 0 35 0;
#X connect 0 1 55 0;
#X connect 2 0 3 0;
#X connect 3 0 4 0;
#X connect 4 0 53 0;
#X connect 5 0 6 0;
#X connect 6 0 4 1;
#X connect 8 0 10 1;
#X connect 9 0 10 0;
#X connect 10 0 13 0;
#X connect 13 0 17 0;
#X connect 13 1 35 0;
#X connect 14 0 9 0;
#X connect 14 1 22 0;
#X connect 14 2 17 1;
#X connect 15 0 95 0;
#X connect 16 0 86 0;
#X connect 17 0 87 0;
#X connect 18 0 2 0;
#X connect 18 1 5 0;
#X connect 19 0 33 0;
#X connect 19 1 51 0;
#X connect 20 0 61 0;
#X connect 21 0 1 0;
#X connect 22 0 8 0;
#X connect 23 0 34 0;
#X connect 24 0 34 0;
#X connect 25 0 34 0;
#X connect 27 0 39 0;
#X connect 28 0 92 1;
#X connect 29 0 99 0;
#X connect 30 0 47 0;
#X connect 31 0 32 0;
#X connect 32 0 30 0;
#X connect 33 0 60 0;
#X connect 33 1 60 1;
#X connect 34 0 18 0;
#X connect 35 0 36 0;
#X connect 36 0 14 0;
#X connect 37 0 38 0;
#X connect 37 0 49 0;
#X connect 38 0 93 1;
#X connect 39 0 46 0;
#X connect 40 0 70 0;
#X connect 40 1 70 0;
#X connect 41 0 42 0;
#X connect 42 0 27 0;
#X connect 42 0 93 0;
#X connect 43 0 44 0;
#X connect 44 0 40 0;
#X connect 45 0 43 0;
#X connect 46 0 45 0;
#X connect 47 0 41 0;
#X connect 48 0 27 1;
#X connect 49 0 94 1;
#X connect 50 0 33 1;
#X connect 51 0 50 0;
#X connect 52 0 29 0;
#X connect 52 0 92 0;
#X connect 53 0 19 0;
#X connect 54 0 23 0;
#X connect 55 0 58 0;
#X connect 56 0 7 0;
#X connect 57 0 24 0;
#X connect 58 0 53 1;
#X connect 59 0 52 0;
#X connect 60 0 15 0;
#X connect 60 1 15 1;
#X connect 60 2 15 2;
#X connect 63 0 64 0;
#X connect 64 0 71 0;
#X connect 65 0 91 0;
#X connect 66 0 67 0;
#X connect 67 0 74 0;
#X connect 68 0 69 0;
#X connect 69 0 75 0;
#X connect 70 0 20 0;
#X connect 71 0 72 0;
#X connect 71 1 62 0;
#X connect 71 1 77 0;
#X connect 72 0 73 0;
#X connect 73 0 62 0;
#X connect 74 0 76 0;
#X connect 75 0 70 1;
#X connect 76 0 68 0;
#X connect 77 0 72 0;
#X connect 78 0 79 0;
#X connect 79 0 80 0;
#X connect 80 0 81 0;
#X connect 80 1 83 0;
#X connect 80 1 16 0;
#X connect 81 0 82 0;
#X connect 82 0 16 0;
#X connect 83 0 81 0;
#X connect 84 0 85 0;
#X connect 85 0 99 0;
#X connect 86 0 101 0;
#X connect 87 0 34 0;
#X connect 87 1 57 0;
#X connect 87 2 54 0;
#X connect 87 3 88 0;
#X connect 88 0 25 0;
#X connect 89 0 90 0;
#X connect 90 0 28 0;
#X connect 91 0 40 0;
#X connect 92 0 29 1;
#X connect 93 0 48 0;
#X connect 93 0 94 0;
#X connect 94 0 27 1;
#X connect 96 0 59 0;
#X connect 97 0 31 0;
#X connect 97 0 30 0;
#X connect 98 0 97 0;
#X connect 99 0 100 0;
#X connect 100 0 98 0;
#X connect 101 0 0 0;
