#N canvas -1874 0 1920 997 12;
#X obj 23 195 array set \$0-scale;
#X obj 63 229 array define -k -yrange 0 11 \$0-scale 7;
#A 0 0 2 4 5 7 9 10;
#X obj 23 142 loadbang;
#X obj 138 582 catch~ \$0-output;
#X obj 101 789 ws.tanh~;
#X obj 360 123 metro 250;
#X obj 771 106 hsl 128 19 0 127 0 0 \$0-separacion-s empty Separacion -2 -10 0 12 #00ff04 #000000 #000000 0 1;
#X floatatom 768 130 5 0 0 0 - - - 0;
#X obj 638 796 pack f f f;
#X obj 536 632 t f f;
#X obj 536 661 % 7;
#X obj 536 685 tabread \$0-scale;
#X obj 638 714 +;
#X obj 656 661 div 7;
#X obj 656 685 * 12;
#X obj 649 571 t f b;
#X obj 716 629 + 63;
#X obj 716 605 random 32;
#X obj 634 930 throw~ \$0-output;
#X obj 718 903 throw~ \$0-reverb;
#X obj 638 767 poly 1 1;
#X obj 622 22 hsl 128 19 0 127 0 0 \$0-velocidad-s empty velocidad -2 -10 0 12 #00ff04 #000000 #000000 0 1;
#X obj 638 738 makenote 127 100;
#X obj 638 830 clone -s 1 whistle~ 1;
#X obj 461 46 /;
#X obj 461 70 / 4;
#X obj 461 94 t f f;
#X obj 493 123 s \$0-16;
#X obj 514 153 v \$0-16;
#X obj 360 204 else/count 0 15;
#X obj 649 202 t f f;
#X obj 712 231 % 4;
#X obj 712 255 sel 0;
#X msg 712 303 2 \$1;
#X obj 712 327 pow;
#X obj 712 279 else/rand.i 0 2;
#X obj 649 380 div;
#X obj 649 404 change -1;
#X obj 797 607 t b f;
#X obj 797 631 v \$0-16;
#X obj 649 481 +;
#X obj 693 479 i;
#X obj 649 457 else/rand.i -2 2;
#X obj 231 708 else/plate.rev~;
#X obj 238 670 catch~ \$0-reverb;
#X msg 23 171 0 2 4 5 7 9 10;
#X msg 271 629 wet 1 \, size 0.6;
#X obj 240 748 *~ 0.3;
#X obj 265 595 loadbang;
#X obj 797 679 * 0.8;
#X obj 712 352 t f f f;
#X obj 797 655 /;
#X obj 619 46 / 127;
#X obj 619 70 * 100;
#X obj 619 94 + 120;
#X msg 461 22 60000 \$1;
#X obj 649 505 % 14;
#X obj 649 534 + 14;
#X obj 649 428 bang;
#X obj 536 603 + 35;
#X obj 322 841 throw~ \$1-emotionAudio;
#X obj 398 559 r \$1-emotion-s;
#X msg 398 661 \$1 1000;
#X obj 398 685 line~;
#X obj 322 816 *~;
#X obj 398 631 pow 2;
#X obj 398 709 sqrt~;
#X obj 398 583 == 5;
#X obj 362 63 tgl 19 0 empty empty empty 0 -10 0 12 #00ff04 #000000 #000000 0 1;
#X obj 855 46 switch~;
#X obj 827 -127 r \$1-emotion-s;
#X obj 827 -79 sel 0;
#X obj 827 -14 delay 1000;
#X msg 827 11 0;
#X msg 847 -43 stop;
#X obj 363 -105 r \$1-emotion-s;
#X obj 363 -57 sel 0;
#X obj 363 8 delay 1000;
#X msg 363 33 0;
#X msg 383 -21 stop;
#X obj 363 -81 == 5;
#X obj 827 -103 == 5;
#X obj 461 -32 loadbang;
#X obj 1069 794 pack f f f;
#X obj 967 630 t f f;
#X obj 967 659 % 7;
#X obj 967 683 tabread \$0-scale;
#X obj 1069 712 +;
#X obj 1087 659 div 7;
#X obj 1087 683 * 12;
#X obj 1080 569 t f b;
#X obj 1147 627 + 63;
#X obj 1147 603 random 32;
#X obj 1065 928 throw~ \$0-output;
#X obj 1149 901 throw~ \$0-reverb;
#X obj 1069 765 poly 1 1;
#X obj 1069 736 makenote 127 100;
#X obj 1228 629 v \$0-16;
#X obj 1080 479 +;
#X obj 1124 477 i;
#X obj 1080 455 else/rand.i -2 2;
#X obj 1080 426 bang;
#X obj 968 601 + 35;
#X obj 1078 325 % 8;
#X obj 1078 348 sel 0 6;
#X obj 1069 828 clone -s 1 trumpet~ 1;
#X obj 1080 503 % 7;
#X obj 1079 533 - 10;
#X obj 1163 348 sel 4;
#X obj 1165 386 else/chance 50;
#X obj 1228 653 * 0.8;
#X obj 1464 357 select 0;
#X obj 1334 452 f;
#X obj 1334 476 t f f f;
#X obj 1343 520 + 2;
#X obj 1429 517 + 4;
#X obj 1665 54 array set \$0-prob;
#X obj 1695 77 array define -yrange 0 100 -k \$0-prob 7;
#A 0 100 50 100 50 100 100 50;
#X msg 1665 29 100 50 100 50 100 100 50;
#X obj 1411 798 pack f f f;
#X obj 1309 634 t f f;
#X obj 1309 663 % 7;
#X obj 1309 687 tabread \$0-scale;
#X obj 1411 716 +;
#X obj 1429 663 div 7;
#X obj 1429 687 * 12;
#X obj 1489 631 + 63;
#X obj 1489 607 random 32;
#X obj 1407 932 throw~ \$0-output;
#X obj 1491 905 throw~ \$0-reverb;
#X obj 1411 740 makenote 127 100;
#X obj 1570 633 v \$0-16;
#X obj 1310 605 + 35;
#X obj 1425 573 t f b b;
#X obj 1411 832 clone -s 1 cello-joy~ 4 \$0;
#X obj 1045 162 array define -k \$0-wavetable;
#A resize 16576;
#X obj 1047 16 loadbang;
#X obj 1047 40 f \$0;
#X msg 1047 69 read -resize ./brown-noise.wav \$1-wavetable;
#X obj 1047 93 soundfiler;
#X obj 1411 769 poly 4 1;
#X obj 1411 860 *~ 1;
#X obj 1145 8 bng 19 250 50 0 empty empty empty 0 -10 0 12 #fcfcfc #000000 #000000;
#X obj 1570 657 * 0.5;
#X obj 1464 380 else/rand.i 0 7;
#X obj 1352 323 t f f;
#X obj 1352 347 % 8;
#X obj 1352 371 sel 2;
#X obj 1069 857 *~ 0.3;
#X obj 94 428 readsf~;
#X msg 74 383 open ./timpani1.wav \, start;
#X obj 299 420 readsf~;
#X obj 400 487 readsf~;
#X msg 279 375 open ./timpani2.wav \, start;
#X msg 381 442 open ./timpani3.wav \, start;
#X obj 898 448 else/chance 20;
#X msg 461 -7 80;
#X obj 908 240 r \$1-armVelAcumStages;
#X obj 908 264 >= 1;
#X obj 908 288 change -1;
#X obj 875 319 spigot;
#X obj 1298 207 r \$1-armVelAcumStages;
#X obj 1298 255 change -1;
#X obj 1265 286 spigot;
#X obj 1298 231 >= 2;
#X obj 919 342 r \$1-armVelAcumStages;
#X obj 919 390 change -1;
#X obj 886 421 spigot;
#X obj 919 366 >= 3;
#X obj 119 324 readsf~;
#X msg 100 279 open ./crash.wav \, start;
#X obj 323 302 sel 0;
#X obj 335 276 % 8;
#X obj 382 258 r \$1-armVelAcumStages;
#X obj 382 306 change -1;
#X obj 349 337 spigot;
#X obj 382 282 >= 4;
#X obj 1850 871 pack f f f;
#X obj 1748 707 t f f;
#X obj 1748 736 % 7;
#X obj 1748 760 tabread \$0-scale;
#X obj 1850 789 +;
#X obj 1868 736 div 7;
#X obj 1868 760 * 12;
#X obj 1861 646 t f b;
#X obj 1928 704 + 63;
#X obj 1928 680 random 32;
#X obj 1846 1005 throw~ \$0-output;
#X obj 1930 978 throw~ \$0-reverb;
#X obj 1850 842 poly 1 1;
#X obj 1850 813 makenote 127 100;
#X obj 1861 227 t f f;
#X obj 1924 256 % 4;
#X obj 1924 280 sel 0;
#X msg 1924 328 2 \$1;
#X obj 1924 352 pow;
#X obj 1924 304 else/rand.i 0 2;
#X obj 1861 405 div;
#X obj 1861 429 change -1;
#X obj 2009 682 t b f;
#X obj 2009 706 v \$0-16;
#X obj 1861 556 +;
#X obj 1905 554 i;
#X obj 1861 532 else/rand.i -2 2;
#X obj 2009 754 * 0.8;
#X obj 1924 377 t f f f;
#X obj 2009 730 /;
#X obj 1861 580 % 14;
#X obj 1861 453 bang;
#X obj 1748 678 + 35;
#X obj 1803 145 r \$1-armVel;
#X obj 1862 502 else/chance;
#X obj 1861 609 + 17;
#X obj 1803 174 else/rescale 0 0.05 0 100;
#X obj 1803 198 clip 0 100;
#X obj 1850 905 clone -s 1 whistleVel~ 1;
#X obj 120 348 *~ 0.1;
#X obj 92 527 *~ 1;
#X obj 1850 934 *~ 0.01;
#X obj 638 859 *~ 0.05;
#X connect 2 0 45 0;
#X connect 3 0 4 0;
#X connect 4 0 64 0;
#X connect 5 0 29 0;
#X connect 6 0 7 0;
#X connect 8 0 23 0;
#X connect 9 0 10 0;
#X connect 9 1 13 0;
#X connect 10 0 11 0;
#X connect 11 0 12 0;
#X connect 12 0 22 0;
#X connect 13 0 14 0;
#X connect 14 0 12 1;
#X connect 15 0 59 0;
#X connect 15 1 17 0;
#X connect 16 0 22 1;
#X connect 17 0 16 0;
#X connect 20 0 8 0;
#X connect 20 1 8 1;
#X connect 20 2 8 2;
#X connect 21 0 52 0;
#X connect 22 0 20 0;
#X connect 22 1 20 1;
#X connect 23 0 219 0;
#X connect 24 0 25 0;
#X connect 25 0 26 0;
#X connect 26 0 5 1;
#X connect 26 1 27 0;
#X connect 29 0 30 0;
#X connect 29 0 160 0;
#X connect 29 0 163 0;
#X connect 29 0 172 0;
#X connect 29 0 191 0;
#X connect 30 0 36 0;
#X connect 30 1 31 0;
#X connect 31 0 32 0;
#X connect 32 0 35 0;
#X connect 33 0 34 0;
#X connect 34 0 50 0;
#X connect 35 0 33 0;
#X connect 36 0 37 0;
#X connect 37 0 58 0;
#X connect 38 0 39 0;
#X connect 38 1 51 1;
#X connect 39 0 51 0;
#X connect 40 0 56 0;
#X connect 41 0 40 1;
#X connect 42 0 40 0;
#X connect 43 0 47 0;
#X connect 43 1 47 0;
#X connect 44 0 43 0;
#X connect 45 0 0 0;
#X connect 46 0 43 0;
#X connect 47 0 4 0;
#X connect 48 0 46 0;
#X connect 49 0 22 2;
#X connect 50 0 36 1;
#X connect 50 2 38 0;
#X connect 51 0 49 0;
#X connect 52 0 53 0;
#X connect 53 0 54 0;
#X connect 54 0 55 0;
#X connect 55 0 24 0;
#X connect 56 0 41 0;
#X connect 56 0 57 0;
#X connect 57 0 15 0;
#X connect 58 0 42 0;
#X connect 59 0 9 0;
#X connect 61 0 67 0;
#X connect 62 0 63 0;
#X connect 63 0 66 0;
#X connect 64 0 60 0;
#X connect 65 0 62 0;
#X connect 66 0 64 1;
#X connect 67 0 65 0;
#X connect 68 0 5 0;
#X connect 70 0 81 0;
#X connect 71 0 72 0;
#X connect 71 1 74 0;
#X connect 71 1 69 0;
#X connect 72 0 73 0;
#X connect 73 0 69 0;
#X connect 74 0 72 0;
#X connect 75 0 80 0;
#X connect 76 0 77 0;
#X connect 76 1 79 0;
#X connect 76 1 68 0;
#X connect 77 0 78 0;
#X connect 78 0 68 0;
#X connect 79 0 77 0;
#X connect 80 0 76 0;
#X connect 81 0 71 0;
#X connect 82 0 156 0;
#X connect 83 0 105 0;
#X connect 84 0 85 0;
#X connect 84 1 88 0;
#X connect 85 0 86 0;
#X connect 86 0 87 0;
#X connect 87 0 96 0;
#X connect 88 0 89 0;
#X connect 89 0 87 1;
#X connect 90 0 102 0;
#X connect 90 1 92 0;
#X connect 91 0 96 1;
#X connect 92 0 91 0;
#X connect 95 0 83 0;
#X connect 95 1 83 1;
#X connect 95 2 83 2;
#X connect 96 0 95 0;
#X connect 96 1 95 1;
#X connect 97 0 110 0;
#X connect 98 0 106 0;
#X connect 99 0 98 1;
#X connect 100 0 98 0;
#X connect 101 0 100 0;
#X connect 101 0 97 0;
#X connect 101 0 167 0;
#X connect 102 0 84 0;
#X connect 103 0 104 0;
#X connect 103 0 108 0;
#X connect 104 0 101 0;
#X connect 104 1 101 0;
#X connect 105 0 148 0;
#X connect 106 0 99 0;
#X connect 106 0 107 0;
#X connect 107 0 90 0;
#X connect 108 0 109 0;
#X connect 109 0 101 0;
#X connect 110 0 96 2;
#X connect 111 0 144 0;
#X connect 112 0 113 0;
#X connect 113 0 133 0;
#X connect 113 1 114 0;
#X connect 113 2 115 0;
#X connect 114 0 133 0;
#X connect 115 0 133 0;
#X connect 118 0 116 0;
#X connect 119 0 134 0;
#X connect 120 0 121 0;
#X connect 120 1 124 0;
#X connect 121 0 122 0;
#X connect 122 0 123 0;
#X connect 123 0 130 0;
#X connect 124 0 125 0;
#X connect 125 0 123 1;
#X connect 126 0 130 1;
#X connect 127 0 126 0;
#X connect 130 0 140 0;
#X connect 130 1 140 1;
#X connect 131 0 143 0;
#X connect 132 0 120 0;
#X connect 133 0 132 0;
#X connect 133 1 127 0;
#X connect 133 2 131 0;
#X connect 134 0 141 0;
#X connect 136 0 137 0;
#X connect 137 0 138 0;
#X connect 138 0 139 0;
#X connect 140 0 119 0;
#X connect 140 1 119 1;
#X connect 140 2 119 2;
#X connect 141 0 128 0;
#X connect 141 0 129 0;
#X connect 143 0 130 2;
#X connect 144 0 112 1;
#X connect 145 0 146 0;
#X connect 145 1 111 0;
#X connect 146 0 147 0;
#X connect 147 0 112 0;
#X connect 148 0 93 0;
#X connect 148 0 94 0;
#X connect 149 0 217 0;
#X connect 150 0 149 0;
#X connect 151 0 217 0;
#X connect 152 0 217 0;
#X connect 153 0 151 0;
#X connect 154 0 152 0;
#X connect 155 0 153 0;
#X connect 155 0 154 0;
#X connect 155 0 150 0;
#X connect 156 0 55 0;
#X connect 157 0 158 0;
#X connect 158 0 159 0;
#X connect 159 0 160 1;
#X connect 160 0 103 0;
#X connect 161 0 164 0;
#X connect 162 0 163 1;
#X connect 163 0 145 0;
#X connect 164 0 162 0;
#X connect 165 0 168 0;
#X connect 166 0 167 1;
#X connect 167 0 155 0;
#X connect 168 0 166 0;
#X connect 169 0 216 0;
#X connect 170 0 169 0;
#X connect 171 0 175 0;
#X connect 172 0 171 0;
#X connect 173 0 176 0;
#X connect 174 0 175 1;
#X connect 175 0 170 0;
#X connect 176 0 174 0;
#X connect 177 0 215 0;
#X connect 178 0 179 0;
#X connect 178 1 182 0;
#X connect 179 0 180 0;
#X connect 180 0 181 0;
#X connect 181 0 190 0;
#X connect 182 0 183 0;
#X connect 183 0 181 1;
#X connect 184 0 209 0;
#X connect 184 1 186 0;
#X connect 185 0 190 1;
#X connect 186 0 185 0;
#X connect 189 0 177 0;
#X connect 189 1 177 1;
#X connect 189 2 177 2;
#X connect 190 0 189 0;
#X connect 190 1 189 1;
#X connect 191 0 197 0;
#X connect 191 1 192 0;
#X connect 192 0 193 0;
#X connect 193 0 196 0;
#X connect 194 0 195 0;
#X connect 195 0 205 0;
#X connect 196 0 194 0;
#X connect 197 0 198 0;
#X connect 198 0 208 0;
#X connect 199 0 200 0;
#X connect 199 1 206 1;
#X connect 200 0 206 0;
#X connect 201 0 207 0;
#X connect 202 0 201 1;
#X connect 203 0 201 0;
#X connect 204 0 190 2;
#X connect 205 0 197 1;
#X connect 205 2 199 0;
#X connect 206 0 204 0;
#X connect 207 0 202 0;
#X connect 207 0 212 0;
#X connect 208 0 211 0;
#X connect 209 0 178 0;
#X connect 210 0 213 0;
#X connect 211 0 203 0;
#X connect 212 0 184 0;
#X connect 213 0 214 0;
#X connect 214 0 211 1;
#X connect 215 0 218 0;
#X connect 216 0 4 0;
#X connect 217 0 4 0;
#X connect 218 0 187 0;
#X connect 218 0 188 0;
#X connect 219 0 18 0;
#X connect 219 0 19 0;
