#N canvas 0 22 1280 955 12;
#X obj 861 701 switch~;
#X obj 27 122 * 7;
#X obj 27 146 + 0.5;
#X obj 27 170 i;
#X obj 27 194 t f f;
#X obj 27 218 % 7;
#X obj 27 266 +;
#X obj 153 213 div 7;
#X obj 153 247 * 12;
#X obj 27 362 mtof~;
#X obj 27 386 phasor~;
#X obj 27 410 *~;
#X obj 144 341 /~;
#X obj 144 317 sig~ 1;
#X obj 382 155 pow 2;
#X obj 27 458 -~ 0.25;
#X obj 27 481 cos~;
#X obj 333 512 *~;
#X obj 27 434 clip~ 0 1;
#X msg 235 182 1 \$1;
#X obj 235 206 -;
#X obj 234 257 * 0.9;
#X obj 234 281 + 0.1;
#X obj 235 230 pow 2;
#X msg 234 305 \$1 20;
#X obj 234 329 line~;
#X obj 471 99 loadbang;
#X obj 471 123 t b b;
#X obj 504 152 f \$0;
#X msg 504 176 seed \$1;
#X obj 471 205 random 101;
#X obj 471 229 / 100;
#X obj 471 277 + 2;
#X obj 471 301 osc~;
#X obj 471 325 *~ 0.1;
#X obj 471 253 * 5;
#X obj 251 120 t f f;
#X obj 382 179 * 0.5;
#X obj 382 203 + 0.5;
#X msg 382 227 \$1 20;
#X obj 382 251 line~;
#X obj 641 615 *~;
#X obj 27 98 + 2;
#X obj 27 73 * 2;
#X obj 27 290 + 12;
#X obj 333 560 else/lowpass~ 500 0.4;
#X obj 540 530 / 127;
#X text 540 486 GUI:engagement;
#X obj 540 564 else/f2s~ 8;
#X obj 522 593 *~;
#X obj 27 324 sig~;
#X obj 437 373 loadbang;
#X msg 437 397 1;
#X obj 437 421 metro 100;
#X obj 437 445 else/rand.f 0 1;
#X msg 437 469 \$1 100;
#X obj 437 493 line~;
#X obj 611 659 *~ 1;
#X obj 719 643 *~ 0.7;
#X obj 332 536 *~ 0.5;
#X obj 861 677 == 1;
#X obj 27 242 tabread \$1-scale;
#X obj 540 506 r \$1-engagement-s;
#X obj 611 683 throw~ \$1-mono;
#X obj 723 674 throw~ \$1-reverb;
#X obj 251 67 r \$1-arm\$2Y;
#X obj 27 26 r \$1-arm\$2X;
#X obj 861 653 r \$1-emotion-s;
#X obj 251 91 clip 0 1;
#X obj 27 50 clip 0 1;
#X obj 731 357 r \$1-arm\$2Vel;
#X obj 731 463 line~;
#X obj 731 540 clip~ 0 1;
#X obj 731 381 change -1;
#X obj 731 405 select 0;
#X msg 731 429 0 200;
#X obj 731 516 *~ 50;
#X msg 784 432 \$1 80;
#X obj 731 487 lop~ 25;
#X connect 1 0 2 0;
#X connect 2 0 3 0;
#X connect 3 0 4 0;
#X connect 4 0 5 0;
#X connect 4 1 7 0;
#X connect 5 0 61 0;
#X connect 6 0 44 0;
#X connect 7 0 8 0;
#X connect 8 0 6 1;
#X connect 9 0 10 0;
#X connect 10 0 11 0;
#X connect 11 0 18 0;
#X connect 12 0 11 1;
#X connect 13 0 12 0;
#X connect 14 0 37 0;
#X connect 15 0 16 0;
#X connect 16 0 17 0;
#X connect 17 0 59 0;
#X connect 18 0 15 0;
#X connect 19 0 20 0;
#X connect 20 0 23 0;
#X connect 21 0 22 0;
#X connect 22 0 24 0;
#X connect 23 0 21 0;
#X connect 24 0 25 0;
#X connect 25 0 12 1;
#X connect 26 0 27 0;
#X connect 27 0 30 0;
#X connect 27 1 28 0;
#X connect 28 0 29 0;
#X connect 29 0 30 0;
#X connect 30 0 31 0;
#X connect 31 0 35 0;
#X connect 32 0 33 0;
#X connect 33 0 34 0;
#X connect 34 0 9 0;
#X connect 35 0 32 0;
#X connect 36 0 19 0;
#X connect 36 1 14 0;
#X connect 37 0 38 0;
#X connect 38 0 39 0;
#X connect 39 0 40 0;
#X connect 40 0 17 1;
#X connect 41 0 57 0;
#X connect 41 0 58 0;
#X connect 42 0 1 0;
#X connect 43 0 42 0;
#X connect 44 0 50 0;
#X connect 45 0 49 0;
#X connect 46 0 48 0;
#X connect 48 0 49 1;
#X connect 49 0 41 0;
#X connect 50 0 9 0;
#X connect 51 0 52 0;
#X connect 52 0 53 0;
#X connect 53 0 54 0;
#X connect 54 0 55 0;
#X connect 55 0 56 0;
#X connect 56 0 17 1;
#X connect 57 0 63 0;
#X connect 58 0 64 0;
#X connect 59 0 45 0;
#X connect 60 0 0 0;
#X connect 61 0 6 0;
#X connect 62 0 46 0;
#X connect 65 0 68 0;
#X connect 66 0 69 0;
#X connect 67 0 60 0;
#X connect 68 0 36 0;
#X connect 69 0 43 0;
#X connect 70 0 73 0;
#X connect 71 0 78 0;
#X connect 72 0 41 1;
#X connect 73 0 74 0;
#X connect 74 0 75 0;
#X connect 74 1 77 0;
#X connect 75 0 71 0;
#X connect 76 0 72 0;
#X connect 77 0 71 0;
#X connect 78 0 76 0;
