#N canvas 505 200 1589 813 12;
#X obj 219 110 bng 19 250 50 0 empty empty empty 0 -10 0 12 #fcfcfc #000000 #000000;
#X obj 219 134 t b b;
#X obj 736 294 array set \$0-scale;
#X obj 195 504 t f f;
#X obj 195 538 % 7;
#X obj 195 562 tabread \$0-scale;
#X obj 297 596 +;
#X obj 315 538 div 7;
#X obj 315 562 * 12;
#X obj 747 467 array set \$0-prob;
#X obj 326 346 tabread \$0-prob;
#X obj 190 306 random 100;
#X obj 201 356 <;
#X obj 766 318 array define -yrange 0 12 -k \$0-scale 12;
#A 0 0 2 3 5 7 8 10 0 0 0 0 0;
#X obj 777 490 array define -yrange 0 100 -k \$0-prob 7;
#A 0 100 50 100 50 100 100 50;
#X obj 313 288 % 7;
#X obj 201 380 select 1 0;
#X obj 165 219 t b f f;
#X obj 296 668 makenote 127 200;
#X obj 296 692 poly 6 1;
#X obj 296 716 pack f f f;
#X obj 296 740 clone -s 1 fmVoice~ 6;
#X obj 296 788 dac~ 1 2;
#X obj 296 764 *~ 0.125;
#X obj 297 619 + 60;
#X obj 298 51 tgl 19 0 empty empty empty 0 -10 0 12 #fcfcfc #000000 #000000 0 1;
#X obj 298 75 metro 200;
#X msg 736 270 0 2 3 5 7 8 10;
#X obj 169 181 random 14;
#X msg 747 442 100 50 100 50 100 100 50;
#X obj 202 454 f;
#X connect 0 0 1 0;
#X connect 1 0 28 0;
#X connect 3 0 4 0;
#X connect 3 1 7 0;
#X connect 4 0 5 0;
#X connect 5 0 6 0;
#X connect 6 0 24 0;
#X connect 7 0 8 0;
#X connect 8 0 6 1;
#X connect 10 0 12 1;
#X connect 11 0 12 0;
#X connect 12 0 16 0;
#X connect 15 0 10 0;
#X connect 16 0 30 0;
#X connect 16 1 28 0;
#X connect 17 0 11 0;
#X connect 17 1 15 0;
#X connect 17 2 30 1;
#X connect 18 0 19 0;
#X connect 18 1 19 1;
#X connect 19 0 20 0;
#X connect 19 1 20 1;
#X connect 19 2 20 2;
#X connect 20 0 21 0;
#X connect 21 0 23 0;
#X connect 23 0 22 0;
#X connect 23 0 22 1;
#X connect 24 0 18 0;
#X connect 25 0 26 0;
#X connect 26 0 0 0;
#X connect 27 0 2 0;
#X connect 28 0 17 0;
#X connect 29 0 9 0;
#X connect 30 0 3 0;
