#N canvas 242 233 1153 612 12;
#X obj 231 117 inlet;
#X obj 231 151 unpack f f;
#X obj 192 185 sig~;
#X obj 192 239 mtof~;
#X obj 192 293 osc~;
#X obj 262 377 *~;
#X obj 298 199 / 127;
#X obj 298 223 sel 0;
#X obj 340 260 sqrt;
#X msg 340 294 \$1 20;
#X msg 298 294 0 20;
#X obj 328 338 line~;
#X obj 262 421 outlet~;
#X obj 95 171 osc~ 7;
#X obj 96 205 *~ 0.25;
#X connect 0 0 1 0;
#X connect 1 0 2 0;
#X connect 1 1 6 0;
#X connect 2 0 3 0;
#X connect 3 0 4 0;
#X connect 4 0 5 0;
#X connect 5 0 12 0;
#X connect 6 0 7 0;
#X connect 7 0 10 0;
#X connect 7 1 8 0;
#X connect 8 0 9 0;
#X connect 9 0 11 0;
#X connect 10 0 11 0;
#X connect 11 0 5 1;
#X connect 13 0 14 0;
#X connect 14 0 3 0;
