#N canvas 242 233 1153 612 12;
#X obj 231 117 inlet;
#X obj 231 151 unpack f f;
#X obj 192 185 sig~;
#X obj 37 228 mtof~;
#X obj 262 377 *~;
#X obj 502 203 / 127;
#X obj 502 227 sel 0;
#X obj 544 264 sqrt;
#X obj 532 342 line~;
#X obj 259 456 outlet~;
#X obj 3 274 else/bl.square~;
#X obj 92 362 /~ 2;
#X obj 206 264 mtof~;
#X obj 179 292 else/bl.square~;
#X obj 194 223 +~ 12.2;
#X obj 93 386 hip~ 100;
#X obj 69 147 mtof~;
#X obj 42 175 else/bl.square~;
#X obj 56 106 +~ 0.1;
#X msg 544 298 \$1 50;
#X msg 502 298 0 50;
#X obj 532 366 *~;
#X obj 325 272 mtof~;
#X obj 298 300 else/bl.square~;
#X obj 313 231 +~ 12;
#X obj 265 426 *~ 0.2;
#X connect 0 0 1 0;
#X connect 1 0 2 0;
#X connect 1 1 5 0;
#X connect 2 0 3 0;
#X connect 2 0 14 0;
#X connect 2 0 18 0;
#X connect 2 0 24 0;
#X connect 3 0 10 0;
#X connect 4 0 25 0;
#X connect 5 0 6 0;
#X connect 6 0 20 0;
#X connect 6 1 7 0;
#X connect 7 0 19 0;
#X connect 8 0 21 0;
#X connect 8 0 21 1;
#X connect 10 0 11 0;
#X connect 11 0 15 0;
#X connect 12 0 13 0;
#X connect 13 0 11 0;
#X connect 14 0 12 0;
#X connect 15 0 4 0;
#X connect 16 0 17 0;
#X connect 17 0 11 0;
#X connect 18 0 16 0;
#X connect 19 0 8 0;
#X connect 20 0 8 0;
#X connect 21 0 4 1;
#X connect 22 0 23 0;
#X connect 23 0 11 0;
#X connect 24 0 22 0;
#X connect 25 0 9 0;
