#N canvas 0 22 1280 955 12;
#X obj 898 705 switch~;
#X obj 64 126 * 7;
#X obj 64 150 + 0.5;
#X obj 64 174 i;
#X obj 64 198 t f f;
#X obj 64 222 % 7;
#X obj 64 270 +;
#X obj 190 217 div 7;
#X obj 190 251 * 12;
#X obj 64 366 mtof~;
#X obj 64 390 phasor~;
#X obj 508 391 pow 2;
#X obj 62 500 cos~;
#X obj 370 516 *~;
#X obj 508 415 * 0.5;
#X obj 508 439 + 0.5;
#X msg 508 463 \$1 20;
#X obj 508 487 line~;
#X obj 654 621 *~;
#X obj 64 294 + 12;
#X obj 577 529 / 127;
#X text 577 485 GUI:engagement;
#X obj 577 558 else/f2s~ 8;
#X obj 559 597 *~;
#X obj 370 540 *~ 0.7;
#X obj 117 430 cos~;
#X obj 117 478 *~;
#X obj 128 547 *~;
#X obj 117 454 *~ 0.2;
#X obj 64 102 + 2;
#X obj 64 318 sig~;
#X obj 287 333 metro 600;
#X obj 587 734 *~ 1;
#N canvas 208 208 450 300 delayeffect 0;
#X obj 37 37 inlet~;
#X obj 67 91 delwrite~ \$0-sadDelayL 1000;
#X obj 213 181 hip~ 250;
#X obj 213 205 lop~ 6000;
#X obj 37 228 outlet~;
#X obj 214 156 delread~ \$0-sadDelayL 500;
#X obj 73 196 *~ 0.5;
#X obj 213 229 *~ 0.2;
#X connect 0 0 1 0;
#X connect 2 0 3 0;
#X connect 3 0 7 0;
#X connect 5 0 2 0;
#X connect 5 0 6 0;
#X connect 6 0 4 0;
#X connect 7 0 1 0;
#X restore 654 689 pd delayeffect;
#X obj 253 214 osc~ 3;
#X obj 253 237 *~ 0.2;
#X obj 157 398 cos~;
#X obj 158 422 *~ 0.01;
#X obj 155 373 *~ 3;
#X obj 898 676 == 6;
#X obj 508 343 r \$1-arm\$2Y;
#X obj 64 246 tabread \$1-scale;
#X obj 577 505 r \$1-engagement-s;
#X obj 461 157 r \$1-arm\$2Vel;
#X obj 745 485 line~;
#X obj 745 403 change -1;
#X obj 745 427 select 0;
#X msg 745 451 0 200;
#X obj 586 763 throw~ \$1-mono;
#X obj 736 763 throw~ \$1-reverb;
#X obj 898 647 r \$1-emotion-s;
#X msg 461 229 60000 \$1;
#X obj 461 253 /;
#X obj 461 277 / 4;
#X obj 461 301 t f f;
#X obj 370 564 else/lowpass~ 6000 0.4;
#X obj 736 734 *~ 0.2;
#X obj 300 250 r \$1-arm\$2Thresh;
#X obj 300 274 change -1;
#X obj 561 236 r \$1-arm\$2Vel;
#X obj 561 260 change -1;
#X obj 287 357 f;
#X obj 561 284 * 20;
#X obj 461 181 * 300;
#X obj 561 308 clip 0.5 1;
#X obj 64 77 * 2;
#X obj 745 379 r \$1-arm\$2Thresh;
#X msg 798 454 1 10;
#X obj 236 457 else/decay2~ 50 250;
#X obj 461 205 + 70;
#X obj 65 30 r \$1-arm\$2Y;
#X connect 1 0 2 0;
#X connect 2 0 3 0;
#X connect 3 0 4 0;
#X connect 4 0 5 0;
#X connect 4 1 7 0;
#X connect 5 0 41 0;
#X connect 6 0 19 0;
#X connect 7 0 8 0;
#X connect 8 0 6 1;
#X connect 9 0 10 0;
#X connect 10 0 25 0;
#X connect 10 0 12 0;
#X connect 10 0 38 0;
#X connect 11 0 14 0;
#X connect 12 0 27 0;
#X connect 13 0 24 0;
#X connect 14 0 15 0;
#X connect 15 0 16 0;
#X connect 16 0 17 0;
#X connect 17 0 13 1;
#X connect 18 0 32 0;
#X connect 18 0 56 0;
#X connect 19 0 30 0;
#X connect 20 0 22 0;
#X connect 22 0 23 1;
#X connect 23 0 18 0;
#X connect 24 0 55 0;
#X connect 25 0 28 0;
#X connect 26 0 12 0;
#X connect 27 0 13 0;
#X connect 28 0 26 0;
#X connect 29 0 1 0;
#X connect 30 0 9 0;
#X connect 31 0 61 0;
#X connect 32 0 48 0;
#X connect 33 0 32 0;
#X connect 33 0 56 0;
#X connect 34 0 35 0;
#X connect 35 0 9 0;
#X connect 36 0 37 0;
#X connect 37 0 26 0;
#X connect 38 0 36 0;
#X connect 39 0 0 0;
#X connect 40 0 11 0;
#X connect 41 0 6 0;
#X connect 42 0 20 0;
#X connect 43 0 63 0;
#X connect 44 0 18 1;
#X connect 45 0 46 0;
#X connect 46 0 47 0;
#X connect 46 1 67 0;
#X connect 47 0 44 0;
#X connect 50 0 39 0;
#X connect 51 0 52 0;
#X connect 52 0 53 0;
#X connect 53 0 54 0;
#X connect 54 0 31 1;
#X connect 55 0 23 0;
#X connect 56 0 49 0;
#X connect 57 0 58 0;
#X connect 58 0 31 0;
#X connect 59 0 60 0;
#X connect 60 0 62 0;
#X connect 61 0 68 0;
#X connect 62 0 64 0;
#X connect 63 0 69 0;
#X connect 64 0 61 1;
#X connect 65 0 29 0;
#X connect 66 0 45 0;
#X connect 67 0 44 0;
#X connect 68 0 26 1;
#X connect 68 0 27 1;
#X connect 69 0 51 0;
#X connect 70 0 65 0;
