#N canvas 87 241 983 734 12;
#X obj 137 198 phasor~;
#X obj 248 278 +~ 1;
#X obj 248 299 /~ 2;
#N canvas 68 96 1108 300 down 0;
#X obj 93 67 inlet~;
#X obj 233 31 inlet~;
#X obj 152 189 outlet~;
#X text 93 47 Inlet 1: Input;
#X text 233 11 Inlet 2: Downsample rate in Hz;
#X text 152 209 Outlet 1: Output;
#N canvas 609 430 475 342 cosine 0;
#X obj 12 120 samphold~;
#X obj 123 84 wrap~;
#X obj 12 31 inlet~;
#X obj 92 270 outlet~;
#X obj 263 31 inlet~;
#X text 12 11 Inlet 1: Input;
#X obj 182 146 samphold~;
#X obj 248 214 *~;
#X obj 123 63 +~ 0.5;
#X text 92 290 Outlet 1: Output;
#X text 263 12 Inlet 2: phasor~;
#X text 173 63 <- phase shift;
#X obj 12 146 samphold~;
#X obj 88 163 sig~ 1;
#X obj 88 184 -~;
#X obj 12 214 *~;
#X obj 263 116 cos~;
#X obj 263 95 *~ 0.5;
#X obj 263 137 *~ -0.5;
#X obj 263 158 +~ 0.5;
#X text 12 100 // delayed sample;
#X text 293 116 <- cosine waveshaper;
#X connect 0 0 12 0;
#X connect 1 0 0 1;
#X connect 2 0 6 0;
#X connect 4 0 6 1;
#X connect 4 0 8 0;
#X connect 4 0 12 1;
#X connect 4 0 17 0;
#X connect 6 0 7 0;
#X connect 6 0 0 0;
#X connect 7 0 3 0;
#X connect 8 0 1 0;
#X connect 12 0 15 0;
#X connect 13 0 14 0;
#X connect 14 0 15 1;
#X connect 15 0 3 0;
#X connect 16 0 18 0;
#X connect 17 0 16 0;
#X connect 18 0 19 0;
#X connect 19 0 7 1;
#X connect 19 0 14 1;
#X restore 151 131 pd cosine;
#X obj 233 67 phasor~ 2;
#X connect 0 0 6 0;
#X connect 1 0 7 0;
#X connect 6 0 2 0;
#X connect 7 0 6 1;
#X restore 443 260 pd down;
#X obj 444 214 noise~;
#X obj 443 289 +~ 1;
#X obj 443 310 /~ 2;
#X obj 138 416 *~;
#X obj 65 289 *~ -1;
#X obj 65 310 +~ 1;
#X obj 46 336 min~;
#X obj 46 378 clip~ 0 1;
#X obj 151 375 os.wavetable~ \$2-wavetable 256;
#X obj 500 430 mtof~;
#X obj 224 27 inlet;
#X obj 224 51 unpack f f;
#X obj 224 99 line~;
#X obj 146 145 mtof~;
#X obj 224 174 /~ 127;
#X obj 538 592 *~;
#X obj 783 77 / 127;
#X obj 535 665 outlet~;
#X obj 511 138 > 0;
#X obj 375 176 line~;
#X obj 460 169 sel 1;
#X obj 315 205 *~;
#X obj 375 200 *~;
#X obj 783 161 t f f;
#X obj 796 253 pack f f;
#X obj 849 218 sqrt;
#X obj 783 185 sqrt;
#X obj 740 48 sel 0;
#X obj 770 350 vline~;
#X obj 770 374 *~;
#X obj 563 162 sel 0;
#X obj 518 313 vline~;
#X obj 518 337 *~;
#X msg 375 152 0 \, 1 500;
#X msg 741 238 0 2000;
#X obj 315 229 *~ 0.1;
#X obj 501 202 loadbang;
#X obj 604 376 -~;
#X obj 540 384 *~;
#X obj 248 328 *~ 2;
#X obj 173 479 else/lowpass~ 1000 0.4;
#X obj 443 332 *~ 1;
#X msg 501 226 1;
#X obj 248 249 osc~ 0.5;
#X msg 224 75 \$1 10;
#X obj 224 198 *~ 20;
#X obj 313 176 osc~ 2;
#X obj 389 -12 loadbang;
#X msg 389 12 1;
#X obj 389 36 metro 1000;
#X msg 389 84 \$1 1000;
#X obj 389 108 line 0 1;
#X msg 727 475 \$1 1000;
#X obj 727 499 line 0 1;
#X obj 636 570 sig~ 2;
#X obj 636 594 pow~;
#X obj 538 616 *~;
#X obj 727 523 osc~;
#X obj 727 547 +~ 1;
#X obj 727 570 *~ -0.2;
#X obj 46 357 *~ 4;
#X obj 222 567 else/highpass~ 100 0.4;
#X obj 290 534 *~ 0.5;
#X obj 727 451 else/rand.f 0.5 2;
#X obj 389 60 else/rand.f 1 3;
#X obj 618 48 / 127;
#X obj 620 133 t f f;
#X obj 618 238 pack f f;
#X obj 686 190 sqrt;
#X obj 620 157 sqrt;
#X msg 596 268 0 \, \$1 200 \, \$2 2500 200;
#X obj 620 181 sqrt;
#X obj 686 214 sqrt;
#X obj 849 194 * 0.2;
#X msg 516 274 0 200;
#X msg 796 277 \$1 1000 \, \$2 4000 1000;
#X obj 686 166 * 0.7;
#X obj 618 105 + 0.7;
#X obj 618 82 * 0.3;
#X obj 783 125 + 0.2;
#X obj 783 101 * 0.8;
#X obj 610 331 sig~ 95;
#X connect 0 0 8 0;
#X connect 0 0 10 0;
#X connect 0 0 12 0;
#X connect 1 0 2 0;
#X connect 2 0 43 0;
#X connect 3 0 5 0;
#X connect 4 0 3 0;
#X connect 5 0 6 0;
#X connect 6 0 45 0;
#X connect 7 0 44 0;
#X connect 8 0 9 0;
#X connect 9 0 10 1;
#X connect 10 0 64 0;
#X connect 11 0 7 0;
#X connect 12 0 7 1;
#X connect 13 0 44 1;
#X connect 14 0 15 0;
#X connect 15 0 48 0;
#X connect 15 1 22 0;
#X connect 15 1 31 0;
#X connect 15 1 34 0;
#X connect 16 0 17 0;
#X connect 16 0 18 0;
#X connect 16 0 13 0;
#X connect 16 0 41 1;
#X connect 17 0 0 0;
#X connect 17 0 66 0;
#X connect 18 0 49 0;
#X connect 19 0 60 0;
#X connect 20 0 84 0;
#X connect 22 0 24 0;
#X connect 23 0 26 0;
#X connect 23 0 26 1;
#X connect 24 0 37 0;
#X connect 25 0 39 0;
#X connect 26 0 25 1;
#X connect 27 0 30 0;
#X connect 27 1 77 0;
#X connect 28 0 79 0;
#X connect 29 0 28 1;
#X connect 30 0 28 0;
#X connect 31 0 38 0;
#X connect 31 1 20 0;
#X connect 32 0 33 0;
#X connect 32 0 33 1;
#X connect 33 0 19 1;
#X connect 34 0 78 0;
#X connect 34 1 69 0;
#X connect 35 0 36 0;
#X connect 35 0 36 1;
#X connect 36 0 42 0;
#X connect 37 0 23 0;
#X connect 38 0 32 0;
#X connect 39 0 17 0;
#X connect 40 0 46 0;
#X connect 41 0 42 1;
#X connect 42 0 13 0;
#X connect 43 0 12 1;
#X connect 44 0 65 0;
#X connect 45 0 12 1;
#X connect 46 0 3 1;
#X connect 47 0 1 0;
#X connect 48 0 16 0;
#X connect 49 0 12 1;
#X connect 50 0 25 0;
#X connect 51 0 52 0;
#X connect 52 0 53 0;
#X connect 53 0 67 0;
#X connect 53 0 68 0;
#X connect 54 0 55 0;
#X connect 55 0 50 0;
#X connect 56 0 57 0;
#X connect 57 0 61 0;
#X connect 58 0 59 0;
#X connect 59 0 60 1;
#X connect 60 0 21 0;
#X connect 61 0 62 0;
#X connect 62 0 63 0;
#X connect 63 0 59 1;
#X connect 64 0 11 0;
#X connect 65 0 19 0;
#X connect 66 0 65 1;
#X connect 67 0 56 0;
#X connect 68 0 54 0;
#X connect 69 0 82 0;
#X connect 70 0 73 0;
#X connect 70 1 80 0;
#X connect 71 0 74 0;
#X connect 72 0 76 0;
#X connect 73 0 75 0;
#X connect 74 0 35 0;
#X connect 75 0 71 0;
#X connect 76 0 71 1;
#X connect 77 0 29 0;
#X connect 78 0 35 0;
#X connect 79 0 32 0;
#X connect 80 0 72 0;
#X connect 81 0 70 0;
#X connect 82 0 81 0;
#X connect 83 0 27 0;
#X connect 84 0 83 0;
#X connect 85 0 41 0;
