#N canvas 572 50 1115 784 10;
#X msg 360 359 1000 \$1;
#X obj 360 380 /;
#X obj 360 432 sin;
#X msg 432 312 1;
#X obj 432 333 atan;
#X obj 432 354 * 4;
#X obj 432 380 / 44100;
#X obj 444 291 t b f;
#X obj 360 406 *;
#X obj 112 400 f;
#X obj 162 424 -;
#X obj 227 472 +;
#X obj 162 448 *;
#X obj 360 176 loadbang;
#X obj 112 259 loadbang;
#X msg 112 280 1;
#X obj 227 493 t f f;
#X obj 215 408 t f f;
#X obj 215 387 r \$0-z;
#X msg 444 244 1000 \$1;
#X obj 444 265 /;
#X obj 127 374 inlet;
#X obj 254 519 s \$0-z;
#X obj 227 546 outlet;
#X obj 444 223 f \$1;
#X obj 112 306 metro \$1;
#X obj 360 338 f \$2;
#X obj 360 197 t b b;
#X obj 300 322 inlet;
#X connect 0 0 1 0;
#X connect 1 0 8 0;
#X connect 2 0 12 1;
#X connect 3 0 4 0;
#X connect 4 0 5 0;
#X connect 5 0 6 0;
#X connect 6 0 8 1;
#X connect 7 0 3 0;
#X connect 7 1 6 1;
#X connect 8 0 2 0;
#X connect 9 0 10 0;
#X connect 10 0 12 0;
#X connect 11 0 16 0;
#X connect 12 0 11 0;
#X connect 13 0 27 0;
#X connect 14 0 15 0;
#X connect 15 0 25 0;
#X connect 16 0 23 0;
#X connect 16 1 22 0;
#X connect 17 0 10 1;
#X connect 17 1 11 1;
#X connect 18 0 17 0;
#X connect 19 0 20 0;
#X connect 20 0 7 0;
#X connect 21 0 9 1;
#X connect 24 0 19 0;
#X connect 25 0 9 0;
#X connect 26 0 0 0;
#X connect 27 0 26 0;
#X connect 27 1 24 0;
#X connect 28 0 26 0;
