#N canvas -12 0 1920 997 12;
#X obj 23 145 array set \$0-scale;
#X obj 63 179 array define -k -yrange 0 11 \$0-scale 7;
#A 0 0 2 3 5 7 8 10;
#X obj 23 92 loadbang;
#X obj 992 802 pack f f f;
#X obj 692 1079 throw~ \$0-output;
#X obj 139 309 catch~ \$0-output;
#X obj 147 1019 ws.tanh~;
#X obj 882 640 t f f;
#X obj 882 669 % 7;
#X obj 882 693 tabread \$0-scale;
#X obj 984 722 +;
#X obj 1002 669 div 7;
#X obj 1002 693 * 12;
#X obj 397 99 tgl 19 0 empty empty empty 0 -10 0 12 #00ff04 #000000 #000000 0 1;
#X obj 397 123 metro 250;
#X msg 23 121 0 2 3 5 7 8 10;
#X obj 774 289 loadbang;
#X obj 774 313 f \$0;
#X msg 774 342 read -resize ./brown-noise.wav \$1-wavetable;
#X obj 774 366 soundfiler;
#X obj 992 826 clone -s 1 cello~ 6 \$0;
#X msg 1221 309 4;
#X obj 1094 382 until;
#X obj 1221 333 t f b b;
#X obj 995 579 t f b;
#X obj 991 778 poly 6 1;
#X obj 694 1000 else/highshelf~ 2000 0.4 -12;
#X obj 143 678 *~ 0.5;
#X obj 578 617 t f f;
#X obj 578 646 % 7;
#X obj 578 670 tabread \$0-scale;
#X obj 680 699 +;
#X obj 698 646 div 7;
#X obj 698 670 * 12;
#X obj 691 556 t f b;
#X obj 680 723 makenote 127 6000;
#X msg 1245 403 clear;
#X msg 797 546 clear;
#X obj 675 516 else/rand.u 14;
#X obj 138 556 else/highpass~ 100 0.4;
#X obj 680 747 else/mono;
#X obj 680 771 pack f f;
#X obj 678 800 cello~ 1 \$0;
#X obj 984 746 makenote 127 6500;
#X obj 882 611 + 25;
#X obj 578 588 + 25;
#X obj 758 614 + 1;
#X obj 758 590 random 127;
#X obj 693 1045 else/lowshelf~ 400 0.4 -12;
#X obj 678 824 else/lowshelf~ 800 0.4 -12;
#X obj 180 612 else/lowpass~ 4000 0.4;
#X obj 1330 453 r \$0-velocidad-s;
#X obj 1330 477 / 127;
#X obj 1330 501 * 14;
#X obj 1330 525 + 0.5;
#X obj 1330 549 i;
#X obj 1330 573 + 14;
#X obj 538 157 s \$0-duracion;
#X obj 868 518 r \$0-duracion;
#X obj 1203 645 r \$0-duracion;
#X obj 1578 249 / 127;
#X msg 1578 273 1 \$1;
#X obj 1578 297 -;
#X obj 1578 321 s \$0-separacion-s;
#X obj 294 391 r \$0-separacion-s;
#X obj 294 439 + 100;
#X obj 294 463 dbtorms;
#X obj 294 511 line~;
#X obj 149 493 *~;
#X obj 1139 450 else/rand.u 28;
#X obj 1345 238 r \$0-separacion-s;
#X obj 1344 322 * 14;
#X obj 1344 346 + 0.5;
#X obj 1344 370 i;
#X obj 1344 394 + 14;
#X obj 637 278 r \$0-separacion-s;
#X obj 643 357 * 14;
#X obj 643 381 + 0.5;
#X obj 643 405 i;
#X obj 643 429 + 14;
#X obj 1202 669 * 2;
#X obj 868 542 * 2;
#X obj 1447 596 r \$0-separacion-s;
#X msg 1447 644 2 \$1;
#X obj 1447 668 pow;
#X msg 293 487 \$1 100;
#X obj 481 201 sel 1;
#X obj 397 147 else/count 1 4;
#X obj 530 278 % 2;
#X obj 530 302 sel 0;
#X obj 1276 1132 t f f;
#X obj 1276 1161 % 7;
#X obj 1276 1185 tabread \$0-scale;
#X obj 1378 1214 +;
#X obj 1396 1161 div 7;
#X obj 1396 1185 * 12;
#X obj 1370 1063 t f b;
#X obj 1378 1238 makenote 127 6000;
#X msg 1495 1061 clear;
#X obj 1381 1315 pack f f;
#X obj 1379 1344 cello~ 1 \$0;
#X obj 1276 1103 + 25;
#X obj 868 566 * 2;
#X obj 1397 737 r \$0-velocidad-s;
#X obj 1377 788 / 127;
#X obj 1278 956 metro;
#X msg 1377 860 60000 \$1;
#X obj 1377 884 /;
#X obj 147 1043 throw~ \$1-emotionAudio;
#X obj 890 82 switch~;
#X obj 862 -91 r \$1-emotion-s;
#X obj 862 -43 sel 0;
#X obj 862 22 delay 1000;
#X msg 862 47 0;
#X msg 882 -7 stop;
#X obj 398 -69 r \$1-emotion-s;
#X obj 398 -21 sel 0;
#X obj 398 44 delay 1000;
#X msg 398 69 0;
#X msg 418 15 stop;
#X obj 398 -45 == 6;
#X obj 861 -67 == 6;
#X obj 345 888 r \$1-emotion-s;
#X msg 345 984 \$1 1000;
#X obj 345 1008 line~;
#X obj 345 1032 sqrt~;
#X obj 347 961 pow 2;
#X obj 345 936 * 1;
#X obj 345 912 == 6;
#X obj 147 957 *~;
#X obj 1252 -64 r \$1-armVel;
#X obj 1157 833 change -1;
#X obj 1377 836 + 100;
#X obj 1201 693 * 6;
#X msg 1345 262 1 \$1;
#X obj 1345 286 -;
#X obj 1373 1031 else/rand.u 28;
#X obj 1575 222 r \$1-armSeparation;
#X obj 143 801 *~ 3;
#X msg 655 62 60000 \$1;
#X obj 655 86 /;
#X obj 655 -43 r \$0-velocidad-s;
#X obj 655 -19 / 127;
#X obj 655 33 + 30;
#X obj 1446 692 * 0.5;
#X obj 1447 621 * 2;
#X msg 637 302 1 \$1;
#X obj 637 326 -;
#X obj 1252 -33 else/rescale 0 0.05 0 127;
#X obj 1340 984 else/chance 80;
#X obj 677 848 *~ 0.2;
#X obj 1252 -9 s \$0-velocidad-s;
#X obj 1378 1391 *~ 0.2;
#X obj 1456 1105 random 63;
#X obj 1456 1129 + 63;
#X obj 1062 613 random 63;
#X obj 1063 637 + 63;
#X obj 655 4 * 500;
#X obj 1377 812 * 320;
#X obj 294 415 * 12;
#X obj 1157 857 select 1 0;
#X msg 1157 944 1;
#X msg 1189 891 0;
#X obj 1156 250 t b b;
#X obj 294 676 loadbang;
#X obj 269 753 else/plate.rev~;
#X obj 1378 1262 poly 1 1;
#X obj 1377 909 / 2;
#X obj 1159 920 delay 50;
#X obj 1330 597 + 0;
#X obj 1157 809 > 0.1;
#X obj 1379 1368 hip~ 1000;
#X obj 510 98 f;
#X obj 1363 938 f;
#X msg 295 700 pre 0 \, wet 1 \, size 0.7 \, damp 0.8 \, cutoff 1;
#X obj 985 874 /~ 10;
#X obj 772 435 array define \$0-wavetable;
#X connect 2 0 15 0;
#X connect 3 0 20 0;
#X connect 5 0 68 0;
#X connect 6 0 108 0;
#X connect 7 0 8 0;
#X connect 7 1 11 0;
#X connect 8 0 9 0;
#X connect 9 0 10 0;
#X connect 10 0 43 0;
#X connect 11 0 12 0;
#X connect 12 0 10 1;
#X connect 13 0 14 0;
#X connect 14 0 87 0;
#X connect 14 0 172 0;
#X connect 15 0 0 0;
#X connect 16 0 17 0;
#X connect 17 0 18 0;
#X connect 18 0 19 0;
#X connect 20 0 175 0;
#X connect 21 0 23 0;
#X connect 22 0 69 0;
#X connect 23 0 22 0;
#X connect 23 1 36 0;
#X connect 24 0 44 0;
#X connect 24 1 155 0;
#X connect 25 0 3 0;
#X connect 25 1 3 1;
#X connect 25 2 3 2;
#X connect 26 0 48 0;
#X connect 27 0 138 0;
#X connect 28 0 29 0;
#X connect 28 1 32 0;
#X connect 29 0 30 0;
#X connect 30 0 31 0;
#X connect 31 0 35 0;
#X connect 32 0 33 0;
#X connect 33 0 31 1;
#X connect 34 0 45 0;
#X connect 34 1 47 0;
#X connect 35 0 40 0;
#X connect 35 1 40 1;
#X connect 36 0 69 0;
#X connect 37 0 38 0;
#X connect 38 0 34 0;
#X connect 38 1 37 0;
#X connect 39 0 27 0;
#X connect 39 0 50 0;
#X connect 40 0 41 0;
#X connect 40 1 41 1;
#X connect 41 0 42 0;
#X connect 42 0 49 0;
#X connect 43 0 25 0;
#X connect 43 1 25 1;
#X connect 44 0 7 0;
#X connect 45 0 28 0;
#X connect 46 0 35 1;
#X connect 47 0 46 0;
#X connect 48 0 4 0;
#X connect 49 0 150 0;
#X connect 50 0 165 0;
#X connect 51 0 52 0;
#X connect 52 0 53 0;
#X connect 53 0 54 0;
#X connect 54 0 55 0;
#X connect 55 0 56 0;
#X connect 56 0 45 1;
#X connect 56 0 44 1;
#X connect 56 0 169 0;
#X connect 58 0 81 0;
#X connect 59 0 80 0;
#X connect 60 0 61 0;
#X connect 61 0 62 0;
#X connect 62 0 63 0;
#X connect 64 0 159 0;
#X connect 65 0 66 0;
#X connect 66 0 85 0;
#X connect 67 0 68 1;
#X connect 68 0 39 0;
#X connect 69 0 24 0;
#X connect 70 0 134 0;
#X connect 71 0 72 0;
#X connect 72 0 73 0;
#X connect 73 0 74 0;
#X connect 74 0 69 1;
#X connect 75 0 146 0;
#X connect 76 0 77 0;
#X connect 77 0 78 0;
#X connect 78 0 79 0;
#X connect 79 0 38 1;
#X connect 80 0 133 0;
#X connect 81 0 102 0;
#X connect 82 0 145 0;
#X connect 83 0 84 0;
#X connect 84 0 144 0;
#X connect 85 0 67 0;
#X connect 86 0 163 0;
#X connect 87 0 86 0;
#X connect 87 0 88 0;
#X connect 88 0 89 0;
#X connect 89 0 38 0;
#X connect 90 0 91 0;
#X connect 90 1 94 0;
#X connect 91 0 92 0;
#X connect 92 0 93 0;
#X connect 93 0 97 0;
#X connect 94 0 95 0;
#X connect 95 0 93 1;
#X connect 96 0 101 0;
#X connect 96 1 153 0;
#X connect 97 0 166 0;
#X connect 97 1 166 1;
#X connect 98 0 136 0;
#X connect 99 0 100 0;
#X connect 100 0 171 0;
#X connect 101 0 90 0;
#X connect 102 0 35 2;
#X connect 103 0 104 0;
#X connect 104 0 158 0;
#X connect 104 0 170 0;
#X connect 105 0 149 0;
#X connect 105 0 173 0;
#X connect 106 0 107 0;
#X connect 107 0 167 0;
#X connect 110 0 121 0;
#X connect 111 0 112 0;
#X connect 111 1 114 0;
#X connect 111 1 109 0;
#X connect 112 0 113 0;
#X connect 113 0 109 0;
#X connect 114 0 112 0;
#X connect 115 0 120 0;
#X connect 116 0 117 0;
#X connect 116 1 119 0;
#X connect 116 1 13 0;
#X connect 117 0 118 0;
#X connect 118 0 13 0;
#X connect 119 0 117 0;
#X connect 120 0 116 0;
#X connect 121 0 111 0;
#X connect 122 0 128 0;
#X connect 123 0 124 0;
#X connect 124 0 125 0;
#X connect 125 0 129 1;
#X connect 126 0 123 0;
#X connect 127 0 126 0;
#X connect 128 0 127 0;
#X connect 129 0 6 0;
#X connect 130 0 148 0;
#X connect 131 0 160 0;
#X connect 132 0 106 0;
#X connect 133 0 43 2;
#X connect 134 0 135 0;
#X connect 135 0 71 0;
#X connect 136 0 96 0;
#X connect 136 1 98 0;
#X connect 137 0 60 0;
#X connect 138 0 129 0;
#X connect 139 0 140 0;
#X connect 140 0 172 1;
#X connect 141 0 142 0;
#X connect 142 0 157 0;
#X connect 143 0 139 0;
#X connect 144 0 80 1;
#X connect 144 0 81 1;
#X connect 145 0 83 0;
#X connect 146 0 147 0;
#X connect 147 0 76 0;
#X connect 148 0 151 0;
#X connect 149 0 136 0;
#X connect 150 0 26 0;
#X connect 152 0 26 0;
#X connect 153 0 154 0;
#X connect 154 0 97 1;
#X connect 155 0 156 0;
#X connect 156 0 43 1;
#X connect 157 0 143 0;
#X connect 158 0 132 0;
#X connect 159 0 65 0;
#X connect 160 0 168 0;
#X connect 160 1 162 0;
#X connect 161 0 105 0;
#X connect 162 0 105 0;
#X connect 163 0 38 0;
#X connect 163 1 21 0;
#X connect 164 0 174 0;
#X connect 165 0 138 0;
#X connect 165 1 138 0;
#X connect 166 1 99 0;
#X connect 166 2 99 1;
#X connect 167 0 173 1;
#X connect 168 0 161 0;
#X connect 169 0 101 1;
#X connect 170 0 131 0;
#X connect 171 0 152 0;
#X connect 172 0 14 1;
#X connect 172 0 57 0;
#X connect 173 0 105 1;
#X connect 173 0 97 2;
#X connect 174 0 165 0;
#X connect 175 0 26 0;
