#N canvas 34 36 1920 997 12;
#X msg 33 409 0 2 4 5 7 9 11;
#X obj 33 433 array set \$0-scale;
#X obj 73 467 array define -k -yrange 0 11 \$0-scale 7;
#A 0 0 2 4 5 7 9 11;
#X obj 33 380 loadbang;
#X obj 864 526 bng 19 250 50 0 empty empty empty 0 -10 0 12 #fcfcfc #000000 #000000;
#X obj 514 736 makenote 127 100;
#X obj 514 784 pack f f f;
#X obj 526 1139 throw~ \$0-output;
#X obj 130 716 catch~ \$0-output;
#X obj 131 1108 ws.tanh~;
#X msg 864 550 4;
#X obj 737 623 until;
#X obj 767 652 i;
#X obj 807 652 + 1;
#X msg 839 613 0;
#X obj 404 582 t f f;
#X obj 404 611 % 7;
#X obj 404 635 tabread \$0-scale;
#X obj 506 664 +;
#X obj 524 611 div 7;
#X obj 524 635 * 12;
#X obj 767 681 sel 0;
#X msg 767 710 0;
#X obj 799 769 +;
#X obj 839 769 i;
#X obj 829 851 list prepend;
#X obj 929 851 t l;
#X obj 864 574 t f b b;
#X obj 799 822 +;
#X msg 799 710 bang;
#X obj 514 760 poly 6 1;
#X obj 514 808 clone -s 1 harp~ 6;
#X obj 407 387 tgl 19 0 empty empty empty 0 -10 0 12 #00ff04 #000000 #000000 0 1;
#X obj 829 880 array set \$0-chord;
#X obj 859 904 array define \$0-chord 4;
#X obj 404 553 tabread \$0-chord;
#X obj 422 463 t b b;
#X obj 568 532 random 127;
#X obj 506 688 + 60;
#X obj 404 500 else/count 0 3;
#X obj 407 411 metro 250;
#X obj 181 852 loadbang;
#X obj 181 900 unpack f f f;
#X obj 618 452 select 0;
#X obj 618 476 else/count 1 4;
#X obj 618 500 select 4;
#X obj 799 740 else/rand.i 1 2;
#X obj 880 803 else/rand.i 0 6;
#X obj 404 524 t f f;
#X obj 872 483 loadbang;
#X obj 526 1086 else/highshelf~ 6000 0.4 -6;
#X obj 526 1110 else/lowshelf~ 500 0.4 -12;
#X obj 595 603 * 12;
#X obj 595 627 + 60;
#X obj 595 579 else/rand.i -1 0;
#X msg 939 701 seed 125;
#X obj 158 799 hip~ 1000;
#X obj 158 823 else/lowpass~ 4000 0.4;
#X obj 157 957 hip~ 200;
#X obj 586 97 hsl 128 19 0 127 0 1 \$0-velocidad-s empty velocidad -2 -10 0 12 #00ff04 #000000 #000000 1736 1;
#X floatatom 582 122 5 0 0 0 - - - 0;
#X obj 583 145 / 127;
#X obj 577 696 clip 1 127;
#X obj 568 556 + 127;
#X obj 1194 993 makenote 127 100;
#X obj 1194 1041 pack f f f;
#X obj 1192 1186 throw~ \$0-output;
#X obj 1084 839 t f f;
#X obj 1084 868 % 7;
#X obj 1084 892 tabread \$0-scale;
#X obj 1186 921 +;
#X obj 1204 868 div 7;
#X obj 1204 892 * 12;
#X obj 1194 1017 poly 6 1;
#X obj 1084 810 tabread \$0-chord;
#X obj 1102 720 t b b;
#X obj 1084 781 t f f;
#X obj 1192 1133 else/highshelf~ 6000 0.4 -6;
#X obj 1192 1157 else/lowshelf~ 500 0.4 -12;
#X obj 1101 679 else/chance 50;
#X obj 1248 813 + 60;
#X obj 1248 789 random 63;
#X obj 1186 945 + 72;
#X obj 1194 1065 clone -s 1 leadharp~ 6;
#X msg 181 876 1 0.5 0.9;
#X msg 1196 607 1 \$1;
#X obj 1196 631 -;
#X obj 1196 655 * 100;
#X obj 1084 757 else/rand.u 14;
#X obj 671 727 * 2000;
#X obj 671 751 + 4000;
#X msg 671 775 all \$1;
#X obj 527 860 *~;
#X obj 520 900 ws.tanh~;
#X obj 520 924 *~;
#X obj 675 891 dbtorms;
#X msg 676 915 \$1 20;
#X obj 676 939 line~;
#X obj 639 987 sig~ 1;
#X obj 639 1011 /~;
#X obj 639 1035 clip~ 0.25 1;
#X obj 676 843 * 24;
#N canvas -1894 26 524 378 crush~ 0;
#X obj 12 141 -~;
#X obj 27 115 wrap~;
#X obj 82 167 /~;
#X obj 12 68 *~;
#X obj 97 31 inlet~;
#X obj 82 188 outlet~;
#X obj 12 31 inlet~;
#X text 82 208 (O1) Output;
#X text 12 11 (I1) Input;
#X text 12 252 https://lists.puredata.info/pipermail/pd-list/2008-12/066923.html;
#X text 12 237 Reference:;
#X obj 97 52 /~ 2;
#X text 97 11 (I2) Steps;
#X obj 12 89 +~ 0.5;
#X connect 0 0 2 0;
#X connect 1 0 0 1;
#X connect 2 0 5 0;
#X connect 3 0 13 0;
#X connect 4 0 11 0;
#X connect 6 0 3 0;
#X connect 11 0 3 1;
#X connect 11 0 2 1;
#X connect 13 0 1 0;
#X connect 13 0 0 0;
#X restore 131 745 pd crush~;
#X text 1043 517 Acople que resulte en octavas y ruido e intensidad;
#X obj 1396 924 t f f;
#X obj 1396 953 % 7;
#X obj 1396 977 tabread \$0-scale;
#X obj 1498 1006 +;
#X obj 1516 953 div 7;
#X obj 1516 977 * 12;
#X obj 1509 863 t f b;
#X obj 1496 1087 makenote 127 6000;
#X msg 1615 853 clear;
#X obj 1493 823 else/rand.u 14;
#X obj 1576 921 + 1;
#X obj 1576 897 random 127;
#X obj 1686 825 r \$0-duracion;
#X obj 1656 642 r \$0-separacion-s;
#X obj 1656 666 * 14;
#X obj 1656 690 + 0.5;
#X obj 1656 714 i;
#X obj 1656 738 + 14;
#X obj 1728 921 *;
#X obj 1458 776 else/chance;
#X obj 1517 601 r \$0-velocidad-s;
#X obj 1517 625 / 127;
#X obj 1687 849 * 2;
#X obj 1588 696 * 50;
#X obj 1588 720 + 50;
#X obj 1428 664 > 0;
#X obj 1443 736 metro;
#X msg 1517 697 60000 \$1;
#X obj 1517 721 /;
#X obj 1517 745 / 2;
#X obj 676 867 + 90;
#X obj 337 809 r \$0-separacion-s;
#X obj 337 857 + 100;
#X obj 337 881 dbtorms;
#X obj 337 929 line~;
#X msg 336 905 \$1 100;
#X obj 131 1077 *~;
#X obj 1439 374 hsl 128 19 0 127 0 1 empty empty Separacion -2 -10 0 12 #00ff04 #000000 #000000 1116 1;
#X floatatom 1436 398 5 0 0 0 - - - 0;
#X obj 1436 421 / 127;
#X msg 1436 445 1 \$1;
#X obj 1436 469 -;
#X obj 1436 493 s \$0-separacion-s;
#X obj 1196 583 r \$0-separacion-s;
#X obj 131 770 *~ 0.5;
#X obj 320 985 *~;
#X obj 1428 688 change -1;
#X obj 1517 673 + 120;
#X obj 1498 1030 + 60;
#X obj 1517 649 * 320;
#X obj 263 558 r \$0-separacion-s;
#X obj 263 654 * 4;
#X msg 263 702 2 \$1;
#X obj 263 726 pow;
#X msg 263 582 1 \$1;
#X obj 263 606 -;
#X obj 263 678 + 4;
#X obj 338 1127 *~;
#X obj 356 1050 sig~ 1;
#X obj 356 1074 /~;
#X obj 356 1098 clip~ 0.5 1;
#X obj 157 929 re.plate-1~;
#X obj 900 370 switch~;
#X obj 338 1176 throw~ \$1-emotionAudio;
#X obj 414 894 r \$1-emotion-s;
#X msg 414 996 \$1 1000;
#X obj 414 1020 line~;
#X obj 414 918 == 1;
#X obj 338 1151 *~;
#X obj 414 942 * 0.3;
#X obj 414 966 pow 2;
#X obj 414 1044 sqrt~;
#X obj 872 197 r \$1-emotion-s;
#X obj 872 245 sel 0;
#X obj 872 310 delay 1000;
#X msg 872 335 0;
#X msg 892 281 stop;
#X obj 408 219 r \$1-emotion-s;
#X obj 408 267 sel 0;
#X obj 408 332 delay 1000;
#X msg 408 357 0;
#X msg 428 303 stop;
#X obj 872 221 == 1;
#X obj 408 243 == 1;
#X obj 585 -4 r \$1-armVel;
#X obj 1436 337 r \$1-armSeparation;
#X obj 583 28 else/rescale 0 0.1 0 127;
#X msg 597 276 60000 \$1;
#X obj 597 300 /;
#X obj 597 324 / 2;
#X obj 584 240 + 40;
#X obj 263 630 pow 1;
#X obj 583 169 pow 2;
#X obj 583 191 * 300;
#X obj 1194 1089 *~ 0.2;
#X obj 337 834 * 6;
#X connect 0 0 1 0;
#X connect 3 0 0 0;
#X connect 4 0 10 0;
#X connect 4 0 54 0;
#X connect 5 0 30 0;
#X connect 5 1 30 1;
#X connect 6 0 31 0;
#X connect 8 0 102 0;
#X connect 9 0 161 0;
#X connect 10 0 27 0;
#X connect 11 0 12 0;
#X connect 12 0 13 0;
#X connect 12 0 21 0;
#X connect 13 0 12 1;
#X connect 14 0 12 1;
#X connect 14 0 24 0;
#X connect 15 0 16 0;
#X connect 15 1 19 0;
#X connect 16 0 17 0;
#X connect 17 0 18 0;
#X connect 18 0 38 0;
#X connect 19 0 20 0;
#X connect 20 0 18 1;
#X connect 21 0 22 0;
#X connect 21 1 29 0;
#X connect 22 0 23 0;
#X connect 23 0 24 0;
#X connect 23 0 28 0;
#X connect 24 0 23 1;
#X connect 25 0 26 0;
#X connect 25 0 33 0;
#X connect 26 0 25 1;
#X connect 27 0 11 0;
#X connect 27 1 14 0;
#X connect 27 2 25 1;
#X connect 27 2 47 0;
#X connect 28 0 25 0;
#X connect 29 0 46 0;
#X connect 30 0 6 0;
#X connect 30 1 6 1;
#X connect 30 2 6 2;
#X connect 31 0 92 0;
#X connect 31 0 50 0;
#X connect 32 0 40 0;
#X connect 35 0 15 0;
#X connect 36 0 39 0;
#X connect 36 1 37 0;
#X connect 37 0 63 0;
#X connect 38 0 5 0;
#X connect 39 0 48 0;
#X connect 40 0 36 0;
#X connect 40 0 79 0;
#X connect 41 0 84 0;
#X connect 42 0 165 1;
#X connect 42 1 165 2;
#X connect 42 2 165 3;
#X connect 43 0 44 0;
#X connect 44 0 45 0;
#X connect 45 0 4 0;
#X connect 46 0 23 0;
#X connect 47 0 28 1;
#X connect 48 0 35 0;
#X connect 48 1 43 0;
#X connect 49 0 4 0;
#X connect 49 0 55 0;
#X connect 50 0 51 0;
#X connect 51 0 7 0;
#X connect 52 0 53 0;
#X connect 53 0 38 1;
#X connect 54 0 52 0;
#X connect 55 0 46 0;
#X connect 56 0 57 0;
#X connect 57 0 165 0;
#X connect 58 0 149 0;
#X connect 59 0 60 0;
#X connect 60 0 61 0;
#X connect 61 0 196 0;
#X connect 62 0 5 1;
#X connect 63 0 62 0;
#X connect 64 0 73 0;
#X connect 64 1 73 1;
#X connect 65 0 83 0;
#X connect 67 0 68 0;
#X connect 67 1 71 0;
#X connect 68 0 69 0;
#X connect 69 0 70 0;
#X connect 70 0 82 0;
#X connect 71 0 72 0;
#X connect 72 0 70 1;
#X connect 73 0 65 0;
#X connect 73 1 65 1;
#X connect 73 2 65 2;
#X connect 74 0 67 0;
#X connect 75 0 88 0;
#X connect 75 1 81 0;
#X connect 76 0 74 0;
#X connect 77 0 78 0;
#X connect 78 0 66 0;
#X connect 79 0 75 0;
#X connect 80 0 64 1;
#X connect 81 0 80 0;
#X connect 82 0 64 0;
#X connect 83 0 198 0;
#X connect 84 0 42 0;
#X connect 85 0 86 0;
#X connect 86 0 87 0;
#X connect 86 0 89 0;
#X connect 86 0 101 0;
#X connect 87 0 79 1;
#X connect 88 0 76 0;
#X connect 89 0 90 0;
#X connect 90 0 91 0;
#X connect 91 0 31 1;
#X connect 92 0 93 0;
#X connect 93 0 94 0;
#X connect 95 0 96 0;
#X connect 96 0 97 0;
#X connect 97 0 92 1;
#X connect 97 0 99 1;
#X connect 98 0 99 0;
#X connect 99 0 100 0;
#X connect 100 0 94 1;
#X connect 101 0 134 0;
#X connect 102 0 148 0;
#X connect 104 0 105 0;
#X connect 104 1 108 0;
#X connect 105 0 106 0;
#X connect 106 0 107 0;
#X connect 107 0 152 0;
#X connect 108 0 109 0;
#X connect 109 0 107 1;
#X connect 110 0 104 0;
#X connect 110 1 115 0;
#X connect 111 0 73 0;
#X connect 111 1 73 1;
#X connect 112 0 113 0;
#X connect 113 0 110 0;
#X connect 113 1 112 0;
#X connect 114 0 111 1;
#X connect 115 0 114 0;
#X connect 116 0 126 0;
#X connect 117 0 118 0;
#X connect 118 0 119 0;
#X connect 119 0 120 0;
#X connect 120 0 121 0;
#X connect 121 0 113 1;
#X connect 122 0 111 2;
#X connect 123 0 113 0;
#X connect 124 0 125 0;
#X connect 125 0 127 0;
#X connect 125 0 129 0;
#X connect 125 0 153 0;
#X connect 126 0 122 0;
#X connect 127 0 128 0;
#X connect 128 0 123 1;
#X connect 129 0 150 0;
#X connect 130 0 123 0;
#X connect 131 0 132 0;
#X connect 132 0 133 0;
#X connect 133 0 130 1;
#X connect 134 0 95 0;
#X connect 135 0 199 0;
#X connect 136 0 137 0;
#X connect 137 0 139 0;
#X connect 138 0 140 1;
#X connect 138 0 149 1;
#X connect 138 0 163 1;
#X connect 139 0 138 0;
#X connect 140 0 9 0;
#X connect 141 0 142 0;
#X connect 142 0 143 0;
#X connect 143 0 144 0;
#X connect 144 0 145 0;
#X connect 145 0 146 0;
#X connect 147 0 85 0;
#X connect 148 0 56 0;
#X connect 148 0 140 0;
#X connect 149 0 140 0;
#X connect 150 0 130 0;
#X connect 151 0 131 0;
#X connect 152 0 111 0;
#X connect 153 0 151 0;
#X connect 154 0 158 0;
#X connect 155 0 160 0;
#X connect 156 0 157 0;
#X connect 157 0 102 1;
#X connect 158 0 159 0;
#X connect 159 0 195 0;
#X connect 160 0 156 0;
#X connect 161 0 172 0;
#X connect 162 0 163 0;
#X connect 163 0 164 0;
#X connect 164 0 161 1;
#X connect 165 0 58 0;
#X connect 165 1 58 0;
#X connect 168 0 171 0;
#X connect 169 0 170 0;
#X connect 170 0 175 0;
#X connect 171 0 173 0;
#X connect 172 0 167 0;
#X connect 173 0 174 0;
#X connect 174 0 169 0;
#X connect 175 0 172 1;
#X connect 176 0 186 0;
#X connect 177 0 178 0;
#X connect 177 1 180 0;
#X connect 177 1 166 0;
#X connect 178 0 179 0;
#X connect 179 0 166 0;
#X connect 180 0 178 0;
#X connect 181 0 187 0;
#X connect 182 0 183 0;
#X connect 182 1 185 0;
#X connect 182 1 32 0;
#X connect 183 0 184 0;
#X connect 184 0 32 0;
#X connect 185 0 183 0;
#X connect 186 0 177 0;
#X connect 187 0 182 0;
#X connect 188 0 190 0;
#X connect 189 0 141 0;
#X connect 190 0 59 0;
#X connect 191 0 192 0;
#X connect 192 0 193 0;
#X connect 193 0 40 1;
#X connect 194 0 191 0;
#X connect 195 0 155 0;
#X connect 196 0 197 0;
#X connect 197 0 194 0;
#X connect 198 0 77 0;
#X connect 199 0 136 0;
