#N canvas 163 17 1589 1036 12;
#X obj 277 -228 bng 19 250 50 0 empty empty empty 0 -10 0 12 #fcfcfc #000000 #000000;
#X obj 277 -204 t b b;
#X obj 976 -18 array set \$0-scale;
#X obj 147 382 % 7;
#X obj 147 406 tabread \$0-scale;
#X obj 249 440 +;
#X obj 267 382 div 7;
#X obj 267 406 * 12;
#X obj 987 155 array set \$0-prob;
#X obj 384 8 tabread \$0-prob;
#X obj 248 -32 random 100;
#X obj 259 18 <;
#X obj 1006 6 array define -yrange 0 12 -k \$0-scale 12;
#A 0 0 1 3 5 7 8 10 0 0 0 0 0;
#X obj 1017 178 array define -yrange 0 100 -k \$0-prob 7;
#A 0 100 100 25 50 100 25 100;
#X obj 259 42 select 1 0;
#X obj 223 -119 t b f f;
#X obj 345 614 pack f f f;
#X obj 352 -211 tgl 19 0 empty empty empty 0 -10 0 12 #00ff04 #000000 #000000 0 1;
#X obj 258 79 f;
#X obj 258 111 t f f b b;
#X msg 1018 94 100 100 100 100 100 100;
#X obj 150 349 t f f;
#X obj 249 487 t f b;
#X obj 432 948 else/drive~;
#X text 608 -139 i ii` III iv v VI VII;
#X text 608 -69 i II III iv v` VI vii;
#X msg 976 -42 0 1 3 5 7 8 10;
#X obj 216 52 bng 19 250 50 0 empty empty empty 0 -10 0 12 #fcfcfc #000000 #000000;
#X obj 371 -50 mod 7;
#X floatatom 416 -33 5 0 0 0 - - - 0;
#X obj 445 184 + 1;
#X obj 366 231 pipe 20;
#X obj 222 253 pipe 30;
#X obj 434 249 pipe 40;
#N canvas 194 234 655 363 test 0;
#X obj 121 29 inlet~;
#X obj 441 290 block~ 1 1 1;
#X obj 51 320 outlet~;
#X obj 58 261 else/lowpass~ 6000 0.4;
#X obj 58 237 else/highpass~ 20 0.4;
#X obj 68 103 else/highpass~ 20 0.4;
#X obj 62 193 else/drive~ 50;
#X connect 0 0 5 0;
#X connect 3 0 2 0;
#X connect 4 0 3 0;
#X connect 5 0 6 0;
#X connect 6 0 4 0;
#X restore 629 401 pd test;
#X text 846 452 pole (%);
#X floatatom 985 516 3 -99 99 0 - \$0-pole - 0;
#X obj 890 536 rpole~;
#X obj 985 539 / 100;
#X obj 890 511 rzero_rev~;
#X text 980 492 pole (%);
#X obj 625 615 +~;
#X obj 890 598 rpole~;
#X obj 890 573 rzero_rev~;
#X obj 896 662 rpole~;
#X obj 896 637 rzero_rev~;
#X obj 1048 622 rpole~;
#X obj 1048 597 rzero_rev~;
#X obj 1048 684 rpole~;
#X obj 1048 659 rzero_rev~;
#X obj 1054 748 rpole~;
#X obj 1054 723 rzero_rev~;
#X obj 1054 810 rpole~;
#X obj 1054 785 rzero_rev~;
#X floatatom 1151 676 5 0 0 0 - - - 0;
#X floatatom 906 66 3 -99 99 0 - \$0-pole - 0;
#X obj 811 86 rpole~;
#X obj 906 89 / 100;
#X obj 811 61 rzero_rev~;
#X text 901 42 pole (%);
#X obj 681 320 +~;
#X obj 811 148 rpole~;
#X obj 811 123 rzero_rev~;
#X obj 817 212 rpole~;
#X obj 817 187 rzero_rev~;
#X obj 817 274 rpole~;
#X obj 817 249 rzero_rev~;
#X obj 817 297 *~ 1;
#X obj 626 477 hip~ 100;
#X obj 666 425 else/ffdelay~ 0.5;
#X obj 666 449 *~ 0.33;
#X obj 883 835 *~ 1;
#X obj 905 713 rpole~;
#X obj 905 688 rzero_rev~;
#X obj 243 524 makenote 127 4000;
#X floatatom 1154 561 3 -99 99 0 - \$0-pole - 0;
#X obj 1154 584 / 100;
#X text 1156 532 pole (%);
#X obj 150 325 + 7;
#X obj 240 -174 random 5;
#X obj 240 -150 - 2;
#X msg 179 92 6;
#X obj 1055 415 loadbang;
#X msg 994 446 70;
#X msg 431 484 2 \$1;
#X obj 431 508 pow;
#X msg 431 556 all \$1;
#X obj 442 644 else/allpass.rev~ 1.5 0.5 1;
#X obj 441 860 else/plate.rev~;
#X obj 596 535 else/eq~ 400 0.4 -6;
#X obj 627 574 else/lowshelf~ 400 1 6;
#X obj 442 714 else/allpass.rev~ 0.5 -0.5 1;
#X obj 442 737 else/allpass.rev~ 3.33 0.5 1;
#X obj 441 690 else/allpass.rev~ 0.123 0.5 1;
#X obj 442 668 else/allpass.rev~ 1.637 -0.5 1;
#X obj 615 503 else/eq~ 4000 0.4 12;
#X obj 897 747 *~ 0.5;
#X obj 433 458 random 4;
#X obj 431 531 * 64;
#X obj 352 -190 metro 4000;
#X obj 275 166 random 2;
#X obj 275 190 * 2;
#X obj 267 220 + 2;
#X msg 1091 479 -50;
#X floatatom 322 -122 5 0 0 0 - - - 0;
#X obj 445 216 + 7;
#X obj 320 486 + 1;
#X obj 320 462 random 127;
#X obj 602 57 lop~ 2000;
#X obj 248 463 + 30;
#X obj 366 207 + 7;
#X obj 429 283 random 6;
#X msg 987 129 100 100 25 50 100 25 100;
#X msg 619 817 size 0.1;
#X msg 470 809 damp 0;
#X obj 223 229 + 4;
#X msg 524 816 wet 1;
#X obj 429 307 + 30;
#X obj 268 650 clone -s 1 fmVoice~ 4;
#X obj 345 590 poly 4 1;
#X obj 539 339 *~;
#X obj 432 972 throw~ \$1-emotionAudio;
#X obj 1070 -123 switch~;
#X obj 1038 -290 r \$1-emotion-s;
#X obj 1038 -266 == 2;
#X obj 524 775 loadbang;
#X obj 738 812 r \$1-emotion-s;
#X obj 738 836 == 2;
#X msg 738 908 \$1 1000;
#X obj 738 932 line~;
#X obj 435 923 *~;
#X obj 1038 -242 sel 0;
#X obj 1038 -177 delay 1000;
#X msg 1038 -152 0;
#X obj 738 860 * 0.02;
#X obj 738 956 sqrt~;
#X obj 740 885 pow 2;
#X msg 1058 -206 stop;
#X obj 352 -378 r \$1-emotion-s;
#X obj 352 -354 == 2;
#X obj 352 -330 sel 0;
#X obj 352 -265 delay 1000;
#X msg 352 -240 0;
#X msg 372 -294 stop;
#X obj 565 168 r \$1-armSeparation;
#X obj 565 192 / 127;
#X obj 565 240 -;
#X msg 565 216 1 \$1;
#X obj 563 286 * 0.5;
#X obj 883 322 r \$1-armSeparation;
#X obj 883 346 / 127;
#X obj 681 344 *~;
#X obj 883 370 * 0.5;
#X obj 883 394 + 0.5;
#X obj 883 418 else/f2s~ 20;
#X obj 516 -331 hsl 128 19 0 127 0 1 \$0-velocidad-s empty velocidad -2 -10 0 12 #00ff04 #000000 #000000 1933 1;
#X floatatom 512 -306 5 0 0 0 - - - 0;
#X obj 513 -283 / 127;
#X obj 515 -432 r \$1-armVel;
#X msg 527 -152 60000 \$1;
#X obj 527 -128 /;
#X floatatom 527 -79 5 0 0 0 - - - 0;
#X obj 527 -104 / 1;
#X obj 514 -188 + 30;
#X obj 513 -400 else/rescale 0 0.05 0 127;
#X obj 352 -165 else/chance 70;
#X obj 513 -237 * 400;
#X obj 513 -260 pow 1;
#X obj 565 264 pow 4;
#X obj 539 315 osc~ 1000;
#X obj 725 -291 r \$1-armVel;
#X obj 730 -220 else/rescale 0 0.01 0 100;
#X obj 725 -266 clip 0 0.01;
#X connect 0 0 1 0;
#X connect 1 0 79 0;
#X connect 1 1 111 0;
#X connect 3 0 4 0;
#X connect 4 0 5 0;
#X connect 5 0 109 0;
#X connect 6 0 7 0;
#X connect 7 0 5 1;
#X connect 9 0 11 1;
#X connect 10 0 11 0;
#X connect 11 0 14 0;
#X connect 14 0 18 0;
#X connect 14 1 79 0;
#X connect 15 0 10 0;
#X connect 15 1 28 0;
#X connect 15 2 18 1;
#X connect 16 0 118 0;
#X connect 17 0 99 0;
#X connect 18 0 19 0;
#X connect 19 0 78 0;
#X connect 19 1 30 0;
#X connect 19 1 110 0;
#X connect 19 1 115 0;
#X connect 19 3 97 0;
#X connect 19 3 100 0;
#X connect 21 0 3 0;
#X connect 21 1 6 0;
#X connect 22 0 74 0;
#X connect 22 1 107 0;
#X connect 23 0 121 0;
#X connect 26 0 2 0;
#X connect 27 0 18 0;
#X connect 28 0 9 0;
#X connect 28 0 29 0;
#X connect 30 0 105 0;
#X connect 31 0 78 0;
#X connect 32 0 78 0;
#X connect 33 0 78 0;
#X connect 34 0 68 0;
#X connect 34 0 69 0;
#X connect 36 0 38 0;
#X connect 37 0 43 0;
#X connect 38 0 39 1;
#X connect 38 0 37 1;
#X connect 38 0 43 1;
#X connect 38 0 42 1;
#X connect 38 0 45 1;
#X connect 38 0 44 1;
#X connect 38 0 47 1;
#X connect 38 0 51 1;
#X connect 38 0 50 1;
#X connect 38 0 49 1;
#X connect 38 0 48 1;
#X connect 38 0 46 1;
#X connect 38 0 53 1;
#X connect 38 0 52 1;
#X connect 38 0 73 1;
#X connect 38 0 72 1;
#X connect 39 0 37 0;
#X connect 41 0 87 0;
#X connect 42 0 45 0;
#X connect 43 0 42 0;
#X connect 44 0 73 0;
#X connect 45 0 44 0;
#X connect 46 0 49 0;
#X connect 47 0 46 0;
#X connect 48 0 51 0;
#X connect 49 0 48 0;
#X connect 50 0 53 0;
#X connect 51 0 50 0;
#X connect 52 0 71 0;
#X connect 53 0 52 0;
#X connect 54 0 47 1;
#X connect 54 0 51 1;
#X connect 54 0 50 1;
#X connect 54 0 49 1;
#X connect 54 0 48 1;
#X connect 54 0 46 1;
#X connect 54 0 53 1;
#X connect 54 0 52 1;
#X connect 55 0 57 0;
#X connect 56 0 62 0;
#X connect 57 0 58 1;
#X connect 57 0 56 1;
#X connect 57 0 62 1;
#X connect 57 0 61 1;
#X connect 57 0 66 1;
#X connect 57 0 65 1;
#X connect 57 0 64 1;
#X connect 57 0 63 1;
#X connect 58 0 56 0;
#X connect 60 0 151 0;
#X connect 61 0 64 0;
#X connect 62 0 61 0;
#X connect 63 0 66 0;
#X connect 64 0 63 0;
#X connect 65 0 67 0;
#X connect 66 0 65 0;
#X connect 67 0 60 1;
#X connect 68 0 95 0;
#X connect 69 0 70 0;
#X connect 70 0 68 0;
#X connect 71 0 41 1;
#X connect 72 0 47 0;
#X connect 72 0 96 0;
#X connect 73 0 72 0;
#X connect 74 0 119 0;
#X connect 74 1 119 1;
#X connect 75 0 76 0;
#X connect 76 0 54 0;
#X connect 78 0 21 0;
#X connect 79 0 80 0;
#X connect 80 0 15 0;
#X connect 80 0 104 0;
#X connect 81 0 19 0;
#X connect 82 0 83 0;
#X connect 82 0 103 0;
#X connect 83 0 38 0;
#X connect 84 0 85 0;
#X connect 85 0 98 0;
#X connect 87 0 94 0;
#X connect 88 0 130 0;
#X connect 88 1 130 0;
#X connect 89 0 90 0;
#X connect 90 0 41 0;
#X connect 90 0 39 0;
#X connect 91 0 92 0;
#X connect 92 0 88 0;
#X connect 93 0 91 0;
#X connect 94 0 93 0;
#X connect 95 0 89 0;
#X connect 96 0 41 1;
#X connect 97 0 84 0;
#X connect 98 0 86 0;
#X connect 99 0 165 0;
#X connect 100 0 101 0;
#X connect 101 0 102 0;
#X connect 103 0 76 0;
#X connect 105 0 33 0;
#X connect 106 0 74 1;
#X connect 107 0 106 0;
#X connect 108 0 58 0;
#X connect 108 0 60 0;
#X connect 109 0 22 0;
#X connect 110 0 31 0;
#X connect 111 0 117 0;
#X connect 112 0 8 0;
#X connect 113 0 88 0;
#X connect 114 0 88 0;
#X connect 115 0 32 0;
#X connect 116 0 88 0;
#X connect 117 0 109 1;
#X connect 118 0 108 0;
#X connect 119 0 16 0;
#X connect 119 1 16 1;
#X connect 119 2 16 2;
#X connect 120 0 34 0;
#X connect 123 0 124 0;
#X connect 124 0 131 0;
#X connect 125 0 116 0;
#X connect 125 0 113 0;
#X connect 125 0 114 0;
#X connect 126 0 127 0;
#X connect 127 0 134 0;
#X connect 128 0 129 0;
#X connect 129 0 135 0;
#X connect 130 0 23 0;
#X connect 131 0 132 0;
#X connect 131 1 122 0;
#X connect 131 1 137 0;
#X connect 132 0 133 0;
#X connect 133 0 122 0;
#X connect 134 0 136 0;
#X connect 135 0 130 1;
#X connect 136 0 128 0;
#X connect 137 0 132 0;
#X connect 138 0 139 0;
#X connect 139 0 140 0;
#X connect 140 0 141 0;
#X connect 140 1 143 0;
#X connect 140 1 17 0;
#X connect 141 0 142 0;
#X connect 142 0 17 0;
#X connect 143 0 141 0;
#X connect 144 0 145 0;
#X connect 145 0 147 0;
#X connect 146 0 168 0;
#X connect 147 0 146 0;
#X connect 148 0 120 1;
#X connect 149 0 150 0;
#X connect 150 0 152 0;
#X connect 151 0 34 0;
#X connect 152 0 153 0;
#X connect 153 0 154 0;
#X connect 154 0 151 1;
#X connect 155 0 156 0;
#X connect 156 0 157 0;
#X connect 157 0 167 0;
#X connect 158 0 164 0;
#X connect 159 0 160 0;
#X connect 160 0 162 0;
#X connect 161 0 99 1;
#X connect 162 0 161 0;
#X connect 163 0 159 0;
#X connect 164 0 155 0;
#X connect 165 0 27 0;
#X connect 165 0 0 0;
#X connect 166 0 163 0;
#X connect 167 0 166 0;
#X connect 168 0 148 0;
#X connect 169 0 120 0;
#X connect 170 0 172 0;
#X connect 171 0 165 1;
#X connect 172 0 171 0;
