#N canvas -12 0 1920 997 12;
#X obj 23 195 array set \$0-scale;
#X obj 63 229 array define -k -yrange 0 11 \$0-scale 7;
#A 0 0 2 3 5 7 8 10;
#X obj 23 142 loadbang;
#X obj 992 852 pack f f f;
#X obj 706 1011 throw~ \$0-output;
#X obj 139 359 catch~ \$0-output;
#X obj 147 1009 ws.tanh~;
#X obj 882 690 t f f;
#X obj 882 719 % 7;
#X obj 882 743 tabread \$0-scale;
#X obj 984 772 +;
#X obj 1002 719 div 7;
#X obj 1002 743 * 12;
#X obj 397 149 tgl 19 0 empty empty empty 0 -10 0 12 #00ff04 #000000 #000000 0 1;
#X obj 397 173 metro 250;
#X msg 533 52 60000 \$1;
#X obj 533 76 /;
#X msg 533 130 \$1 1000;
#X obj 665 97 loadbang;
#X msg 665 121 1;
#X obj 665 145 metro 1000;
#X obj 424 698 loadbang;
#X obj 424 746 unpack f f f;
#X msg 23 171 0 2 3 5 7 8 10;
#X obj 772 485 array define -k \$0-wavetable;
#A resize 16576;
#X obj 774 339 loadbang;
#X obj 774 363 f \$0;
#X msg 774 392 read -resize ./brown-noise.wav \$1-wavetable;
#X obj 774 416 soundfiler;
#X obj 992 876 clone -s 1 cello~ 6 \$0;
#X obj 1221 335 bng 19 250 50 0 empty empty empty 0 -10 0 12 #fcfcfc #000000 #000000;
#X msg 1221 359 4;
#X obj 1094 432 until;
#X obj 1221 383 t f b b;
#X obj 995 629 t f b;
#X obj 991 828 poly 6 1;
#X obj 708 932 else/highshelf~ 2000 0.4 -12;
#X obj 143 728 *~ 0.5;
#X obj 533 28 else/rand.f 60 80;
#X obj 578 667 t f f;
#X obj 578 696 % 7;
#X obj 578 720 tabread \$0-scale;
#X obj 680 749 +;
#X obj 698 696 div 7;
#X obj 698 720 * 12;
#X obj 691 606 t f b;
#X obj 680 773 makenote 127 6000;
#X msg 1245 453 clear;
#X msg 797 596 clear;
#X obj 675 566 else/rand.u 14;
#X obj 138 606 else/highpass~ 100 0.4;
#X obj 680 797 else/mono;
#X obj 680 821 pack f f;
#X obj 678 850 cello~ 1 \$0;
#X obj 984 796 makenote 127 6500;
#X obj 882 661 + 25;
#X obj 578 638 + 25;
#X obj 1062 687 + 1;
#X obj 1062 663 random 127;
#X obj 758 664 + 1;
#X obj 758 640 random 127;
#X obj 707 977 else/lowshelf~ 400 0.4 -12;
#X obj 678 874 else/lowshelf~ 800 0.4 -12;
#X obj 180 662 else/lowpass~ 4000 0.4;
#X obj 568 874 *~ 0.1;
#X obj 1575 316 hsl 128 19 0 127 0 1 empty empty Separacion -2 -10 0 12 #00ff04 #000000 #000000 0 1;
#X obj 1260 57 hsl 128 19 0 127 0 1 \$0-velocidad-s empty velocidad -2 -10 0 12 #00ff04 #000000 #000000 0 1;
#X obj 1330 503 r \$0-velocidad-s;
#X obj 1330 527 / 127;
#X obj 1330 551 * 14;
#X obj 1330 575 + 0.5;
#X obj 1330 599 i;
#X obj 1330 623 + 14;
#X obj 602 -107 r \$0-velocidad-s;
#X obj 602 -83 / 127;
#X obj 538 207 s \$0-duracion;
#X obj 868 568 r \$0-duracion;
#X obj 1203 695 r \$0-duracion;
#X obj 533 154 line 0 10;
#X obj 1572 354 / 127;
#X msg 1572 378 1 \$1;
#X obj 1572 402 -;
#X obj 1572 426 s \$0-separacion-s;
#X obj 294 441 r \$0-separacion-s;
#X obj 294 489 + 100;
#X obj 294 513 dbtorms;
#X obj 294 561 line~;
#X obj 149 543 *~;
#X obj 1139 500 else/rand.u 28;
#X obj 1345 288 r \$0-separacion-s;
#X obj 1344 372 * 14;
#X obj 1344 396 + 0.5;
#X obj 1344 420 i;
#X obj 1344 444 + 14;
#X obj 637 328 r \$0-separacion-s;
#X obj 643 407 * 14;
#X obj 643 431 + 0.5;
#X obj 643 455 i;
#X obj 643 479 + 14;
#X obj 1202 719 * 2;
#X obj 868 592 * 2;
#X obj 1447 646 r \$0-separacion-s;
#X msg 1447 694 2 \$1;
#X obj 1447 718 pow;
#X msg 293 537 \$1 100;
#X obj 602 -60 * 300;
#X obj 481 251 sel 1;
#X obj 397 197 else/count 1 4;
#X obj 530 328 % 2;
#X obj 530 352 sel 0;
#X obj 1096 1143 t f f;
#X obj 1096 1172 % 7;
#X obj 1096 1196 tabread \$0-scale;
#X obj 1198 1225 +;
#X obj 1216 1172 div 7;
#X obj 1216 1196 * 12;
#X obj 1209 1082 t f b;
#X obj 1198 1249 makenote 127 6000;
#X msg 1315 1072 clear;
#X obj 1198 1273 else/mono;
#X obj 1198 1297 pack f f;
#X obj 1196 1326 cello~ 1 \$0;
#X obj 1096 1114 + 25;
#X obj 1276 1140 + 1;
#X obj 1276 1116 random 127;
#X obj 1196 1350 else/lowshelf~ 800 0.4 -12;
#X obj 1386 1044 r \$0-duracion;
#X obj 1356 861 r \$0-separacion-s;
#X obj 1356 885 * 14;
#X obj 1356 909 + 0.5;
#X obj 1356 933 i;
#X obj 1356 957 + 14;
#X obj 533 100 * 1;
#X obj 868 616 * 2;
#X obj 1217 820 r \$0-velocidad-s;
#X obj 1217 844 / 127;
#X obj 1330 647 + 7;
#X obj 1387 1068 * 2;
#X obj 1288 915 * 50;
#X obj 1081 908 > 0;
#X obj 1098 967 metro;
#X msg 1217 916 60000 \$1;
#X obj 1217 940 /;
#X obj 363 793 re.plate-1~;
#X obj 147 1033 throw~ \$1-emotionAudio;
#X obj 890 132 switch~;
#X obj 862 -41 r \$1-emotion-s;
#X obj 862 7 sel 0;
#X obj 862 72 delay 1000;
#X msg 862 97 0;
#X msg 882 43 stop;
#X obj 398 -19 r \$1-emotion-s;
#X obj 398 29 sel 0;
#X obj 398 94 delay 1000;
#X msg 398 119 0;
#X msg 418 65 stop;
#X obj 398 5 == 6;
#X obj 861 -17 == 6;
#X obj 345 878 r \$1-emotion-s;
#X msg 345 974 \$1 1000;
#X obj 345 998 line~;
#X obj 345 1022 sqrt~;
#X obj 347 951 pow 2;
#X obj 345 926 * 1;
#X obj 345 902 == 6;
#X obj 147 947 *~;
#X obj 1252 -14 r \$1-armVel;
#X obj 1081 932 change -1;
#X obj 1086 1350 *~ 0.2;
#X obj 1217 965 / 4;
#X obj 1217 892 + 100;
#X obj 1217 868 * 420;
#X obj 592 -15 + 30;
#X obj 641 -15 + 40;
#X msg 423 723 1 0.8 0.9;
#X obj 1201 743 * 6;
#X msg 1345 312 1 \$1;
#X obj 1345 336 -;
#X obj 294 465 * 6;
#X floatatom 1356 981 5 0 0 0 - - - 0;
#X obj 1193 1042 else/rand.u 28;
#X obj 1575 272 r \$1-armSeparation;
#X obj 143 851 *~ 3;
#X msg 976 234 60000 \$1;
#X obj 976 258 /;
#X obj 1045 75 r \$0-velocidad-s;
#X obj 1045 99 / 127;
#X obj 1035 167 + 30;
#X obj 1446 742 * 0.5;
#X obj 1447 671 * 2;
#X msg 637 352 1 \$1;
#X obj 637 376 -;
#X obj 1045 122 * 600;
#X obj 1252 17 else/rescale 0 0.05 0 127;
#X obj 1160 995 else/chance 80;
#X obj 677 898 *~ 0.2;
#X obj 992 899 /~ 10;
#X obj 1194 1374 *~ 1;
#X obj 1512 1105 r \$1-armVel;
#X obj 1512 1160;
#X obj 1512 1136 else/rescale 0 0.05 0 12;
#X connect 2 0 23 0;
#X connect 3 0 29 0;
#X connect 5 0 87 0;
#X connect 6 0 144 0;
#X connect 7 0 8 0;
#X connect 7 1 11 0;
#X connect 8 0 9 0;
#X connect 9 0 10 0;
#X connect 10 0 54 0;
#X connect 11 0 12 0;
#X connect 12 0 10 1;
#X connect 13 0 14 0;
#X connect 14 0 107 0;
#X connect 15 0 16 0;
#X connect 16 0 132 0;
#X connect 17 0 78 0;
#X connect 18 0 19 0;
#X connect 19 0 20 0;
#X connect 20 0 38 0;
#X connect 21 0 174 0;
#X connect 22 0 143 1;
#X connect 22 1 143 2;
#X connect 22 2 143 3;
#X connect 23 0 0 0;
#X connect 25 0 26 0;
#X connect 26 0 27 0;
#X connect 27 0 28 0;
#X connect 29 0 196 0;
#X connect 30 0 31 0;
#X connect 30 0 49 0;
#X connect 31 0 33 0;
#X connect 32 0 88 0;
#X connect 33 0 32 0;
#X connect 33 1 47 0;
#X connect 34 0 55 0;
#X connect 34 1 58 0;
#X connect 35 0 3 0;
#X connect 35 1 3 1;
#X connect 35 2 3 2;
#X connect 36 0 61 0;
#X connect 37 0 182 0;
#X connect 38 0 15 0;
#X connect 39 0 40 0;
#X connect 39 1 43 0;
#X connect 40 0 41 0;
#X connect 41 0 42 0;
#X connect 42 0 46 0;
#X connect 43 0 44 0;
#X connect 44 0 42 1;
#X connect 45 0 56 0;
#X connect 45 1 60 0;
#X connect 46 0 51 0;
#X connect 46 1 51 1;
#X connect 47 0 88 0;
#X connect 48 0 49 0;
#X connect 49 0 45 0;
#X connect 49 1 48 0;
#X connect 50 0 37 0;
#X connect 50 0 63 0;
#X connect 51 0 52 0;
#X connect 51 1 52 1;
#X connect 52 0 53 0;
#X connect 53 0 62 0;
#X connect 54 0 35 0;
#X connect 54 1 35 1;
#X connect 55 0 7 0;
#X connect 56 0 39 0;
#X connect 57 0 54 1;
#X connect 58 0 57 0;
#X connect 59 0 46 1;
#X connect 60 0 59 0;
#X connect 61 0 4 0;
#X connect 62 0 64 0;
#X connect 62 0 195 0;
#X connect 63 0 143 0;
#X connect 64 0 143 0;
#X connect 65 0 79 0;
#X connect 67 0 68 0;
#X connect 68 0 69 0;
#X connect 69 0 70 0;
#X connect 70 0 71 0;
#X connect 71 0 72 0;
#X connect 72 0 55 1;
#X connect 72 0 56 1;
#X connect 72 0 136 0;
#X connect 73 0 74 0;
#X connect 74 0 105 0;
#X connect 76 0 100 0;
#X connect 77 0 99 0;
#X connect 79 0 80 0;
#X connect 80 0 81 0;
#X connect 81 0 82 0;
#X connect 83 0 178 0;
#X connect 84 0 85 0;
#X connect 85 0 104 0;
#X connect 86 0 87 1;
#X connect 87 0 50 0;
#X connect 88 0 34 0;
#X connect 89 0 176 0;
#X connect 90 0 91 0;
#X connect 91 0 92 0;
#X connect 92 0 93 0;
#X connect 93 0 88 1;
#X connect 94 0 190 0;
#X connect 95 0 96 0;
#X connect 96 0 97 0;
#X connect 97 0 98 0;
#X connect 98 0 49 1;
#X connect 99 0 175 0;
#X connect 100 0 133 0;
#X connect 101 0 189 0;
#X connect 102 0 103 0;
#X connect 103 0 188 0;
#X connect 104 0 86 0;
#X connect 105 0 172 0;
#X connect 105 0 173 0;
#X connect 106 0 30 0;
#X connect 107 0 106 0;
#X connect 107 0 108 0;
#X connect 108 0 109 0;
#X connect 109 0 49 0;
#X connect 110 0 111 0;
#X connect 110 1 114 0;
#X connect 111 0 112 0;
#X connect 112 0 113 0;
#X connect 113 0 117 0;
#X connect 114 0 115 0;
#X connect 115 0 113 1;
#X connect 116 0 122 0;
#X connect 116 1 124 0;
#X connect 117 0 119 0;
#X connect 117 1 119 1;
#X connect 118 0 180 0;
#X connect 119 0 120 0;
#X connect 119 1 120 1;
#X connect 120 0 121 0;
#X connect 121 0 125 0;
#X connect 122 0 110 0;
#X connect 123 0 117 1;
#X connect 124 0 123 0;
#X connect 125 0 168 0;
#X connect 125 0 197 0;
#X connect 126 0 137 0;
#X connect 127 0 128 0;
#X connect 128 0 129 0;
#X connect 129 0 130 0;
#X connect 130 0 131 0;
#X connect 131 0 179 0;
#X connect 132 0 17 0;
#X connect 133 0 46 2;
#X connect 134 0 135 0;
#X connect 135 0 138 0;
#X connect 135 0 139 0;
#X connect 135 0 171 0;
#X connect 136 0 122 1;
#X connect 137 0 117 2;
#X connect 139 0 167 0;
#X connect 140 0 194 0;
#X connect 141 0 142 0;
#X connect 142 0 169 0;
#X connect 143 0 182 0;
#X connect 143 1 182 0;
#X connect 146 0 157 0;
#X connect 147 0 148 0;
#X connect 147 1 150 0;
#X connect 147 1 145 0;
#X connect 148 0 149 0;
#X connect 149 0 145 0;
#X connect 150 0 148 0;
#X connect 151 0 156 0;
#X connect 152 0 153 0;
#X connect 152 1 155 0;
#X connect 152 1 13 0;
#X connect 153 0 154 0;
#X connect 154 0 13 0;
#X connect 155 0 153 0;
#X connect 156 0 152 0;
#X connect 157 0 147 0;
#X connect 158 0 164 0;
#X connect 159 0 160 0;
#X connect 160 0 161 0;
#X connect 161 0 165 1;
#X connect 162 0 159 0;
#X connect 163 0 162 0;
#X connect 164 0 163 0;
#X connect 165 0 6 0;
#X connect 166 0 193 0;
#X connect 167 0 140 0;
#X connect 168 0 143 0;
#X connect 169 0 140 1;
#X connect 170 0 141 0;
#X connect 171 0 170 0;
#X connect 172 0 38 1;
#X connect 173 0 38 2;
#X connect 174 0 22 0;
#X connect 175 0 54 2;
#X connect 176 0 177 0;
#X connect 177 0 90 0;
#X connect 178 0 84 0;
#X connect 180 0 116 0;
#X connect 180 1 118 0;
#X connect 181 0 65 0;
#X connect 182 0 165 0;
#X connect 183 0 184 0;
#X connect 184 0 75 0;
#X connect 184 0 14 1;
#X connect 185 0 186 0;
#X connect 186 0 192 0;
#X connect 187 0 183 0;
#X connect 188 0 99 1;
#X connect 188 0 100 1;
#X connect 189 0 102 0;
#X connect 190 0 191 0;
#X connect 191 0 95 0;
#X connect 192 0 187 0;
#X connect 193 0 66 0;
#X connect 194 0 180 0;
#X connect 195 0 36 0;
#X connect 196 0 36 0;
#X connect 197 0 36 0;
#X connect 198 0 200 0;
#X connect 200 0 199 0;
