#N canvas 0 22 1280 955 12;
#X obj 861 701 switch~;
#X obj 27 362 mtof~;
#X obj 382 155 pow 2;
#X obj 333 512 *~;
#X obj 471 99 loadbang;
#X obj 471 123 t b b;
#X obj 504 152 f \$0;
#X msg 504 176 seed \$1;
#X obj 471 205 random 101;
#X obj 471 229 / 100;
#X obj 471 277 + 2;
#X obj 471 301 osc~;
#X obj 471 325 *~ 0.1;
#X obj 471 253 * 5;
#X obj 382 179 * 0.5;
#X obj 382 203 + 0.5;
#X msg 382 227 \$1 20;
#X obj 382 251 line~;
#X obj 641 615 *~;
#X obj 333 560 else/lowpass~ 500 0.4;
#X obj 540 530 / 127;
#X text 540 486 GUI:engagement;
#X obj 540 564 else/f2s~ 8;
#X obj 522 593 *~;
#X obj 437 373 loadbang;
#X msg 437 397 1;
#X obj 437 421 metro 100;
#X obj 437 445 else/rand.f 0 1;
#X msg 437 469 \$1 100;
#X obj 437 493 line~;
#X obj 332 536 *~ 0.5;
#X obj 540 506 r \$1-engagement-s;
#X obj 611 683 throw~ \$1-mono;
#X obj 723 674 throw~ \$1-reverb;
#X obj 251 67 r \$1-arm\$2Y;
#X obj 27 26 r \$1-arm\$2X;
#X obj 861 653 r \$1-emotion-s;
#X obj 251 91 clip 0 1;
#X obj 27 50 clip 0 1;
#X obj 731 357 r \$1-arm\$2Vel;
#X obj 731 463 line~;
#X obj 731 540 clip~ 0 1;
#X obj 731 381 change -1;
#X obj 731 405 select 0;
#X msg 731 429 0 200;
#X obj 731 516 *~ 50;
#X msg 784 432 \$1 80;
#X obj 731 487 lop~ 25;
#X obj 27 74 * 60;
#X obj 27 98 + 30;
#X msg 27 122 \$1 20;
#X obj 27 146 line~;
#X obj 719 643 *~ 0.2;
#X obj 611 660 *~ 0.7;
#X obj 27 386 else/bl.saw~;
#X obj 861 677 == 4;
#X connect 1 0 54 0;
#X connect 2 0 14 0;
#X connect 3 0 30 0;
#X connect 4 0 5 0;
#X connect 5 0 8 0;
#X connect 5 1 6 0;
#X connect 6 0 7 0;
#X connect 7 0 8 0;
#X connect 8 0 9 0;
#X connect 9 0 13 0;
#X connect 10 0 11 0;
#X connect 11 0 12 0;
#X connect 12 0 1 0;
#X connect 13 0 10 0;
#X connect 14 0 15 0;
#X connect 15 0 16 0;
#X connect 16 0 17 0;
#X connect 17 0 3 1;
#X connect 18 0 52 0;
#X connect 18 0 53 0;
#X connect 19 0 23 0;
#X connect 20 0 22 0;
#X connect 22 0 23 1;
#X connect 23 0 18 0;
#X connect 24 0 25 0;
#X connect 25 0 26 0;
#X connect 26 0 27 0;
#X connect 27 0 28 0;
#X connect 28 0 29 0;
#X connect 29 0 3 1;
#X connect 30 0 19 0;
#X connect 31 0 20 0;
#X connect 34 0 37 0;
#X connect 35 0 38 0;
#X connect 36 0 55 0;
#X connect 37 0 2 0;
#X connect 38 0 48 0;
#X connect 39 0 42 0;
#X connect 40 0 47 0;
#X connect 41 0 18 1;
#X connect 42 0 43 0;
#X connect 43 0 44 0;
#X connect 43 1 46 0;
#X connect 44 0 40 0;
#X connect 45 0 41 0;
#X connect 46 0 40 0;
#X connect 47 0 45 0;
#X connect 48 0 49 0;
#X connect 49 0 50 0;
#X connect 50 0 51 0;
#X connect 51 0 1 0;
#X connect 52 0 33 0;
#X connect 53 0 32 0;
#X connect 54 0 3 0;
#X connect 55 0 0 0;
