#N canvas 0 22 958 579 12;
#X obj 345 479 *~;
#X obj 40 147 * 2;
#X obj 40 171 - 1;
#X obj 40 195 * 3;
#X obj 40 224 else/f2s~ 100;
#X obj 170 224 else/f2s~ 100;
#X obj 170 171 + 20;
#X obj 170 195 mtof;
#X obj 170 147 * 80;
#X obj 644 540 switch~;
#X obj 289 400 / 127;
#X text 289 356 GUI:engagement;
#X obj 289 424 else/f2s~ 8;
#X obj 271 453 *~;
#X obj 40 273 clone -s 1 randomPitches 30;
#X obj 31 421 *~ 0.1;
#X obj 34 360 else/drive~ 10;
#X obj 40 298 else/highpass~ 50 0.4;
#X obj 316 117 noise~;
#X obj 316 165 *~ 1;
#X obj 316 141 else/power~ 10;
#X obj 644 492 r \$1-emotion-s;
#X obj 644 516 == 2;
#X obj 475 552 throw~ \$1-mono;
#X obj 345 552 throw~ \$1-reverb;
#X obj 170 99 r \$1-arm\$2Y;
#X obj 40 99 r \$1-arm\$2X;
#X obj 289 376 r \$1-engagement-s;
#X obj 472 267 r \$1-arm\$2Vel;
#X obj 472 373 line~;
#X obj 472 450 clip~ 0 1;
#X obj 472 291 change -1;
#X obj 472 315 select 0;
#X msg 472 339 0 200;
#X obj 472 426 *~ 50;
#X msg 525 342 \$1 80;
#X obj 472 397 lop~ 25;
#X obj 31 392 else/lowpass~ 2000 0.4;
#X obj 475 523 *~ 0.25;
#X obj 345 523 *~ 0.5;
#X connect 0 0 38 0;
#X connect 0 0 39 0;
#X connect 1 0 2 0;
#X connect 2 0 3 0;
#X connect 3 0 4 0;
#X connect 4 0 14 0;
#X connect 6 0 7 0;
#X connect 7 0 5 0;
#X connect 8 0 6 0;
#X connect 10 0 12 0;
#X connect 12 0 13 1;
#X connect 13 0 0 0;
#X connect 14 0 17 0;
#X connect 15 0 13 0;
#X connect 16 0 37 0;
#X connect 17 0 16 0;
#X connect 18 0 20 0;
#X connect 19 0 17 0;
#X connect 20 0 19 0;
#X connect 21 0 22 0;
#X connect 22 0 9 0;
#X connect 25 0 8 0;
#X connect 26 0 1 0;
#X connect 27 0 10 0;
#X connect 28 0 31 0;
#X connect 29 0 36 0;
#X connect 30 0 0 1;
#X connect 31 0 32 0;
#X connect 32 0 33 0;
#X connect 32 1 35 0;
#X connect 33 0 29 0;
#X connect 34 0 30 0;
#X connect 35 0 29 0;
#X connect 36 0 34 0;
#X connect 37 0 15 0;
#X connect 38 0 23 0;
#X connect 39 0 24 0;
