#N canvas 0 61 1920 997 12;
#X obj 376 564 line~;
#X obj 400 671 mtof~;
#X obj 478 887 *~;
#X obj 643 697 loadbang;
#X msg 643 721 1;
#X obj 643 745 metro 400;
#X msg 643 793 \$1 400;
#X obj 643 817 line~;
#X obj 643 841 osc~;
#X obj 643 865 +~ 1;
#X obj 560 878 sig~ 2;
#X obj 560 902 pow~;
#X obj 479 936 *~;
#X obj 643 769 else/rand.f 2 4;
#N canvas 89 119 450 614 polyblep 0;
#X obj 195 67 *~;
#X obj 39 384 +~;
#N canvas 1329 474 147 163 1/Fs 0;
#X obj 12 54 samplerate~;
#X obj 12 12 loadbang;
#X msg 12 75 1 \$1;
#X obj 12 96 /;
#X msg 12 33 bang;
#X obj 12 117 outlet;
#X connect 0 0 2 0;
#X connect 1 0 4 0;
#X connect 2 0 3 0;
#X connect 3 0 5 0;
#X connect 4 0 0 0;
#X restore 210 41 pd 1/Fs;
#X obj 39 426 outlet~;
#X obj 39 405 *~ -1;
#X obj 12 31 inlet~;
#N canvas 1008 608 416 294 polyblep 0;
#X obj 167 225 -~;
#X obj 230 127 -~;
#X obj 230 12 sig~ 1;
#X obj 177 74 /~;
#X obj 167 252 outlet~;
#X obj 12 173 *~;
#X obj 162 173 *~;
#X obj 12 90 *~;
#X obj 162 147 -~;
#X obj 47 54 inlet~;
#X text 47 34 (I1) Phase;
#X obj 12 147 -~ 1;
#X obj 177 120 -~ 1;
#X text 245 38 (I2) Normalised Frequency;
#X obj 32 199 *~;
#X obj 182 199 *~;
#N canvas 1389 528 164 179 >=~ 0;
#X obj 47 64 -~;
#X obj 47 85 clip~ -1e-37 0;
#X obj 12 12 inlet~;
#X obj 62 12 inlet~;
#X obj 47 148 outlet~;
#X obj 47 127 *~ 1e+37;
#X obj 12 38 min~;
#X obj 47 106 +~ 1e-37;
#X connect 0 0 1 0;
#X connect 1 0 7 0;
#X connect 2 0 6 0;
#X connect 3 0 6 1;
#X connect 3 0 0 1;
#X connect 5 0 4 0;
#X connect 6 0 0 0;
#X connect 7 0 5 0;
#X restore 197 153 pd >=~;
#N canvas 1221 655 166 185 <=~ 0;
#X obj 41 60 -~;
#X obj 41 81 clip~ -1e-37 0;
#X obj 12 12 inlet~;
#X obj 62 12 inlet~;
#X obj 41 144 outlet~;
#X obj 41 123 *~ 1e+37;
#X obj 41 38 min~;
#X obj 41 102 +~ 1e-37;
#X connect 0 0 1 0;
#X connect 1 0 7 0;
#X connect 2 0 6 0;
#X connect 2 0 0 1;
#X connect 3 0 6 1;
#X connect 5 0 4 0;
#X connect 6 0 0 0;
#X connect 7 0 5 0;
#X restore 47 173 pd <=~;
#X obj 245 58 inlet~;
#X connect 0 0 4 0;
#X connect 1 0 16 1;
#X connect 2 0 3 0;
#X connect 2 0 1 0;
#X connect 3 0 7 1;
#X connect 3 0 12 0;
#X connect 5 0 14 0;
#X connect 6 0 15 0;
#X connect 7 0 8 0;
#X connect 7 0 11 0;
#X connect 8 0 6 0;
#X connect 8 0 6 1;
#X connect 9 0 7 0;
#X connect 9 0 17 0;
#X connect 9 0 16 0;
#X connect 11 0 5 0;
#X connect 11 0 5 1;
#X connect 12 0 8 1;
#X connect 14 0 0 0;
#X connect 15 0 0 1;
#X connect 16 0 15 1;
#X connect 17 0 14 1;
#X connect 18 0 1 1;
#X connect 18 0 3 1;
#X connect 18 0 17 1;
#X restore 159 368 pd polyblep;
#X obj 111 31 inlet;
#X text 111 11 (I2) Phase;
#X text 12 11 (I1) Frequency;
#X text 89 426 (O1) Sawtooth;
#X obj 6 143 phasor~;
#X obj 35 191 min~ 1;
#X obj 33 276 wrap~;
#X obj 33 252 -~ 0.5;
#X obj 31 318 *~ 2;
#X obj 31 342 -~ 1;
#X obj 35 215 *~ 1;
#X obj 100 133 /~;
#X obj 35 166 *~;
#X obj 100 109 sig~ 880;
#X obj 100 157 max~ 1;
#X connect 0 0 6 1;
#X connect 1 0 4 0;
#X connect 2 0 0 1;
#X connect 4 0 3 0;
#X connect 5 0 0 0;
#X connect 5 0 18 1;
#X connect 5 0 11 0;
#X connect 6 0 1 1;
#X connect 11 0 19 0;
#X connect 12 0 17 0;
#X connect 13 0 15 0;
#X connect 13 0 6 0;
#X connect 14 0 13 0;
#X connect 15 0 16 0;
#X connect 16 0 1 0;
#X connect 17 0 14 0;
#X connect 18 0 21 0;
#X connect 19 0 12 0;
#X connect 20 0 18 0;
#X connect 21 0 19 1;
#X restore 111 606 pd polyblep;
#X obj 287 402 sig~;
#X obj 286 509 mtof~;
#X obj 111 194 loadbang;
#X msg 111 218 1;
#X obj 111 242 metro 400;
#X msg 111 290 \$1 400;
#X obj 111 314 line~;
#X obj 111 338 osc~;
#X obj 499 780 line~;
#X obj 490 695 sel 0 1;
#X obj 293 480 -~ 1;
#X obj 344 455 line~;
#X obj 300 312 inlet;
#X obj 300 336 unpack f f;
#X obj 488 990 outlet~;
#X msg 486 721 0 500;
#X msg 538 719 1 10;
#X obj 376 486 sel 0 1;
#X msg 377 522 0 250;
#X obj 602 441 > 0, f 4;
#X obj 376 625 *~ 48;
#X obj 343 403 sel 1;
#X msg 344 428 0 \, 1 20;
#X obj 376 588 *~;
#X obj 111 266 else/rand.f 4 6;
#X obj 111 362 *~ 0.1;
#X obj 643 889 *~ -0.2;
#X obj 278 869 else/eq~ 1500 0.2 9;
#X obj 310 707 else/lowpass~ 1000 0.4;
#X obj 310 731 else/lowpass~ 1000 0.4;
#X msg 437 541 1 50;
#X obj 479 960 hip~ 500;
#X obj 284 831 hip~ 10;
#X obj 315 770 else/lowpass~ 4000 0.4;
#X obj 249 590 sig~ 39;
#X connect 0 0 38 0;
#X connect 0 0 38 1;
#X connect 1 0 43 1;
#X connect 1 0 44 1;
#X connect 2 0 12 0;
#X connect 3 0 4 0;
#X connect 4 0 5 0;
#X connect 5 0 13 0;
#X connect 6 0 7 0;
#X connect 7 0 8 0;
#X connect 8 0 9 0;
#X connect 9 0 41 0;
#X connect 10 0 11 0;
#X connect 11 0 12 1;
#X connect 12 0 46 0;
#X connect 13 0 6 0;
#X connect 14 0 43 0;
#X connect 15 0 25 0;
#X connect 16 0 14 0;
#X connect 17 0 18 0;
#X connect 18 0 19 0;
#X connect 19 0 39 0;
#X connect 20 0 21 0;
#X connect 21 0 22 0;
#X connect 22 0 40 0;
#X connect 23 0 2 1;
#X connect 24 0 30 0;
#X connect 24 1 31 0;
#X connect 25 0 16 0;
#X connect 26 0 25 0;
#X connect 27 0 28 0;
#X connect 28 0 15 0;
#X connect 28 1 34 0;
#X connect 30 0 23 0;
#X connect 31 0 23 0;
#X connect 32 0 33 0;
#X connect 32 1 45 0;
#X connect 33 0 0 0;
#X connect 34 0 24 0;
#X connect 34 0 32 0;
#X connect 34 0 36 0;
#X connect 35 0 1 0;
#X connect 36 0 37 0;
#X connect 37 0 26 0;
#X connect 38 0 35 0;
#X connect 39 0 20 0;
#X connect 40 0 25 0;
#X connect 41 0 11 1;
#X connect 42 0 2 0;
#X connect 43 0 44 0;
#X connect 44 0 48 0;
#X connect 45 0 0 0;
#X connect 46 0 29 0;
#X connect 47 0 42 0;
#X connect 48 0 47 0;
#X connect 49 0 1 0;
