#N canvas 242 233 1153 612 12;
#X obj 231 117 inlet;
#X obj 231 151 unpack f f;
#X obj 192 185 sig~;
#X obj 192 239 mtof~;
#X obj 262 377 *~;
#X obj 298 199 / 127;
#X obj 298 223 sel 0;
#X obj 340 260 sqrt;
#X msg 340 294 \$1 20;
#X msg 298 294 0 20;
#X obj 328 338 line~;
#X obj 262 421 outlet~;
#X obj 96 205 *~ 0.5;
#X obj 66 301 phasor~;
#X obj 27 370 -~ 0.25;
#X obj 27 394 cos~;
#X obj 102 375 -~ 0.25;
#X obj 102 399 cos~;
#X obj 117 342 *~ 3;
#X obj 95 171 osc~ 7;
#X obj 102 423 *~ 0.1;
#X connect 0 0 1 0;
#X connect 1 0 2 0;
#X connect 1 1 5 0;
#X connect 2 0 3 0;
#X connect 3 0 13 0;
#X connect 4 0 11 0;
#X connect 5 0 6 0;
#X connect 6 0 9 0;
#X connect 6 1 7 0;
#X connect 7 0 8 0;
#X connect 8 0 10 0;
#X connect 9 0 10 0;
#X connect 10 0 4 1;
#X connect 12 0 3 0;
#X connect 13 0 14 0;
#X connect 13 0 18 0;
#X connect 14 0 15 0;
#X connect 15 0 4 0;
#X connect 16 0 17 0;
#X connect 17 0 20 0;
#X connect 18 0 16 0;
#X connect 19 0 12 0;
#X connect 20 0 4 0;
