#N struct 1008-point float x0 float y0 float xs float ys float fg float in float gridx float gridy;
#N canvas 156 22 1584 968 12;
#X obj 159 120 tgl 19 0 empty empty empty 0 -10 0 12 #00ff04 #000000 #000000 0 1;
#X obj 159 144 metro 40;
#X obj 159 251 text get \$0-armData;
#X obj 325 85 text define \$0-armData;
#X msg 325 61 read ./arm-data-1.txt;
#X obj 159 168 t b b;
#X obj 159 275 list trim;
#X obj 425 338 route armRightX armRightY;
#X obj 425 377 pack f f;
#X obj 1137 183 r \$0-armRightXY-s;
#X obj 1123 252 unpack f f;
#X obj 1257 816 *~;
#X obj 1332 761 osc~ 440;
#X obj 425 493 s \$0-armRightXY-s;
#X obj 1123 365 pow 2;
#X obj 1190 365 pow 2;
#X obj 1153 394 +;
#X obj 1153 418 sqrt;
#X obj 1123 282 t f f;
#X obj 1103 213 list;
#X obj 1123 331 -;
#X obj 1190 331 -;
#X obj 1190 282 t f f;
#X obj 425 406 unpack f f;
#X obj 1332 610 r \$0-armRightXY-s;
#X obj 1332 732 mtof~;
#X obj 425 435 lop 1 250;
#X obj 515 435 lop 1 250;
#X obj 425 464 pack f f;
#X obj 1153 442 max 0;
#X obj 1103 156 metro 40;
#X obj 325 32 loadbang;
#X obj 1103 103 loadbang;
#X msg 1103 127 1;
#X text 395 280 else/slider2d -size 100 -grid 1 -range 0 1;
#X obj 1257 886 dac~ 2;
#X obj 95 377 pack f f;
#X obj 95 406 unpack f f;
#X obj 95 435 lop 1 250;
#X obj 185 435 lop 1 250;
#X obj 95 464 pack f f;
#X obj 95 338 route armLeftX armLeftY;
#X obj 96 493 s \$0-armLeftXY-s;
#X obj 1332 658 line~;
#X obj 1332 682 *~ 60;
#X obj 1332 706 +~ 30;
#X text 1188 417 <- overall velocity;
#X text 1217 330 <- velocity on x and y;
#X obj 793 252 unpack f f;
#X obj 927 816 *~;
#X obj 1002 761 osc~ 440;
#X obj 793 365 pow 2;
#X obj 860 365 pow 2;
#X obj 823 394 +;
#X obj 823 418 sqrt;
#X obj 793 282 t f f;
#X obj 773 213 list;
#X obj 793 331 -;
#X obj 860 331 -;
#X obj 860 282 t f f;
#X obj 1002 732 mtof~;
#X obj 823 600 line~;
#X obj 823 442 max 0;
#X obj 773 156 metro 40;
#X obj 773 103 loadbang;
#X msg 773 127 1;
#X obj 823 523 change -1;
#X obj 823 547 tgl 19 0 empty empty empty 0 -10 0 12 #fcfcfc #000000 #000000 0 1;
#X msg 1002 634 \$2 40;
#X obj 1002 658 line~;
#X obj 1002 682 *~ 60;
#X obj 1002 706 +~ 30;
#X msg 823 576 \$1 1;
#X floatatom 843 466 5 0 0 0 - - - 0;
#X text 858 417 <- overall velocity;
#X text 887 330 <- velocity on x and y;
#X text 885 494 <-threshold;
#X obj 807 183 r \$0-armLeftXY-s;
#X obj 927 886 dac~ 1;
#X obj 1002 610 r \$0-armLeftXY-s;
#X text 182 120 Play;
#X floatatom 189 221 5 0 0 0 - - - 0;
#X obj 823 499 > 0.001;
#X obj 549 701 hsl 162 19 0 1 0 0 empty empty empty -2 -10 0 12 #fcfcfc #000000 #000000 0 1;
#X obj 522 557 vsl 19 162 0 1 0 0 empty empty empty 0 -9 0 12 #fcfcfc #000000 #000000 0 1;
#X obj 313 704 hsl 162 19 0 1 0 0 empty empty empty -2 -10 0 12 #fcfcfc #000000 #000000 0 1;
#X obj 286 560 vsl 19 162 0 1 0 0 empty empty empty 0 -9 0 12 #fcfcfc #000000 #000000 0 1;
#X obj 1329 521 >= 8;
#X floatatom 1337 484 5 0 0 0 - - - 0;
#X floatatom 1329 545 5 0 0 0 - - - 0;
#X obj 598 579 else/slider2d 127 127 0 127 0 127 1 255 255 255 0 0 0 0 0 0 0 0 empty empty;
#X obj 1183 504 > 0.001;
#X msg 1332 634 \$1 40;
#X obj 1183 528 select 1 0;
#X obj 1219 563 t b b;
#X obj 1245 660 delay;
#X msg 1219 587 0;
#X obj 1150 587 t b b;
#X msg 1185 622 stop;
#X msg 1105 692 1;
#X msg 1245 684 0;
#X floatatom 1105 716 5 0 0 0 - - - 0;
#X msg 1152 630 500;
#X obj 769 700 select 1 0;
#X obj 758 752 t b b;
#X obj 829 734 t b b;
#X msg 883 772 stop;
#X obj 758 846 delay;
#X msg 758 870 1;
#X obj 818 846 delay;
#X msg 786 797 stop;
#X msg 811 872 0;
#X floatatom 758 894 5 0 0 0 - - - 0;
#X msg 703 796 500;
#X msg 758 776 0;
#X msg 855 779 0;
#X msg 814 762 160;
#X obj 159 197 else/count 1200 1500;
#X connect 0 0 1 0;
#X connect 1 0 5 0;
#X connect 2 0 6 0;
#X connect 4 0 3 0;
#X connect 5 0 117 0;
#X connect 5 1 117 0;
#X connect 6 0 7 0;
#X connect 6 0 41 0;
#X connect 7 0 8 0;
#X connect 7 1 8 1;
#X connect 8 0 23 0;
#X connect 9 0 19 1;
#X connect 10 0 18 0;
#X connect 10 1 22 0;
#X connect 11 0 35 0;
#X connect 12 0 11 1;
#X connect 14 0 16 0;
#X connect 15 0 16 1;
#X connect 16 0 17 0;
#X connect 17 0 29 0;
#X connect 18 0 20 1;
#X connect 18 1 20 0;
#X connect 19 0 10 0;
#X connect 20 0 14 0;
#X connect 21 0 15 0;
#X connect 22 0 21 1;
#X connect 22 1 21 0;
#X connect 23 0 26 0;
#X connect 23 0 84 0;
#X connect 23 1 27 0;
#X connect 23 1 83 0;
#X connect 24 0 92 0;
#X connect 25 0 12 0;
#X connect 26 0 28 0;
#X connect 27 0 28 1;
#X connect 28 0 13 0;
#X connect 28 0 90 0;
#X connect 29 0 91 0;
#X connect 30 0 19 0;
#X connect 31 0 4 0;
#X connect 32 0 33 0;
#X connect 33 0 30 0;
#X connect 36 0 37 0;
#X connect 37 0 38 0;
#X connect 37 0 86 0;
#X connect 37 1 39 0;
#X connect 37 1 85 0;
#X connect 38 0 40 0;
#X connect 39 0 40 1;
#X connect 40 0 42 0;
#X connect 41 0 36 0;
#X connect 41 1 36 1;
#X connect 43 0 44 0;
#X connect 44 0 45 0;
#X connect 45 0 25 0;
#X connect 48 0 55 0;
#X connect 48 1 59 0;
#X connect 49 0 78 0;
#X connect 50 0 49 1;
#X connect 51 0 53 0;
#X connect 52 0 53 1;
#X connect 53 0 54 0;
#X connect 54 0 62 0;
#X connect 55 0 57 1;
#X connect 55 1 57 0;
#X connect 56 0 48 0;
#X connect 57 0 51 0;
#X connect 58 0 52 0;
#X connect 59 0 58 1;
#X connect 59 1 58 0;
#X connect 60 0 50 0;
#X connect 62 0 73 0;
#X connect 62 0 82 0;
#X connect 63 0 56 0;
#X connect 64 0 65 0;
#X connect 65 0 63 0;
#X connect 66 0 67 0;
#X connect 67 0 72 0;
#X connect 68 0 69 0;
#X connect 69 0 70 0;
#X connect 70 0 71 0;
#X connect 71 0 60 0;
#X connect 72 0 61 0;
#X connect 77 0 56 1;
#X connect 79 0 68 0;
#X connect 82 0 66 0;
#X connect 87 0 89 0;
#X connect 88 0 87 0;
#X connect 91 0 93 0;
#X connect 91 0 103 0;
#X connect 92 0 43 0;
#X connect 93 0 97 0;
#X connect 93 1 94 0;
#X connect 94 0 96 0;
#X connect 94 1 95 0;
#X connect 95 0 100 0;
#X connect 96 0 95 1;
#X connect 97 0 99 0;
#X connect 97 0 102 0;
#X connect 97 1 98 0;
#X connect 98 0 95 0;
#X connect 99 0 101 0;
#X connect 100 0 101 0;
#X connect 102 0 95 1;
#X connect 103 0 104 0;
#X connect 103 1 105 0;
#X connect 104 0 113 0;
#X connect 104 0 114 0;
#X connect 104 1 107 0;
#X connect 104 1 110 0;
#X connect 105 0 116 0;
#X connect 105 0 115 0;
#X connect 105 1 106 0;
#X connect 105 1 109 0;
#X connect 106 0 107 0;
#X connect 107 0 108 0;
#X connect 108 0 112 0;
#X connect 109 0 111 0;
#X connect 110 0 109 0;
#X connect 111 0 112 0;
#X connect 112 0 11 0;
#X connect 113 0 109 1;
#X connect 114 0 107 1;
#X connect 115 0 109 1;
#X connect 116 0 107 1;
#X connect 117 0 2 0;
#X connect 117 0 81 0;
