#N canvas 946 0 960 988 12;
#X declare -path ./abs;
#X obj 17 12 cnv 15 320 40 empty empty Scene\ 2\ -\ Concepts 20 20 0 24 #000000 #ffffff 0;
#X obj 18 310 cnv 19 900 100 empty empty Selected\ Emotion 20 20 0 18 #c6feff #404040 0;
#X obj 16 61 cnv 15 340 240 empty empty Empatica\ E4\ &\ EEG\ Connection 12 20 0 18 #c7c6ff #404040 0;
#X obj 66 139 hsl 101 19 0 127 0 1 \$0-pressure-s \$0-pressure-r BVP -2 -10 0 12 #d8fcfc #000000 #000000 1291 1;
#X obj 66 179 hsl 101 19 0 127 0 1 \$0-temperature-s \$0-temperature-r temperature -2 -10 0 12 #d8fcfc #000000 #000000 9281 1;
#X obj 66 219 hsl 101 19 0 127 0 1 \$0-electricity-s \$0-electricity-r electricity -2 -10 0 12 #d8fcfc #000000 #000000 68 1;
#X obj 66 259 hsl 101 19 0 127 0 1 \$0-heartRate-s \$0-heartRate-r heartRate -2 -10 0 12 #d8fcfc #000000 #000000 3600 1;
#X obj 186 139 hsl 101 19 0 127 0 1 \$0-engagement-s \$0-engagement-r EEG:\ engagement -2 -10 0 12 #d8fcfc #000000 #000000 5000 1;
#X obj 718 60 cnv 15 220 240 empty empty Main 12 20 0 18 #feffc6 #404040 0;
#N canvas 0 22 450 278 (subpatch) 0;
#X array \$0-scope 4410 float 0;
#X coords 0 1 4409 -1 188 100 1 0 0;
#X restore 732 130 graph;
#X obj 739 267 hsl 101 19 0 1 0 1 \$0-volumen-s \$0-volumen-r Volumen -2 -10 0 12 #000000 #ffffff #000000 7000 1;
#X text 803 249 1;
#X text 834 249 2;
#X obj 17 417 cnv 19 900 435 empty empty OSC\ Communication\ Structure 20 20 0 18 #c6ffc7 #404040 0;
#X obj 34 634 oscparse;
#N canvas 72 22 1920 997 guts 0;
#X obj 186 412 catch~ \$0-left;
#X obj 176 520 dac~ 1;
#X obj 306 520 dac~ 2;
#X obj 316 412 catch~ \$0-right;
#X obj 176 299 catch~ \$0-mono;
#X obj 31 433 loadbang;
#X msg 30 457 1;
#X obj 30 481 metro 100;
#X obj 30 505 tabwrite~ \$0-scope;
#N canvas 68 96 839 701 pressure-y-electricity 0;
#X obj 308 264 *~ 0.2;
#X obj 308 182 else/resonant~ 61.73 500;
#X obj 333 211 else/resonant~ 184.9 37;
#X obj 333 235 *~ 0.3;
#X obj 253 413 else/drive~;
#X obj 386 274 r \$0-pressure-s;
#X obj 386 298 / 127;
#X obj 386 346 + 100;
#X obj 386 370 dbtorms;
#X obj 386 394 else/f2s~ 20;
#X obj 308 124 else/pink~;
#X obj 35 218 noise~;
#X obj 102 50 r \$0-electricity-s;
#X obj 102 74 / 127;
#X msg 102 98 1 \$1;
#X obj 102 122 -;
#X msg 102 194 10 \$1;
#X obj 102 218 pow;
#X obj 102 170 + 2;
#X obj 102 146 * 2;
#X obj 65 305 *~ 0.02;
#X obj 35 276 else/highpass~ 3000 0.7;
#X obj 253 384 +~;
#X text 440 333 <- de 0 a +24 dB de distorsion;
#X text 145 202 <- de 10k a 100;
#X text 102 30 GUI: electricity;
#X obj 35 513 throw~ \$0-reverb;
#X obj 35 489 *~ 0.15;
#X obj 308 153 else/power~ 3;
#X obj 35 247 else/power~ 100;
#X text 386 255 GUI: blood pressure;
#X obj 667 304 / 127;
#X text 667 260 GUI:engagement;
#X obj 667 280 r \$0-engagement-s;
#X msg 667 328 1 \$1;
#X obj 667 352 -;
#X msg 667 424 \$1 20;
#X obj 667 448 line~;
#X obj 277 485 *~;
#X obj 277 533 throw~ \$0-mono;
#X obj 667 401 + 0.5;
#X obj 667 376 * 0.2;
#X obj 278 510 *~ 0.4;
#X obj 386 322 * 12;
#X connect 0 0 22 1;
#X connect 1 0 0 0;
#X connect 2 0 3 0;
#X connect 3 0 0 0;
#X connect 4 0 38 0;
#X connect 5 0 6 0;
#X connect 6 0 43 0;
#X connect 7 0 8 0;
#X connect 8 0 9 0;
#X connect 9 0 4 1;
#X connect 10 0 28 0;
#X connect 11 0 29 0;
#X connect 12 0 13 0;
#X connect 13 0 14 0;
#X connect 14 0 15 0;
#X connect 15 0 19 0;
#X connect 16 0 17 0;
#X connect 17 0 29 1;
#X connect 18 0 16 0;
#X connect 19 0 18 0;
#X connect 20 0 22 0;
#X connect 21 0 20 0;
#X connect 22 0 4 0;
#X connect 27 0 26 0;
#X connect 28 0 1 0;
#X connect 28 0 2 0;
#X connect 29 0 21 0;
#X connect 31 0 34 0;
#X connect 33 0 31 0;
#X connect 34 0 35 0;
#X connect 35 0 41 0;
#X connect 36 0 37 0;
#X connect 37 0 38 1;
#X connect 38 0 42 0;
#X connect 40 0 36 0;
#X connect 41 0 40 0;
#X connect 42 0 39 0;
#X connect 43 0 7 0;
#X restore 1090 305 pd pressure-y-electricity;
#X obj 551 174 catch~ \$0-reverb;
#X obj 551 390 throw~ \$0-left;
#X obj 653 365 throw~ \$0-right;
#X obj 394 173 / 127;
#X obj 394 197 - 0.5;
#X obj 394 149 r \$0-temperature-s;
#X obj 394 221 * 2;
#X obj 394 245 t f f;
#X obj 295 219 clip -0.5 1;
#X obj 426 284 clip -1 0.5;
#X obj 176 328 else/lowshelf~ 1000 0.5;
#X obj 176 353 else/highshelf~ 3000 0.5;
#X text 394 129 GUI:temperature;
#X obj 306 486 else/drive~;
#X obj 176 486 else/drive~;
#X obj 294 267 else/f2s~ 100;
#X obj 426 334 else/f2s~ 100;
#N canvas 627 0 633 988 heartRate 0;
#X obj 396 2 r \$0-heartRate-s;
#X obj 396 26 / 127;
#X obj 396 50 * 40;
#X obj 396 74 + 60;
#X msg 396 98 60000 \$1;
#X obj 396 122 /;
#X obj 285 93 loadbang;
#X msg 285 117 1;
#X obj 285 141 metro;
#X obj 95 422 else/lowpass~;
#X obj 95 263 else/pink~;
#X obj 183 398 sig~ 0.4;
#X obj 436 151 v \$0-latidoMs;
#X obj 313 315 vline~;
#X obj 139 383 mtof~;
#X obj 156 461 else/drive~;
#X obj 295 490 *~;
#X obj 295 643 throw~ \$0-mono;
#X msg 252 252 1 1 \, 0 160 1;
#X obj 139 354 *~ 100;
#X obj 95 292 else/resonant~ 110 250;
#X obj 370 218 delay;
#X obj 402 186 / 4;
#X msg 32 227 clear;
#X msg 370 241 0.7 1 \, 0 160 1;
#X obj 313 426 sqrt~;
#X obj 422 643 throw~ \$0-reverb;
#X obj 422 619 *~ 0.1;
#X obj 295 619 *~ 0.2;
#X obj 443 411 / 127;
#X text 443 367 GUI:engagement;
#X obj 443 387 r \$0-engagement-s;
#X msg 443 435 1 \$1;
#X obj 443 459 -;
#X msg 443 531 \$1 20;
#X obj 443 555 line~;
#X obj 295 564 *~;
#X obj 443 507 + 0.5;
#X obj 443 483 * 0.25;
#X obj 295 514 *~ 0.4;
#X connect 0 0 1 0;
#X connect 1 0 2 0;
#X connect 2 0 3 0;
#X connect 3 0 4 0;
#X connect 4 0 5 0;
#X connect 5 0 8 1;
#X connect 5 0 12 0;
#X connect 5 0 22 0;
#X connect 6 0 7 0;
#X connect 7 0 8 0;
#X connect 8 0 18 0;
#X connect 8 0 23 0;
#X connect 8 0 21 0;
#X connect 9 0 15 0;
#X connect 10 0 20 0;
#X connect 11 0 9 2;
#X connect 13 0 19 0;
#X connect 13 0 25 0;
#X connect 14 0 9 1;
#X connect 15 0 16 0;
#X connect 16 0 39 0;
#X connect 18 0 13 0;
#X connect 19 0 14 0;
#X connect 20 0 9 0;
#X connect 21 0 24 0;
#X connect 22 0 21 1;
#X connect 23 0 9 0;
#X connect 23 0 20 0;
#X connect 24 0 13 0;
#X connect 25 0 16 1;
#X connect 27 0 26 0;
#X connect 28 0 17 0;
#X connect 29 0 32 0;
#X connect 31 0 29 0;
#X connect 32 0 33 0;
#X connect 33 0 38 0;
#X connect 34 0 35 0;
#X connect 35 0 36 1;
#X connect 36 0 28 0;
#X connect 36 0 27 0;
#X connect 37 0 34 0;
#X connect 38 0 37 0;
#X connect 39 0 36 0;
#X restore 1090 281 pd heartRate;
#N canvas 10 136 805 364 bioRand 0;
#X obj 418 263 line;
#X msg 418 239 \$1 20000;
#X obj 578 263 line;
#X msg 578 239 \$1 20000;
#X obj 278 263 line;
#X msg 278 239 \$1 20000;
#X obj 278 287 s \$0-temperature-r;
#X obj 418 287 s \$0-electricity-r;
#X obj 578 287 s \$0-heartRate-r;
#X obj 128 263 line;
#X msg 128 239 \$1 20000;
#X obj 128 287 s \$0-pressure-r;
#X obj 128 215 else/rand.i 0 127;
#X obj 278 215 else/rand.i 0 127;
#X obj 418 215 else/rand.i 0 127;
#X obj 578 215 else/rand.i 0 127;
#X obj 96 87 t f f;
#X msg 36 244 stop;
#X obj 128 116 metro 10000;
#X obj 96 63 r \$0-bioRand-s;
#X obj 37 134 sel 0;
#X connect 0 0 7 0;
#X connect 1 0 0 0;
#X connect 2 0 8 0;
#X connect 3 0 2 0;
#X connect 4 0 6 0;
#X connect 5 0 4 0;
#X connect 9 0 11 0;
#X connect 10 0 9 0;
#X connect 12 0 10 0;
#X connect 13 0 5 0;
#X connect 14 0 1 0;
#X connect 15 0 3 0;
#X connect 16 0 20 0;
#X connect 16 1 18 0;
#X connect 17 0 9 0;
#X connect 17 0 4 0;
#X connect 17 0 2 0;
#X connect 17 0 0 0;
#X connect 18 0 12 0;
#X connect 18 0 15 0;
#X connect 18 0 14 0;
#X connect 18 0 13 0;
#X connect 19 0 16 0;
#X connect 20 0 17 0;
#X restore 1110 410 pd bioRand;
#N canvas 367 141 450 300 comentarios 0;
#X text 31 29 Brazo izquierdo (mano \, codo \, hombro);
#X text 29 49 Brazo derecho (mano \, codo \, hombro);
#X text 33 136 Brazos (izq y der);
#X text 34 156 Codos (izq y der);
#X text 34 176 Hombros (izq y der);
#X text 34 116 Cabeza;
#X text 34 216 Rodillas (izq y der);
#X text 34 236 Pies (izq y der);
#X text 34 196 Caderas (izq y der);
#X text 23 86 Open pose: controla la base;
#X text 243 86 Biomeotricos: agregan matiz;
#X restore 1120 458 pd comentarios;
#N canvas 272 313 755 363 poseRand 0;
#X obj 254 209 line;
#X obj 107 209 line;
#X obj 127 238 pack f f;
#X obj 107 161 else/rand.i 0 127;
#X obj 254 161 else/rand.i 0 127;
#X obj 120 26 r \$0-poseRand-s;
#X obj 120 50 t f f;
#X obj 152 79 metro 2000;
#X msg 37 190 stop;
#X obj 564 209 line;
#X obj 417 209 line;
#X obj 437 238 pack f f;
#X obj 417 161 else/rand.i 0 127;
#X obj 564 161 else/rand.i 0 127;
#X obj 127 267 s \$0-armLeftXY-r;
#X obj 437 267 s \$0-armRightXY-r;
#X obj 37 94 sel 0;
#X msg 107 185 \$1 1000;
#X msg 254 185 \$1 1000;
#X msg 417 185 \$1 1000;
#X msg 564 185 \$1 1000;
#X obj 317 62 metro 1;
#X connect 0 0 2 1;
#X connect 1 0 2 0;
#X connect 2 0 14 0;
#X connect 3 0 17 0;
#X connect 4 0 18 0;
#X connect 5 0 6 0;
#X connect 6 0 16 0;
#X connect 6 1 7 0;
#X connect 6 1 21 0;
#X connect 7 0 3 0;
#X connect 7 0 13 0;
#X connect 7 0 12 0;
#X connect 7 0 4 0;
#X connect 8 0 1 0;
#X connect 8 0 0 0;
#X connect 8 0 10 0;
#X connect 8 0 9 0;
#X connect 9 0 11 1;
#X connect 10 0 11 0;
#X connect 11 0 15 0;
#X connect 12 0 19 0;
#X connect 13 0 20 0;
#X connect 16 0 8 0;
#X connect 17 0 1 0;
#X connect 18 0 0 0;
#X connect 19 0 10 0;
#X connect 20 0 9 0;
#X connect 21 0 2 0;
#X connect 21 0 11 0;
#X restore 1110 433 pd poseRand;
#X text 1110 390 Rand;
#X text 780 231 Sub patches –––––––––––––;
#X obj 176 454 *~;
#X obj 430 363 r \$0-volumen-s;
#X obj 430 387 pow 2;
#X obj 430 435 else/f2s~ 100;
#X obj 306 454 *~;
#X text 1090 261 Biometrics;
#X text 780 261 Mediapipe;
#N canvas 675 481 824 403 passionsButtons 0;
#X obj 109 129 r \$0-love-s;
#X obj 209 177 s \$0-passion;
#X obj 209 129 r \$0-hate-s;
#X obj 639 177 s \$0-passion;
#X obj 639 129 r \$0-sadness-s;
#X obj 539 177 s \$0-passion;
#X obj 309 177 s \$0-passion;
#X obj 409 177 s \$0-passion;
#X obj 539 129 r \$0-joy-s;
#X obj 309 129 r \$0-desire-s;
#X obj 409 129 r \$0-admiration-s;
#X obj 60 48 text define -k \$0-passionName;
#A set None \; Love \; Hate \; Desire \; Admiration \; Joy \; Sadness \;;
#X obj 312 262 r \$0-emotion-s;
#X obj 312 286 text get \$0-passionName;
#X msg 312 310 label Emotion:\$1;
#X obj 312 334 s \$0-emotion-r;
#X msg 109 153 1;
#X msg 209 153 2;
#X msg 309 153 3;
#X msg 409 153 4;
#X msg 539 153 5;
#X msg 639 153 6;
#X obj 109 177 s \$0-passion;
#X obj 192 232 s \$0-emotion-s;
#X obj 9 177 s \$0-passion;
#X obj 9 129 r \$0-none-s;
#X msg 9 153 0;
#X connect 0 0 16 0;
#X connect 2 0 17 0;
#X connect 4 0 21 0;
#X connect 8 0 20 0;
#X connect 9 0 18 0;
#X connect 10 0 19 0;
#X connect 12 0 13 0;
#X connect 13 0 14 0;
#X connect 14 0 15 0;
#X connect 16 0 22 0;
#X connect 16 0 23 0;
#X connect 17 0 1 0;
#X connect 17 0 23 0;
#X connect 18 0 6 0;
#X connect 18 0 23 0;
#X connect 19 0 7 0;
#X connect 19 0 23 0;
#X connect 20 0 5 0;
#X connect 20 0 23 0;
#X connect 21 0 3 0;
#X connect 21 0 23 0;
#X connect 25 0 26 0;
#X connect 26 0 24 0;
#X connect 26 0 23 0;
#X restore 563 467 pd passionsButtons;
#X obj 552 295 abs/re.plate~;
#X obj 584 216 loadbang;
#X obj 584 264 unpack f f f;
#X obj 687 126 / 127;
#X text 687 82 GUI:engagement;
#X obj 687 102 r \$0-engagement-s;
#X msg 687 174 \$1 20;
#X obj 687 198 line~;
#X obj 552 329 *~ 2;
#X obj 652 329 *~ 2;
#X obj 687 150 * 0.8;
#X msg 584 240 1 0.5 0.8;
#X obj 782 185 declare -path ./abs;
#X text 599 566 0 = Other \; 1 = Love \; 2 = Hate \; 3 = Desire \; 4 = Admiration \; 5 = Joy \; 6 = Sadness \;;
#X obj 911 352 _main-Love \$0;
#X obj 169 144 / 127;
#X text 170 100 GUI:engagement;
#X obj 169 216 else/f2s~ 8;
#X obj 151 245 *~;
#X obj 118 -57 catch~ \$0-emotionAudio;
#X obj 169 120 r \$0-engagement-s;
#X obj 911 382 _main-Hate \$0;
#X obj 911 502 _main-sadness \$0;
#X obj 911 442 _main-Admiration \$0;
#X obj 911 412 _main-Desire \$0;
#X obj 911 472 _main-Joy \$0;
#X obj 1314 294 netsend -u -b;
#X obj 1314 215 oscformat;
#X obj 1314 129 text get \$0-passionName;
#X obj 1314 105 r \$0-passion;
#X obj 1330 244 loadbang;
#X msg 1330 174 set /Selected Emotion/;
#X floatatom 1314 318 5 0 0 0 - - - 0;
#X msg 1330 268 connect 10.12.181.191 8000;
#X text 1273 77 OSC Selected emotion test!!! -------;
#X obj 116 68 else/plate.rev~;
#X obj 305 -15 loadbang;
#X obj 116 102 +~;
#X msg 305 10 pre 0 \, cutoff 0.1 \, damp 0.5 \, size 0.8;
#X obj 615 -26 == 5;
#X obj 615 -2 * -0.2;
#X obj 615 22 + 1;
#X msg 615 46 wet \$1;
#X obj 615 -50 r \$0-emotion-s;
#X obj 36 283 adc~ 1;
#X obj 36 307 env~;
#X obj 36 331 - 100;
#X obj 36 355 s \$0-vu;
#X obj 169 192 + 0.1;
#X obj 169 168 * 0.1;
#X obj 409 502 loadbang;
#X msg 409 526 dsp 1;
#X obj 409 550 s pd;
#X obj 430 411 * 8;
#X obj 22 -2 *~ 0.2;
#X obj 109 -1 hip~ 400;
#X obj 109 23 hip~ 200;
#X obj 1009 590 r \$0-fadeOut-s;
#X obj 867 583 r \$0-volumen-s;
#X obj 914 737 s \$0-volumen-r;
#X obj 954 643 f;
#X msg 949 680 \$1 \, 0 3000;
#X obj 949 704 line;
#X obj 294 243 * 3;
#X obj 426 310 * -3;
#X obj 118 -32 *~ 0.5;
#X obj 290 645 loadbang;
#X msg 290 669 0.7;
#X obj 290 693 s \$0-volumen-r;
#X connect 0 0 33 0;
#X connect 3 0 37 0;
#X connect 4 0 20 0;
#X connect 5 0 6 0;
#X connect 6 0 7 0;
#X connect 7 0 8 0;
#X connect 10 0 41 0;
#X connect 13 0 14 0;
#X connect 14 0 16 0;
#X connect 15 0 13 0;
#X connect 16 0 17 0;
#X connect 17 0 18 0;
#X connect 17 1 19 0;
#X connect 18 0 104 0;
#X connect 19 0 105 0;
#X connect 20 0 21 0;
#X connect 21 0 33 0;
#X connect 21 0 37 0;
#X connect 23 0 2 0;
#X connect 23 0 8 0;
#X connect 24 0 1 0;
#X connect 24 0 8 0;
#X connect 25 0 20 3;
#X connect 26 0 21 3;
#X connect 33 0 24 0;
#X connect 34 0 35 0;
#X connect 35 0 94 0;
#X connect 36 0 37 1;
#X connect 36 0 33 1;
#X connect 37 0 23 0;
#X connect 41 0 49 0;
#X connect 41 1 50 0;
#X connect 42 0 52 0;
#X connect 43 0 41 1;
#X connect 43 1 41 2;
#X connect 43 2 41 3;
#X connect 44 0 51 0;
#X connect 46 0 44 0;
#X connect 47 0 48 0;
#X connect 48 0 41 4;
#X connect 49 0 11 0;
#X connect 50 0 12 0;
#X connect 51 0 47 0;
#X connect 52 0 43 0;
#X connect 56 0 90 0;
#X connect 58 0 59 1;
#X connect 59 0 20 0;
#X connect 60 0 106 0;
#X connect 61 0 56 0;
#X connect 67 0 73 0;
#X connect 68 0 67 0;
#X connect 69 0 68 0;
#X connect 70 0 69 0;
#X connect 71 0 74 0;
#X connect 71 0 72 0;
#X connect 72 0 68 0;
#X connect 74 0 67 0;
#X connect 76 0 78 0;
#X connect 76 1 78 1;
#X connect 77 0 79 0;
#X connect 78 0 59 0;
#X connect 79 0 76 0;
#X connect 80 0 81 0;
#X connect 81 0 82 0;
#X connect 82 0 83 0;
#X connect 83 0 76 0;
#X connect 84 0 80 0;
#X connect 85 0 86 0;
#X connect 85 0 95 0;
#X connect 86 0 87 0;
#X connect 87 0 88 0;
#X connect 89 0 58 0;
#X connect 90 0 89 0;
#X connect 91 0 92 0;
#X connect 92 0 93 0;
#X connect 94 0 36 0;
#X connect 95 0 76 0;
#X connect 96 0 97 0;
#X connect 97 0 76 0;
#X connect 98 0 101 0;
#X connect 99 0 101 1;
#X connect 101 0 102 0;
#X connect 102 0 103 0;
#X connect 103 0 100 0;
#X connect 104 0 25 0;
#X connect 105 0 26 0;
#X connect 106 0 96 0;
#X connect 107 0 108 0;
#X connect 108 0 109 0;
#X restore 37 461 pd guts;
#X obj 34 838 list trim;
#X obj 34 862 send \$0-osc;
#X obj 512 492 r \$0-osc;
#X obj 512 636 s \$0-temperature-r;
#X text 512 468 OSC temperature;
#X obj 871 491 r \$0-osc;
#X obj 870 611 else/rescale -1 1 0 127;
#X obj 312 492 r \$0-osc;
#X obj 312 636 s \$0-pressure-r;
#X obj 682 492 r \$0-osc;
#X obj 682 636 s \$0-electricity-r;
#X text 682 468 OSC electricity;
#X obj 870 635 s \$0-heartRate-r;
#X obj 53 792 print OSC:;
#X obj 53 703 spigot;
#X obj 92 673 tgl 19 0 empty empty Print 22 11 0 12 #00ff04 #000000 #000000 0 1;
#X obj 312 516 route pressure;
#X obj 512 516 route temperature;
#X obj 682 516 route electricity;
#X obj 871 516 route heartRate;
#X text 312 460 OSC pressure(BVP);
#X text 871 467 OSC heartRate rescaled;
#X obj 63 98 tgl 19 0 \$0-bioRand-s \$0-bioRand-r bioRand 22 10 0 12 #c6ffc7 #000000 #000000 0 1;
#X obj 342 694 r \$0-osc;
#X obj 342 718 route engagement;
#X obj 342 843 s \$0-engagement-r;
#X obj 682 612 else/rescale -1 1 0 127;
#X obj 312 612 else/rescale -1 1 0 127;
#X obj 512 612 else/rescale -1 1 0 127;
#X obj 34 509 netreceive -u -b 5001;
#X obj 44 539 netreceive -u -b 6001;
#X obj 64 569 netreceive -u -b 7001;
#X obj 84 599 netreceive -u -b 9001;
#X obj 312 540 change -1;
#X msg 312 564 \$1 1000;
#X obj 312 588 line 0 1;
#X obj 512 540 change -1;
#X msg 512 564 \$1 1000;
#X obj 512 588 line 0 1;
#X obj 682 540 change -1;
#X msg 682 564 \$1 1000;
#X obj 682 588 line 0 1;
#X obj 871 540 change -1;
#X msg 871 564 \$1 1000;
#X obj 871 588 line 0 1;
#X obj 97 368 bng 19 250 50 0 \$0-love-s \$0-love-r Love -4 -10 0 12 #000000 #ff0400 #000000;
#X obj 137 368 bng 19 250 50 0 \$0-hate-s \$0-hate-r Hate -2 30 0 12 #000000 #ff0400 #000000;
#X obj 297 368 bng 19 250 50 0 \$0-sadness-s \$0-sadness-r Sadness -15 30 0 12 #000000 #ff0400 #000000;
#X obj 257 368 bng 19 250 50 0 \$0-joy-s \$0-joy-r Joy 0 -10 0 12 #000000 #ff0400 #000000;
#X obj 177 368 bng 19 250 50 0 \$0-desire-s \$0-desire-r Desire -10 -10 0 12 #000000 #ff0400 #000000;
#X obj 217 368 bng 19 250 50 0 \$0-admiration-s \$0-admiration-r Admiration -20 30 0 12 #000000 #ff0400 #000000;
#X text 157 740 Port \; 5001 = MediaPipe \; 6001 = Biometrics \; 7001 = Real Emotion \; 8000 = selected-emotion \; 9001 = Engagement \;;
#X msg 342 766 \$1 10000;
#X obj 342 790 line 0 1;
#X obj 342 814 clip 0 127;
#X obj 342 742 else/rescale -1 1 0 127;
#X obj 366 61 cnv 15 340 240 empty empty Microphone 12 20 0 18 #ffe3c6 #404040 0;
#X text 342 670 OSC Engagement;
#X obj 385 113 vu 19 120 \$0-vu empty -1 -10 0 12 #000000 #000000 1 0;
#X text 948 98 Archivo > Preferencias \; > Editar preferencias > Preferencias de audio;
#X text 948 148 Sistema de audio > standard (portaudio);
#X text 947 189 Entrada/Salida: Windows WASHAPI: 4-USB Audio CODEC;
#X text 948 58 Configuraciones de audio:;
#X text 947 169 Velocidad de muestro: 44.1 kHz;
#X obj 47 368 bng 19 250 50 0 \$0-none-s \$0-none-r None -4 -10 0 12 #ff0400 #000000 #000000;
#X obj 346 355 cnv 19 270 34 empty \$0-emotion-r Emotion:Hate 10 18 0 24 #000000 #ffffff 0;
#X text 947 209 Retardo (mseg): 27 (subir a 40 o 80 si causa ruido);
#X text 446 108 Presionar el boton "Direct Monitor" \; para escuchar el microfono.;
#X obj 862 269 bng 19 250 50 0 \$0-fadeOut-s empty fadeOut 0 -10 0 12 #ff0400 #000000 #000000;
#X connect 14 0 16 0;
#X connect 14 0 30 0;
#X connect 16 0 17 0;
#X connect 18 0 33 0;
#X connect 21 0 35 0;
#X connect 22 0 28 0;
#X connect 23 0 32 0;
#X connect 25 0 34 0;
#X connect 30 0 29 0;
#X connect 31 0 30 1;
#X connect 32 0 49 0;
#X connect 33 0 52 0;
#X connect 34 0 55 0;
#X connect 35 0 58 0;
#X connect 39 0 40 0;
#X connect 40 0 71 0;
#X connect 42 0 26 0;
#X connect 43 0 24 0;
#X connect 44 0 19 0;
#X connect 45 0 14 0;
#X connect 46 0 14 0;
#X connect 47 0 14 0;
#X connect 48 0 14 0;
#X connect 49 0 50 0;
#X connect 50 0 51 0;
#X connect 51 0 43 0;
#X connect 52 0 53 0;
#X connect 53 0 54 0;
#X connect 54 0 44 0;
#X connect 55 0 56 0;
#X connect 56 0 57 0;
#X connect 57 0 42 0;
#X connect 58 0 59 0;
#X connect 59 0 60 0;
#X connect 68 0 69 0;
#X connect 69 0 70 0;
#X connect 70 0 41 0;
#X connect 71 0 68 0;
